G04 #@! TF.FileFunction,Legend,Bot*
%FSLAX46Y46*%
G04 Gerber Fmt 4.6, Leading zero omitted, Abs format (unit mm)*
G04 Created by KiCad (PCBNEW 4.0.1-stable) date 7/15/2016 11:43:07 AM*
%MOMM*%
G01*
G04 APERTURE LIST*
%ADD10C,0.100000*%
%ADD11C,0.285750*%
%ADD12C,0.190500*%
%ADD13C,0.300000*%
%ADD14C,1.270000*%
%ADD15C,0.150000*%
%ADD16C,0.200000*%
%ADD17C,0.304800*%
%ADD18C,0.203200*%
%ADD19C,0.066040*%
%ADD20C,0.127000*%
%ADD21C,0.200660*%
%ADD22C,0.381000*%
%ADD23C,0.158800*%
G04 APERTURE END LIST*
D10*
D11*
X174035427Y-112377071D02*
X174416427Y-111832786D01*
X174688570Y-112377071D02*
X174688570Y-111234071D01*
X174253142Y-111234071D01*
X174144284Y-111288500D01*
X174089856Y-111342929D01*
X174035427Y-111451786D01*
X174035427Y-111615071D01*
X174089856Y-111723929D01*
X174144284Y-111778357D01*
X174253142Y-111832786D01*
X174688570Y-111832786D01*
X173110142Y-112322643D02*
X173218999Y-112377071D01*
X173436713Y-112377071D01*
X173545570Y-112322643D01*
X173599999Y-112213786D01*
X173599999Y-111778357D01*
X173545570Y-111669500D01*
X173436713Y-111615071D01*
X173218999Y-111615071D01*
X173110142Y-111669500D01*
X173055713Y-111778357D01*
X173055713Y-111887214D01*
X173599999Y-111996071D01*
X172674713Y-111615071D02*
X172402570Y-112377071D01*
X172130428Y-111615071D01*
X170225428Y-112377071D02*
X170878571Y-112377071D01*
X170551999Y-112377071D02*
X170551999Y-111234071D01*
X170660856Y-111397357D01*
X170769714Y-111506214D01*
X170878571Y-111560643D01*
X169735571Y-112268214D02*
X169681143Y-112322643D01*
X169735571Y-112377071D01*
X169790000Y-112322643D01*
X169735571Y-112268214D01*
X169735571Y-112377071D01*
X168973571Y-111234071D02*
X168864714Y-111234071D01*
X168755857Y-111288500D01*
X168701428Y-111342929D01*
X168646999Y-111451786D01*
X168592571Y-111669500D01*
X168592571Y-111941643D01*
X168646999Y-112159357D01*
X168701428Y-112268214D01*
X168755857Y-112322643D01*
X168864714Y-112377071D01*
X168973571Y-112377071D01*
X169082428Y-112322643D01*
X169136857Y-112268214D01*
X169191285Y-112159357D01*
X169245714Y-111941643D01*
X169245714Y-111669500D01*
X169191285Y-111451786D01*
X169136857Y-111342929D01*
X169082428Y-111288500D01*
X168973571Y-111234071D01*
X167231857Y-112377071D02*
X167231857Y-111234071D01*
X166796429Y-111234071D01*
X166687571Y-111288500D01*
X166633143Y-111342929D01*
X166578714Y-111451786D01*
X166578714Y-111615071D01*
X166633143Y-111723929D01*
X166687571Y-111778357D01*
X166796429Y-111832786D01*
X167231857Y-111832786D01*
X166088857Y-112377071D02*
X166088857Y-111615071D01*
X166088857Y-111832786D02*
X166034429Y-111723929D01*
X165980000Y-111669500D01*
X165871143Y-111615071D01*
X165762286Y-111615071D01*
X165218000Y-112377071D02*
X165326858Y-112322643D01*
X165381286Y-112268214D01*
X165435715Y-112159357D01*
X165435715Y-111832786D01*
X165381286Y-111723929D01*
X165326858Y-111669500D01*
X165218000Y-111615071D01*
X165054715Y-111615071D01*
X164945858Y-111669500D01*
X164891429Y-111723929D01*
X164837000Y-111832786D01*
X164837000Y-112159357D01*
X164891429Y-112268214D01*
X164945858Y-112322643D01*
X165054715Y-112377071D01*
X165218000Y-112377071D01*
D12*
X177727428Y-112866714D02*
X177727428Y-112104714D01*
X177473428Y-112649000D01*
X177219428Y-112104714D01*
X177219428Y-112866714D01*
X176856571Y-112866714D02*
X176856571Y-112104714D01*
X176530000Y-112830429D02*
X176421143Y-112866714D01*
X176239714Y-112866714D01*
X176167143Y-112830429D01*
X176130857Y-112794143D01*
X176094572Y-112721571D01*
X176094572Y-112649000D01*
X176130857Y-112576429D01*
X176167143Y-112540143D01*
X176239714Y-112503857D01*
X176384857Y-112467571D01*
X176457429Y-112431286D01*
X176493714Y-112395000D01*
X176530000Y-112322429D01*
X176530000Y-112249857D01*
X176493714Y-112177286D01*
X176457429Y-112141000D01*
X176384857Y-112104714D01*
X176203429Y-112104714D01*
X176094572Y-112141000D01*
X175622858Y-112104714D02*
X175477715Y-112104714D01*
X175405143Y-112141000D01*
X175332572Y-112213571D01*
X175296286Y-112358714D01*
X175296286Y-112612714D01*
X175332572Y-112757857D01*
X175405143Y-112830429D01*
X175477715Y-112866714D01*
X175622858Y-112866714D01*
X175695429Y-112830429D01*
X175768000Y-112757857D01*
X175804286Y-112612714D01*
X175804286Y-112358714D01*
X175768000Y-112213571D01*
X175695429Y-112141000D01*
X175622858Y-112104714D01*
X180049714Y-112830429D02*
X179940857Y-112866714D01*
X179759428Y-112866714D01*
X179686857Y-112830429D01*
X179650571Y-112794143D01*
X179614286Y-112721571D01*
X179614286Y-112649000D01*
X179650571Y-112576429D01*
X179686857Y-112540143D01*
X179759428Y-112503857D01*
X179904571Y-112467571D01*
X179977143Y-112431286D01*
X180013428Y-112395000D01*
X180049714Y-112322429D01*
X180049714Y-112249857D01*
X180013428Y-112177286D01*
X179977143Y-112141000D01*
X179904571Y-112104714D01*
X179723143Y-112104714D01*
X179614286Y-112141000D01*
X178852286Y-112794143D02*
X178888572Y-112830429D01*
X178997429Y-112866714D01*
X179070000Y-112866714D01*
X179178857Y-112830429D01*
X179251429Y-112757857D01*
X179287714Y-112685286D01*
X179324000Y-112540143D01*
X179324000Y-112431286D01*
X179287714Y-112286143D01*
X179251429Y-112213571D01*
X179178857Y-112141000D01*
X179070000Y-112104714D01*
X178997429Y-112104714D01*
X178888572Y-112141000D01*
X178852286Y-112177286D01*
X178525714Y-112866714D02*
X178525714Y-112104714D01*
X178090286Y-112866714D02*
X178416857Y-112431286D01*
X178090286Y-112104714D02*
X178525714Y-112540143D01*
X182081714Y-112866714D02*
X182335714Y-112503857D01*
X182517142Y-112866714D02*
X182517142Y-112104714D01*
X182226857Y-112104714D01*
X182154285Y-112141000D01*
X182118000Y-112177286D01*
X182081714Y-112249857D01*
X182081714Y-112358714D01*
X182118000Y-112431286D01*
X182154285Y-112467571D01*
X182226857Y-112503857D01*
X182517142Y-112503857D01*
X181755142Y-112467571D02*
X181501142Y-112467571D01*
X181392285Y-112866714D02*
X181755142Y-112866714D01*
X181755142Y-112104714D01*
X181392285Y-112104714D01*
X181101999Y-112830429D02*
X180993142Y-112866714D01*
X180811713Y-112866714D01*
X180739142Y-112830429D01*
X180702856Y-112794143D01*
X180666571Y-112721571D01*
X180666571Y-112649000D01*
X180702856Y-112576429D01*
X180739142Y-112540143D01*
X180811713Y-112503857D01*
X180956856Y-112467571D01*
X181029428Y-112431286D01*
X181065713Y-112395000D01*
X181101999Y-112322429D01*
X181101999Y-112249857D01*
X181065713Y-112177286D01*
X181029428Y-112141000D01*
X180956856Y-112104714D01*
X180775428Y-112104714D01*
X180666571Y-112141000D01*
X182444572Y-118237000D02*
X182517143Y-118200714D01*
X182626000Y-118200714D01*
X182734857Y-118237000D01*
X182807429Y-118309571D01*
X182843714Y-118382143D01*
X182880000Y-118527286D01*
X182880000Y-118636143D01*
X182843714Y-118781286D01*
X182807429Y-118853857D01*
X182734857Y-118926429D01*
X182626000Y-118962714D01*
X182553429Y-118962714D01*
X182444572Y-118926429D01*
X182408286Y-118890143D01*
X182408286Y-118636143D01*
X182553429Y-118636143D01*
X182081714Y-118962714D02*
X182081714Y-118200714D01*
X181646286Y-118962714D01*
X181646286Y-118200714D01*
X181283428Y-118962714D02*
X181283428Y-118200714D01*
X181102000Y-118200714D01*
X180993143Y-118237000D01*
X180920571Y-118309571D01*
X180884286Y-118382143D01*
X180848000Y-118527286D01*
X180848000Y-118636143D01*
X180884286Y-118781286D01*
X180920571Y-118853857D01*
X180993143Y-118926429D01*
X181102000Y-118962714D01*
X181283428Y-118962714D01*
X180521428Y-118962714D02*
X180521428Y-118200714D01*
X180267428Y-118745000D01*
X180013428Y-118200714D01*
X180013428Y-118962714D01*
X179505429Y-118200714D02*
X179360286Y-118200714D01*
X179287714Y-118237000D01*
X179215143Y-118309571D01*
X179178857Y-118454714D01*
X179178857Y-118708714D01*
X179215143Y-118853857D01*
X179287714Y-118926429D01*
X179360286Y-118962714D01*
X179505429Y-118962714D01*
X179578000Y-118926429D01*
X179650571Y-118853857D01*
X179686857Y-118708714D01*
X179686857Y-118454714D01*
X179650571Y-118309571D01*
X179578000Y-118237000D01*
X179505429Y-118200714D01*
X178888571Y-118926429D02*
X178779714Y-118962714D01*
X178598285Y-118962714D01*
X178525714Y-118926429D01*
X178489428Y-118890143D01*
X178453143Y-118817571D01*
X178453143Y-118745000D01*
X178489428Y-118672429D01*
X178525714Y-118636143D01*
X178598285Y-118599857D01*
X178743428Y-118563571D01*
X178816000Y-118527286D01*
X178852285Y-118491000D01*
X178888571Y-118418429D01*
X178888571Y-118345857D01*
X178852285Y-118273286D01*
X178816000Y-118237000D01*
X178743428Y-118200714D01*
X178562000Y-118200714D01*
X178453143Y-118237000D01*
X178126571Y-118962714D02*
X178126571Y-118200714D01*
X177546000Y-118200714D02*
X177292000Y-118962714D01*
X177038000Y-118200714D01*
X176348571Y-118890143D02*
X176384857Y-118926429D01*
X176493714Y-118962714D01*
X176566285Y-118962714D01*
X176675142Y-118926429D01*
X176747714Y-118853857D01*
X176783999Y-118781286D01*
X176820285Y-118636143D01*
X176820285Y-118527286D01*
X176783999Y-118382143D01*
X176747714Y-118309571D01*
X176675142Y-118237000D01*
X176566285Y-118200714D01*
X176493714Y-118200714D01*
X176384857Y-118237000D01*
X176348571Y-118273286D01*
X175586571Y-118890143D02*
X175622857Y-118926429D01*
X175731714Y-118962714D01*
X175804285Y-118962714D01*
X175913142Y-118926429D01*
X175985714Y-118853857D01*
X176021999Y-118781286D01*
X176058285Y-118636143D01*
X176058285Y-118527286D01*
X176021999Y-118382143D01*
X175985714Y-118309571D01*
X175913142Y-118237000D01*
X175804285Y-118200714D01*
X175731714Y-118200714D01*
X175622857Y-118237000D01*
X175586571Y-118273286D01*
D13*
X261953142Y-69004571D02*
X261953142Y-67504571D01*
X261381714Y-67504571D01*
X261238856Y-67576000D01*
X261167428Y-67647429D01*
X261095999Y-67790286D01*
X261095999Y-68004571D01*
X261167428Y-68147429D01*
X261238856Y-68218857D01*
X261381714Y-68290286D01*
X261953142Y-68290286D01*
X260453142Y-69004571D02*
X260453142Y-67504571D01*
X260095999Y-67504571D01*
X259881714Y-67576000D01*
X259738856Y-67718857D01*
X259667428Y-67861714D01*
X259595999Y-68147429D01*
X259595999Y-68361714D01*
X259667428Y-68647429D01*
X259738856Y-68790286D01*
X259881714Y-68933143D01*
X260095999Y-69004571D01*
X260453142Y-69004571D01*
X258167428Y-69004571D02*
X259024571Y-69004571D01*
X258595999Y-69004571D02*
X258595999Y-67504571D01*
X258738856Y-67718857D01*
X258881714Y-67861714D01*
X259024571Y-67933143D01*
X261953142Y-71798571D02*
X261953142Y-70298571D01*
X261381714Y-70298571D01*
X261238856Y-70370000D01*
X261167428Y-70441429D01*
X261095999Y-70584286D01*
X261095999Y-70798571D01*
X261167428Y-70941429D01*
X261238856Y-71012857D01*
X261381714Y-71084286D01*
X261953142Y-71084286D01*
X259953142Y-71012857D02*
X259738856Y-71084286D01*
X259667428Y-71155714D01*
X259595999Y-71298571D01*
X259595999Y-71512857D01*
X259667428Y-71655714D01*
X259738856Y-71727143D01*
X259881714Y-71798571D01*
X260453142Y-71798571D01*
X260453142Y-70298571D01*
X259953142Y-70298571D01*
X259810285Y-70370000D01*
X259738856Y-70441429D01*
X259667428Y-70584286D01*
X259667428Y-70727143D01*
X259738856Y-70870000D01*
X259810285Y-70941429D01*
X259953142Y-71012857D01*
X260453142Y-71012857D01*
X258667428Y-70298571D02*
X258524571Y-70298571D01*
X258381714Y-70370000D01*
X258310285Y-70441429D01*
X258238856Y-70584286D01*
X258167428Y-70870000D01*
X258167428Y-71227143D01*
X258238856Y-71512857D01*
X258310285Y-71655714D01*
X258381714Y-71727143D01*
X258524571Y-71798571D01*
X258667428Y-71798571D01*
X258810285Y-71727143D01*
X258881714Y-71655714D01*
X258953142Y-71512857D01*
X259024571Y-71227143D01*
X259024571Y-70870000D01*
X258953142Y-70584286D01*
X258881714Y-70441429D01*
X258810285Y-70370000D01*
X258667428Y-70298571D01*
X261953142Y-74084571D02*
X261953142Y-72584571D01*
X261381714Y-72584571D01*
X261238856Y-72656000D01*
X261167428Y-72727429D01*
X261095999Y-72870286D01*
X261095999Y-73084571D01*
X261167428Y-73227429D01*
X261238856Y-73298857D01*
X261381714Y-73370286D01*
X261953142Y-73370286D01*
X259953142Y-73298857D02*
X259738856Y-73370286D01*
X259667428Y-73441714D01*
X259595999Y-73584571D01*
X259595999Y-73798857D01*
X259667428Y-73941714D01*
X259738856Y-74013143D01*
X259881714Y-74084571D01*
X260453142Y-74084571D01*
X260453142Y-72584571D01*
X259953142Y-72584571D01*
X259810285Y-72656000D01*
X259738856Y-72727429D01*
X259667428Y-72870286D01*
X259667428Y-73013143D01*
X259738856Y-73156000D01*
X259810285Y-73227429D01*
X259953142Y-73298857D01*
X260453142Y-73298857D01*
X259024571Y-72727429D02*
X258953142Y-72656000D01*
X258810285Y-72584571D01*
X258453142Y-72584571D01*
X258310285Y-72656000D01*
X258238856Y-72727429D01*
X258167428Y-72870286D01*
X258167428Y-73013143D01*
X258238856Y-73227429D01*
X259095999Y-74084571D01*
X258167428Y-74084571D01*
X261953142Y-76878571D02*
X261953142Y-75378571D01*
X261381714Y-75378571D01*
X261238856Y-75450000D01*
X261167428Y-75521429D01*
X261095999Y-75664286D01*
X261095999Y-75878571D01*
X261167428Y-76021429D01*
X261238856Y-76092857D01*
X261381714Y-76164286D01*
X261953142Y-76164286D01*
X259953142Y-76092857D02*
X259738856Y-76164286D01*
X259667428Y-76235714D01*
X259595999Y-76378571D01*
X259595999Y-76592857D01*
X259667428Y-76735714D01*
X259738856Y-76807143D01*
X259881714Y-76878571D01*
X260453142Y-76878571D01*
X260453142Y-75378571D01*
X259953142Y-75378571D01*
X259810285Y-75450000D01*
X259738856Y-75521429D01*
X259667428Y-75664286D01*
X259667428Y-75807143D01*
X259738856Y-75950000D01*
X259810285Y-76021429D01*
X259953142Y-76092857D01*
X260453142Y-76092857D01*
X258167428Y-76878571D02*
X259024571Y-76878571D01*
X258595999Y-76878571D02*
X258595999Y-75378571D01*
X258738856Y-75592857D01*
X258881714Y-75735714D01*
X259024571Y-75807143D01*
D14*
X220072855Y-110526286D02*
X220314760Y-110768190D01*
X221040474Y-111010095D01*
X221524284Y-111010095D01*
X222249998Y-110768190D01*
X222733807Y-110284381D01*
X222975712Y-109800571D01*
X223217617Y-108832952D01*
X223217617Y-108107238D01*
X222975712Y-107139619D01*
X222733807Y-106655810D01*
X222249998Y-106172000D01*
X221524284Y-105930095D01*
X221040474Y-105930095D01*
X220314760Y-106172000D01*
X220072855Y-106413905D01*
X217895712Y-111010095D02*
X217895712Y-107623429D01*
X217895712Y-108591048D02*
X217653807Y-108107238D01*
X217411903Y-107865333D01*
X216928093Y-107623429D01*
X216444284Y-107623429D01*
X215234760Y-107623429D02*
X214025236Y-111010095D01*
X212815712Y-107623429D02*
X214025236Y-111010095D01*
X214509045Y-112219619D01*
X214750950Y-112461524D01*
X215234760Y-112703429D01*
X210880474Y-107623429D02*
X210880474Y-112703429D01*
X210880474Y-107865333D02*
X210396665Y-107623429D01*
X209429046Y-107623429D01*
X208945236Y-107865333D01*
X208703331Y-108107238D01*
X208461427Y-108591048D01*
X208461427Y-110042476D01*
X208703331Y-110526286D01*
X208945236Y-110768190D01*
X209429046Y-111010095D01*
X210396665Y-111010095D01*
X210880474Y-110768190D01*
X207009998Y-107623429D02*
X205074760Y-107623429D01*
X206284284Y-105930095D02*
X206284284Y-110284381D01*
X206042379Y-110768190D01*
X205558570Y-111010095D01*
X205074760Y-111010095D01*
X202655713Y-111010095D02*
X203139522Y-110768190D01*
X203381427Y-110526286D01*
X203623332Y-110042476D01*
X203623332Y-108591048D01*
X203381427Y-108107238D01*
X203139522Y-107865333D01*
X202655713Y-107623429D01*
X201929999Y-107623429D01*
X201446189Y-107865333D01*
X201204284Y-108107238D01*
X200962380Y-108591048D01*
X200962380Y-110042476D01*
X201204284Y-110526286D01*
X201446189Y-110768190D01*
X201929999Y-111010095D01*
X202655713Y-111010095D01*
X199269047Y-105930095D02*
X198059523Y-111010095D01*
X197091904Y-107381524D01*
X196124285Y-111010095D01*
X194914761Y-105930095D01*
X190802380Y-111010095D02*
X190802380Y-108349143D01*
X191044285Y-107865333D01*
X191528095Y-107623429D01*
X192495714Y-107623429D01*
X192979523Y-107865333D01*
X190802380Y-110768190D02*
X191286190Y-111010095D01*
X192495714Y-111010095D01*
X192979523Y-110768190D01*
X193221428Y-110284381D01*
X193221428Y-109800571D01*
X192979523Y-109316762D01*
X192495714Y-109074857D01*
X191286190Y-109074857D01*
X190802380Y-108832952D01*
X187657619Y-111010095D02*
X188141428Y-110768190D01*
X188383333Y-110284381D01*
X188383333Y-105930095D01*
X184996667Y-111010095D02*
X185480476Y-110768190D01*
X185722381Y-110284381D01*
X185722381Y-105930095D01*
X180884286Y-107623429D02*
X180884286Y-111010095D01*
X182093810Y-105688190D02*
X183303334Y-109316762D01*
X180158572Y-109316762D01*
X177255715Y-105930095D02*
X176771906Y-105930095D01*
X176288096Y-106172000D01*
X176046191Y-106413905D01*
X175804287Y-106897714D01*
X175562382Y-107865333D01*
X175562382Y-109074857D01*
X175804287Y-110042476D01*
X176046191Y-110526286D01*
X176288096Y-110768190D01*
X176771906Y-111010095D01*
X177255715Y-111010095D01*
X177739525Y-110768190D01*
X177981429Y-110526286D01*
X178223334Y-110042476D01*
X178465239Y-109074857D01*
X178465239Y-107865333D01*
X178223334Y-106897714D01*
X177981429Y-106413905D01*
X177739525Y-106172000D01*
X177255715Y-105930095D01*
D13*
X252433666Y-118878048D02*
X252252238Y-118938524D01*
X251949857Y-118938524D01*
X251828904Y-118878048D01*
X251768428Y-118817571D01*
X251707952Y-118696619D01*
X251707952Y-118575667D01*
X251768428Y-118454714D01*
X251828904Y-118394238D01*
X251949857Y-118333762D01*
X252191761Y-118273286D01*
X252312714Y-118212810D01*
X252373190Y-118152333D01*
X252433666Y-118031381D01*
X252433666Y-117910429D01*
X252373190Y-117789476D01*
X252312714Y-117729000D01*
X252191761Y-117668524D01*
X251889381Y-117668524D01*
X251707952Y-117729000D01*
X251163666Y-118091857D02*
X251163666Y-119361857D01*
X251163666Y-118152333D02*
X251042714Y-118091857D01*
X250800809Y-118091857D01*
X250679857Y-118152333D01*
X250619380Y-118212810D01*
X250558904Y-118333762D01*
X250558904Y-118696619D01*
X250619380Y-118817571D01*
X250679857Y-118878048D01*
X250800809Y-118938524D01*
X251042714Y-118938524D01*
X251163666Y-118878048D01*
X249530809Y-118878048D02*
X249651761Y-118938524D01*
X249893666Y-118938524D01*
X250014618Y-118878048D01*
X250075094Y-118757095D01*
X250075094Y-118273286D01*
X250014618Y-118152333D01*
X249893666Y-118091857D01*
X249651761Y-118091857D01*
X249530809Y-118152333D01*
X249470332Y-118273286D01*
X249470332Y-118394238D01*
X250075094Y-118515190D01*
X248381761Y-118878048D02*
X248502714Y-118938524D01*
X248744618Y-118938524D01*
X248865571Y-118878048D01*
X248926047Y-118817571D01*
X248986523Y-118696619D01*
X248986523Y-118333762D01*
X248926047Y-118212810D01*
X248865571Y-118152333D01*
X248744618Y-118091857D01*
X248502714Y-118091857D01*
X248381761Y-118152333D01*
X247837476Y-118938524D02*
X247837476Y-118091857D01*
X247837476Y-117668524D02*
X247897952Y-117729000D01*
X247837476Y-117789476D01*
X247777000Y-117729000D01*
X247837476Y-117668524D01*
X247837476Y-117789476D01*
X246688428Y-118938524D02*
X246688428Y-118273286D01*
X246748905Y-118152333D01*
X246869857Y-118091857D01*
X247111762Y-118091857D01*
X247232714Y-118152333D01*
X246688428Y-118878048D02*
X246809381Y-118938524D01*
X247111762Y-118938524D01*
X247232714Y-118878048D01*
X247293190Y-118757095D01*
X247293190Y-118636143D01*
X247232714Y-118515190D01*
X247111762Y-118454714D01*
X246809381Y-118454714D01*
X246688428Y-118394238D01*
X245902237Y-118938524D02*
X246023190Y-118878048D01*
X246083666Y-118757095D01*
X246083666Y-117668524D01*
X244632238Y-117668524D02*
X243906523Y-117668524D01*
X244269380Y-118938524D02*
X244269380Y-117668524D01*
X243483190Y-118938524D02*
X243483190Y-117668524D01*
X242938904Y-118938524D02*
X242938904Y-118273286D01*
X242999381Y-118152333D01*
X243120333Y-118091857D01*
X243301761Y-118091857D01*
X243422714Y-118152333D01*
X243483190Y-118212810D01*
X241789856Y-118938524D02*
X241789856Y-118273286D01*
X241850333Y-118152333D01*
X241971285Y-118091857D01*
X242213190Y-118091857D01*
X242334142Y-118152333D01*
X241789856Y-118878048D02*
X241910809Y-118938524D01*
X242213190Y-118938524D01*
X242334142Y-118878048D01*
X242394618Y-118757095D01*
X242394618Y-118636143D01*
X242334142Y-118515190D01*
X242213190Y-118454714D01*
X241910809Y-118454714D01*
X241789856Y-118394238D01*
X241185094Y-118091857D02*
X241185094Y-118938524D01*
X241185094Y-118212810D02*
X241124618Y-118152333D01*
X241003665Y-118091857D01*
X240822237Y-118091857D01*
X240701285Y-118152333D01*
X240640808Y-118273286D01*
X240640808Y-118938524D01*
X240036046Y-118938524D02*
X240036046Y-117668524D01*
X239915094Y-118454714D02*
X239552237Y-118938524D01*
X239552237Y-118091857D02*
X240036046Y-118575667D01*
X239068427Y-118878048D02*
X238947475Y-118938524D01*
X238705570Y-118938524D01*
X238584618Y-118878048D01*
X238524142Y-118757095D01*
X238524142Y-118696619D01*
X238584618Y-118575667D01*
X238705570Y-118515190D01*
X238886999Y-118515190D01*
X239007951Y-118454714D01*
X239068427Y-118333762D01*
X239068427Y-118273286D01*
X239007951Y-118152333D01*
X238886999Y-118091857D01*
X238705570Y-118091857D01*
X238584618Y-118152333D01*
X237193666Y-118091857D02*
X236709856Y-118091857D01*
X237012237Y-117668524D02*
X237012237Y-118757095D01*
X236951761Y-118878048D01*
X236830808Y-118938524D01*
X236709856Y-118938524D01*
X236105094Y-118938524D02*
X236226047Y-118878048D01*
X236286523Y-118817571D01*
X236346999Y-118696619D01*
X236346999Y-118333762D01*
X236286523Y-118212810D01*
X236226047Y-118152333D01*
X236105094Y-118091857D01*
X235923666Y-118091857D01*
X235802714Y-118152333D01*
X235742237Y-118212810D01*
X235681761Y-118333762D01*
X235681761Y-118696619D01*
X235742237Y-118817571D01*
X235802714Y-118878048D01*
X235923666Y-118938524D01*
X236105094Y-118938524D01*
X234230332Y-118878048D02*
X234048904Y-118938524D01*
X233746523Y-118938524D01*
X233625570Y-118878048D01*
X233565094Y-118817571D01*
X233504618Y-118696619D01*
X233504618Y-118575667D01*
X233565094Y-118454714D01*
X233625570Y-118394238D01*
X233746523Y-118333762D01*
X233988427Y-118273286D01*
X234109380Y-118212810D01*
X234169856Y-118152333D01*
X234230332Y-118031381D01*
X234230332Y-117910429D01*
X234169856Y-117789476D01*
X234109380Y-117729000D01*
X233988427Y-117668524D01*
X233686047Y-117668524D01*
X233504618Y-117729000D01*
X232960332Y-118938524D02*
X232960332Y-118091857D01*
X232960332Y-118212810D02*
X232899856Y-118152333D01*
X232778903Y-118091857D01*
X232597475Y-118091857D01*
X232476523Y-118152333D01*
X232416046Y-118273286D01*
X232416046Y-118938524D01*
X232416046Y-118273286D02*
X232355570Y-118152333D01*
X232234618Y-118091857D01*
X232053189Y-118091857D01*
X231932237Y-118152333D01*
X231871761Y-118273286D01*
X231871761Y-118938524D01*
X230722713Y-118938524D02*
X230722713Y-118273286D01*
X230783190Y-118152333D01*
X230904142Y-118091857D01*
X231146047Y-118091857D01*
X231266999Y-118152333D01*
X230722713Y-118878048D02*
X230843666Y-118938524D01*
X231146047Y-118938524D01*
X231266999Y-118878048D01*
X231327475Y-118757095D01*
X231327475Y-118636143D01*
X231266999Y-118515190D01*
X231146047Y-118454714D01*
X230843666Y-118454714D01*
X230722713Y-118394238D01*
X229936522Y-118938524D02*
X230057475Y-118878048D01*
X230117951Y-118757095D01*
X230117951Y-117668524D01*
X229271284Y-118938524D02*
X229392237Y-118878048D01*
X229452713Y-118757095D01*
X229452713Y-117668524D01*
X228364142Y-118273286D02*
X228787475Y-118273286D01*
X228787475Y-118938524D02*
X228787475Y-117668524D01*
X228182713Y-117668524D01*
X227698904Y-118938524D02*
X227698904Y-118091857D01*
X227698904Y-118333762D02*
X227638428Y-118212810D01*
X227577952Y-118152333D01*
X227456999Y-118091857D01*
X227336047Y-118091857D01*
X227033666Y-118091857D02*
X226731285Y-118938524D01*
X226428905Y-118091857D02*
X226731285Y-118938524D01*
X226852238Y-119240905D01*
X226912714Y-119301381D01*
X227033666Y-119361857D01*
X225400809Y-118091857D02*
X225400809Y-118938524D01*
X225703190Y-117608048D02*
X226005571Y-118515190D01*
X225219381Y-118515190D01*
X224493666Y-117668524D02*
X224372714Y-117668524D01*
X224251762Y-117729000D01*
X224191285Y-117789476D01*
X224130809Y-117910429D01*
X224070333Y-118152333D01*
X224070333Y-118454714D01*
X224130809Y-118696619D01*
X224191285Y-118817571D01*
X224251762Y-118878048D01*
X224372714Y-118938524D01*
X224493666Y-118938524D01*
X224614619Y-118878048D01*
X224675095Y-118817571D01*
X224735571Y-118696619D01*
X224796047Y-118454714D01*
X224796047Y-118152333D01*
X224735571Y-117910429D01*
X224675095Y-117789476D01*
X224614619Y-117729000D01*
X224493666Y-117668524D01*
D15*
X143168000Y-106418000D02*
X143168000Y-105418000D01*
X144868000Y-105418000D02*
X144868000Y-106418000D01*
X144868000Y-109482000D02*
X144868000Y-110482000D01*
X143168000Y-110482000D02*
X143168000Y-109482000D01*
X117610000Y-99480000D02*
X118610000Y-99480000D01*
X118610000Y-101180000D02*
X117610000Y-101180000D01*
X114388000Y-113038000D02*
X114388000Y-114038000D01*
X112688000Y-114038000D02*
X112688000Y-113038000D01*
X144868000Y-113546000D02*
X144868000Y-114546000D01*
X143168000Y-114546000D02*
X143168000Y-113546000D01*
X114388000Y-102878000D02*
X114388000Y-103878000D01*
X112688000Y-103878000D02*
X112688000Y-102878000D01*
X143168000Y-102354000D02*
X143168000Y-101354000D01*
X144868000Y-101354000D02*
X144868000Y-102354000D01*
X50554000Y-60872000D02*
X51554000Y-60872000D01*
X51554000Y-62572000D02*
X50554000Y-62572000D01*
D13*
X38862000Y-59201000D02*
X38862000Y-60325000D01*
X38862000Y-60325000D02*
X40894000Y-60325000D01*
X40894000Y-60325000D02*
X40894000Y-59201000D01*
X38862000Y-58120000D02*
X38862000Y-57023000D01*
X38862000Y-57023000D02*
X40894000Y-57023000D01*
X40894000Y-57023000D02*
X40894000Y-58120000D01*
D16*
X39497000Y-58928000D02*
X40259000Y-58928000D01*
X39497000Y-58483500D02*
X40259000Y-58483500D01*
X40259000Y-58483500D02*
X39878000Y-58864500D01*
X39878000Y-58864500D02*
X39497000Y-58483500D01*
D13*
X60706000Y-49041000D02*
X60706000Y-50165000D01*
X60706000Y-50165000D02*
X62738000Y-50165000D01*
X62738000Y-50165000D02*
X62738000Y-49041000D01*
X60706000Y-47960000D02*
X60706000Y-46863000D01*
X60706000Y-46863000D02*
X62738000Y-46863000D01*
X62738000Y-46863000D02*
X62738000Y-47960000D01*
D16*
X61341000Y-48768000D02*
X62103000Y-48768000D01*
X61341000Y-48323500D02*
X62103000Y-48323500D01*
X62103000Y-48323500D02*
X61722000Y-48704500D01*
X61722000Y-48704500D02*
X61341000Y-48323500D01*
D13*
X78486000Y-49041000D02*
X78486000Y-50165000D01*
X78486000Y-50165000D02*
X80518000Y-50165000D01*
X80518000Y-50165000D02*
X80518000Y-49041000D01*
X78486000Y-47960000D02*
X78486000Y-46863000D01*
X78486000Y-46863000D02*
X80518000Y-46863000D01*
X80518000Y-46863000D02*
X80518000Y-47960000D01*
D16*
X79121000Y-48768000D02*
X79883000Y-48768000D01*
X79121000Y-48323500D02*
X79883000Y-48323500D01*
X79883000Y-48323500D02*
X79502000Y-48704500D01*
X79502000Y-48704500D02*
X79121000Y-48323500D01*
D13*
X96774000Y-49549000D02*
X96774000Y-50673000D01*
X96774000Y-50673000D02*
X98806000Y-50673000D01*
X98806000Y-50673000D02*
X98806000Y-49549000D01*
X96774000Y-48468000D02*
X96774000Y-47371000D01*
X96774000Y-47371000D02*
X98806000Y-47371000D01*
X98806000Y-47371000D02*
X98806000Y-48468000D01*
D16*
X97409000Y-49276000D02*
X98171000Y-49276000D01*
X97409000Y-48831500D02*
X98171000Y-48831500D01*
X98171000Y-48831500D02*
X97790000Y-49212500D01*
X97790000Y-49212500D02*
X97409000Y-48831500D01*
D13*
X115570000Y-49041000D02*
X115570000Y-50165000D01*
X115570000Y-50165000D02*
X117602000Y-50165000D01*
X117602000Y-50165000D02*
X117602000Y-49041000D01*
X115570000Y-47960000D02*
X115570000Y-46863000D01*
X115570000Y-46863000D02*
X117602000Y-46863000D01*
X117602000Y-46863000D02*
X117602000Y-47960000D01*
D16*
X116205000Y-48768000D02*
X116967000Y-48768000D01*
X116205000Y-48323500D02*
X116967000Y-48323500D01*
X116967000Y-48323500D02*
X116586000Y-48704500D01*
X116586000Y-48704500D02*
X116205000Y-48323500D01*
D13*
X135890000Y-49041000D02*
X135890000Y-50165000D01*
X135890000Y-50165000D02*
X137922000Y-50165000D01*
X137922000Y-50165000D02*
X137922000Y-49041000D01*
X135890000Y-47960000D02*
X135890000Y-46863000D01*
X135890000Y-46863000D02*
X137922000Y-46863000D01*
X137922000Y-46863000D02*
X137922000Y-47960000D01*
D16*
X136525000Y-48768000D02*
X137287000Y-48768000D01*
X136525000Y-48323500D02*
X137287000Y-48323500D01*
X137287000Y-48323500D02*
X136906000Y-48704500D01*
X136906000Y-48704500D02*
X136525000Y-48323500D01*
D13*
X154686000Y-49041000D02*
X154686000Y-50165000D01*
X154686000Y-50165000D02*
X156718000Y-50165000D01*
X156718000Y-50165000D02*
X156718000Y-49041000D01*
X154686000Y-47960000D02*
X154686000Y-46863000D01*
X154686000Y-46863000D02*
X156718000Y-46863000D01*
X156718000Y-46863000D02*
X156718000Y-47960000D01*
D16*
X155321000Y-48768000D02*
X156083000Y-48768000D01*
X155321000Y-48323500D02*
X156083000Y-48323500D01*
X156083000Y-48323500D02*
X155702000Y-48704500D01*
X155702000Y-48704500D02*
X155321000Y-48323500D01*
D13*
X173482000Y-49041000D02*
X173482000Y-50165000D01*
X173482000Y-50165000D02*
X175514000Y-50165000D01*
X175514000Y-50165000D02*
X175514000Y-49041000D01*
X173482000Y-47960000D02*
X173482000Y-46863000D01*
X173482000Y-46863000D02*
X175514000Y-46863000D01*
X175514000Y-46863000D02*
X175514000Y-47960000D01*
D16*
X174117000Y-48768000D02*
X174879000Y-48768000D01*
X174117000Y-48323500D02*
X174879000Y-48323500D01*
X174879000Y-48323500D02*
X174498000Y-48704500D01*
X174498000Y-48704500D02*
X174117000Y-48323500D01*
D13*
X192786000Y-49041000D02*
X192786000Y-50165000D01*
X192786000Y-50165000D02*
X194818000Y-50165000D01*
X194818000Y-50165000D02*
X194818000Y-49041000D01*
X192786000Y-47960000D02*
X192786000Y-46863000D01*
X192786000Y-46863000D02*
X194818000Y-46863000D01*
X194818000Y-46863000D02*
X194818000Y-47960000D01*
D16*
X193421000Y-48768000D02*
X194183000Y-48768000D01*
X193421000Y-48323500D02*
X194183000Y-48323500D01*
X194183000Y-48323500D02*
X193802000Y-48704500D01*
X193802000Y-48704500D02*
X193421000Y-48323500D01*
D13*
X212090000Y-49549000D02*
X212090000Y-50673000D01*
X212090000Y-50673000D02*
X214122000Y-50673000D01*
X214122000Y-50673000D02*
X214122000Y-49549000D01*
X212090000Y-48468000D02*
X212090000Y-47371000D01*
X212090000Y-47371000D02*
X214122000Y-47371000D01*
X214122000Y-47371000D02*
X214122000Y-48468000D01*
D16*
X212725000Y-49276000D02*
X213487000Y-49276000D01*
X212725000Y-48831500D02*
X213487000Y-48831500D01*
X213487000Y-48831500D02*
X213106000Y-49212500D01*
X213106000Y-49212500D02*
X212725000Y-48831500D01*
D13*
X231394000Y-49549000D02*
X231394000Y-50673000D01*
X231394000Y-50673000D02*
X233426000Y-50673000D01*
X233426000Y-50673000D02*
X233426000Y-49549000D01*
X231394000Y-48468000D02*
X231394000Y-47371000D01*
X231394000Y-47371000D02*
X233426000Y-47371000D01*
X233426000Y-47371000D02*
X233426000Y-48468000D01*
D16*
X232029000Y-49276000D02*
X232791000Y-49276000D01*
X232029000Y-48831500D02*
X232791000Y-48831500D01*
X232791000Y-48831500D02*
X232410000Y-49212500D01*
X232410000Y-49212500D02*
X232029000Y-48831500D01*
D13*
X43942000Y-67837000D02*
X43942000Y-68961000D01*
X43942000Y-68961000D02*
X45974000Y-68961000D01*
X45974000Y-68961000D02*
X45974000Y-67837000D01*
X43942000Y-66756000D02*
X43942000Y-65659000D01*
X43942000Y-65659000D02*
X45974000Y-65659000D01*
X45974000Y-65659000D02*
X45974000Y-66756000D01*
D16*
X44577000Y-67564000D02*
X45339000Y-67564000D01*
X44577000Y-67119500D02*
X45339000Y-67119500D01*
X45339000Y-67119500D02*
X44958000Y-67500500D01*
X44958000Y-67500500D02*
X44577000Y-67119500D01*
D13*
X63754000Y-68345000D02*
X63754000Y-69469000D01*
X63754000Y-69469000D02*
X65786000Y-69469000D01*
X65786000Y-69469000D02*
X65786000Y-68345000D01*
X63754000Y-67264000D02*
X63754000Y-66167000D01*
X63754000Y-66167000D02*
X65786000Y-66167000D01*
X65786000Y-66167000D02*
X65786000Y-67264000D01*
D16*
X64389000Y-68072000D02*
X65151000Y-68072000D01*
X64389000Y-67627500D02*
X65151000Y-67627500D01*
X65151000Y-67627500D02*
X64770000Y-68008500D01*
X64770000Y-68008500D02*
X64389000Y-67627500D01*
D13*
X83566000Y-68345000D02*
X83566000Y-69469000D01*
X83566000Y-69469000D02*
X85598000Y-69469000D01*
X85598000Y-69469000D02*
X85598000Y-68345000D01*
X83566000Y-67264000D02*
X83566000Y-66167000D01*
X83566000Y-66167000D02*
X85598000Y-66167000D01*
X85598000Y-66167000D02*
X85598000Y-67264000D01*
D16*
X84201000Y-68072000D02*
X84963000Y-68072000D01*
X84201000Y-67627500D02*
X84963000Y-67627500D01*
X84963000Y-67627500D02*
X84582000Y-68008500D01*
X84582000Y-68008500D02*
X84201000Y-67627500D01*
D13*
X102870000Y-68345000D02*
X102870000Y-69469000D01*
X102870000Y-69469000D02*
X104902000Y-69469000D01*
X104902000Y-69469000D02*
X104902000Y-68345000D01*
X102870000Y-67264000D02*
X102870000Y-66167000D01*
X102870000Y-66167000D02*
X104902000Y-66167000D01*
X104902000Y-66167000D02*
X104902000Y-67264000D01*
D16*
X103505000Y-68072000D02*
X104267000Y-68072000D01*
X103505000Y-67627500D02*
X104267000Y-67627500D01*
X104267000Y-67627500D02*
X103886000Y-68008500D01*
X103886000Y-68008500D02*
X103505000Y-67627500D01*
D13*
X120650000Y-68345000D02*
X120650000Y-69469000D01*
X120650000Y-69469000D02*
X122682000Y-69469000D01*
X122682000Y-69469000D02*
X122682000Y-68345000D01*
X120650000Y-67264000D02*
X120650000Y-66167000D01*
X120650000Y-66167000D02*
X122682000Y-66167000D01*
X122682000Y-66167000D02*
X122682000Y-67264000D01*
D16*
X121285000Y-68072000D02*
X122047000Y-68072000D01*
X121285000Y-67627500D02*
X122047000Y-67627500D01*
X122047000Y-67627500D02*
X121666000Y-68008500D01*
X121666000Y-68008500D02*
X121285000Y-67627500D01*
D13*
X141478000Y-68345000D02*
X141478000Y-69469000D01*
X141478000Y-69469000D02*
X143510000Y-69469000D01*
X143510000Y-69469000D02*
X143510000Y-68345000D01*
X141478000Y-67264000D02*
X141478000Y-66167000D01*
X141478000Y-66167000D02*
X143510000Y-66167000D01*
X143510000Y-66167000D02*
X143510000Y-67264000D01*
D16*
X142113000Y-68072000D02*
X142875000Y-68072000D01*
X142113000Y-67627500D02*
X142875000Y-67627500D01*
X142875000Y-67627500D02*
X142494000Y-68008500D01*
X142494000Y-68008500D02*
X142113000Y-67627500D01*
D13*
X159258000Y-68345000D02*
X159258000Y-69469000D01*
X159258000Y-69469000D02*
X161290000Y-69469000D01*
X161290000Y-69469000D02*
X161290000Y-68345000D01*
X159258000Y-67264000D02*
X159258000Y-66167000D01*
X159258000Y-66167000D02*
X161290000Y-66167000D01*
X161290000Y-66167000D02*
X161290000Y-67264000D01*
D16*
X159893000Y-68072000D02*
X160655000Y-68072000D01*
X159893000Y-67627500D02*
X160655000Y-67627500D01*
X160655000Y-67627500D02*
X160274000Y-68008500D01*
X160274000Y-68008500D02*
X159893000Y-67627500D01*
D13*
X178054000Y-67837000D02*
X178054000Y-68961000D01*
X178054000Y-68961000D02*
X180086000Y-68961000D01*
X180086000Y-68961000D02*
X180086000Y-67837000D01*
X178054000Y-66756000D02*
X178054000Y-65659000D01*
X178054000Y-65659000D02*
X180086000Y-65659000D01*
X180086000Y-65659000D02*
X180086000Y-66756000D01*
D16*
X178689000Y-67564000D02*
X179451000Y-67564000D01*
X178689000Y-67119500D02*
X179451000Y-67119500D01*
X179451000Y-67119500D02*
X179070000Y-67500500D01*
X179070000Y-67500500D02*
X178689000Y-67119500D01*
D13*
X196850000Y-67837000D02*
X196850000Y-68961000D01*
X196850000Y-68961000D02*
X198882000Y-68961000D01*
X198882000Y-68961000D02*
X198882000Y-67837000D01*
X196850000Y-66756000D02*
X196850000Y-65659000D01*
X196850000Y-65659000D02*
X198882000Y-65659000D01*
X198882000Y-65659000D02*
X198882000Y-66756000D01*
D16*
X197485000Y-67564000D02*
X198247000Y-67564000D01*
X197485000Y-67119500D02*
X198247000Y-67119500D01*
X198247000Y-67119500D02*
X197866000Y-67500500D01*
X197866000Y-67500500D02*
X197485000Y-67119500D01*
D13*
X216662000Y-68345000D02*
X216662000Y-69469000D01*
X216662000Y-69469000D02*
X218694000Y-69469000D01*
X218694000Y-69469000D02*
X218694000Y-68345000D01*
X216662000Y-67264000D02*
X216662000Y-66167000D01*
X216662000Y-66167000D02*
X218694000Y-66167000D01*
X218694000Y-66167000D02*
X218694000Y-67264000D01*
D16*
X217297000Y-68072000D02*
X218059000Y-68072000D01*
X217297000Y-67627500D02*
X218059000Y-67627500D01*
X218059000Y-67627500D02*
X217678000Y-68008500D01*
X217678000Y-68008500D02*
X217297000Y-67627500D01*
D13*
X242062000Y-67837000D02*
X242062000Y-68961000D01*
X242062000Y-68961000D02*
X244094000Y-68961000D01*
X244094000Y-68961000D02*
X244094000Y-67837000D01*
X242062000Y-66756000D02*
X242062000Y-65659000D01*
X242062000Y-65659000D02*
X244094000Y-65659000D01*
X244094000Y-65659000D02*
X244094000Y-66756000D01*
D16*
X242697000Y-67564000D02*
X243459000Y-67564000D01*
X242697000Y-67119500D02*
X243459000Y-67119500D01*
X243459000Y-67119500D02*
X243078000Y-67500500D01*
X243078000Y-67500500D02*
X242697000Y-67119500D01*
D13*
X46482000Y-87141000D02*
X46482000Y-88265000D01*
X46482000Y-88265000D02*
X48514000Y-88265000D01*
X48514000Y-88265000D02*
X48514000Y-87141000D01*
X46482000Y-86060000D02*
X46482000Y-84963000D01*
X46482000Y-84963000D02*
X48514000Y-84963000D01*
X48514000Y-84963000D02*
X48514000Y-86060000D01*
D16*
X47117000Y-86868000D02*
X47879000Y-86868000D01*
X47117000Y-86423500D02*
X47879000Y-86423500D01*
X47879000Y-86423500D02*
X47498000Y-86804500D01*
X47498000Y-86804500D02*
X47117000Y-86423500D01*
D13*
X73406000Y-87649000D02*
X73406000Y-88773000D01*
X73406000Y-88773000D02*
X75438000Y-88773000D01*
X75438000Y-88773000D02*
X75438000Y-87649000D01*
X73406000Y-86568000D02*
X73406000Y-85471000D01*
X73406000Y-85471000D02*
X75438000Y-85471000D01*
X75438000Y-85471000D02*
X75438000Y-86568000D01*
D16*
X74041000Y-87376000D02*
X74803000Y-87376000D01*
X74041000Y-86931500D02*
X74803000Y-86931500D01*
X74803000Y-86931500D02*
X74422000Y-87312500D01*
X74422000Y-87312500D02*
X74041000Y-86931500D01*
D13*
X91694000Y-97555000D02*
X91694000Y-98679000D01*
X91694000Y-98679000D02*
X93726000Y-98679000D01*
X93726000Y-98679000D02*
X93726000Y-97555000D01*
X91694000Y-96474000D02*
X91694000Y-95377000D01*
X91694000Y-95377000D02*
X93726000Y-95377000D01*
X93726000Y-95377000D02*
X93726000Y-96474000D01*
D16*
X92329000Y-97282000D02*
X93091000Y-97282000D01*
X92329000Y-96837500D02*
X93091000Y-96837500D01*
X93091000Y-96837500D02*
X92710000Y-97218500D01*
X92710000Y-97218500D02*
X92329000Y-96837500D01*
D13*
X112522000Y-86887000D02*
X112522000Y-88011000D01*
X112522000Y-88011000D02*
X114554000Y-88011000D01*
X114554000Y-88011000D02*
X114554000Y-86887000D01*
X112522000Y-85806000D02*
X112522000Y-84709000D01*
X112522000Y-84709000D02*
X114554000Y-84709000D01*
X114554000Y-84709000D02*
X114554000Y-85806000D01*
D16*
X113157000Y-86614000D02*
X113919000Y-86614000D01*
X113157000Y-86169500D02*
X113919000Y-86169500D01*
X113919000Y-86169500D02*
X113538000Y-86550500D01*
X113538000Y-86550500D02*
X113157000Y-86169500D01*
D13*
X131064000Y-86887000D02*
X131064000Y-88011000D01*
X131064000Y-88011000D02*
X133096000Y-88011000D01*
X133096000Y-88011000D02*
X133096000Y-86887000D01*
X131064000Y-85806000D02*
X131064000Y-84709000D01*
X131064000Y-84709000D02*
X133096000Y-84709000D01*
X133096000Y-84709000D02*
X133096000Y-85806000D01*
D16*
X131699000Y-86614000D02*
X132461000Y-86614000D01*
X131699000Y-86169500D02*
X132461000Y-86169500D01*
X132461000Y-86169500D02*
X132080000Y-86550500D01*
X132080000Y-86550500D02*
X131699000Y-86169500D01*
D13*
X148844000Y-86633000D02*
X148844000Y-87757000D01*
X148844000Y-87757000D02*
X150876000Y-87757000D01*
X150876000Y-87757000D02*
X150876000Y-86633000D01*
X148844000Y-85552000D02*
X148844000Y-84455000D01*
X148844000Y-84455000D02*
X150876000Y-84455000D01*
X150876000Y-84455000D02*
X150876000Y-85552000D01*
D16*
X149479000Y-86360000D02*
X150241000Y-86360000D01*
X149479000Y-85915500D02*
X150241000Y-85915500D01*
X150241000Y-85915500D02*
X149860000Y-86296500D01*
X149860000Y-86296500D02*
X149479000Y-85915500D01*
D13*
X168402000Y-86633000D02*
X168402000Y-87757000D01*
X168402000Y-87757000D02*
X170434000Y-87757000D01*
X170434000Y-87757000D02*
X170434000Y-86633000D01*
X168402000Y-85552000D02*
X168402000Y-84455000D01*
X168402000Y-84455000D02*
X170434000Y-84455000D01*
X170434000Y-84455000D02*
X170434000Y-85552000D01*
D16*
X169037000Y-86360000D02*
X169799000Y-86360000D01*
X169037000Y-85915500D02*
X169799000Y-85915500D01*
X169799000Y-85915500D02*
X169418000Y-86296500D01*
X169418000Y-86296500D02*
X169037000Y-85915500D01*
D13*
X187706000Y-86887000D02*
X187706000Y-88011000D01*
X187706000Y-88011000D02*
X189738000Y-88011000D01*
X189738000Y-88011000D02*
X189738000Y-86887000D01*
X187706000Y-85806000D02*
X187706000Y-84709000D01*
X187706000Y-84709000D02*
X189738000Y-84709000D01*
X189738000Y-84709000D02*
X189738000Y-85806000D01*
D16*
X188341000Y-86614000D02*
X189103000Y-86614000D01*
X188341000Y-86169500D02*
X189103000Y-86169500D01*
X189103000Y-86169500D02*
X188722000Y-86550500D01*
X188722000Y-86550500D02*
X188341000Y-86169500D01*
D13*
X205994000Y-97555000D02*
X205994000Y-98679000D01*
X205994000Y-98679000D02*
X208026000Y-98679000D01*
X208026000Y-98679000D02*
X208026000Y-97555000D01*
X205994000Y-96474000D02*
X205994000Y-95377000D01*
X205994000Y-95377000D02*
X208026000Y-95377000D01*
X208026000Y-95377000D02*
X208026000Y-96474000D01*
D16*
X206629000Y-97282000D02*
X207391000Y-97282000D01*
X206629000Y-96837500D02*
X207391000Y-96837500D01*
X207391000Y-96837500D02*
X207010000Y-97218500D01*
X207010000Y-97218500D02*
X206629000Y-96837500D01*
D13*
X229362000Y-87649000D02*
X229362000Y-88773000D01*
X229362000Y-88773000D02*
X231394000Y-88773000D01*
X231394000Y-88773000D02*
X231394000Y-87649000D01*
X229362000Y-86568000D02*
X229362000Y-85471000D01*
X229362000Y-85471000D02*
X231394000Y-85471000D01*
X231394000Y-85471000D02*
X231394000Y-86568000D01*
D16*
X229997000Y-87376000D02*
X230759000Y-87376000D01*
X229997000Y-86931500D02*
X230759000Y-86931500D01*
X230759000Y-86931500D02*
X230378000Y-87312500D01*
X230378000Y-87312500D02*
X229997000Y-86931500D01*
D13*
X250952000Y-87903000D02*
X250952000Y-89027000D01*
X250952000Y-89027000D02*
X252984000Y-89027000D01*
X252984000Y-89027000D02*
X252984000Y-87903000D01*
X250952000Y-86822000D02*
X250952000Y-85725000D01*
X250952000Y-85725000D02*
X252984000Y-85725000D01*
X252984000Y-85725000D02*
X252984000Y-86822000D01*
D16*
X251587000Y-87630000D02*
X252349000Y-87630000D01*
X251587000Y-87185500D02*
X252349000Y-87185500D01*
X252349000Y-87185500D02*
X251968000Y-87566500D01*
X251968000Y-87566500D02*
X251587000Y-87185500D01*
D13*
X43942000Y-105937000D02*
X43942000Y-107061000D01*
X43942000Y-107061000D02*
X45974000Y-107061000D01*
X45974000Y-107061000D02*
X45974000Y-105937000D01*
X43942000Y-104856000D02*
X43942000Y-103759000D01*
X43942000Y-103759000D02*
X45974000Y-103759000D01*
X45974000Y-103759000D02*
X45974000Y-104856000D01*
D16*
X44577000Y-105664000D02*
X45339000Y-105664000D01*
X44577000Y-105219500D02*
X45339000Y-105219500D01*
X45339000Y-105219500D02*
X44958000Y-105600500D01*
X44958000Y-105600500D02*
X44577000Y-105219500D01*
D13*
X64262000Y-105937000D02*
X64262000Y-107061000D01*
X64262000Y-107061000D02*
X66294000Y-107061000D01*
X66294000Y-107061000D02*
X66294000Y-105937000D01*
X64262000Y-104856000D02*
X64262000Y-103759000D01*
X64262000Y-103759000D02*
X66294000Y-103759000D01*
X66294000Y-103759000D02*
X66294000Y-104856000D01*
D16*
X64897000Y-105664000D02*
X65659000Y-105664000D01*
X64897000Y-105219500D02*
X65659000Y-105219500D01*
X65659000Y-105219500D02*
X65278000Y-105600500D01*
X65278000Y-105600500D02*
X64897000Y-105219500D01*
D13*
X83312000Y-105937000D02*
X83312000Y-107061000D01*
X83312000Y-107061000D02*
X85344000Y-107061000D01*
X85344000Y-107061000D02*
X85344000Y-105937000D01*
X83312000Y-104856000D02*
X83312000Y-103759000D01*
X83312000Y-103759000D02*
X85344000Y-103759000D01*
X85344000Y-103759000D02*
X85344000Y-104856000D01*
D16*
X83947000Y-105664000D02*
X84709000Y-105664000D01*
X83947000Y-105219500D02*
X84709000Y-105219500D01*
X84709000Y-105219500D02*
X84328000Y-105600500D01*
X84328000Y-105600500D02*
X83947000Y-105219500D01*
D13*
X152654000Y-106699000D02*
X152654000Y-107823000D01*
X152654000Y-107823000D02*
X154686000Y-107823000D01*
X154686000Y-107823000D02*
X154686000Y-106699000D01*
X152654000Y-105618000D02*
X152654000Y-104521000D01*
X152654000Y-104521000D02*
X154686000Y-104521000D01*
X154686000Y-104521000D02*
X154686000Y-105618000D01*
D16*
X153289000Y-106426000D02*
X154051000Y-106426000D01*
X153289000Y-105981500D02*
X154051000Y-105981500D01*
X154051000Y-105981500D02*
X153670000Y-106362500D01*
X153670000Y-106362500D02*
X153289000Y-105981500D01*
D13*
X224028000Y-106445000D02*
X224028000Y-107569000D01*
X224028000Y-107569000D02*
X226060000Y-107569000D01*
X226060000Y-107569000D02*
X226060000Y-106445000D01*
X224028000Y-105364000D02*
X224028000Y-104267000D01*
X224028000Y-104267000D02*
X226060000Y-104267000D01*
X226060000Y-104267000D02*
X226060000Y-105364000D01*
D16*
X224663000Y-106172000D02*
X225425000Y-106172000D01*
X224663000Y-105727500D02*
X225425000Y-105727500D01*
X225425000Y-105727500D02*
X225044000Y-106108500D01*
X225044000Y-106108500D02*
X224663000Y-105727500D01*
D13*
X248412000Y-106699000D02*
X248412000Y-107823000D01*
X248412000Y-107823000D02*
X250444000Y-107823000D01*
X250444000Y-107823000D02*
X250444000Y-106699000D01*
X248412000Y-105618000D02*
X248412000Y-104521000D01*
X248412000Y-104521000D02*
X250444000Y-104521000D01*
X250444000Y-104521000D02*
X250444000Y-105618000D01*
D16*
X249047000Y-106426000D02*
X249809000Y-106426000D01*
X249047000Y-105981500D02*
X249809000Y-105981500D01*
X249809000Y-105981500D02*
X249428000Y-106362500D01*
X249428000Y-106362500D02*
X249047000Y-105981500D01*
D13*
X250698000Y-49549000D02*
X250698000Y-50673000D01*
X250698000Y-50673000D02*
X252730000Y-50673000D01*
X252730000Y-50673000D02*
X252730000Y-49549000D01*
X250698000Y-48468000D02*
X250698000Y-47371000D01*
X250698000Y-47371000D02*
X252730000Y-47371000D01*
X252730000Y-47371000D02*
X252730000Y-48468000D01*
D16*
X251333000Y-49276000D02*
X252095000Y-49276000D01*
X251333000Y-48831500D02*
X252095000Y-48831500D01*
X252095000Y-48831500D02*
X251714000Y-49212500D01*
X251714000Y-49212500D02*
X251333000Y-48831500D01*
D17*
X121488200Y-114477800D02*
X131495800Y-114477800D01*
X131495800Y-114477800D02*
X131495800Y-104470200D01*
X121970800Y-104470200D02*
X131495800Y-104470200D01*
X121488200Y-104952800D02*
X121488200Y-114477800D01*
X121970800Y-104470200D02*
X121488200Y-104952800D01*
D18*
X123317000Y-105664000D02*
G75*
G03X123317000Y-105664000I-635000J0D01*
G01*
D19*
X50594260Y-48460660D02*
X50594260Y-50960020D01*
X50594260Y-50960020D02*
X49194720Y-50960020D01*
X49194720Y-48460660D02*
X49194720Y-50960020D01*
X50594260Y-48460660D02*
X49194720Y-48460660D01*
X57993280Y-48460660D02*
X57993280Y-50960020D01*
X57993280Y-50960020D02*
X56593740Y-50960020D01*
X56593740Y-48460660D02*
X56593740Y-50960020D01*
X57993280Y-48460660D02*
X56593740Y-48460660D01*
X56692800Y-41462960D02*
X56692800Y-43787060D01*
X56692800Y-43787060D02*
X50495200Y-43787060D01*
X50495200Y-41462960D02*
X50495200Y-43787060D01*
X56692800Y-41462960D02*
X50495200Y-41462960D01*
X55918100Y-43787060D02*
X55918100Y-44564300D01*
X55918100Y-44564300D02*
X51269900Y-44564300D01*
X51269900Y-43787060D02*
X51269900Y-44564300D01*
X55918100Y-43787060D02*
X51269900Y-43787060D01*
D20*
X49695100Y-41462960D02*
X57492900Y-41462960D01*
X49695100Y-50459640D02*
X57492900Y-50459640D01*
X49695100Y-41462960D02*
X49695100Y-50459640D01*
X57492900Y-41462960D02*
X57492900Y-50459640D01*
X50096420Y-45961300D02*
X50594260Y-41963340D01*
X50594260Y-41963340D02*
X51595020Y-41963340D01*
X51595020Y-41963340D02*
X52095400Y-45961300D01*
X57091580Y-46461680D02*
X56593740Y-41963340D01*
X56593740Y-41963340D02*
X55592980Y-41963340D01*
X55592980Y-41963340D02*
X55092600Y-46461680D01*
X52344320Y-41963340D02*
X52844700Y-46959520D01*
X52844700Y-46959520D02*
X54343300Y-46959520D01*
X54343300Y-46959520D02*
X54843680Y-41963340D01*
D15*
X71007000Y-47914000D02*
X71007000Y-49114000D01*
X72757000Y-49114000D02*
X72757000Y-47914000D01*
X109107000Y-47914000D02*
X109107000Y-49114000D01*
X110857000Y-49114000D02*
X110857000Y-47914000D01*
X127903000Y-47914000D02*
X127903000Y-49114000D01*
X129653000Y-49114000D02*
X129653000Y-47914000D01*
X146699000Y-47914000D02*
X146699000Y-49114000D01*
X148449000Y-49114000D02*
X148449000Y-47914000D01*
X165495000Y-47914000D02*
X165495000Y-49114000D01*
X167245000Y-49114000D02*
X167245000Y-47914000D01*
X184799000Y-47914000D02*
X184799000Y-49114000D01*
X186549000Y-49114000D02*
X186549000Y-47914000D01*
X204103000Y-48422000D02*
X204103000Y-49622000D01*
X205853000Y-49622000D02*
X205853000Y-48422000D01*
X222899000Y-48422000D02*
X222899000Y-49622000D01*
X224649000Y-49622000D02*
X224649000Y-48422000D01*
X241695000Y-48422000D02*
X241695000Y-49622000D01*
X243445000Y-49622000D02*
X243445000Y-48422000D01*
X260491000Y-48422000D02*
X260491000Y-49622000D01*
X262241000Y-49622000D02*
X262241000Y-48422000D01*
X53453000Y-67402000D02*
X53453000Y-66202000D01*
X51703000Y-66202000D02*
X51703000Y-67402000D01*
X39765000Y-48168000D02*
X39765000Y-49368000D01*
X41515000Y-49368000D02*
X41515000Y-48168000D01*
X89295000Y-48422000D02*
X89295000Y-49622000D01*
X91045000Y-49622000D02*
X91045000Y-48422000D01*
X75579000Y-67218000D02*
X75579000Y-68418000D01*
X77329000Y-68418000D02*
X77329000Y-67218000D01*
X94375000Y-67218000D02*
X94375000Y-68418000D01*
X96125000Y-68418000D02*
X96125000Y-67218000D01*
X113679000Y-67218000D02*
X113679000Y-68418000D01*
X115429000Y-68418000D02*
X115429000Y-67218000D01*
X132475000Y-67218000D02*
X132475000Y-68418000D01*
X134225000Y-68418000D02*
X134225000Y-67218000D01*
X151271000Y-67218000D02*
X151271000Y-68418000D01*
X153021000Y-68418000D02*
X153021000Y-67218000D01*
X170575000Y-67218000D02*
X170575000Y-68418000D01*
X172325000Y-68418000D02*
X172325000Y-67218000D01*
X189371000Y-67218000D02*
X189371000Y-68418000D01*
X191121000Y-68418000D02*
X191121000Y-67218000D01*
X208167000Y-67726000D02*
X208167000Y-68926000D01*
X209917000Y-68926000D02*
X209917000Y-67726000D01*
X227471000Y-67218000D02*
X227471000Y-68418000D01*
X229221000Y-68418000D02*
X229221000Y-67218000D01*
X253379000Y-67218000D02*
X253379000Y-68418000D01*
X255129000Y-68418000D02*
X255129000Y-67218000D01*
X59041000Y-86706000D02*
X59041000Y-85506000D01*
X57291000Y-85506000D02*
X57291000Y-86706000D01*
X84215000Y-86522000D02*
X84215000Y-87722000D01*
X85965000Y-87722000D02*
X85965000Y-86522000D01*
X91327000Y-86268000D02*
X91327000Y-87468000D01*
X93077000Y-87468000D02*
X93077000Y-86268000D01*
X121553000Y-86014000D02*
X121553000Y-87214000D01*
X123303000Y-87214000D02*
X123303000Y-86014000D01*
X142127000Y-86268000D02*
X142127000Y-87468000D01*
X143877000Y-87468000D02*
X143877000Y-86268000D01*
X161431000Y-84998000D02*
X161431000Y-86198000D01*
X163181000Y-86198000D02*
X163181000Y-84998000D01*
X179973000Y-86014000D02*
X179973000Y-87214000D01*
X181723000Y-87214000D02*
X181723000Y-86014000D01*
X199277000Y-85760000D02*
X199277000Y-86960000D01*
X201027000Y-86960000D02*
X201027000Y-85760000D01*
X205627000Y-86268000D02*
X205627000Y-87468000D01*
X207377000Y-87468000D02*
X207377000Y-86268000D01*
X238647000Y-86268000D02*
X238647000Y-87468000D01*
X240397000Y-87468000D02*
X240397000Y-86268000D01*
X250839000Y-82458000D02*
X250839000Y-83658000D01*
X252589000Y-83658000D02*
X252589000Y-82458000D01*
X53961000Y-106010000D02*
X53961000Y-104810000D01*
X52211000Y-104810000D02*
X52211000Y-106010000D01*
X75579000Y-105318000D02*
X75579000Y-106518000D01*
X77329000Y-106518000D02*
X77329000Y-105318000D01*
X94121000Y-105318000D02*
X94121000Y-106518000D01*
X95871000Y-106518000D02*
X95871000Y-105318000D01*
X162701000Y-105318000D02*
X162701000Y-106518000D01*
X164451000Y-106518000D02*
X164451000Y-105318000D01*
X234837000Y-105572000D02*
X234837000Y-106772000D01*
X236587000Y-106772000D02*
X236587000Y-105572000D01*
X256935000Y-105064000D02*
X256935000Y-106264000D01*
X258685000Y-106264000D02*
X258685000Y-105064000D01*
X64375000Y-62322000D02*
X64375000Y-61122000D01*
X62625000Y-61122000D02*
X62625000Y-62322000D01*
X231872840Y-65135760D02*
X231921100Y-65135760D01*
X234671820Y-65836800D02*
X234671820Y-65135760D01*
X234671820Y-65135760D02*
X234422900Y-65135760D01*
X231872840Y-65135760D02*
X231672180Y-65135760D01*
X231672180Y-65135760D02*
X231672180Y-65836800D01*
X55767000Y-54518000D02*
X55767000Y-55718000D01*
X57517000Y-55718000D02*
X57517000Y-54518000D01*
X53227000Y-54518000D02*
X53227000Y-55718000D01*
X54977000Y-55718000D02*
X54977000Y-54518000D01*
X117002000Y-116445000D02*
X118202000Y-116445000D01*
X118202000Y-114695000D02*
X117002000Y-114695000D01*
X233772000Y-71261000D02*
X232572000Y-71261000D01*
X232572000Y-73011000D02*
X233772000Y-73011000D01*
X134782000Y-102221000D02*
X135982000Y-102221000D01*
X135982000Y-100471000D02*
X134782000Y-100471000D01*
X67858000Y-62722000D02*
X69358000Y-64222000D01*
X72858000Y-59222000D02*
X67858000Y-59222000D01*
X67858000Y-59222000D02*
X67858000Y-64222000D01*
X67858000Y-64222000D02*
X72858000Y-64222000D01*
X72858000Y-64222000D02*
X72858000Y-59222000D01*
X104688000Y-62976000D02*
X106188000Y-64476000D01*
X109688000Y-59476000D02*
X104688000Y-59476000D01*
X104688000Y-59476000D02*
X104688000Y-64476000D01*
X104688000Y-64476000D02*
X109688000Y-64476000D01*
X109688000Y-64476000D02*
X109688000Y-59476000D01*
X147360000Y-62468000D02*
X148860000Y-63968000D01*
X152360000Y-58968000D02*
X147360000Y-58968000D01*
X147360000Y-58968000D02*
X147360000Y-63968000D01*
X147360000Y-63968000D02*
X152360000Y-63968000D01*
X152360000Y-63968000D02*
X152360000Y-58968000D01*
X180126000Y-62976000D02*
X181626000Y-64476000D01*
X185126000Y-59476000D02*
X180126000Y-59476000D01*
X180126000Y-59476000D02*
X180126000Y-64476000D01*
X180126000Y-64476000D02*
X185126000Y-64476000D01*
X185126000Y-64476000D02*
X185126000Y-59476000D01*
X215686000Y-63230000D02*
X217186000Y-64730000D01*
X220686000Y-59730000D02*
X215686000Y-59730000D01*
X215686000Y-59730000D02*
X215686000Y-64730000D01*
X215686000Y-64730000D02*
X220686000Y-64730000D01*
X220686000Y-64730000D02*
X220686000Y-59730000D01*
X262620000Y-87336000D02*
X264120000Y-85836000D01*
X259120000Y-82336000D02*
X259120000Y-87336000D01*
X259120000Y-87336000D02*
X264120000Y-87336000D01*
X264120000Y-87336000D02*
X264120000Y-82336000D01*
X264120000Y-82336000D02*
X259120000Y-82336000D01*
X215178000Y-102092000D02*
X216678000Y-103592000D01*
X220178000Y-98592000D02*
X215178000Y-98592000D01*
X215178000Y-98592000D02*
X215178000Y-103592000D01*
X215178000Y-103592000D02*
X220178000Y-103592000D01*
X220178000Y-103592000D02*
X220178000Y-98592000D01*
X179110000Y-101584000D02*
X180610000Y-103084000D01*
X184110000Y-98084000D02*
X179110000Y-98084000D01*
X179110000Y-98084000D02*
X179110000Y-103084000D01*
X179110000Y-103084000D02*
X184110000Y-103084000D01*
X184110000Y-103084000D02*
X184110000Y-98084000D01*
X147106000Y-101584000D02*
X148606000Y-103084000D01*
X152106000Y-98084000D02*
X147106000Y-98084000D01*
X147106000Y-98084000D02*
X147106000Y-103084000D01*
X147106000Y-103084000D02*
X152106000Y-103084000D01*
X152106000Y-103084000D02*
X152106000Y-98084000D01*
X98592000Y-101330000D02*
X100092000Y-102830000D01*
X103592000Y-97830000D02*
X98592000Y-97830000D01*
X98592000Y-97830000D02*
X98592000Y-102830000D01*
X98592000Y-102830000D02*
X103592000Y-102830000D01*
X103592000Y-102830000D02*
X103592000Y-97830000D01*
X67858000Y-100822000D02*
X69358000Y-102322000D01*
X72858000Y-97322000D02*
X67858000Y-97322000D01*
X67858000Y-97322000D02*
X67858000Y-102322000D01*
X67858000Y-102322000D02*
X72858000Y-102322000D01*
X72858000Y-102322000D02*
X72858000Y-97322000D01*
X41132000Y-89622000D02*
X42632000Y-88122000D01*
X37632000Y-84622000D02*
X37632000Y-89622000D01*
X37632000Y-89622000D02*
X42632000Y-89622000D01*
X42632000Y-89622000D02*
X42632000Y-84622000D01*
X42632000Y-84622000D02*
X37632000Y-84622000D01*
D21*
X225783140Y-91186000D02*
G75*
G03X225783140Y-91186000I-1501140J0D01*
G01*
X226631500Y-94284800D02*
X226631500Y-94785180D01*
X226631500Y-94785180D02*
X225933000Y-94785180D01*
X225933000Y-94785180D02*
X225933000Y-94284800D01*
X221932500Y-94785180D02*
X221932500Y-94284800D01*
X222631000Y-94785180D02*
X221932500Y-94785180D01*
X222631000Y-94284800D02*
X222631000Y-94785180D01*
X222631000Y-88087200D02*
X222631000Y-87586820D01*
X222631000Y-87586820D02*
X221932500Y-87586820D01*
X221932500Y-87586820D02*
X221932500Y-88087200D01*
X226631500Y-88087200D02*
X226631500Y-87586820D01*
X226631500Y-87586820D02*
X225933000Y-87586820D01*
X225933000Y-87586820D02*
X225933000Y-88087200D01*
D22*
X221183200Y-93985080D02*
X221183200Y-88386920D01*
X227380800Y-93985080D02*
X227380800Y-88386920D01*
X227281740Y-94284800D02*
X227281740Y-88087200D01*
X227281740Y-88087200D02*
X221282260Y-88087200D01*
X221282260Y-88087200D02*
X221282260Y-94284800D01*
X221282260Y-94284800D02*
X227281740Y-94284800D01*
D15*
X138191240Y-112395000D02*
X138592560Y-112595660D01*
X138592560Y-112595660D02*
X139192000Y-112697260D01*
X139192000Y-112697260D02*
X139692380Y-112595660D01*
X139692380Y-112595660D02*
X140390880Y-112196880D01*
X140390880Y-112196880D02*
X140792200Y-111594900D01*
X140792200Y-111594900D02*
X140992860Y-110995460D01*
X140992860Y-110995460D02*
X140992860Y-104396540D01*
X140992860Y-104396540D02*
X140792200Y-103695500D01*
X140792200Y-103695500D02*
X140492480Y-103296720D01*
X140492480Y-103296720D02*
X139992100Y-102895400D01*
X139992100Y-102895400D02*
X139392660Y-102694740D01*
X139392660Y-102694740D02*
X138892280Y-102694740D01*
X138892280Y-102694740D02*
X138391900Y-102895400D01*
X138391900Y-102895400D02*
X137792460Y-103395780D01*
X137792460Y-103395780D02*
X137492740Y-103896160D01*
X137492740Y-103896160D02*
X137391140Y-104396540D01*
X137391140Y-104495600D02*
X137391140Y-111097060D01*
X137391140Y-111097060D02*
X137492740Y-111495840D01*
X137492740Y-111495840D02*
X137792460Y-111996220D01*
X137792460Y-111996220D02*
X138292840Y-112496600D01*
X136862820Y-104505760D02*
X136911080Y-104046020D01*
X136911080Y-104046020D02*
X137022840Y-103647240D01*
X137022840Y-103647240D02*
X137241280Y-103215440D01*
X137241280Y-103215440D02*
X137472420Y-102925880D01*
X137472420Y-102925880D02*
X137822940Y-102595680D01*
X137822940Y-102595680D02*
X138361420Y-102306120D01*
X138361420Y-102306120D02*
X138960860Y-102176580D01*
X138960860Y-102176580D02*
X139471400Y-102176580D01*
X139471400Y-102176580D02*
X140172440Y-102346760D01*
X140172440Y-102346760D02*
X140761720Y-102745540D01*
X140761720Y-102745540D02*
X141132560Y-103205280D01*
X141132560Y-103205280D02*
X141340840Y-103626920D01*
X141340840Y-103626920D02*
X141500860Y-104076500D01*
X141500860Y-104076500D02*
X141531340Y-104515920D01*
X141312900Y-111856520D02*
X141091920Y-112234980D01*
X141091920Y-112234980D02*
X140812520Y-112555020D01*
X140812520Y-112555020D02*
X140482320Y-112806480D01*
X140482320Y-112806480D02*
X139931140Y-113106200D01*
X139931140Y-113106200D02*
X139461240Y-113215420D01*
X139461240Y-113215420D02*
X139001500Y-113235740D01*
X139001500Y-113235740D02*
X138541760Y-113146840D01*
X138541760Y-113146840D02*
X138092180Y-112956340D01*
X138092180Y-112956340D02*
X137622280Y-112595660D01*
X137622280Y-112595660D02*
X137302240Y-112245140D01*
X137302240Y-112245140D02*
X137071100Y-111856520D01*
X137071100Y-111856520D02*
X136931400Y-111427260D01*
X136931400Y-111427260D02*
X136862820Y-110985300D01*
X141521180Y-104495600D02*
X141521180Y-110947200D01*
X141521180Y-110947200D02*
X141483080Y-111366300D01*
X141483080Y-111366300D02*
X141312900Y-111856520D01*
X136862820Y-104495600D02*
X136862820Y-110947200D01*
X74080000Y-56380000D02*
X74080000Y-55380000D01*
X75780000Y-55380000D02*
X75780000Y-56380000D01*
X153836000Y-56888000D02*
X153836000Y-55888000D01*
X155536000Y-55888000D02*
X155536000Y-56888000D01*
X188556000Y-57412000D02*
X188556000Y-58412000D01*
X186856000Y-58412000D02*
X186856000Y-57412000D01*
X224702000Y-56888000D02*
X224702000Y-55888000D01*
X226402000Y-55888000D02*
X226402000Y-56888000D01*
X257898000Y-81288000D02*
X257898000Y-82288000D01*
X256198000Y-82288000D02*
X256198000Y-81288000D01*
X71540000Y-94226000D02*
X71540000Y-93226000D01*
X73240000Y-93226000D02*
X73240000Y-94226000D01*
X218352000Y-97020000D02*
X218352000Y-96020000D01*
X220052000Y-96020000D02*
X220052000Y-97020000D01*
X176618000Y-98814000D02*
X176618000Y-99814000D01*
X174918000Y-99814000D02*
X174918000Y-98814000D01*
X44538000Y-81288000D02*
X44538000Y-82288000D01*
X42838000Y-82288000D02*
X42838000Y-81288000D01*
X148678000Y-95004000D02*
X148678000Y-96004000D01*
X146978000Y-96004000D02*
X146978000Y-95004000D01*
X96100000Y-99830000D02*
X96100000Y-100830000D01*
X94400000Y-100830000D02*
X94400000Y-99830000D01*
X114642000Y-60206000D02*
X114642000Y-61206000D01*
X112942000Y-61206000D02*
X112942000Y-60206000D01*
X146357143Y-105633334D02*
X146404762Y-105585715D01*
X146452381Y-105442858D01*
X146452381Y-105347620D01*
X146404762Y-105204762D01*
X146309524Y-105109524D01*
X146214286Y-105061905D01*
X146023810Y-105014286D01*
X145880952Y-105014286D01*
X145690476Y-105061905D01*
X145595238Y-105109524D01*
X145500000Y-105204762D01*
X145452381Y-105347620D01*
X145452381Y-105442858D01*
X145500000Y-105585715D01*
X145547619Y-105633334D01*
X146452381Y-106585715D02*
X146452381Y-106014286D01*
X146452381Y-106300000D02*
X145452381Y-106300000D01*
X145595238Y-106204762D01*
X145690476Y-106109524D01*
X145738095Y-106014286D01*
X146475143Y-109815334D02*
X146522762Y-109767715D01*
X146570381Y-109624858D01*
X146570381Y-109529620D01*
X146522762Y-109386762D01*
X146427524Y-109291524D01*
X146332286Y-109243905D01*
X146141810Y-109196286D01*
X145998952Y-109196286D01*
X145808476Y-109243905D01*
X145713238Y-109291524D01*
X145618000Y-109386762D01*
X145570381Y-109529620D01*
X145570381Y-109624858D01*
X145618000Y-109767715D01*
X145665619Y-109815334D01*
X145665619Y-110196286D02*
X145618000Y-110243905D01*
X145570381Y-110339143D01*
X145570381Y-110577239D01*
X145618000Y-110672477D01*
X145665619Y-110720096D01*
X145760857Y-110767715D01*
X145856095Y-110767715D01*
X145998952Y-110720096D01*
X146570381Y-110148667D01*
X146570381Y-110767715D01*
X118276666Y-98587143D02*
X118324285Y-98634762D01*
X118467142Y-98682381D01*
X118562380Y-98682381D01*
X118705238Y-98634762D01*
X118800476Y-98539524D01*
X118848095Y-98444286D01*
X118895714Y-98253810D01*
X118895714Y-98110952D01*
X118848095Y-97920476D01*
X118800476Y-97825238D01*
X118705238Y-97730000D01*
X118562380Y-97682381D01*
X118467142Y-97682381D01*
X118324285Y-97730000D01*
X118276666Y-97777619D01*
X117943333Y-97682381D02*
X117324285Y-97682381D01*
X117657619Y-98063333D01*
X117514761Y-98063333D01*
X117419523Y-98110952D01*
X117371904Y-98158571D01*
X117324285Y-98253810D01*
X117324285Y-98491905D01*
X117371904Y-98587143D01*
X117419523Y-98634762D01*
X117514761Y-98682381D01*
X117800476Y-98682381D01*
X117895714Y-98634762D01*
X117943333Y-98587143D01*
X115995143Y-113371334D02*
X116042762Y-113323715D01*
X116090381Y-113180858D01*
X116090381Y-113085620D01*
X116042762Y-112942762D01*
X115947524Y-112847524D01*
X115852286Y-112799905D01*
X115661810Y-112752286D01*
X115518952Y-112752286D01*
X115328476Y-112799905D01*
X115233238Y-112847524D01*
X115138000Y-112942762D01*
X115090381Y-113085620D01*
X115090381Y-113180858D01*
X115138000Y-113323715D01*
X115185619Y-113371334D01*
X115423714Y-114228477D02*
X116090381Y-114228477D01*
X115042762Y-113990381D02*
X115757048Y-113752286D01*
X115757048Y-114371334D01*
X146475143Y-113879334D02*
X146522762Y-113831715D01*
X146570381Y-113688858D01*
X146570381Y-113593620D01*
X146522762Y-113450762D01*
X146427524Y-113355524D01*
X146332286Y-113307905D01*
X146141810Y-113260286D01*
X145998952Y-113260286D01*
X145808476Y-113307905D01*
X145713238Y-113355524D01*
X145618000Y-113450762D01*
X145570381Y-113593620D01*
X145570381Y-113688858D01*
X145618000Y-113831715D01*
X145665619Y-113879334D01*
X145570381Y-114784096D02*
X145570381Y-114307905D01*
X146046571Y-114260286D01*
X145998952Y-114307905D01*
X145951333Y-114403143D01*
X145951333Y-114641239D01*
X145998952Y-114736477D01*
X146046571Y-114784096D01*
X146141810Y-114831715D01*
X146379905Y-114831715D01*
X146475143Y-114784096D01*
X146522762Y-114736477D01*
X146570381Y-114641239D01*
X146570381Y-114403143D01*
X146522762Y-114307905D01*
X146475143Y-114260286D01*
X115995143Y-103211334D02*
X116042762Y-103163715D01*
X116090381Y-103020858D01*
X116090381Y-102925620D01*
X116042762Y-102782762D01*
X115947524Y-102687524D01*
X115852286Y-102639905D01*
X115661810Y-102592286D01*
X115518952Y-102592286D01*
X115328476Y-102639905D01*
X115233238Y-102687524D01*
X115138000Y-102782762D01*
X115090381Y-102925620D01*
X115090381Y-103020858D01*
X115138000Y-103163715D01*
X115185619Y-103211334D01*
X115090381Y-104068477D02*
X115090381Y-103878000D01*
X115138000Y-103782762D01*
X115185619Y-103735143D01*
X115328476Y-103639905D01*
X115518952Y-103592286D01*
X115899905Y-103592286D01*
X115995143Y-103639905D01*
X116042762Y-103687524D01*
X116090381Y-103782762D01*
X116090381Y-103973239D01*
X116042762Y-104068477D01*
X115995143Y-104116096D01*
X115899905Y-104163715D01*
X115661810Y-104163715D01*
X115566571Y-104116096D01*
X115518952Y-104068477D01*
X115471333Y-103973239D01*
X115471333Y-103782762D01*
X115518952Y-103687524D01*
X115566571Y-103639905D01*
X115661810Y-103592286D01*
X142275143Y-101687334D02*
X142322762Y-101639715D01*
X142370381Y-101496858D01*
X142370381Y-101401620D01*
X142322762Y-101258762D01*
X142227524Y-101163524D01*
X142132286Y-101115905D01*
X141941810Y-101068286D01*
X141798952Y-101068286D01*
X141608476Y-101115905D01*
X141513238Y-101163524D01*
X141418000Y-101258762D01*
X141370381Y-101401620D01*
X141370381Y-101496858D01*
X141418000Y-101639715D01*
X141465619Y-101687334D01*
X141370381Y-102020667D02*
X141370381Y-102687334D01*
X142370381Y-102258762D01*
X51220666Y-59979143D02*
X51268285Y-60026762D01*
X51411142Y-60074381D01*
X51506380Y-60074381D01*
X51649238Y-60026762D01*
X51744476Y-59931524D01*
X51792095Y-59836286D01*
X51839714Y-59645810D01*
X51839714Y-59502952D01*
X51792095Y-59312476D01*
X51744476Y-59217238D01*
X51649238Y-59122000D01*
X51506380Y-59074381D01*
X51411142Y-59074381D01*
X51268285Y-59122000D01*
X51220666Y-59169619D01*
X50649238Y-59502952D02*
X50744476Y-59455333D01*
X50792095Y-59407714D01*
X50839714Y-59312476D01*
X50839714Y-59264857D01*
X50792095Y-59169619D01*
X50744476Y-59122000D01*
X50649238Y-59074381D01*
X50458761Y-59074381D01*
X50363523Y-59122000D01*
X50315904Y-59169619D01*
X50268285Y-59264857D01*
X50268285Y-59312476D01*
X50315904Y-59407714D01*
X50363523Y-59455333D01*
X50458761Y-59502952D01*
X50649238Y-59502952D01*
X50744476Y-59550571D01*
X50792095Y-59598190D01*
X50839714Y-59693429D01*
X50839714Y-59883905D01*
X50792095Y-59979143D01*
X50744476Y-60026762D01*
X50649238Y-60074381D01*
X50458761Y-60074381D01*
X50363523Y-60026762D01*
X50315904Y-59979143D01*
X50268285Y-59883905D01*
X50268285Y-59693429D01*
X50315904Y-59598190D01*
X50363523Y-59550571D01*
X50458761Y-59502952D01*
D23*
X42205976Y-58491881D02*
X41270976Y-58491881D01*
X41270976Y-58714500D01*
X41315500Y-58848072D01*
X41404548Y-58937119D01*
X41493595Y-58981643D01*
X41671690Y-59026167D01*
X41805262Y-59026167D01*
X41983357Y-58981643D01*
X42072405Y-58937119D01*
X42161452Y-58848072D01*
X42205976Y-58714500D01*
X42205976Y-58491881D01*
X42205976Y-59916643D02*
X42205976Y-59382357D01*
X42205976Y-59649500D02*
X41270976Y-59649500D01*
X41404548Y-59560452D01*
X41493595Y-59471405D01*
X41538119Y-59382357D01*
X60222976Y-47909881D02*
X59287976Y-47909881D01*
X59287976Y-48132500D01*
X59332500Y-48266072D01*
X59421548Y-48355119D01*
X59510595Y-48399643D01*
X59688690Y-48444167D01*
X59822262Y-48444167D01*
X60000357Y-48399643D01*
X60089405Y-48355119D01*
X60178452Y-48266072D01*
X60222976Y-48132500D01*
X60222976Y-47909881D01*
X59377024Y-48800357D02*
X59332500Y-48844881D01*
X59287976Y-48933929D01*
X59287976Y-49156548D01*
X59332500Y-49245595D01*
X59377024Y-49290119D01*
X59466071Y-49334643D01*
X59555119Y-49334643D01*
X59688690Y-49290119D01*
X60222976Y-48755833D01*
X60222976Y-49334643D01*
X81829976Y-48331881D02*
X80894976Y-48331881D01*
X80894976Y-48554500D01*
X80939500Y-48688072D01*
X81028548Y-48777119D01*
X81117595Y-48821643D01*
X81295690Y-48866167D01*
X81429262Y-48866167D01*
X81607357Y-48821643D01*
X81696405Y-48777119D01*
X81785452Y-48688072D01*
X81829976Y-48554500D01*
X81829976Y-48331881D01*
X80894976Y-49177833D02*
X80894976Y-49756643D01*
X81251167Y-49444976D01*
X81251167Y-49578548D01*
X81295690Y-49667595D01*
X81340214Y-49712119D01*
X81429262Y-49756643D01*
X81651881Y-49756643D01*
X81740929Y-49712119D01*
X81785452Y-49667595D01*
X81829976Y-49578548D01*
X81829976Y-49311405D01*
X81785452Y-49222357D01*
X81740929Y-49177833D01*
X100117976Y-48839881D02*
X99182976Y-48839881D01*
X99182976Y-49062500D01*
X99227500Y-49196072D01*
X99316548Y-49285119D01*
X99405595Y-49329643D01*
X99583690Y-49374167D01*
X99717262Y-49374167D01*
X99895357Y-49329643D01*
X99984405Y-49285119D01*
X100073452Y-49196072D01*
X100117976Y-49062500D01*
X100117976Y-48839881D01*
X99494643Y-50175595D02*
X100117976Y-50175595D01*
X99138452Y-49952976D02*
X99806310Y-49730357D01*
X99806310Y-50309167D01*
X118913976Y-48331881D02*
X117978976Y-48331881D01*
X117978976Y-48554500D01*
X118023500Y-48688072D01*
X118112548Y-48777119D01*
X118201595Y-48821643D01*
X118379690Y-48866167D01*
X118513262Y-48866167D01*
X118691357Y-48821643D01*
X118780405Y-48777119D01*
X118869452Y-48688072D01*
X118913976Y-48554500D01*
X118913976Y-48331881D01*
X117978976Y-49712119D02*
X117978976Y-49266881D01*
X118424214Y-49222357D01*
X118379690Y-49266881D01*
X118335167Y-49355929D01*
X118335167Y-49578548D01*
X118379690Y-49667595D01*
X118424214Y-49712119D01*
X118513262Y-49756643D01*
X118735881Y-49756643D01*
X118824929Y-49712119D01*
X118869452Y-49667595D01*
X118913976Y-49578548D01*
X118913976Y-49355929D01*
X118869452Y-49266881D01*
X118824929Y-49222357D01*
X139233976Y-48331881D02*
X138298976Y-48331881D01*
X138298976Y-48554500D01*
X138343500Y-48688072D01*
X138432548Y-48777119D01*
X138521595Y-48821643D01*
X138699690Y-48866167D01*
X138833262Y-48866167D01*
X139011357Y-48821643D01*
X139100405Y-48777119D01*
X139189452Y-48688072D01*
X139233976Y-48554500D01*
X139233976Y-48331881D01*
X138298976Y-49667595D02*
X138298976Y-49489500D01*
X138343500Y-49400452D01*
X138388024Y-49355929D01*
X138521595Y-49266881D01*
X138699690Y-49222357D01*
X139055881Y-49222357D01*
X139144929Y-49266881D01*
X139189452Y-49311405D01*
X139233976Y-49400452D01*
X139233976Y-49578548D01*
X139189452Y-49667595D01*
X139144929Y-49712119D01*
X139055881Y-49756643D01*
X138833262Y-49756643D01*
X138744214Y-49712119D01*
X138699690Y-49667595D01*
X138655167Y-49578548D01*
X138655167Y-49400452D01*
X138699690Y-49311405D01*
X138744214Y-49266881D01*
X138833262Y-49222357D01*
X158029976Y-48331881D02*
X157094976Y-48331881D01*
X157094976Y-48554500D01*
X157139500Y-48688072D01*
X157228548Y-48777119D01*
X157317595Y-48821643D01*
X157495690Y-48866167D01*
X157629262Y-48866167D01*
X157807357Y-48821643D01*
X157896405Y-48777119D01*
X157985452Y-48688072D01*
X158029976Y-48554500D01*
X158029976Y-48331881D01*
X157094976Y-49177833D02*
X157094976Y-49801167D01*
X158029976Y-49400452D01*
X176825976Y-48331881D02*
X175890976Y-48331881D01*
X175890976Y-48554500D01*
X175935500Y-48688072D01*
X176024548Y-48777119D01*
X176113595Y-48821643D01*
X176291690Y-48866167D01*
X176425262Y-48866167D01*
X176603357Y-48821643D01*
X176692405Y-48777119D01*
X176781452Y-48688072D01*
X176825976Y-48554500D01*
X176825976Y-48331881D01*
X176291690Y-49400452D02*
X176247167Y-49311405D01*
X176202643Y-49266881D01*
X176113595Y-49222357D01*
X176069071Y-49222357D01*
X175980024Y-49266881D01*
X175935500Y-49311405D01*
X175890976Y-49400452D01*
X175890976Y-49578548D01*
X175935500Y-49667595D01*
X175980024Y-49712119D01*
X176069071Y-49756643D01*
X176113595Y-49756643D01*
X176202643Y-49712119D01*
X176247167Y-49667595D01*
X176291690Y-49578548D01*
X176291690Y-49400452D01*
X176336214Y-49311405D01*
X176380738Y-49266881D01*
X176469786Y-49222357D01*
X176647881Y-49222357D01*
X176736929Y-49266881D01*
X176781452Y-49311405D01*
X176825976Y-49400452D01*
X176825976Y-49578548D01*
X176781452Y-49667595D01*
X176736929Y-49712119D01*
X176647881Y-49756643D01*
X176469786Y-49756643D01*
X176380738Y-49712119D01*
X176336214Y-49667595D01*
X176291690Y-49578548D01*
X196129976Y-48331881D02*
X195194976Y-48331881D01*
X195194976Y-48554500D01*
X195239500Y-48688072D01*
X195328548Y-48777119D01*
X195417595Y-48821643D01*
X195595690Y-48866167D01*
X195729262Y-48866167D01*
X195907357Y-48821643D01*
X195996405Y-48777119D01*
X196085452Y-48688072D01*
X196129976Y-48554500D01*
X196129976Y-48331881D01*
X196129976Y-49311405D02*
X196129976Y-49489500D01*
X196085452Y-49578548D01*
X196040929Y-49623072D01*
X195907357Y-49712119D01*
X195729262Y-49756643D01*
X195373071Y-49756643D01*
X195284024Y-49712119D01*
X195239500Y-49667595D01*
X195194976Y-49578548D01*
X195194976Y-49400452D01*
X195239500Y-49311405D01*
X195284024Y-49266881D01*
X195373071Y-49222357D01*
X195595690Y-49222357D01*
X195684738Y-49266881D01*
X195729262Y-49311405D01*
X195773786Y-49400452D01*
X195773786Y-49578548D01*
X195729262Y-49667595D01*
X195684738Y-49712119D01*
X195595690Y-49756643D01*
X215433976Y-48394643D02*
X214498976Y-48394643D01*
X214498976Y-48617262D01*
X214543500Y-48750834D01*
X214632548Y-48839881D01*
X214721595Y-48884405D01*
X214899690Y-48928929D01*
X215033262Y-48928929D01*
X215211357Y-48884405D01*
X215300405Y-48839881D01*
X215389452Y-48750834D01*
X215433976Y-48617262D01*
X215433976Y-48394643D01*
X215433976Y-49819405D02*
X215433976Y-49285119D01*
X215433976Y-49552262D02*
X214498976Y-49552262D01*
X214632548Y-49463214D01*
X214721595Y-49374167D01*
X214766119Y-49285119D01*
X214498976Y-50398214D02*
X214498976Y-50487262D01*
X214543500Y-50576310D01*
X214588024Y-50620833D01*
X214677071Y-50665357D01*
X214855167Y-50709881D01*
X215077786Y-50709881D01*
X215255881Y-50665357D01*
X215344929Y-50620833D01*
X215389452Y-50576310D01*
X215433976Y-50487262D01*
X215433976Y-50398214D01*
X215389452Y-50309167D01*
X215344929Y-50264643D01*
X215255881Y-50220119D01*
X215077786Y-50175595D01*
X214855167Y-50175595D01*
X214677071Y-50220119D01*
X214588024Y-50264643D01*
X214543500Y-50309167D01*
X214498976Y-50398214D01*
X234737976Y-48394643D02*
X233802976Y-48394643D01*
X233802976Y-48617262D01*
X233847500Y-48750834D01*
X233936548Y-48839881D01*
X234025595Y-48884405D01*
X234203690Y-48928929D01*
X234337262Y-48928929D01*
X234515357Y-48884405D01*
X234604405Y-48839881D01*
X234693452Y-48750834D01*
X234737976Y-48617262D01*
X234737976Y-48394643D01*
X234737976Y-49819405D02*
X234737976Y-49285119D01*
X234737976Y-49552262D02*
X233802976Y-49552262D01*
X233936548Y-49463214D01*
X234025595Y-49374167D01*
X234070119Y-49285119D01*
X234737976Y-50709881D02*
X234737976Y-50175595D01*
X234737976Y-50442738D02*
X233802976Y-50442738D01*
X233936548Y-50353690D01*
X234025595Y-50264643D01*
X234070119Y-50175595D01*
X43022976Y-66464643D02*
X42087976Y-66464643D01*
X42087976Y-66687262D01*
X42132500Y-66820834D01*
X42221548Y-66909881D01*
X42310595Y-66954405D01*
X42488690Y-66998929D01*
X42622262Y-66998929D01*
X42800357Y-66954405D01*
X42889405Y-66909881D01*
X42978452Y-66820834D01*
X43022976Y-66687262D01*
X43022976Y-66464643D01*
X43022976Y-67889405D02*
X43022976Y-67355119D01*
X43022976Y-67622262D02*
X42087976Y-67622262D01*
X42221548Y-67533214D01*
X42310595Y-67444167D01*
X42355119Y-67355119D01*
X42177024Y-68245595D02*
X42132500Y-68290119D01*
X42087976Y-68379167D01*
X42087976Y-68601786D01*
X42132500Y-68690833D01*
X42177024Y-68735357D01*
X42266071Y-68779881D01*
X42355119Y-68779881D01*
X42488690Y-68735357D01*
X43022976Y-68201071D01*
X43022976Y-68779881D01*
X67097976Y-67190643D02*
X66162976Y-67190643D01*
X66162976Y-67413262D01*
X66207500Y-67546834D01*
X66296548Y-67635881D01*
X66385595Y-67680405D01*
X66563690Y-67724929D01*
X66697262Y-67724929D01*
X66875357Y-67680405D01*
X66964405Y-67635881D01*
X67053452Y-67546834D01*
X67097976Y-67413262D01*
X67097976Y-67190643D01*
X67097976Y-68615405D02*
X67097976Y-68081119D01*
X67097976Y-68348262D02*
X66162976Y-68348262D01*
X66296548Y-68259214D01*
X66385595Y-68170167D01*
X66430119Y-68081119D01*
X66162976Y-68927071D02*
X66162976Y-69505881D01*
X66519167Y-69194214D01*
X66519167Y-69327786D01*
X66563690Y-69416833D01*
X66608214Y-69461357D01*
X66697262Y-69505881D01*
X66919881Y-69505881D01*
X67008929Y-69461357D01*
X67053452Y-69416833D01*
X67097976Y-69327786D01*
X67097976Y-69060643D01*
X67053452Y-68971595D01*
X67008929Y-68927071D01*
X86909976Y-67190643D02*
X85974976Y-67190643D01*
X85974976Y-67413262D01*
X86019500Y-67546834D01*
X86108548Y-67635881D01*
X86197595Y-67680405D01*
X86375690Y-67724929D01*
X86509262Y-67724929D01*
X86687357Y-67680405D01*
X86776405Y-67635881D01*
X86865452Y-67546834D01*
X86909976Y-67413262D01*
X86909976Y-67190643D01*
X86909976Y-68615405D02*
X86909976Y-68081119D01*
X86909976Y-68348262D02*
X85974976Y-68348262D01*
X86108548Y-68259214D01*
X86197595Y-68170167D01*
X86242119Y-68081119D01*
X86286643Y-69416833D02*
X86909976Y-69416833D01*
X85930452Y-69194214D02*
X86598310Y-68971595D01*
X86598310Y-69550405D01*
X106213976Y-67190643D02*
X105278976Y-67190643D01*
X105278976Y-67413262D01*
X105323500Y-67546834D01*
X105412548Y-67635881D01*
X105501595Y-67680405D01*
X105679690Y-67724929D01*
X105813262Y-67724929D01*
X105991357Y-67680405D01*
X106080405Y-67635881D01*
X106169452Y-67546834D01*
X106213976Y-67413262D01*
X106213976Y-67190643D01*
X106213976Y-68615405D02*
X106213976Y-68081119D01*
X106213976Y-68348262D02*
X105278976Y-68348262D01*
X105412548Y-68259214D01*
X105501595Y-68170167D01*
X105546119Y-68081119D01*
X105278976Y-69461357D02*
X105278976Y-69016119D01*
X105724214Y-68971595D01*
X105679690Y-69016119D01*
X105635167Y-69105167D01*
X105635167Y-69327786D01*
X105679690Y-69416833D01*
X105724214Y-69461357D01*
X105813262Y-69505881D01*
X106035881Y-69505881D01*
X106124929Y-69461357D01*
X106169452Y-69416833D01*
X106213976Y-69327786D01*
X106213976Y-69105167D01*
X106169452Y-69016119D01*
X106124929Y-68971595D01*
X123993976Y-67190643D02*
X123058976Y-67190643D01*
X123058976Y-67413262D01*
X123103500Y-67546834D01*
X123192548Y-67635881D01*
X123281595Y-67680405D01*
X123459690Y-67724929D01*
X123593262Y-67724929D01*
X123771357Y-67680405D01*
X123860405Y-67635881D01*
X123949452Y-67546834D01*
X123993976Y-67413262D01*
X123993976Y-67190643D01*
X123993976Y-68615405D02*
X123993976Y-68081119D01*
X123993976Y-68348262D02*
X123058976Y-68348262D01*
X123192548Y-68259214D01*
X123281595Y-68170167D01*
X123326119Y-68081119D01*
X123058976Y-69416833D02*
X123058976Y-69238738D01*
X123103500Y-69149690D01*
X123148024Y-69105167D01*
X123281595Y-69016119D01*
X123459690Y-68971595D01*
X123815881Y-68971595D01*
X123904929Y-69016119D01*
X123949452Y-69060643D01*
X123993976Y-69149690D01*
X123993976Y-69327786D01*
X123949452Y-69416833D01*
X123904929Y-69461357D01*
X123815881Y-69505881D01*
X123593262Y-69505881D01*
X123504214Y-69461357D01*
X123459690Y-69416833D01*
X123415167Y-69327786D01*
X123415167Y-69149690D01*
X123459690Y-69060643D01*
X123504214Y-69016119D01*
X123593262Y-68971595D01*
X144821976Y-67190643D02*
X143886976Y-67190643D01*
X143886976Y-67413262D01*
X143931500Y-67546834D01*
X144020548Y-67635881D01*
X144109595Y-67680405D01*
X144287690Y-67724929D01*
X144421262Y-67724929D01*
X144599357Y-67680405D01*
X144688405Y-67635881D01*
X144777452Y-67546834D01*
X144821976Y-67413262D01*
X144821976Y-67190643D01*
X144821976Y-68615405D02*
X144821976Y-68081119D01*
X144821976Y-68348262D02*
X143886976Y-68348262D01*
X144020548Y-68259214D01*
X144109595Y-68170167D01*
X144154119Y-68081119D01*
X143886976Y-68927071D02*
X143886976Y-69550405D01*
X144821976Y-69149690D01*
X162601976Y-67190643D02*
X161666976Y-67190643D01*
X161666976Y-67413262D01*
X161711500Y-67546834D01*
X161800548Y-67635881D01*
X161889595Y-67680405D01*
X162067690Y-67724929D01*
X162201262Y-67724929D01*
X162379357Y-67680405D01*
X162468405Y-67635881D01*
X162557452Y-67546834D01*
X162601976Y-67413262D01*
X162601976Y-67190643D01*
X162601976Y-68615405D02*
X162601976Y-68081119D01*
X162601976Y-68348262D02*
X161666976Y-68348262D01*
X161800548Y-68259214D01*
X161889595Y-68170167D01*
X161934119Y-68081119D01*
X162067690Y-69149690D02*
X162023167Y-69060643D01*
X161978643Y-69016119D01*
X161889595Y-68971595D01*
X161845071Y-68971595D01*
X161756024Y-69016119D01*
X161711500Y-69060643D01*
X161666976Y-69149690D01*
X161666976Y-69327786D01*
X161711500Y-69416833D01*
X161756024Y-69461357D01*
X161845071Y-69505881D01*
X161889595Y-69505881D01*
X161978643Y-69461357D01*
X162023167Y-69416833D01*
X162067690Y-69327786D01*
X162067690Y-69149690D01*
X162112214Y-69060643D01*
X162156738Y-69016119D01*
X162245786Y-68971595D01*
X162423881Y-68971595D01*
X162512929Y-69016119D01*
X162557452Y-69060643D01*
X162601976Y-69149690D01*
X162601976Y-69327786D01*
X162557452Y-69416833D01*
X162512929Y-69461357D01*
X162423881Y-69505881D01*
X162245786Y-69505881D01*
X162156738Y-69461357D01*
X162112214Y-69416833D01*
X162067690Y-69327786D01*
X181397976Y-66682643D02*
X180462976Y-66682643D01*
X180462976Y-66905262D01*
X180507500Y-67038834D01*
X180596548Y-67127881D01*
X180685595Y-67172405D01*
X180863690Y-67216929D01*
X180997262Y-67216929D01*
X181175357Y-67172405D01*
X181264405Y-67127881D01*
X181353452Y-67038834D01*
X181397976Y-66905262D01*
X181397976Y-66682643D01*
X181397976Y-68107405D02*
X181397976Y-67573119D01*
X181397976Y-67840262D02*
X180462976Y-67840262D01*
X180596548Y-67751214D01*
X180685595Y-67662167D01*
X180730119Y-67573119D01*
X181397976Y-68552643D02*
X181397976Y-68730738D01*
X181353452Y-68819786D01*
X181308929Y-68864310D01*
X181175357Y-68953357D01*
X180997262Y-68997881D01*
X180641071Y-68997881D01*
X180552024Y-68953357D01*
X180507500Y-68908833D01*
X180462976Y-68819786D01*
X180462976Y-68641690D01*
X180507500Y-68552643D01*
X180552024Y-68508119D01*
X180641071Y-68463595D01*
X180863690Y-68463595D01*
X180952738Y-68508119D01*
X180997262Y-68552643D01*
X181041786Y-68641690D01*
X181041786Y-68819786D01*
X180997262Y-68908833D01*
X180952738Y-68953357D01*
X180863690Y-68997881D01*
X200193976Y-66682643D02*
X199258976Y-66682643D01*
X199258976Y-66905262D01*
X199303500Y-67038834D01*
X199392548Y-67127881D01*
X199481595Y-67172405D01*
X199659690Y-67216929D01*
X199793262Y-67216929D01*
X199971357Y-67172405D01*
X200060405Y-67127881D01*
X200149452Y-67038834D01*
X200193976Y-66905262D01*
X200193976Y-66682643D01*
X199348024Y-67573119D02*
X199303500Y-67617643D01*
X199258976Y-67706691D01*
X199258976Y-67929310D01*
X199303500Y-68018357D01*
X199348024Y-68062881D01*
X199437071Y-68107405D01*
X199526119Y-68107405D01*
X199659690Y-68062881D01*
X200193976Y-67528595D01*
X200193976Y-68107405D01*
X199258976Y-68686214D02*
X199258976Y-68775262D01*
X199303500Y-68864310D01*
X199348024Y-68908833D01*
X199437071Y-68953357D01*
X199615167Y-68997881D01*
X199837786Y-68997881D01*
X200015881Y-68953357D01*
X200104929Y-68908833D01*
X200149452Y-68864310D01*
X200193976Y-68775262D01*
X200193976Y-68686214D01*
X200149452Y-68597167D01*
X200104929Y-68552643D01*
X200015881Y-68508119D01*
X199837786Y-68463595D01*
X199615167Y-68463595D01*
X199437071Y-68508119D01*
X199348024Y-68552643D01*
X199303500Y-68597167D01*
X199258976Y-68686214D01*
X220005976Y-67190643D02*
X219070976Y-67190643D01*
X219070976Y-67413262D01*
X219115500Y-67546834D01*
X219204548Y-67635881D01*
X219293595Y-67680405D01*
X219471690Y-67724929D01*
X219605262Y-67724929D01*
X219783357Y-67680405D01*
X219872405Y-67635881D01*
X219961452Y-67546834D01*
X220005976Y-67413262D01*
X220005976Y-67190643D01*
X219160024Y-68081119D02*
X219115500Y-68125643D01*
X219070976Y-68214691D01*
X219070976Y-68437310D01*
X219115500Y-68526357D01*
X219160024Y-68570881D01*
X219249071Y-68615405D01*
X219338119Y-68615405D01*
X219471690Y-68570881D01*
X220005976Y-68036595D01*
X220005976Y-68615405D01*
X220005976Y-69505881D02*
X220005976Y-68971595D01*
X220005976Y-69238738D02*
X219070976Y-69238738D01*
X219204548Y-69149690D01*
X219293595Y-69060643D01*
X219338119Y-68971595D01*
X245405976Y-66682643D02*
X244470976Y-66682643D01*
X244470976Y-66905262D01*
X244515500Y-67038834D01*
X244604548Y-67127881D01*
X244693595Y-67172405D01*
X244871690Y-67216929D01*
X245005262Y-67216929D01*
X245183357Y-67172405D01*
X245272405Y-67127881D01*
X245361452Y-67038834D01*
X245405976Y-66905262D01*
X245405976Y-66682643D01*
X244560024Y-67573119D02*
X244515500Y-67617643D01*
X244470976Y-67706691D01*
X244470976Y-67929310D01*
X244515500Y-68018357D01*
X244560024Y-68062881D01*
X244649071Y-68107405D01*
X244738119Y-68107405D01*
X244871690Y-68062881D01*
X245405976Y-67528595D01*
X245405976Y-68107405D01*
X244560024Y-68463595D02*
X244515500Y-68508119D01*
X244470976Y-68597167D01*
X244470976Y-68819786D01*
X244515500Y-68908833D01*
X244560024Y-68953357D01*
X244649071Y-68997881D01*
X244738119Y-68997881D01*
X244871690Y-68953357D01*
X245405976Y-68419071D01*
X245405976Y-68997881D01*
X49825976Y-85986643D02*
X48890976Y-85986643D01*
X48890976Y-86209262D01*
X48935500Y-86342834D01*
X49024548Y-86431881D01*
X49113595Y-86476405D01*
X49291690Y-86520929D01*
X49425262Y-86520929D01*
X49603357Y-86476405D01*
X49692405Y-86431881D01*
X49781452Y-86342834D01*
X49825976Y-86209262D01*
X49825976Y-85986643D01*
X48980024Y-86877119D02*
X48935500Y-86921643D01*
X48890976Y-87010691D01*
X48890976Y-87233310D01*
X48935500Y-87322357D01*
X48980024Y-87366881D01*
X49069071Y-87411405D01*
X49158119Y-87411405D01*
X49291690Y-87366881D01*
X49825976Y-86832595D01*
X49825976Y-87411405D01*
X48890976Y-87723071D02*
X48890976Y-88301881D01*
X49247167Y-87990214D01*
X49247167Y-88123786D01*
X49291690Y-88212833D01*
X49336214Y-88257357D01*
X49425262Y-88301881D01*
X49647881Y-88301881D01*
X49736929Y-88257357D01*
X49781452Y-88212833D01*
X49825976Y-88123786D01*
X49825976Y-87856643D01*
X49781452Y-87767595D01*
X49736929Y-87723071D01*
X76749976Y-86494643D02*
X75814976Y-86494643D01*
X75814976Y-86717262D01*
X75859500Y-86850834D01*
X75948548Y-86939881D01*
X76037595Y-86984405D01*
X76215690Y-87028929D01*
X76349262Y-87028929D01*
X76527357Y-86984405D01*
X76616405Y-86939881D01*
X76705452Y-86850834D01*
X76749976Y-86717262D01*
X76749976Y-86494643D01*
X75904024Y-87385119D02*
X75859500Y-87429643D01*
X75814976Y-87518691D01*
X75814976Y-87741310D01*
X75859500Y-87830357D01*
X75904024Y-87874881D01*
X75993071Y-87919405D01*
X76082119Y-87919405D01*
X76215690Y-87874881D01*
X76749976Y-87340595D01*
X76749976Y-87919405D01*
X76126643Y-88720833D02*
X76749976Y-88720833D01*
X75770452Y-88498214D02*
X76438310Y-88275595D01*
X76438310Y-88854405D01*
X95037976Y-96400643D02*
X94102976Y-96400643D01*
X94102976Y-96623262D01*
X94147500Y-96756834D01*
X94236548Y-96845881D01*
X94325595Y-96890405D01*
X94503690Y-96934929D01*
X94637262Y-96934929D01*
X94815357Y-96890405D01*
X94904405Y-96845881D01*
X94993452Y-96756834D01*
X95037976Y-96623262D01*
X95037976Y-96400643D01*
X94192024Y-97291119D02*
X94147500Y-97335643D01*
X94102976Y-97424691D01*
X94102976Y-97647310D01*
X94147500Y-97736357D01*
X94192024Y-97780881D01*
X94281071Y-97825405D01*
X94370119Y-97825405D01*
X94503690Y-97780881D01*
X95037976Y-97246595D01*
X95037976Y-97825405D01*
X94102976Y-98671357D02*
X94102976Y-98226119D01*
X94548214Y-98181595D01*
X94503690Y-98226119D01*
X94459167Y-98315167D01*
X94459167Y-98537786D01*
X94503690Y-98626833D01*
X94548214Y-98671357D01*
X94637262Y-98715881D01*
X94859881Y-98715881D01*
X94948929Y-98671357D01*
X94993452Y-98626833D01*
X95037976Y-98537786D01*
X95037976Y-98315167D01*
X94993452Y-98226119D01*
X94948929Y-98181595D01*
X111422976Y-85264643D02*
X110487976Y-85264643D01*
X110487976Y-85487262D01*
X110532500Y-85620834D01*
X110621548Y-85709881D01*
X110710595Y-85754405D01*
X110888690Y-85798929D01*
X111022262Y-85798929D01*
X111200357Y-85754405D01*
X111289405Y-85709881D01*
X111378452Y-85620834D01*
X111422976Y-85487262D01*
X111422976Y-85264643D01*
X110577024Y-86155119D02*
X110532500Y-86199643D01*
X110487976Y-86288691D01*
X110487976Y-86511310D01*
X110532500Y-86600357D01*
X110577024Y-86644881D01*
X110666071Y-86689405D01*
X110755119Y-86689405D01*
X110888690Y-86644881D01*
X111422976Y-86110595D01*
X111422976Y-86689405D01*
X110487976Y-87490833D02*
X110487976Y-87312738D01*
X110532500Y-87223690D01*
X110577024Y-87179167D01*
X110710595Y-87090119D01*
X110888690Y-87045595D01*
X111244881Y-87045595D01*
X111333929Y-87090119D01*
X111378452Y-87134643D01*
X111422976Y-87223690D01*
X111422976Y-87401786D01*
X111378452Y-87490833D01*
X111333929Y-87535357D01*
X111244881Y-87579881D01*
X111022262Y-87579881D01*
X110933214Y-87535357D01*
X110888690Y-87490833D01*
X110844167Y-87401786D01*
X110844167Y-87223690D01*
X110888690Y-87134643D01*
X110933214Y-87090119D01*
X111022262Y-87045595D01*
X134407976Y-85732643D02*
X133472976Y-85732643D01*
X133472976Y-85955262D01*
X133517500Y-86088834D01*
X133606548Y-86177881D01*
X133695595Y-86222405D01*
X133873690Y-86266929D01*
X134007262Y-86266929D01*
X134185357Y-86222405D01*
X134274405Y-86177881D01*
X134363452Y-86088834D01*
X134407976Y-85955262D01*
X134407976Y-85732643D01*
X133562024Y-86623119D02*
X133517500Y-86667643D01*
X133472976Y-86756691D01*
X133472976Y-86979310D01*
X133517500Y-87068357D01*
X133562024Y-87112881D01*
X133651071Y-87157405D01*
X133740119Y-87157405D01*
X133873690Y-87112881D01*
X134407976Y-86578595D01*
X134407976Y-87157405D01*
X133472976Y-87469071D02*
X133472976Y-88092405D01*
X134407976Y-87691690D01*
X152187976Y-85478643D02*
X151252976Y-85478643D01*
X151252976Y-85701262D01*
X151297500Y-85834834D01*
X151386548Y-85923881D01*
X151475595Y-85968405D01*
X151653690Y-86012929D01*
X151787262Y-86012929D01*
X151965357Y-85968405D01*
X152054405Y-85923881D01*
X152143452Y-85834834D01*
X152187976Y-85701262D01*
X152187976Y-85478643D01*
X151342024Y-86369119D02*
X151297500Y-86413643D01*
X151252976Y-86502691D01*
X151252976Y-86725310D01*
X151297500Y-86814357D01*
X151342024Y-86858881D01*
X151431071Y-86903405D01*
X151520119Y-86903405D01*
X151653690Y-86858881D01*
X152187976Y-86324595D01*
X152187976Y-86903405D01*
X151653690Y-87437690D02*
X151609167Y-87348643D01*
X151564643Y-87304119D01*
X151475595Y-87259595D01*
X151431071Y-87259595D01*
X151342024Y-87304119D01*
X151297500Y-87348643D01*
X151252976Y-87437690D01*
X151252976Y-87615786D01*
X151297500Y-87704833D01*
X151342024Y-87749357D01*
X151431071Y-87793881D01*
X151475595Y-87793881D01*
X151564643Y-87749357D01*
X151609167Y-87704833D01*
X151653690Y-87615786D01*
X151653690Y-87437690D01*
X151698214Y-87348643D01*
X151742738Y-87304119D01*
X151831786Y-87259595D01*
X152009881Y-87259595D01*
X152098929Y-87304119D01*
X152143452Y-87348643D01*
X152187976Y-87437690D01*
X152187976Y-87615786D01*
X152143452Y-87704833D01*
X152098929Y-87749357D01*
X152009881Y-87793881D01*
X151831786Y-87793881D01*
X151742738Y-87749357D01*
X151698214Y-87704833D01*
X151653690Y-87615786D01*
X171745976Y-85478643D02*
X170810976Y-85478643D01*
X170810976Y-85701262D01*
X170855500Y-85834834D01*
X170944548Y-85923881D01*
X171033595Y-85968405D01*
X171211690Y-86012929D01*
X171345262Y-86012929D01*
X171523357Y-85968405D01*
X171612405Y-85923881D01*
X171701452Y-85834834D01*
X171745976Y-85701262D01*
X171745976Y-85478643D01*
X170900024Y-86369119D02*
X170855500Y-86413643D01*
X170810976Y-86502691D01*
X170810976Y-86725310D01*
X170855500Y-86814357D01*
X170900024Y-86858881D01*
X170989071Y-86903405D01*
X171078119Y-86903405D01*
X171211690Y-86858881D01*
X171745976Y-86324595D01*
X171745976Y-86903405D01*
X171745976Y-87348643D02*
X171745976Y-87526738D01*
X171701452Y-87615786D01*
X171656929Y-87660310D01*
X171523357Y-87749357D01*
X171345262Y-87793881D01*
X170989071Y-87793881D01*
X170900024Y-87749357D01*
X170855500Y-87704833D01*
X170810976Y-87615786D01*
X170810976Y-87437690D01*
X170855500Y-87348643D01*
X170900024Y-87304119D01*
X170989071Y-87259595D01*
X171211690Y-87259595D01*
X171300738Y-87304119D01*
X171345262Y-87348643D01*
X171389786Y-87437690D01*
X171389786Y-87615786D01*
X171345262Y-87704833D01*
X171300738Y-87749357D01*
X171211690Y-87793881D01*
X191049976Y-85732643D02*
X190114976Y-85732643D01*
X190114976Y-85955262D01*
X190159500Y-86088834D01*
X190248548Y-86177881D01*
X190337595Y-86222405D01*
X190515690Y-86266929D01*
X190649262Y-86266929D01*
X190827357Y-86222405D01*
X190916405Y-86177881D01*
X191005452Y-86088834D01*
X191049976Y-85955262D01*
X191049976Y-85732643D01*
X190114976Y-86578595D02*
X190114976Y-87157405D01*
X190471167Y-86845738D01*
X190471167Y-86979310D01*
X190515690Y-87068357D01*
X190560214Y-87112881D01*
X190649262Y-87157405D01*
X190871881Y-87157405D01*
X190960929Y-87112881D01*
X191005452Y-87068357D01*
X191049976Y-86979310D01*
X191049976Y-86712167D01*
X191005452Y-86623119D01*
X190960929Y-86578595D01*
X190114976Y-87736214D02*
X190114976Y-87825262D01*
X190159500Y-87914310D01*
X190204024Y-87958833D01*
X190293071Y-88003357D01*
X190471167Y-88047881D01*
X190693786Y-88047881D01*
X190871881Y-88003357D01*
X190960929Y-87958833D01*
X191005452Y-87914310D01*
X191049976Y-87825262D01*
X191049976Y-87736214D01*
X191005452Y-87647167D01*
X190960929Y-87602643D01*
X190871881Y-87558119D01*
X190693786Y-87513595D01*
X190471167Y-87513595D01*
X190293071Y-87558119D01*
X190204024Y-87602643D01*
X190159500Y-87647167D01*
X190114976Y-87736214D01*
X209337976Y-96400643D02*
X208402976Y-96400643D01*
X208402976Y-96623262D01*
X208447500Y-96756834D01*
X208536548Y-96845881D01*
X208625595Y-96890405D01*
X208803690Y-96934929D01*
X208937262Y-96934929D01*
X209115357Y-96890405D01*
X209204405Y-96845881D01*
X209293452Y-96756834D01*
X209337976Y-96623262D01*
X209337976Y-96400643D01*
X208402976Y-97246595D02*
X208402976Y-97825405D01*
X208759167Y-97513738D01*
X208759167Y-97647310D01*
X208803690Y-97736357D01*
X208848214Y-97780881D01*
X208937262Y-97825405D01*
X209159881Y-97825405D01*
X209248929Y-97780881D01*
X209293452Y-97736357D01*
X209337976Y-97647310D01*
X209337976Y-97380167D01*
X209293452Y-97291119D01*
X209248929Y-97246595D01*
X209337976Y-98715881D02*
X209337976Y-98181595D01*
X209337976Y-98448738D02*
X208402976Y-98448738D01*
X208536548Y-98359690D01*
X208625595Y-98270643D01*
X208670119Y-98181595D01*
X232705976Y-86494643D02*
X231770976Y-86494643D01*
X231770976Y-86717262D01*
X231815500Y-86850834D01*
X231904548Y-86939881D01*
X231993595Y-86984405D01*
X232171690Y-87028929D01*
X232305262Y-87028929D01*
X232483357Y-86984405D01*
X232572405Y-86939881D01*
X232661452Y-86850834D01*
X232705976Y-86717262D01*
X232705976Y-86494643D01*
X231770976Y-87340595D02*
X231770976Y-87919405D01*
X232127167Y-87607738D01*
X232127167Y-87741310D01*
X232171690Y-87830357D01*
X232216214Y-87874881D01*
X232305262Y-87919405D01*
X232527881Y-87919405D01*
X232616929Y-87874881D01*
X232661452Y-87830357D01*
X232705976Y-87741310D01*
X232705976Y-87474167D01*
X232661452Y-87385119D01*
X232616929Y-87340595D01*
X231860024Y-88275595D02*
X231815500Y-88320119D01*
X231770976Y-88409167D01*
X231770976Y-88631786D01*
X231815500Y-88720833D01*
X231860024Y-88765357D01*
X231949071Y-88809881D01*
X232038119Y-88809881D01*
X232171690Y-88765357D01*
X232705976Y-88231071D01*
X232705976Y-88809881D01*
X254295976Y-86748643D02*
X253360976Y-86748643D01*
X253360976Y-86971262D01*
X253405500Y-87104834D01*
X253494548Y-87193881D01*
X253583595Y-87238405D01*
X253761690Y-87282929D01*
X253895262Y-87282929D01*
X254073357Y-87238405D01*
X254162405Y-87193881D01*
X254251452Y-87104834D01*
X254295976Y-86971262D01*
X254295976Y-86748643D01*
X253360976Y-87594595D02*
X253360976Y-88173405D01*
X253717167Y-87861738D01*
X253717167Y-87995310D01*
X253761690Y-88084357D01*
X253806214Y-88128881D01*
X253895262Y-88173405D01*
X254117881Y-88173405D01*
X254206929Y-88128881D01*
X254251452Y-88084357D01*
X254295976Y-87995310D01*
X254295976Y-87728167D01*
X254251452Y-87639119D01*
X254206929Y-87594595D01*
X253360976Y-88485071D02*
X253360976Y-89063881D01*
X253717167Y-88752214D01*
X253717167Y-88885786D01*
X253761690Y-88974833D01*
X253806214Y-89019357D01*
X253895262Y-89063881D01*
X254117881Y-89063881D01*
X254206929Y-89019357D01*
X254251452Y-88974833D01*
X254295976Y-88885786D01*
X254295976Y-88618643D01*
X254251452Y-88529595D01*
X254206929Y-88485071D01*
X43422976Y-104264643D02*
X42487976Y-104264643D01*
X42487976Y-104487262D01*
X42532500Y-104620834D01*
X42621548Y-104709881D01*
X42710595Y-104754405D01*
X42888690Y-104798929D01*
X43022262Y-104798929D01*
X43200357Y-104754405D01*
X43289405Y-104709881D01*
X43378452Y-104620834D01*
X43422976Y-104487262D01*
X43422976Y-104264643D01*
X42487976Y-105110595D02*
X42487976Y-105689405D01*
X42844167Y-105377738D01*
X42844167Y-105511310D01*
X42888690Y-105600357D01*
X42933214Y-105644881D01*
X43022262Y-105689405D01*
X43244881Y-105689405D01*
X43333929Y-105644881D01*
X43378452Y-105600357D01*
X43422976Y-105511310D01*
X43422976Y-105244167D01*
X43378452Y-105155119D01*
X43333929Y-105110595D01*
X42799643Y-106490833D02*
X43422976Y-106490833D01*
X42443452Y-106268214D02*
X43111310Y-106045595D01*
X43111310Y-106624405D01*
X67605976Y-104782643D02*
X66670976Y-104782643D01*
X66670976Y-105005262D01*
X66715500Y-105138834D01*
X66804548Y-105227881D01*
X66893595Y-105272405D01*
X67071690Y-105316929D01*
X67205262Y-105316929D01*
X67383357Y-105272405D01*
X67472405Y-105227881D01*
X67561452Y-105138834D01*
X67605976Y-105005262D01*
X67605976Y-104782643D01*
X66670976Y-105628595D02*
X66670976Y-106207405D01*
X67027167Y-105895738D01*
X67027167Y-106029310D01*
X67071690Y-106118357D01*
X67116214Y-106162881D01*
X67205262Y-106207405D01*
X67427881Y-106207405D01*
X67516929Y-106162881D01*
X67561452Y-106118357D01*
X67605976Y-106029310D01*
X67605976Y-105762167D01*
X67561452Y-105673119D01*
X67516929Y-105628595D01*
X66670976Y-107053357D02*
X66670976Y-106608119D01*
X67116214Y-106563595D01*
X67071690Y-106608119D01*
X67027167Y-106697167D01*
X67027167Y-106919786D01*
X67071690Y-107008833D01*
X67116214Y-107053357D01*
X67205262Y-107097881D01*
X67427881Y-107097881D01*
X67516929Y-107053357D01*
X67561452Y-107008833D01*
X67605976Y-106919786D01*
X67605976Y-106697167D01*
X67561452Y-106608119D01*
X67516929Y-106563595D01*
X86655976Y-104782643D02*
X85720976Y-104782643D01*
X85720976Y-105005262D01*
X85765500Y-105138834D01*
X85854548Y-105227881D01*
X85943595Y-105272405D01*
X86121690Y-105316929D01*
X86255262Y-105316929D01*
X86433357Y-105272405D01*
X86522405Y-105227881D01*
X86611452Y-105138834D01*
X86655976Y-105005262D01*
X86655976Y-104782643D01*
X85720976Y-105628595D02*
X85720976Y-106207405D01*
X86077167Y-105895738D01*
X86077167Y-106029310D01*
X86121690Y-106118357D01*
X86166214Y-106162881D01*
X86255262Y-106207405D01*
X86477881Y-106207405D01*
X86566929Y-106162881D01*
X86611452Y-106118357D01*
X86655976Y-106029310D01*
X86655976Y-105762167D01*
X86611452Y-105673119D01*
X86566929Y-105628595D01*
X85720976Y-107008833D02*
X85720976Y-106830738D01*
X85765500Y-106741690D01*
X85810024Y-106697167D01*
X85943595Y-106608119D01*
X86121690Y-106563595D01*
X86477881Y-106563595D01*
X86566929Y-106608119D01*
X86611452Y-106652643D01*
X86655976Y-106741690D01*
X86655976Y-106919786D01*
X86611452Y-107008833D01*
X86566929Y-107053357D01*
X86477881Y-107097881D01*
X86255262Y-107097881D01*
X86166214Y-107053357D01*
X86121690Y-107008833D01*
X86077167Y-106919786D01*
X86077167Y-106741690D01*
X86121690Y-106652643D01*
X86166214Y-106608119D01*
X86255262Y-106563595D01*
X155997976Y-105544643D02*
X155062976Y-105544643D01*
X155062976Y-105767262D01*
X155107500Y-105900834D01*
X155196548Y-105989881D01*
X155285595Y-106034405D01*
X155463690Y-106078929D01*
X155597262Y-106078929D01*
X155775357Y-106034405D01*
X155864405Y-105989881D01*
X155953452Y-105900834D01*
X155997976Y-105767262D01*
X155997976Y-105544643D01*
X155062976Y-106390595D02*
X155062976Y-106969405D01*
X155419167Y-106657738D01*
X155419167Y-106791310D01*
X155463690Y-106880357D01*
X155508214Y-106924881D01*
X155597262Y-106969405D01*
X155819881Y-106969405D01*
X155908929Y-106924881D01*
X155953452Y-106880357D01*
X155997976Y-106791310D01*
X155997976Y-106524167D01*
X155953452Y-106435119D01*
X155908929Y-106390595D01*
X155062976Y-107281071D02*
X155062976Y-107904405D01*
X155997976Y-107503690D01*
X227371976Y-105290643D02*
X226436976Y-105290643D01*
X226436976Y-105513262D01*
X226481500Y-105646834D01*
X226570548Y-105735881D01*
X226659595Y-105780405D01*
X226837690Y-105824929D01*
X226971262Y-105824929D01*
X227149357Y-105780405D01*
X227238405Y-105735881D01*
X227327452Y-105646834D01*
X227371976Y-105513262D01*
X227371976Y-105290643D01*
X226436976Y-106136595D02*
X226436976Y-106715405D01*
X226793167Y-106403738D01*
X226793167Y-106537310D01*
X226837690Y-106626357D01*
X226882214Y-106670881D01*
X226971262Y-106715405D01*
X227193881Y-106715405D01*
X227282929Y-106670881D01*
X227327452Y-106626357D01*
X227371976Y-106537310D01*
X227371976Y-106270167D01*
X227327452Y-106181119D01*
X227282929Y-106136595D01*
X226837690Y-107249690D02*
X226793167Y-107160643D01*
X226748643Y-107116119D01*
X226659595Y-107071595D01*
X226615071Y-107071595D01*
X226526024Y-107116119D01*
X226481500Y-107160643D01*
X226436976Y-107249690D01*
X226436976Y-107427786D01*
X226481500Y-107516833D01*
X226526024Y-107561357D01*
X226615071Y-107605881D01*
X226659595Y-107605881D01*
X226748643Y-107561357D01*
X226793167Y-107516833D01*
X226837690Y-107427786D01*
X226837690Y-107249690D01*
X226882214Y-107160643D01*
X226926738Y-107116119D01*
X227015786Y-107071595D01*
X227193881Y-107071595D01*
X227282929Y-107116119D01*
X227327452Y-107160643D01*
X227371976Y-107249690D01*
X227371976Y-107427786D01*
X227327452Y-107516833D01*
X227282929Y-107561357D01*
X227193881Y-107605881D01*
X227015786Y-107605881D01*
X226926738Y-107561357D01*
X226882214Y-107516833D01*
X226837690Y-107427786D01*
X251755976Y-105544643D02*
X250820976Y-105544643D01*
X250820976Y-105767262D01*
X250865500Y-105900834D01*
X250954548Y-105989881D01*
X251043595Y-106034405D01*
X251221690Y-106078929D01*
X251355262Y-106078929D01*
X251533357Y-106034405D01*
X251622405Y-105989881D01*
X251711452Y-105900834D01*
X251755976Y-105767262D01*
X251755976Y-105544643D01*
X250820976Y-106390595D02*
X250820976Y-106969405D01*
X251177167Y-106657738D01*
X251177167Y-106791310D01*
X251221690Y-106880357D01*
X251266214Y-106924881D01*
X251355262Y-106969405D01*
X251577881Y-106969405D01*
X251666929Y-106924881D01*
X251711452Y-106880357D01*
X251755976Y-106791310D01*
X251755976Y-106524167D01*
X251711452Y-106435119D01*
X251666929Y-106390595D01*
X251755976Y-107414643D02*
X251755976Y-107592738D01*
X251711452Y-107681786D01*
X251666929Y-107726310D01*
X251533357Y-107815357D01*
X251355262Y-107859881D01*
X250999071Y-107859881D01*
X250910024Y-107815357D01*
X250865500Y-107770833D01*
X250820976Y-107681786D01*
X250820976Y-107503690D01*
X250865500Y-107414643D01*
X250910024Y-107370119D01*
X250999071Y-107325595D01*
X251221690Y-107325595D01*
X251310738Y-107370119D01*
X251355262Y-107414643D01*
X251399786Y-107503690D01*
X251399786Y-107681786D01*
X251355262Y-107770833D01*
X251310738Y-107815357D01*
X251221690Y-107859881D01*
X254041976Y-48394643D02*
X253106976Y-48394643D01*
X253106976Y-48617262D01*
X253151500Y-48750834D01*
X253240548Y-48839881D01*
X253329595Y-48884405D01*
X253507690Y-48928929D01*
X253641262Y-48928929D01*
X253819357Y-48884405D01*
X253908405Y-48839881D01*
X253997452Y-48750834D01*
X254041976Y-48617262D01*
X254041976Y-48394643D01*
X253418643Y-49730357D02*
X254041976Y-49730357D01*
X253062452Y-49507738D02*
X253730310Y-49285119D01*
X253730310Y-49863929D01*
X253106976Y-50398214D02*
X253106976Y-50487262D01*
X253151500Y-50576310D01*
X253196024Y-50620833D01*
X253285071Y-50665357D01*
X253463167Y-50709881D01*
X253685786Y-50709881D01*
X253863881Y-50665357D01*
X253952929Y-50620833D01*
X253997452Y-50576310D01*
X254041976Y-50487262D01*
X254041976Y-50398214D01*
X253997452Y-50309167D01*
X253952929Y-50264643D01*
X253863881Y-50220119D01*
X253685786Y-50175595D01*
X253463167Y-50175595D01*
X253285071Y-50220119D01*
X253196024Y-50264643D01*
X253151500Y-50309167D01*
X253106976Y-50398214D01*
D18*
X128590524Y-108482191D02*
X127320524Y-108482191D01*
X128469571Y-109546572D02*
X128530048Y-109498191D01*
X128590524Y-109353048D01*
X128590524Y-109256286D01*
X128530048Y-109111144D01*
X128409095Y-109014382D01*
X128288143Y-108966001D01*
X128046238Y-108917620D01*
X127864810Y-108917620D01*
X127622905Y-108966001D01*
X127501952Y-109014382D01*
X127381000Y-109111144D01*
X127320524Y-109256286D01*
X127320524Y-109353048D01*
X127381000Y-109498191D01*
X127441476Y-109546572D01*
X128590524Y-110514191D02*
X128590524Y-109933620D01*
X128590524Y-110223906D02*
X127320524Y-110223906D01*
X127501952Y-110127144D01*
X127622905Y-110030382D01*
X127683381Y-109933620D01*
X125687667Y-104877810D02*
X125687667Y-105361619D01*
X126050524Y-104781048D02*
X124780524Y-105119715D01*
X126050524Y-105458381D01*
X124780524Y-105651905D02*
X124780524Y-106232476D01*
X126050524Y-105942191D02*
X124780524Y-105942191D01*
X126050524Y-106571143D02*
X124780524Y-106571143D01*
X125687667Y-106909809D01*
X124780524Y-107248476D01*
X126050524Y-107248476D01*
X125385286Y-107732286D02*
X125385286Y-108070952D01*
X126050524Y-108216095D02*
X126050524Y-107732286D01*
X124780524Y-107732286D01*
X124780524Y-108216095D01*
X124841000Y-109183714D02*
X124780524Y-109086952D01*
X124780524Y-108941809D01*
X124841000Y-108796667D01*
X124961952Y-108699905D01*
X125082905Y-108651524D01*
X125324810Y-108603143D01*
X125506238Y-108603143D01*
X125748143Y-108651524D01*
X125869095Y-108699905D01*
X125990048Y-108796667D01*
X126050524Y-108941809D01*
X126050524Y-109038571D01*
X125990048Y-109183714D01*
X125929571Y-109232095D01*
X125506238Y-109232095D01*
X125506238Y-109038571D01*
X125687667Y-109619143D02*
X125687667Y-110102952D01*
X126050524Y-109522381D02*
X124780524Y-109861048D01*
X126050524Y-110199714D01*
X124780524Y-110441619D02*
X124780524Y-111070571D01*
X125264333Y-110731905D01*
X125264333Y-110877047D01*
X125324810Y-110973809D01*
X125385286Y-111022190D01*
X125506238Y-111070571D01*
X125808619Y-111070571D01*
X125929571Y-111022190D01*
X125990048Y-110973809D01*
X126050524Y-110877047D01*
X126050524Y-110586762D01*
X125990048Y-110490000D01*
X125929571Y-110441619D01*
X124901476Y-111457619D02*
X124841000Y-111506000D01*
X124780524Y-111602762D01*
X124780524Y-111844666D01*
X124841000Y-111941428D01*
X124901476Y-111989809D01*
X125022429Y-112038190D01*
X125143381Y-112038190D01*
X125324810Y-111989809D01*
X126050524Y-111409238D01*
X126050524Y-112038190D01*
X124780524Y-112473619D02*
X125808619Y-112473619D01*
X125929571Y-112522000D01*
X125990048Y-112570381D01*
X126050524Y-112667143D01*
X126050524Y-112860666D01*
X125990048Y-112957428D01*
X125929571Y-113005809D01*
X125808619Y-113054190D01*
X124780524Y-113054190D01*
X125203857Y-113973428D02*
X126050524Y-113973428D01*
X124720048Y-113731524D02*
X125627190Y-113489619D01*
X125627190Y-114118571D01*
D15*
X74434381Y-47847334D02*
X74434381Y-47371143D01*
X73434381Y-47371143D01*
X74434381Y-48752096D02*
X73958190Y-48418762D01*
X74434381Y-48180667D02*
X73434381Y-48180667D01*
X73434381Y-48561620D01*
X73482000Y-48656858D01*
X73529619Y-48704477D01*
X73624857Y-48752096D01*
X73767714Y-48752096D01*
X73862952Y-48704477D01*
X73910571Y-48656858D01*
X73958190Y-48561620D01*
X73958190Y-48180667D01*
X74434381Y-49704477D02*
X74434381Y-49133048D01*
X74434381Y-49418762D02*
X73434381Y-49418762D01*
X73577238Y-49323524D01*
X73672476Y-49228286D01*
X73720095Y-49133048D01*
X112534381Y-47847334D02*
X112534381Y-47371143D01*
X111534381Y-47371143D01*
X112534381Y-48752096D02*
X112058190Y-48418762D01*
X112534381Y-48180667D02*
X111534381Y-48180667D01*
X111534381Y-48561620D01*
X111582000Y-48656858D01*
X111629619Y-48704477D01*
X111724857Y-48752096D01*
X111867714Y-48752096D01*
X111962952Y-48704477D01*
X112010571Y-48656858D01*
X112058190Y-48561620D01*
X112058190Y-48180667D01*
X111629619Y-49133048D02*
X111582000Y-49180667D01*
X111534381Y-49275905D01*
X111534381Y-49514001D01*
X111582000Y-49609239D01*
X111629619Y-49656858D01*
X111724857Y-49704477D01*
X111820095Y-49704477D01*
X111962952Y-49656858D01*
X112534381Y-49085429D01*
X112534381Y-49704477D01*
X131330381Y-47847334D02*
X131330381Y-47371143D01*
X130330381Y-47371143D01*
X131330381Y-48752096D02*
X130854190Y-48418762D01*
X131330381Y-48180667D02*
X130330381Y-48180667D01*
X130330381Y-48561620D01*
X130378000Y-48656858D01*
X130425619Y-48704477D01*
X130520857Y-48752096D01*
X130663714Y-48752096D01*
X130758952Y-48704477D01*
X130806571Y-48656858D01*
X130854190Y-48561620D01*
X130854190Y-48180667D01*
X130330381Y-49085429D02*
X130330381Y-49704477D01*
X130711333Y-49371143D01*
X130711333Y-49514001D01*
X130758952Y-49609239D01*
X130806571Y-49656858D01*
X130901810Y-49704477D01*
X131139905Y-49704477D01*
X131235143Y-49656858D01*
X131282762Y-49609239D01*
X131330381Y-49514001D01*
X131330381Y-49228286D01*
X131282762Y-49133048D01*
X131235143Y-49085429D01*
X150126381Y-47847334D02*
X150126381Y-47371143D01*
X149126381Y-47371143D01*
X150126381Y-48752096D02*
X149650190Y-48418762D01*
X150126381Y-48180667D02*
X149126381Y-48180667D01*
X149126381Y-48561620D01*
X149174000Y-48656858D01*
X149221619Y-48704477D01*
X149316857Y-48752096D01*
X149459714Y-48752096D01*
X149554952Y-48704477D01*
X149602571Y-48656858D01*
X149650190Y-48561620D01*
X149650190Y-48180667D01*
X149459714Y-49609239D02*
X150126381Y-49609239D01*
X149078762Y-49371143D02*
X149793048Y-49133048D01*
X149793048Y-49752096D01*
X168922381Y-47847334D02*
X168922381Y-47371143D01*
X167922381Y-47371143D01*
X168922381Y-48752096D02*
X168446190Y-48418762D01*
X168922381Y-48180667D02*
X167922381Y-48180667D01*
X167922381Y-48561620D01*
X167970000Y-48656858D01*
X168017619Y-48704477D01*
X168112857Y-48752096D01*
X168255714Y-48752096D01*
X168350952Y-48704477D01*
X168398571Y-48656858D01*
X168446190Y-48561620D01*
X168446190Y-48180667D01*
X167922381Y-49656858D02*
X167922381Y-49180667D01*
X168398571Y-49133048D01*
X168350952Y-49180667D01*
X168303333Y-49275905D01*
X168303333Y-49514001D01*
X168350952Y-49609239D01*
X168398571Y-49656858D01*
X168493810Y-49704477D01*
X168731905Y-49704477D01*
X168827143Y-49656858D01*
X168874762Y-49609239D01*
X168922381Y-49514001D01*
X168922381Y-49275905D01*
X168874762Y-49180667D01*
X168827143Y-49133048D01*
X188226381Y-47847334D02*
X188226381Y-47371143D01*
X187226381Y-47371143D01*
X188226381Y-48752096D02*
X187750190Y-48418762D01*
X188226381Y-48180667D02*
X187226381Y-48180667D01*
X187226381Y-48561620D01*
X187274000Y-48656858D01*
X187321619Y-48704477D01*
X187416857Y-48752096D01*
X187559714Y-48752096D01*
X187654952Y-48704477D01*
X187702571Y-48656858D01*
X187750190Y-48561620D01*
X187750190Y-48180667D01*
X187226381Y-49609239D02*
X187226381Y-49418762D01*
X187274000Y-49323524D01*
X187321619Y-49275905D01*
X187464476Y-49180667D01*
X187654952Y-49133048D01*
X188035905Y-49133048D01*
X188131143Y-49180667D01*
X188178762Y-49228286D01*
X188226381Y-49323524D01*
X188226381Y-49514001D01*
X188178762Y-49609239D01*
X188131143Y-49656858D01*
X188035905Y-49704477D01*
X187797810Y-49704477D01*
X187702571Y-49656858D01*
X187654952Y-49609239D01*
X187607333Y-49514001D01*
X187607333Y-49323524D01*
X187654952Y-49228286D01*
X187702571Y-49180667D01*
X187797810Y-49133048D01*
X207530381Y-48355334D02*
X207530381Y-47879143D01*
X206530381Y-47879143D01*
X207530381Y-49260096D02*
X207054190Y-48926762D01*
X207530381Y-48688667D02*
X206530381Y-48688667D01*
X206530381Y-49069620D01*
X206578000Y-49164858D01*
X206625619Y-49212477D01*
X206720857Y-49260096D01*
X206863714Y-49260096D01*
X206958952Y-49212477D01*
X207006571Y-49164858D01*
X207054190Y-49069620D01*
X207054190Y-48688667D01*
X206530381Y-49593429D02*
X206530381Y-50260096D01*
X207530381Y-49831524D01*
X226326381Y-48355334D02*
X226326381Y-47879143D01*
X225326381Y-47879143D01*
X226326381Y-49260096D02*
X225850190Y-48926762D01*
X226326381Y-48688667D02*
X225326381Y-48688667D01*
X225326381Y-49069620D01*
X225374000Y-49164858D01*
X225421619Y-49212477D01*
X225516857Y-49260096D01*
X225659714Y-49260096D01*
X225754952Y-49212477D01*
X225802571Y-49164858D01*
X225850190Y-49069620D01*
X225850190Y-48688667D01*
X225754952Y-49831524D02*
X225707333Y-49736286D01*
X225659714Y-49688667D01*
X225564476Y-49641048D01*
X225516857Y-49641048D01*
X225421619Y-49688667D01*
X225374000Y-49736286D01*
X225326381Y-49831524D01*
X225326381Y-50022001D01*
X225374000Y-50117239D01*
X225421619Y-50164858D01*
X225516857Y-50212477D01*
X225564476Y-50212477D01*
X225659714Y-50164858D01*
X225707333Y-50117239D01*
X225754952Y-50022001D01*
X225754952Y-49831524D01*
X225802571Y-49736286D01*
X225850190Y-49688667D01*
X225945429Y-49641048D01*
X226135905Y-49641048D01*
X226231143Y-49688667D01*
X226278762Y-49736286D01*
X226326381Y-49831524D01*
X226326381Y-50022001D01*
X226278762Y-50117239D01*
X226231143Y-50164858D01*
X226135905Y-50212477D01*
X225945429Y-50212477D01*
X225850190Y-50164858D01*
X225802571Y-50117239D01*
X225754952Y-50022001D01*
X245122381Y-48355334D02*
X245122381Y-47879143D01*
X244122381Y-47879143D01*
X245122381Y-49260096D02*
X244646190Y-48926762D01*
X245122381Y-48688667D02*
X244122381Y-48688667D01*
X244122381Y-49069620D01*
X244170000Y-49164858D01*
X244217619Y-49212477D01*
X244312857Y-49260096D01*
X244455714Y-49260096D01*
X244550952Y-49212477D01*
X244598571Y-49164858D01*
X244646190Y-49069620D01*
X244646190Y-48688667D01*
X245122381Y-49736286D02*
X245122381Y-49926762D01*
X245074762Y-50022001D01*
X245027143Y-50069620D01*
X244884286Y-50164858D01*
X244693810Y-50212477D01*
X244312857Y-50212477D01*
X244217619Y-50164858D01*
X244170000Y-50117239D01*
X244122381Y-50022001D01*
X244122381Y-49831524D01*
X244170000Y-49736286D01*
X244217619Y-49688667D01*
X244312857Y-49641048D01*
X244550952Y-49641048D01*
X244646190Y-49688667D01*
X244693810Y-49736286D01*
X244741429Y-49831524D01*
X244741429Y-50022001D01*
X244693810Y-50117239D01*
X244646190Y-50164858D01*
X244550952Y-50212477D01*
X263918381Y-47879143D02*
X263918381Y-47402952D01*
X262918381Y-47402952D01*
X263918381Y-48783905D02*
X263442190Y-48450571D01*
X263918381Y-48212476D02*
X262918381Y-48212476D01*
X262918381Y-48593429D01*
X262966000Y-48688667D01*
X263013619Y-48736286D01*
X263108857Y-48783905D01*
X263251714Y-48783905D01*
X263346952Y-48736286D01*
X263394571Y-48688667D01*
X263442190Y-48593429D01*
X263442190Y-48212476D01*
X263918381Y-49736286D02*
X263918381Y-49164857D01*
X263918381Y-49450571D02*
X262918381Y-49450571D01*
X263061238Y-49355333D01*
X263156476Y-49260095D01*
X263204095Y-49164857D01*
X262918381Y-50355333D02*
X262918381Y-50450572D01*
X262966000Y-50545810D01*
X263013619Y-50593429D01*
X263108857Y-50641048D01*
X263299333Y-50688667D01*
X263537429Y-50688667D01*
X263727905Y-50641048D01*
X263823143Y-50593429D01*
X263870762Y-50545810D01*
X263918381Y-50450572D01*
X263918381Y-50355333D01*
X263870762Y-50260095D01*
X263823143Y-50212476D01*
X263727905Y-50164857D01*
X263537429Y-50117238D01*
X263299333Y-50117238D01*
X263108857Y-50164857D01*
X263013619Y-50212476D01*
X262966000Y-50260095D01*
X262918381Y-50355333D01*
X53720857Y-69794381D02*
X54197048Y-69794381D01*
X54197048Y-68794381D01*
X52816095Y-69794381D02*
X53149429Y-69318190D01*
X53387524Y-69794381D02*
X53387524Y-68794381D01*
X53006571Y-68794381D01*
X52911333Y-68842000D01*
X52863714Y-68889619D01*
X52816095Y-68984857D01*
X52816095Y-69127714D01*
X52863714Y-69222952D01*
X52911333Y-69270571D01*
X53006571Y-69318190D01*
X53387524Y-69318190D01*
X51863714Y-69794381D02*
X52435143Y-69794381D01*
X52149429Y-69794381D02*
X52149429Y-68794381D01*
X52244667Y-68937238D01*
X52339905Y-69032476D01*
X52435143Y-69080095D01*
X50911333Y-69794381D02*
X51482762Y-69794381D01*
X51197048Y-69794381D02*
X51197048Y-68794381D01*
X51292286Y-68937238D01*
X51387524Y-69032476D01*
X51482762Y-69080095D01*
X43192381Y-47625143D02*
X43192381Y-47148952D01*
X42192381Y-47148952D01*
X43192381Y-48529905D02*
X42716190Y-48196571D01*
X43192381Y-47958476D02*
X42192381Y-47958476D01*
X42192381Y-48339429D01*
X42240000Y-48434667D01*
X42287619Y-48482286D01*
X42382857Y-48529905D01*
X42525714Y-48529905D01*
X42620952Y-48482286D01*
X42668571Y-48434667D01*
X42716190Y-48339429D01*
X42716190Y-47958476D01*
X43192381Y-49482286D02*
X43192381Y-48910857D01*
X43192381Y-49196571D02*
X42192381Y-49196571D01*
X42335238Y-49101333D01*
X42430476Y-49006095D01*
X42478095Y-48910857D01*
X42287619Y-49863238D02*
X42240000Y-49910857D01*
X42192381Y-50006095D01*
X42192381Y-50244191D01*
X42240000Y-50339429D01*
X42287619Y-50387048D01*
X42382857Y-50434667D01*
X42478095Y-50434667D01*
X42620952Y-50387048D01*
X43192381Y-49815619D01*
X43192381Y-50434667D01*
X92722381Y-47879143D02*
X92722381Y-47402952D01*
X91722381Y-47402952D01*
X92722381Y-48783905D02*
X92246190Y-48450571D01*
X92722381Y-48212476D02*
X91722381Y-48212476D01*
X91722381Y-48593429D01*
X91770000Y-48688667D01*
X91817619Y-48736286D01*
X91912857Y-48783905D01*
X92055714Y-48783905D01*
X92150952Y-48736286D01*
X92198571Y-48688667D01*
X92246190Y-48593429D01*
X92246190Y-48212476D01*
X92722381Y-49736286D02*
X92722381Y-49164857D01*
X92722381Y-49450571D02*
X91722381Y-49450571D01*
X91865238Y-49355333D01*
X91960476Y-49260095D01*
X92008095Y-49164857D01*
X91722381Y-50069619D02*
X91722381Y-50688667D01*
X92103333Y-50355333D01*
X92103333Y-50498191D01*
X92150952Y-50593429D01*
X92198571Y-50641048D01*
X92293810Y-50688667D01*
X92531905Y-50688667D01*
X92627143Y-50641048D01*
X92674762Y-50593429D01*
X92722381Y-50498191D01*
X92722381Y-50212476D01*
X92674762Y-50117238D01*
X92627143Y-50069619D01*
X79006381Y-66675143D02*
X79006381Y-66198952D01*
X78006381Y-66198952D01*
X79006381Y-67579905D02*
X78530190Y-67246571D01*
X79006381Y-67008476D02*
X78006381Y-67008476D01*
X78006381Y-67389429D01*
X78054000Y-67484667D01*
X78101619Y-67532286D01*
X78196857Y-67579905D01*
X78339714Y-67579905D01*
X78434952Y-67532286D01*
X78482571Y-67484667D01*
X78530190Y-67389429D01*
X78530190Y-67008476D01*
X79006381Y-68532286D02*
X79006381Y-67960857D01*
X79006381Y-68246571D02*
X78006381Y-68246571D01*
X78149238Y-68151333D01*
X78244476Y-68056095D01*
X78292095Y-67960857D01*
X78339714Y-69389429D02*
X79006381Y-69389429D01*
X77958762Y-69151333D02*
X78673048Y-68913238D01*
X78673048Y-69532286D01*
X97802381Y-66675143D02*
X97802381Y-66198952D01*
X96802381Y-66198952D01*
X97802381Y-67579905D02*
X97326190Y-67246571D01*
X97802381Y-67008476D02*
X96802381Y-67008476D01*
X96802381Y-67389429D01*
X96850000Y-67484667D01*
X96897619Y-67532286D01*
X96992857Y-67579905D01*
X97135714Y-67579905D01*
X97230952Y-67532286D01*
X97278571Y-67484667D01*
X97326190Y-67389429D01*
X97326190Y-67008476D01*
X97802381Y-68532286D02*
X97802381Y-67960857D01*
X97802381Y-68246571D02*
X96802381Y-68246571D01*
X96945238Y-68151333D01*
X97040476Y-68056095D01*
X97088095Y-67960857D01*
X96802381Y-69437048D02*
X96802381Y-68960857D01*
X97278571Y-68913238D01*
X97230952Y-68960857D01*
X97183333Y-69056095D01*
X97183333Y-69294191D01*
X97230952Y-69389429D01*
X97278571Y-69437048D01*
X97373810Y-69484667D01*
X97611905Y-69484667D01*
X97707143Y-69437048D01*
X97754762Y-69389429D01*
X97802381Y-69294191D01*
X97802381Y-69056095D01*
X97754762Y-68960857D01*
X97707143Y-68913238D01*
X117106381Y-66675143D02*
X117106381Y-66198952D01*
X116106381Y-66198952D01*
X117106381Y-67579905D02*
X116630190Y-67246571D01*
X117106381Y-67008476D02*
X116106381Y-67008476D01*
X116106381Y-67389429D01*
X116154000Y-67484667D01*
X116201619Y-67532286D01*
X116296857Y-67579905D01*
X116439714Y-67579905D01*
X116534952Y-67532286D01*
X116582571Y-67484667D01*
X116630190Y-67389429D01*
X116630190Y-67008476D01*
X117106381Y-68532286D02*
X117106381Y-67960857D01*
X117106381Y-68246571D02*
X116106381Y-68246571D01*
X116249238Y-68151333D01*
X116344476Y-68056095D01*
X116392095Y-67960857D01*
X116106381Y-69389429D02*
X116106381Y-69198952D01*
X116154000Y-69103714D01*
X116201619Y-69056095D01*
X116344476Y-68960857D01*
X116534952Y-68913238D01*
X116915905Y-68913238D01*
X117011143Y-68960857D01*
X117058762Y-69008476D01*
X117106381Y-69103714D01*
X117106381Y-69294191D01*
X117058762Y-69389429D01*
X117011143Y-69437048D01*
X116915905Y-69484667D01*
X116677810Y-69484667D01*
X116582571Y-69437048D01*
X116534952Y-69389429D01*
X116487333Y-69294191D01*
X116487333Y-69103714D01*
X116534952Y-69008476D01*
X116582571Y-68960857D01*
X116677810Y-68913238D01*
X135902381Y-66675143D02*
X135902381Y-66198952D01*
X134902381Y-66198952D01*
X135902381Y-67579905D02*
X135426190Y-67246571D01*
X135902381Y-67008476D02*
X134902381Y-67008476D01*
X134902381Y-67389429D01*
X134950000Y-67484667D01*
X134997619Y-67532286D01*
X135092857Y-67579905D01*
X135235714Y-67579905D01*
X135330952Y-67532286D01*
X135378571Y-67484667D01*
X135426190Y-67389429D01*
X135426190Y-67008476D01*
X135902381Y-68532286D02*
X135902381Y-67960857D01*
X135902381Y-68246571D02*
X134902381Y-68246571D01*
X135045238Y-68151333D01*
X135140476Y-68056095D01*
X135188095Y-67960857D01*
X134902381Y-68865619D02*
X134902381Y-69532286D01*
X135902381Y-69103714D01*
X154698381Y-66675143D02*
X154698381Y-66198952D01*
X153698381Y-66198952D01*
X154698381Y-67579905D02*
X154222190Y-67246571D01*
X154698381Y-67008476D02*
X153698381Y-67008476D01*
X153698381Y-67389429D01*
X153746000Y-67484667D01*
X153793619Y-67532286D01*
X153888857Y-67579905D01*
X154031714Y-67579905D01*
X154126952Y-67532286D01*
X154174571Y-67484667D01*
X154222190Y-67389429D01*
X154222190Y-67008476D01*
X154698381Y-68532286D02*
X154698381Y-67960857D01*
X154698381Y-68246571D02*
X153698381Y-68246571D01*
X153841238Y-68151333D01*
X153936476Y-68056095D01*
X153984095Y-67960857D01*
X154126952Y-69103714D02*
X154079333Y-69008476D01*
X154031714Y-68960857D01*
X153936476Y-68913238D01*
X153888857Y-68913238D01*
X153793619Y-68960857D01*
X153746000Y-69008476D01*
X153698381Y-69103714D01*
X153698381Y-69294191D01*
X153746000Y-69389429D01*
X153793619Y-69437048D01*
X153888857Y-69484667D01*
X153936476Y-69484667D01*
X154031714Y-69437048D01*
X154079333Y-69389429D01*
X154126952Y-69294191D01*
X154126952Y-69103714D01*
X154174571Y-69008476D01*
X154222190Y-68960857D01*
X154317429Y-68913238D01*
X154507905Y-68913238D01*
X154603143Y-68960857D01*
X154650762Y-69008476D01*
X154698381Y-69103714D01*
X154698381Y-69294191D01*
X154650762Y-69389429D01*
X154603143Y-69437048D01*
X154507905Y-69484667D01*
X154317429Y-69484667D01*
X154222190Y-69437048D01*
X154174571Y-69389429D01*
X154126952Y-69294191D01*
X174002381Y-66675143D02*
X174002381Y-66198952D01*
X173002381Y-66198952D01*
X174002381Y-67579905D02*
X173526190Y-67246571D01*
X174002381Y-67008476D02*
X173002381Y-67008476D01*
X173002381Y-67389429D01*
X173050000Y-67484667D01*
X173097619Y-67532286D01*
X173192857Y-67579905D01*
X173335714Y-67579905D01*
X173430952Y-67532286D01*
X173478571Y-67484667D01*
X173526190Y-67389429D01*
X173526190Y-67008476D01*
X174002381Y-68532286D02*
X174002381Y-67960857D01*
X174002381Y-68246571D02*
X173002381Y-68246571D01*
X173145238Y-68151333D01*
X173240476Y-68056095D01*
X173288095Y-67960857D01*
X174002381Y-69008476D02*
X174002381Y-69198952D01*
X173954762Y-69294191D01*
X173907143Y-69341810D01*
X173764286Y-69437048D01*
X173573810Y-69484667D01*
X173192857Y-69484667D01*
X173097619Y-69437048D01*
X173050000Y-69389429D01*
X173002381Y-69294191D01*
X173002381Y-69103714D01*
X173050000Y-69008476D01*
X173097619Y-68960857D01*
X173192857Y-68913238D01*
X173430952Y-68913238D01*
X173526190Y-68960857D01*
X173573810Y-69008476D01*
X173621429Y-69103714D01*
X173621429Y-69294191D01*
X173573810Y-69389429D01*
X173526190Y-69437048D01*
X173430952Y-69484667D01*
X192798381Y-66675143D02*
X192798381Y-66198952D01*
X191798381Y-66198952D01*
X192798381Y-67579905D02*
X192322190Y-67246571D01*
X192798381Y-67008476D02*
X191798381Y-67008476D01*
X191798381Y-67389429D01*
X191846000Y-67484667D01*
X191893619Y-67532286D01*
X191988857Y-67579905D01*
X192131714Y-67579905D01*
X192226952Y-67532286D01*
X192274571Y-67484667D01*
X192322190Y-67389429D01*
X192322190Y-67008476D01*
X191893619Y-67960857D02*
X191846000Y-68008476D01*
X191798381Y-68103714D01*
X191798381Y-68341810D01*
X191846000Y-68437048D01*
X191893619Y-68484667D01*
X191988857Y-68532286D01*
X192084095Y-68532286D01*
X192226952Y-68484667D01*
X192798381Y-67913238D01*
X192798381Y-68532286D01*
X191798381Y-69151333D02*
X191798381Y-69246572D01*
X191846000Y-69341810D01*
X191893619Y-69389429D01*
X191988857Y-69437048D01*
X192179333Y-69484667D01*
X192417429Y-69484667D01*
X192607905Y-69437048D01*
X192703143Y-69389429D01*
X192750762Y-69341810D01*
X192798381Y-69246572D01*
X192798381Y-69151333D01*
X192750762Y-69056095D01*
X192703143Y-69008476D01*
X192607905Y-68960857D01*
X192417429Y-68913238D01*
X192179333Y-68913238D01*
X191988857Y-68960857D01*
X191893619Y-69008476D01*
X191846000Y-69056095D01*
X191798381Y-69151333D01*
X211594381Y-67183143D02*
X211594381Y-66706952D01*
X210594381Y-66706952D01*
X211594381Y-68087905D02*
X211118190Y-67754571D01*
X211594381Y-67516476D02*
X210594381Y-67516476D01*
X210594381Y-67897429D01*
X210642000Y-67992667D01*
X210689619Y-68040286D01*
X210784857Y-68087905D01*
X210927714Y-68087905D01*
X211022952Y-68040286D01*
X211070571Y-67992667D01*
X211118190Y-67897429D01*
X211118190Y-67516476D01*
X210689619Y-68468857D02*
X210642000Y-68516476D01*
X210594381Y-68611714D01*
X210594381Y-68849810D01*
X210642000Y-68945048D01*
X210689619Y-68992667D01*
X210784857Y-69040286D01*
X210880095Y-69040286D01*
X211022952Y-68992667D01*
X211594381Y-68421238D01*
X211594381Y-69040286D01*
X211594381Y-69992667D02*
X211594381Y-69421238D01*
X211594381Y-69706952D02*
X210594381Y-69706952D01*
X210737238Y-69611714D01*
X210832476Y-69516476D01*
X210880095Y-69421238D01*
X230898381Y-66675143D02*
X230898381Y-66198952D01*
X229898381Y-66198952D01*
X230898381Y-67579905D02*
X230422190Y-67246571D01*
X230898381Y-67008476D02*
X229898381Y-67008476D01*
X229898381Y-67389429D01*
X229946000Y-67484667D01*
X229993619Y-67532286D01*
X230088857Y-67579905D01*
X230231714Y-67579905D01*
X230326952Y-67532286D01*
X230374571Y-67484667D01*
X230422190Y-67389429D01*
X230422190Y-67008476D01*
X229993619Y-67960857D02*
X229946000Y-68008476D01*
X229898381Y-68103714D01*
X229898381Y-68341810D01*
X229946000Y-68437048D01*
X229993619Y-68484667D01*
X230088857Y-68532286D01*
X230184095Y-68532286D01*
X230326952Y-68484667D01*
X230898381Y-67913238D01*
X230898381Y-68532286D01*
X229993619Y-68913238D02*
X229946000Y-68960857D01*
X229898381Y-69056095D01*
X229898381Y-69294191D01*
X229946000Y-69389429D01*
X229993619Y-69437048D01*
X230088857Y-69484667D01*
X230184095Y-69484667D01*
X230326952Y-69437048D01*
X230898381Y-68865619D01*
X230898381Y-69484667D01*
X256806381Y-66675143D02*
X256806381Y-66198952D01*
X255806381Y-66198952D01*
X256806381Y-67579905D02*
X256330190Y-67246571D01*
X256806381Y-67008476D02*
X255806381Y-67008476D01*
X255806381Y-67389429D01*
X255854000Y-67484667D01*
X255901619Y-67532286D01*
X255996857Y-67579905D01*
X256139714Y-67579905D01*
X256234952Y-67532286D01*
X256282571Y-67484667D01*
X256330190Y-67389429D01*
X256330190Y-67008476D01*
X255901619Y-67960857D02*
X255854000Y-68008476D01*
X255806381Y-68103714D01*
X255806381Y-68341810D01*
X255854000Y-68437048D01*
X255901619Y-68484667D01*
X255996857Y-68532286D01*
X256092095Y-68532286D01*
X256234952Y-68484667D01*
X256806381Y-67913238D01*
X256806381Y-68532286D01*
X255806381Y-68865619D02*
X255806381Y-69484667D01*
X256187333Y-69151333D01*
X256187333Y-69294191D01*
X256234952Y-69389429D01*
X256282571Y-69437048D01*
X256377810Y-69484667D01*
X256615905Y-69484667D01*
X256711143Y-69437048D01*
X256758762Y-69389429D01*
X256806381Y-69294191D01*
X256806381Y-69008476D01*
X256758762Y-68913238D01*
X256711143Y-68865619D01*
X60852381Y-85057143D02*
X60852381Y-84580952D01*
X59852381Y-84580952D01*
X60852381Y-85961905D02*
X60376190Y-85628571D01*
X60852381Y-85390476D02*
X59852381Y-85390476D01*
X59852381Y-85771429D01*
X59900000Y-85866667D01*
X59947619Y-85914286D01*
X60042857Y-85961905D01*
X60185714Y-85961905D01*
X60280952Y-85914286D01*
X60328571Y-85866667D01*
X60376190Y-85771429D01*
X60376190Y-85390476D01*
X59947619Y-86342857D02*
X59900000Y-86390476D01*
X59852381Y-86485714D01*
X59852381Y-86723810D01*
X59900000Y-86819048D01*
X59947619Y-86866667D01*
X60042857Y-86914286D01*
X60138095Y-86914286D01*
X60280952Y-86866667D01*
X60852381Y-86295238D01*
X60852381Y-86914286D01*
X60185714Y-87771429D02*
X60852381Y-87771429D01*
X59804762Y-87533333D02*
X60519048Y-87295238D01*
X60519048Y-87914286D01*
X87642381Y-85979143D02*
X87642381Y-85502952D01*
X86642381Y-85502952D01*
X87642381Y-86883905D02*
X87166190Y-86550571D01*
X87642381Y-86312476D02*
X86642381Y-86312476D01*
X86642381Y-86693429D01*
X86690000Y-86788667D01*
X86737619Y-86836286D01*
X86832857Y-86883905D01*
X86975714Y-86883905D01*
X87070952Y-86836286D01*
X87118571Y-86788667D01*
X87166190Y-86693429D01*
X87166190Y-86312476D01*
X86737619Y-87264857D02*
X86690000Y-87312476D01*
X86642381Y-87407714D01*
X86642381Y-87645810D01*
X86690000Y-87741048D01*
X86737619Y-87788667D01*
X86832857Y-87836286D01*
X86928095Y-87836286D01*
X87070952Y-87788667D01*
X87642381Y-87217238D01*
X87642381Y-87836286D01*
X86642381Y-88741048D02*
X86642381Y-88264857D01*
X87118571Y-88217238D01*
X87070952Y-88264857D01*
X87023333Y-88360095D01*
X87023333Y-88598191D01*
X87070952Y-88693429D01*
X87118571Y-88741048D01*
X87213810Y-88788667D01*
X87451905Y-88788667D01*
X87547143Y-88741048D01*
X87594762Y-88693429D01*
X87642381Y-88598191D01*
X87642381Y-88360095D01*
X87594762Y-88264857D01*
X87547143Y-88217238D01*
X94754381Y-85725143D02*
X94754381Y-85248952D01*
X93754381Y-85248952D01*
X94754381Y-86629905D02*
X94278190Y-86296571D01*
X94754381Y-86058476D02*
X93754381Y-86058476D01*
X93754381Y-86439429D01*
X93802000Y-86534667D01*
X93849619Y-86582286D01*
X93944857Y-86629905D01*
X94087714Y-86629905D01*
X94182952Y-86582286D01*
X94230571Y-86534667D01*
X94278190Y-86439429D01*
X94278190Y-86058476D01*
X93849619Y-87010857D02*
X93802000Y-87058476D01*
X93754381Y-87153714D01*
X93754381Y-87391810D01*
X93802000Y-87487048D01*
X93849619Y-87534667D01*
X93944857Y-87582286D01*
X94040095Y-87582286D01*
X94182952Y-87534667D01*
X94754381Y-86963238D01*
X94754381Y-87582286D01*
X93754381Y-88439429D02*
X93754381Y-88248952D01*
X93802000Y-88153714D01*
X93849619Y-88106095D01*
X93992476Y-88010857D01*
X94182952Y-87963238D01*
X94563905Y-87963238D01*
X94659143Y-88010857D01*
X94706762Y-88058476D01*
X94754381Y-88153714D01*
X94754381Y-88344191D01*
X94706762Y-88439429D01*
X94659143Y-88487048D01*
X94563905Y-88534667D01*
X94325810Y-88534667D01*
X94230571Y-88487048D01*
X94182952Y-88439429D01*
X94135333Y-88344191D01*
X94135333Y-88153714D01*
X94182952Y-88058476D01*
X94230571Y-88010857D01*
X94325810Y-87963238D01*
X124980381Y-85471143D02*
X124980381Y-84994952D01*
X123980381Y-84994952D01*
X124980381Y-86375905D02*
X124504190Y-86042571D01*
X124980381Y-85804476D02*
X123980381Y-85804476D01*
X123980381Y-86185429D01*
X124028000Y-86280667D01*
X124075619Y-86328286D01*
X124170857Y-86375905D01*
X124313714Y-86375905D01*
X124408952Y-86328286D01*
X124456571Y-86280667D01*
X124504190Y-86185429D01*
X124504190Y-85804476D01*
X124075619Y-86756857D02*
X124028000Y-86804476D01*
X123980381Y-86899714D01*
X123980381Y-87137810D01*
X124028000Y-87233048D01*
X124075619Y-87280667D01*
X124170857Y-87328286D01*
X124266095Y-87328286D01*
X124408952Y-87280667D01*
X124980381Y-86709238D01*
X124980381Y-87328286D01*
X123980381Y-87661619D02*
X123980381Y-88328286D01*
X124980381Y-87899714D01*
X145554381Y-85725143D02*
X145554381Y-85248952D01*
X144554381Y-85248952D01*
X145554381Y-86629905D02*
X145078190Y-86296571D01*
X145554381Y-86058476D02*
X144554381Y-86058476D01*
X144554381Y-86439429D01*
X144602000Y-86534667D01*
X144649619Y-86582286D01*
X144744857Y-86629905D01*
X144887714Y-86629905D01*
X144982952Y-86582286D01*
X145030571Y-86534667D01*
X145078190Y-86439429D01*
X145078190Y-86058476D01*
X144649619Y-87010857D02*
X144602000Y-87058476D01*
X144554381Y-87153714D01*
X144554381Y-87391810D01*
X144602000Y-87487048D01*
X144649619Y-87534667D01*
X144744857Y-87582286D01*
X144840095Y-87582286D01*
X144982952Y-87534667D01*
X145554381Y-86963238D01*
X145554381Y-87582286D01*
X144982952Y-88153714D02*
X144935333Y-88058476D01*
X144887714Y-88010857D01*
X144792476Y-87963238D01*
X144744857Y-87963238D01*
X144649619Y-88010857D01*
X144602000Y-88058476D01*
X144554381Y-88153714D01*
X144554381Y-88344191D01*
X144602000Y-88439429D01*
X144649619Y-88487048D01*
X144744857Y-88534667D01*
X144792476Y-88534667D01*
X144887714Y-88487048D01*
X144935333Y-88439429D01*
X144982952Y-88344191D01*
X144982952Y-88153714D01*
X145030571Y-88058476D01*
X145078190Y-88010857D01*
X145173429Y-87963238D01*
X145363905Y-87963238D01*
X145459143Y-88010857D01*
X145506762Y-88058476D01*
X145554381Y-88153714D01*
X145554381Y-88344191D01*
X145506762Y-88439429D01*
X145459143Y-88487048D01*
X145363905Y-88534667D01*
X145173429Y-88534667D01*
X145078190Y-88487048D01*
X145030571Y-88439429D01*
X144982952Y-88344191D01*
X164858381Y-84455143D02*
X164858381Y-83978952D01*
X163858381Y-83978952D01*
X164858381Y-85359905D02*
X164382190Y-85026571D01*
X164858381Y-84788476D02*
X163858381Y-84788476D01*
X163858381Y-85169429D01*
X163906000Y-85264667D01*
X163953619Y-85312286D01*
X164048857Y-85359905D01*
X164191714Y-85359905D01*
X164286952Y-85312286D01*
X164334571Y-85264667D01*
X164382190Y-85169429D01*
X164382190Y-84788476D01*
X163953619Y-85740857D02*
X163906000Y-85788476D01*
X163858381Y-85883714D01*
X163858381Y-86121810D01*
X163906000Y-86217048D01*
X163953619Y-86264667D01*
X164048857Y-86312286D01*
X164144095Y-86312286D01*
X164286952Y-86264667D01*
X164858381Y-85693238D01*
X164858381Y-86312286D01*
X164858381Y-86788476D02*
X164858381Y-86978952D01*
X164810762Y-87074191D01*
X164763143Y-87121810D01*
X164620286Y-87217048D01*
X164429810Y-87264667D01*
X164048857Y-87264667D01*
X163953619Y-87217048D01*
X163906000Y-87169429D01*
X163858381Y-87074191D01*
X163858381Y-86883714D01*
X163906000Y-86788476D01*
X163953619Y-86740857D01*
X164048857Y-86693238D01*
X164286952Y-86693238D01*
X164382190Y-86740857D01*
X164429810Y-86788476D01*
X164477429Y-86883714D01*
X164477429Y-87074191D01*
X164429810Y-87169429D01*
X164382190Y-87217048D01*
X164286952Y-87264667D01*
X183400381Y-85471143D02*
X183400381Y-84994952D01*
X182400381Y-84994952D01*
X183400381Y-86375905D02*
X182924190Y-86042571D01*
X183400381Y-85804476D02*
X182400381Y-85804476D01*
X182400381Y-86185429D01*
X182448000Y-86280667D01*
X182495619Y-86328286D01*
X182590857Y-86375905D01*
X182733714Y-86375905D01*
X182828952Y-86328286D01*
X182876571Y-86280667D01*
X182924190Y-86185429D01*
X182924190Y-85804476D01*
X182400381Y-86709238D02*
X182400381Y-87328286D01*
X182781333Y-86994952D01*
X182781333Y-87137810D01*
X182828952Y-87233048D01*
X182876571Y-87280667D01*
X182971810Y-87328286D01*
X183209905Y-87328286D01*
X183305143Y-87280667D01*
X183352762Y-87233048D01*
X183400381Y-87137810D01*
X183400381Y-86852095D01*
X183352762Y-86756857D01*
X183305143Y-86709238D01*
X182400381Y-87947333D02*
X182400381Y-88042572D01*
X182448000Y-88137810D01*
X182495619Y-88185429D01*
X182590857Y-88233048D01*
X182781333Y-88280667D01*
X183019429Y-88280667D01*
X183209905Y-88233048D01*
X183305143Y-88185429D01*
X183352762Y-88137810D01*
X183400381Y-88042572D01*
X183400381Y-87947333D01*
X183352762Y-87852095D01*
X183305143Y-87804476D01*
X183209905Y-87756857D01*
X183019429Y-87709238D01*
X182781333Y-87709238D01*
X182590857Y-87756857D01*
X182495619Y-87804476D01*
X182448000Y-87852095D01*
X182400381Y-87947333D01*
X202704381Y-85217143D02*
X202704381Y-84740952D01*
X201704381Y-84740952D01*
X202704381Y-86121905D02*
X202228190Y-85788571D01*
X202704381Y-85550476D02*
X201704381Y-85550476D01*
X201704381Y-85931429D01*
X201752000Y-86026667D01*
X201799619Y-86074286D01*
X201894857Y-86121905D01*
X202037714Y-86121905D01*
X202132952Y-86074286D01*
X202180571Y-86026667D01*
X202228190Y-85931429D01*
X202228190Y-85550476D01*
X201704381Y-86455238D02*
X201704381Y-87074286D01*
X202085333Y-86740952D01*
X202085333Y-86883810D01*
X202132952Y-86979048D01*
X202180571Y-87026667D01*
X202275810Y-87074286D01*
X202513905Y-87074286D01*
X202609143Y-87026667D01*
X202656762Y-86979048D01*
X202704381Y-86883810D01*
X202704381Y-86598095D01*
X202656762Y-86502857D01*
X202609143Y-86455238D01*
X202704381Y-88026667D02*
X202704381Y-87455238D01*
X202704381Y-87740952D02*
X201704381Y-87740952D01*
X201847238Y-87645714D01*
X201942476Y-87550476D01*
X201990095Y-87455238D01*
X209054381Y-85725143D02*
X209054381Y-85248952D01*
X208054381Y-85248952D01*
X209054381Y-86629905D02*
X208578190Y-86296571D01*
X209054381Y-86058476D02*
X208054381Y-86058476D01*
X208054381Y-86439429D01*
X208102000Y-86534667D01*
X208149619Y-86582286D01*
X208244857Y-86629905D01*
X208387714Y-86629905D01*
X208482952Y-86582286D01*
X208530571Y-86534667D01*
X208578190Y-86439429D01*
X208578190Y-86058476D01*
X208054381Y-86963238D02*
X208054381Y-87582286D01*
X208435333Y-87248952D01*
X208435333Y-87391810D01*
X208482952Y-87487048D01*
X208530571Y-87534667D01*
X208625810Y-87582286D01*
X208863905Y-87582286D01*
X208959143Y-87534667D01*
X209006762Y-87487048D01*
X209054381Y-87391810D01*
X209054381Y-87106095D01*
X209006762Y-87010857D01*
X208959143Y-86963238D01*
X208149619Y-87963238D02*
X208102000Y-88010857D01*
X208054381Y-88106095D01*
X208054381Y-88344191D01*
X208102000Y-88439429D01*
X208149619Y-88487048D01*
X208244857Y-88534667D01*
X208340095Y-88534667D01*
X208482952Y-88487048D01*
X209054381Y-87915619D01*
X209054381Y-88534667D01*
X242074381Y-85725143D02*
X242074381Y-85248952D01*
X241074381Y-85248952D01*
X242074381Y-86629905D02*
X241598190Y-86296571D01*
X242074381Y-86058476D02*
X241074381Y-86058476D01*
X241074381Y-86439429D01*
X241122000Y-86534667D01*
X241169619Y-86582286D01*
X241264857Y-86629905D01*
X241407714Y-86629905D01*
X241502952Y-86582286D01*
X241550571Y-86534667D01*
X241598190Y-86439429D01*
X241598190Y-86058476D01*
X241074381Y-86963238D02*
X241074381Y-87582286D01*
X241455333Y-87248952D01*
X241455333Y-87391810D01*
X241502952Y-87487048D01*
X241550571Y-87534667D01*
X241645810Y-87582286D01*
X241883905Y-87582286D01*
X241979143Y-87534667D01*
X242026762Y-87487048D01*
X242074381Y-87391810D01*
X242074381Y-87106095D01*
X242026762Y-87010857D01*
X241979143Y-86963238D01*
X241074381Y-87915619D02*
X241074381Y-88534667D01*
X241455333Y-88201333D01*
X241455333Y-88344191D01*
X241502952Y-88439429D01*
X241550571Y-88487048D01*
X241645810Y-88534667D01*
X241883905Y-88534667D01*
X241979143Y-88487048D01*
X242026762Y-88439429D01*
X242074381Y-88344191D01*
X242074381Y-88058476D01*
X242026762Y-87963238D01*
X241979143Y-87915619D01*
X250252381Y-81857143D02*
X250252381Y-81380952D01*
X249252381Y-81380952D01*
X250252381Y-82761905D02*
X249776190Y-82428571D01*
X250252381Y-82190476D02*
X249252381Y-82190476D01*
X249252381Y-82571429D01*
X249300000Y-82666667D01*
X249347619Y-82714286D01*
X249442857Y-82761905D01*
X249585714Y-82761905D01*
X249680952Y-82714286D01*
X249728571Y-82666667D01*
X249776190Y-82571429D01*
X249776190Y-82190476D01*
X249252381Y-83095238D02*
X249252381Y-83714286D01*
X249633333Y-83380952D01*
X249633333Y-83523810D01*
X249680952Y-83619048D01*
X249728571Y-83666667D01*
X249823810Y-83714286D01*
X250061905Y-83714286D01*
X250157143Y-83666667D01*
X250204762Y-83619048D01*
X250252381Y-83523810D01*
X250252381Y-83238095D01*
X250204762Y-83142857D01*
X250157143Y-83095238D01*
X249585714Y-84571429D02*
X250252381Y-84571429D01*
X249204762Y-84333333D02*
X249919048Y-84095238D01*
X249919048Y-84714286D01*
X55652381Y-104257143D02*
X55652381Y-103780952D01*
X54652381Y-103780952D01*
X55652381Y-105161905D02*
X55176190Y-104828571D01*
X55652381Y-104590476D02*
X54652381Y-104590476D01*
X54652381Y-104971429D01*
X54700000Y-105066667D01*
X54747619Y-105114286D01*
X54842857Y-105161905D01*
X54985714Y-105161905D01*
X55080952Y-105114286D01*
X55128571Y-105066667D01*
X55176190Y-104971429D01*
X55176190Y-104590476D01*
X54652381Y-105495238D02*
X54652381Y-106114286D01*
X55033333Y-105780952D01*
X55033333Y-105923810D01*
X55080952Y-106019048D01*
X55128571Y-106066667D01*
X55223810Y-106114286D01*
X55461905Y-106114286D01*
X55557143Y-106066667D01*
X55604762Y-106019048D01*
X55652381Y-105923810D01*
X55652381Y-105638095D01*
X55604762Y-105542857D01*
X55557143Y-105495238D01*
X54652381Y-107019048D02*
X54652381Y-106542857D01*
X55128571Y-106495238D01*
X55080952Y-106542857D01*
X55033333Y-106638095D01*
X55033333Y-106876191D01*
X55080952Y-106971429D01*
X55128571Y-107019048D01*
X55223810Y-107066667D01*
X55461905Y-107066667D01*
X55557143Y-107019048D01*
X55604762Y-106971429D01*
X55652381Y-106876191D01*
X55652381Y-106638095D01*
X55604762Y-106542857D01*
X55557143Y-106495238D01*
X79006381Y-104775143D02*
X79006381Y-104298952D01*
X78006381Y-104298952D01*
X79006381Y-105679905D02*
X78530190Y-105346571D01*
X79006381Y-105108476D02*
X78006381Y-105108476D01*
X78006381Y-105489429D01*
X78054000Y-105584667D01*
X78101619Y-105632286D01*
X78196857Y-105679905D01*
X78339714Y-105679905D01*
X78434952Y-105632286D01*
X78482571Y-105584667D01*
X78530190Y-105489429D01*
X78530190Y-105108476D01*
X78006381Y-106013238D02*
X78006381Y-106632286D01*
X78387333Y-106298952D01*
X78387333Y-106441810D01*
X78434952Y-106537048D01*
X78482571Y-106584667D01*
X78577810Y-106632286D01*
X78815905Y-106632286D01*
X78911143Y-106584667D01*
X78958762Y-106537048D01*
X79006381Y-106441810D01*
X79006381Y-106156095D01*
X78958762Y-106060857D01*
X78911143Y-106013238D01*
X78006381Y-107489429D02*
X78006381Y-107298952D01*
X78054000Y-107203714D01*
X78101619Y-107156095D01*
X78244476Y-107060857D01*
X78434952Y-107013238D01*
X78815905Y-107013238D01*
X78911143Y-107060857D01*
X78958762Y-107108476D01*
X79006381Y-107203714D01*
X79006381Y-107394191D01*
X78958762Y-107489429D01*
X78911143Y-107537048D01*
X78815905Y-107584667D01*
X78577810Y-107584667D01*
X78482571Y-107537048D01*
X78434952Y-107489429D01*
X78387333Y-107394191D01*
X78387333Y-107203714D01*
X78434952Y-107108476D01*
X78482571Y-107060857D01*
X78577810Y-107013238D01*
X97548381Y-104775143D02*
X97548381Y-104298952D01*
X96548381Y-104298952D01*
X97548381Y-105679905D02*
X97072190Y-105346571D01*
X97548381Y-105108476D02*
X96548381Y-105108476D01*
X96548381Y-105489429D01*
X96596000Y-105584667D01*
X96643619Y-105632286D01*
X96738857Y-105679905D01*
X96881714Y-105679905D01*
X96976952Y-105632286D01*
X97024571Y-105584667D01*
X97072190Y-105489429D01*
X97072190Y-105108476D01*
X96548381Y-106013238D02*
X96548381Y-106632286D01*
X96929333Y-106298952D01*
X96929333Y-106441810D01*
X96976952Y-106537048D01*
X97024571Y-106584667D01*
X97119810Y-106632286D01*
X97357905Y-106632286D01*
X97453143Y-106584667D01*
X97500762Y-106537048D01*
X97548381Y-106441810D01*
X97548381Y-106156095D01*
X97500762Y-106060857D01*
X97453143Y-106013238D01*
X96548381Y-106965619D02*
X96548381Y-107632286D01*
X97548381Y-107203714D01*
X166128381Y-104775143D02*
X166128381Y-104298952D01*
X165128381Y-104298952D01*
X166128381Y-105679905D02*
X165652190Y-105346571D01*
X166128381Y-105108476D02*
X165128381Y-105108476D01*
X165128381Y-105489429D01*
X165176000Y-105584667D01*
X165223619Y-105632286D01*
X165318857Y-105679905D01*
X165461714Y-105679905D01*
X165556952Y-105632286D01*
X165604571Y-105584667D01*
X165652190Y-105489429D01*
X165652190Y-105108476D01*
X165128381Y-106013238D02*
X165128381Y-106632286D01*
X165509333Y-106298952D01*
X165509333Y-106441810D01*
X165556952Y-106537048D01*
X165604571Y-106584667D01*
X165699810Y-106632286D01*
X165937905Y-106632286D01*
X166033143Y-106584667D01*
X166080762Y-106537048D01*
X166128381Y-106441810D01*
X166128381Y-106156095D01*
X166080762Y-106060857D01*
X166033143Y-106013238D01*
X165556952Y-107203714D02*
X165509333Y-107108476D01*
X165461714Y-107060857D01*
X165366476Y-107013238D01*
X165318857Y-107013238D01*
X165223619Y-107060857D01*
X165176000Y-107108476D01*
X165128381Y-107203714D01*
X165128381Y-107394191D01*
X165176000Y-107489429D01*
X165223619Y-107537048D01*
X165318857Y-107584667D01*
X165366476Y-107584667D01*
X165461714Y-107537048D01*
X165509333Y-107489429D01*
X165556952Y-107394191D01*
X165556952Y-107203714D01*
X165604571Y-107108476D01*
X165652190Y-107060857D01*
X165747429Y-107013238D01*
X165937905Y-107013238D01*
X166033143Y-107060857D01*
X166080762Y-107108476D01*
X166128381Y-107203714D01*
X166128381Y-107394191D01*
X166080762Y-107489429D01*
X166033143Y-107537048D01*
X165937905Y-107584667D01*
X165747429Y-107584667D01*
X165652190Y-107537048D01*
X165604571Y-107489429D01*
X165556952Y-107394191D01*
X238264381Y-105029143D02*
X238264381Y-104552952D01*
X237264381Y-104552952D01*
X238264381Y-105933905D02*
X237788190Y-105600571D01*
X238264381Y-105362476D02*
X237264381Y-105362476D01*
X237264381Y-105743429D01*
X237312000Y-105838667D01*
X237359619Y-105886286D01*
X237454857Y-105933905D01*
X237597714Y-105933905D01*
X237692952Y-105886286D01*
X237740571Y-105838667D01*
X237788190Y-105743429D01*
X237788190Y-105362476D01*
X237264381Y-106267238D02*
X237264381Y-106886286D01*
X237645333Y-106552952D01*
X237645333Y-106695810D01*
X237692952Y-106791048D01*
X237740571Y-106838667D01*
X237835810Y-106886286D01*
X238073905Y-106886286D01*
X238169143Y-106838667D01*
X238216762Y-106791048D01*
X238264381Y-106695810D01*
X238264381Y-106410095D01*
X238216762Y-106314857D01*
X238169143Y-106267238D01*
X238264381Y-107362476D02*
X238264381Y-107552952D01*
X238216762Y-107648191D01*
X238169143Y-107695810D01*
X238026286Y-107791048D01*
X237835810Y-107838667D01*
X237454857Y-107838667D01*
X237359619Y-107791048D01*
X237312000Y-107743429D01*
X237264381Y-107648191D01*
X237264381Y-107457714D01*
X237312000Y-107362476D01*
X237359619Y-107314857D01*
X237454857Y-107267238D01*
X237692952Y-107267238D01*
X237788190Y-107314857D01*
X237835810Y-107362476D01*
X237883429Y-107457714D01*
X237883429Y-107648191D01*
X237835810Y-107743429D01*
X237788190Y-107791048D01*
X237692952Y-107838667D01*
X260362381Y-104521143D02*
X260362381Y-104044952D01*
X259362381Y-104044952D01*
X260362381Y-105425905D02*
X259886190Y-105092571D01*
X260362381Y-104854476D02*
X259362381Y-104854476D01*
X259362381Y-105235429D01*
X259410000Y-105330667D01*
X259457619Y-105378286D01*
X259552857Y-105425905D01*
X259695714Y-105425905D01*
X259790952Y-105378286D01*
X259838571Y-105330667D01*
X259886190Y-105235429D01*
X259886190Y-104854476D01*
X259695714Y-106283048D02*
X260362381Y-106283048D01*
X259314762Y-106044952D02*
X260029048Y-105806857D01*
X260029048Y-106425905D01*
X259362381Y-106997333D02*
X259362381Y-107092572D01*
X259410000Y-107187810D01*
X259457619Y-107235429D01*
X259552857Y-107283048D01*
X259743333Y-107330667D01*
X259981429Y-107330667D01*
X260171905Y-107283048D01*
X260267143Y-107235429D01*
X260314762Y-107187810D01*
X260362381Y-107092572D01*
X260362381Y-106997333D01*
X260314762Y-106902095D01*
X260267143Y-106854476D01*
X260171905Y-106806857D01*
X259981429Y-106759238D01*
X259743333Y-106759238D01*
X259552857Y-106806857D01*
X259457619Y-106854476D01*
X259410000Y-106902095D01*
X259362381Y-106997333D01*
X61852381Y-60579143D02*
X61852381Y-60102952D01*
X60852381Y-60102952D01*
X61852381Y-61483905D02*
X61376190Y-61150571D01*
X61852381Y-60912476D02*
X60852381Y-60912476D01*
X60852381Y-61293429D01*
X60900000Y-61388667D01*
X60947619Y-61436286D01*
X61042857Y-61483905D01*
X61185714Y-61483905D01*
X61280952Y-61436286D01*
X61328571Y-61388667D01*
X61376190Y-61293429D01*
X61376190Y-60912476D01*
X61185714Y-62341048D02*
X61852381Y-62341048D01*
X60804762Y-62102952D02*
X61519048Y-61864857D01*
X61519048Y-62483905D01*
X61852381Y-63388667D02*
X61852381Y-62817238D01*
X61852381Y-63102952D02*
X60852381Y-63102952D01*
X60995238Y-63007714D01*
X61090476Y-62912476D01*
X61138095Y-62817238D01*
X233267238Y-64083619D02*
X233362476Y-64036000D01*
X233457714Y-63940762D01*
X233600571Y-63797905D01*
X233695810Y-63750286D01*
X233791048Y-63750286D01*
X233743429Y-63988381D02*
X233838667Y-63940762D01*
X233933905Y-63845524D01*
X233981524Y-63655048D01*
X233981524Y-63321714D01*
X233933905Y-63131238D01*
X233838667Y-63036000D01*
X233743429Y-62988381D01*
X233552952Y-62988381D01*
X233457714Y-63036000D01*
X233362476Y-63131238D01*
X233314857Y-63321714D01*
X233314857Y-63655048D01*
X233362476Y-63845524D01*
X233457714Y-63940762D01*
X233552952Y-63988381D01*
X233743429Y-63988381D01*
X232362476Y-63988381D02*
X232933905Y-63988381D01*
X232648191Y-63988381D02*
X232648191Y-62988381D01*
X232743429Y-63131238D01*
X232838667Y-63226476D01*
X232933905Y-63274095D01*
X56808666Y-58110381D02*
X57142000Y-57634190D01*
X57380095Y-58110381D02*
X57380095Y-57110381D01*
X56999142Y-57110381D01*
X56903904Y-57158000D01*
X56856285Y-57205619D01*
X56808666Y-57300857D01*
X56808666Y-57443714D01*
X56856285Y-57538952D01*
X56903904Y-57586571D01*
X56999142Y-57634190D01*
X57380095Y-57634190D01*
X55856285Y-58110381D02*
X56427714Y-58110381D01*
X56142000Y-58110381D02*
X56142000Y-57110381D01*
X56237238Y-57253238D01*
X56332476Y-57348476D01*
X56427714Y-57396095D01*
X54268666Y-58110381D02*
X54602000Y-57634190D01*
X54840095Y-58110381D02*
X54840095Y-57110381D01*
X54459142Y-57110381D01*
X54363904Y-57158000D01*
X54316285Y-57205619D01*
X54268666Y-57300857D01*
X54268666Y-57443714D01*
X54316285Y-57538952D01*
X54363904Y-57586571D01*
X54459142Y-57634190D01*
X54840095Y-57634190D01*
X53887714Y-57205619D02*
X53840095Y-57158000D01*
X53744857Y-57110381D01*
X53506761Y-57110381D01*
X53411523Y-57158000D01*
X53363904Y-57205619D01*
X53316285Y-57300857D01*
X53316285Y-57396095D01*
X53363904Y-57538952D01*
X53935333Y-58110381D01*
X53316285Y-58110381D01*
X117768666Y-113922381D02*
X118102000Y-113446190D01*
X118340095Y-113922381D02*
X118340095Y-112922381D01*
X117959142Y-112922381D01*
X117863904Y-112970000D01*
X117816285Y-113017619D01*
X117768666Y-113112857D01*
X117768666Y-113255714D01*
X117816285Y-113350952D01*
X117863904Y-113398571D01*
X117959142Y-113446190D01*
X118340095Y-113446190D01*
X117435333Y-112922381D02*
X116816285Y-112922381D01*
X117149619Y-113303333D01*
X117006761Y-113303333D01*
X116911523Y-113350952D01*
X116863904Y-113398571D01*
X116816285Y-113493810D01*
X116816285Y-113731905D01*
X116863904Y-113827143D01*
X116911523Y-113874762D01*
X117006761Y-113922381D01*
X117292476Y-113922381D01*
X117387714Y-113874762D01*
X117435333Y-113827143D01*
X233338666Y-74688381D02*
X233672000Y-74212190D01*
X233910095Y-74688381D02*
X233910095Y-73688381D01*
X233529142Y-73688381D01*
X233433904Y-73736000D01*
X233386285Y-73783619D01*
X233338666Y-73878857D01*
X233338666Y-74021714D01*
X233386285Y-74116952D01*
X233433904Y-74164571D01*
X233529142Y-74212190D01*
X233910095Y-74212190D01*
X232481523Y-74021714D02*
X232481523Y-74688381D01*
X232719619Y-73640762D02*
X232957714Y-74355048D01*
X232338666Y-74355048D01*
X135548666Y-99698381D02*
X135882000Y-99222190D01*
X136120095Y-99698381D02*
X136120095Y-98698381D01*
X135739142Y-98698381D01*
X135643904Y-98746000D01*
X135596285Y-98793619D01*
X135548666Y-98888857D01*
X135548666Y-99031714D01*
X135596285Y-99126952D01*
X135643904Y-99174571D01*
X135739142Y-99222190D01*
X136120095Y-99222190D01*
X134643904Y-98698381D02*
X135120095Y-98698381D01*
X135167714Y-99174571D01*
X135120095Y-99126952D01*
X135024857Y-99079333D01*
X134786761Y-99079333D01*
X134691523Y-99126952D01*
X134643904Y-99174571D01*
X134596285Y-99269810D01*
X134596285Y-99507905D01*
X134643904Y-99603143D01*
X134691523Y-99650762D01*
X134786761Y-99698381D01*
X135024857Y-99698381D01*
X135120095Y-99650762D01*
X135167714Y-99603143D01*
X134834381Y-106886476D02*
X135834381Y-107553143D01*
X134834381Y-107553143D02*
X135834381Y-106886476D01*
X135834381Y-108457905D02*
X135834381Y-107886476D01*
X135834381Y-108172190D02*
X134834381Y-108172190D01*
X134977238Y-108076952D01*
X135072476Y-107981714D01*
X135120095Y-107886476D01*
X64642952Y-46172429D02*
X63881047Y-46172429D01*
X64261999Y-46553381D02*
X64261999Y-45791476D01*
X102742952Y-46172429D02*
X101981047Y-46172429D01*
X102361999Y-46553381D02*
X102361999Y-45791476D01*
X121792952Y-46172429D02*
X121031047Y-46172429D01*
X121411999Y-46553381D02*
X121411999Y-45791476D01*
X140842952Y-46172429D02*
X140081047Y-46172429D01*
X140461999Y-46553381D02*
X140461999Y-45791476D01*
X159892952Y-46172429D02*
X159131047Y-46172429D01*
X159511999Y-46553381D02*
X159511999Y-45791476D01*
X178942952Y-46172429D02*
X178181047Y-46172429D01*
X178561999Y-46553381D02*
X178561999Y-45791476D01*
X197992952Y-46172429D02*
X197231047Y-46172429D01*
X197611999Y-46553381D02*
X197611999Y-45791476D01*
X217042952Y-46172429D02*
X216281047Y-46172429D01*
X216661999Y-46553381D02*
X216661999Y-45791476D01*
X236092952Y-46172429D02*
X235331047Y-46172429D01*
X235711999Y-46553381D02*
X235711999Y-45791476D01*
X255142952Y-46172429D02*
X254381047Y-46172429D01*
X254761999Y-46553381D02*
X254761999Y-45791476D01*
X47975472Y-65222429D02*
X47213567Y-65222429D01*
X47594519Y-65603381D02*
X47594519Y-64841476D01*
X45592952Y-46172429D02*
X44831047Y-46172429D01*
X45211999Y-46553381D02*
X45211999Y-45791476D01*
X83692952Y-46172429D02*
X82931047Y-46172429D01*
X83311999Y-46553381D02*
X83311999Y-45791476D01*
X69406722Y-65222429D02*
X68644817Y-65222429D01*
X69025769Y-65603381D02*
X69025769Y-64841476D01*
X88456722Y-65222429D02*
X87694817Y-65222429D01*
X88075769Y-65603381D02*
X88075769Y-64841476D01*
X107506722Y-65222429D02*
X106744817Y-65222429D01*
X107125769Y-65603381D02*
X107125769Y-64841476D01*
X126556722Y-65222429D02*
X125794817Y-65222429D01*
X126175769Y-65603381D02*
X126175769Y-64841476D01*
X145922952Y-65222429D02*
X145161047Y-65222429D01*
X145541999Y-65603381D02*
X145541999Y-64841476D01*
X164656722Y-65222429D02*
X163894817Y-65222429D01*
X164275769Y-65603381D02*
X164275769Y-64841476D01*
X183706722Y-65222429D02*
X182944817Y-65222429D01*
X183325769Y-65603381D02*
X183325769Y-64841476D01*
X202756722Y-65222429D02*
X201994817Y-65222429D01*
X202375769Y-65603381D02*
X202375769Y-64841476D01*
X221806722Y-65222429D02*
X221044817Y-65222429D01*
X221425769Y-65603381D02*
X221425769Y-64841476D01*
X248000472Y-65222429D02*
X247238567Y-65222429D01*
X247619519Y-65603381D02*
X247619519Y-64841476D01*
X52736702Y-84272429D02*
X51974797Y-84272429D01*
X52355749Y-84653381D02*
X52355749Y-83891476D01*
X78930452Y-84272429D02*
X78168547Y-84272429D01*
X78549499Y-84653381D02*
X78549499Y-83891476D01*
X97980452Y-84272429D02*
X97218547Y-84272429D01*
X97599499Y-84653381D02*
X97599499Y-83891476D01*
X117030452Y-84272429D02*
X116268547Y-84272429D01*
X116649499Y-84653381D02*
X116649499Y-83891476D01*
X136080452Y-84272429D02*
X135318547Y-84272429D01*
X135699499Y-84653381D02*
X135699499Y-83891476D01*
X155130452Y-84272429D02*
X154368547Y-84272429D01*
X154749499Y-84653381D02*
X154749499Y-83891476D01*
X174180452Y-84272429D02*
X173418547Y-84272429D01*
X173799499Y-84653381D02*
X173799499Y-83891476D01*
X193230452Y-84272429D02*
X192468547Y-84272429D01*
X192849499Y-84653381D02*
X192849499Y-83891476D01*
X212280452Y-84272429D02*
X211518547Y-84272429D01*
X211899499Y-84653381D02*
X211899499Y-83891476D01*
X233711702Y-84272429D02*
X232949797Y-84272429D01*
X233330749Y-84653381D02*
X233330749Y-83891476D01*
X255142952Y-84272429D02*
X254381047Y-84272429D01*
X254761999Y-84653381D02*
X254761999Y-83891476D01*
X47975472Y-103322429D02*
X47213567Y-103322429D01*
X47594519Y-103703381D02*
X47594519Y-102941476D01*
X69406722Y-103322429D02*
X68644817Y-103322429D01*
X69025769Y-103703381D02*
X69025769Y-102941476D01*
X88456722Y-103322429D02*
X87694817Y-103322429D01*
X88075769Y-103703381D02*
X88075769Y-102941476D01*
X157512972Y-103322429D02*
X156751067Y-103322429D01*
X157132019Y-103703381D02*
X157132019Y-102941476D01*
X228950472Y-103322429D02*
X228188567Y-103322429D01*
X228569519Y-103703381D02*
X228569519Y-102941476D01*
X252762972Y-103322429D02*
X252001067Y-103322429D01*
X252382019Y-103703381D02*
X252382019Y-102941476D01*
X73187143Y-55713334D02*
X73234762Y-55665715D01*
X73282381Y-55522858D01*
X73282381Y-55427620D01*
X73234762Y-55284762D01*
X73139524Y-55189524D01*
X73044286Y-55141905D01*
X72853810Y-55094286D01*
X72710952Y-55094286D01*
X72520476Y-55141905D01*
X72425238Y-55189524D01*
X72330000Y-55284762D01*
X72282381Y-55427620D01*
X72282381Y-55522858D01*
X72330000Y-55665715D01*
X72377619Y-55713334D01*
X73282381Y-56189524D02*
X73282381Y-56380000D01*
X73234762Y-56475239D01*
X73187143Y-56522858D01*
X73044286Y-56618096D01*
X72853810Y-56665715D01*
X72472857Y-56665715D01*
X72377619Y-56618096D01*
X72330000Y-56570477D01*
X72282381Y-56475239D01*
X72282381Y-56284762D01*
X72330000Y-56189524D01*
X72377619Y-56141905D01*
X72472857Y-56094286D01*
X72710952Y-56094286D01*
X72806190Y-56141905D01*
X72853810Y-56189524D01*
X72901429Y-56284762D01*
X72901429Y-56475239D01*
X72853810Y-56570477D01*
X72806190Y-56618096D01*
X72710952Y-56665715D01*
X152943143Y-55745143D02*
X152990762Y-55697524D01*
X153038381Y-55554667D01*
X153038381Y-55459429D01*
X152990762Y-55316571D01*
X152895524Y-55221333D01*
X152800286Y-55173714D01*
X152609810Y-55126095D01*
X152466952Y-55126095D01*
X152276476Y-55173714D01*
X152181238Y-55221333D01*
X152086000Y-55316571D01*
X152038381Y-55459429D01*
X152038381Y-55554667D01*
X152086000Y-55697524D01*
X152133619Y-55745143D01*
X153038381Y-56697524D02*
X153038381Y-56126095D01*
X153038381Y-56411809D02*
X152038381Y-56411809D01*
X152181238Y-56316571D01*
X152276476Y-56221333D01*
X152324095Y-56126095D01*
X152038381Y-57316571D02*
X152038381Y-57411810D01*
X152086000Y-57507048D01*
X152133619Y-57554667D01*
X152228857Y-57602286D01*
X152419333Y-57649905D01*
X152657429Y-57649905D01*
X152847905Y-57602286D01*
X152943143Y-57554667D01*
X152990762Y-57507048D01*
X153038381Y-57411810D01*
X153038381Y-57316571D01*
X152990762Y-57221333D01*
X152943143Y-57173714D01*
X152847905Y-57126095D01*
X152657429Y-57078476D01*
X152419333Y-57078476D01*
X152228857Y-57126095D01*
X152133619Y-57173714D01*
X152086000Y-57221333D01*
X152038381Y-57316571D01*
X190163143Y-57269143D02*
X190210762Y-57221524D01*
X190258381Y-57078667D01*
X190258381Y-56983429D01*
X190210762Y-56840571D01*
X190115524Y-56745333D01*
X190020286Y-56697714D01*
X189829810Y-56650095D01*
X189686952Y-56650095D01*
X189496476Y-56697714D01*
X189401238Y-56745333D01*
X189306000Y-56840571D01*
X189258381Y-56983429D01*
X189258381Y-57078667D01*
X189306000Y-57221524D01*
X189353619Y-57269143D01*
X190258381Y-58221524D02*
X190258381Y-57650095D01*
X190258381Y-57935809D02*
X189258381Y-57935809D01*
X189401238Y-57840571D01*
X189496476Y-57745333D01*
X189544095Y-57650095D01*
X190258381Y-59173905D02*
X190258381Y-58602476D01*
X190258381Y-58888190D02*
X189258381Y-58888190D01*
X189401238Y-58792952D01*
X189496476Y-58697714D01*
X189544095Y-58602476D01*
X227687143Y-55745143D02*
X227734762Y-55697524D01*
X227782381Y-55554667D01*
X227782381Y-55459429D01*
X227734762Y-55316571D01*
X227639524Y-55221333D01*
X227544286Y-55173714D01*
X227353810Y-55126095D01*
X227210952Y-55126095D01*
X227020476Y-55173714D01*
X226925238Y-55221333D01*
X226830000Y-55316571D01*
X226782381Y-55459429D01*
X226782381Y-55554667D01*
X226830000Y-55697524D01*
X226877619Y-55745143D01*
X227782381Y-56697524D02*
X227782381Y-56126095D01*
X227782381Y-56411809D02*
X226782381Y-56411809D01*
X226925238Y-56316571D01*
X227020476Y-56221333D01*
X227068095Y-56126095D01*
X226877619Y-57078476D02*
X226830000Y-57126095D01*
X226782381Y-57221333D01*
X226782381Y-57459429D01*
X226830000Y-57554667D01*
X226877619Y-57602286D01*
X226972857Y-57649905D01*
X227068095Y-57649905D01*
X227210952Y-57602286D01*
X227782381Y-57030857D01*
X227782381Y-57649905D01*
X255757143Y-81357143D02*
X255804762Y-81309524D01*
X255852381Y-81166667D01*
X255852381Y-81071429D01*
X255804762Y-80928571D01*
X255709524Y-80833333D01*
X255614286Y-80785714D01*
X255423810Y-80738095D01*
X255280952Y-80738095D01*
X255090476Y-80785714D01*
X254995238Y-80833333D01*
X254900000Y-80928571D01*
X254852381Y-81071429D01*
X254852381Y-81166667D01*
X254900000Y-81309524D01*
X254947619Y-81357143D01*
X255852381Y-82309524D02*
X255852381Y-81738095D01*
X255852381Y-82023809D02*
X254852381Y-82023809D01*
X254995238Y-81928571D01*
X255090476Y-81833333D01*
X255138095Y-81738095D01*
X254852381Y-82642857D02*
X254852381Y-83261905D01*
X255233333Y-82928571D01*
X255233333Y-83071429D01*
X255280952Y-83166667D01*
X255328571Y-83214286D01*
X255423810Y-83261905D01*
X255661905Y-83261905D01*
X255757143Y-83214286D01*
X255804762Y-83166667D01*
X255852381Y-83071429D01*
X255852381Y-82785714D01*
X255804762Y-82690476D01*
X255757143Y-82642857D01*
X70647143Y-93083143D02*
X70694762Y-93035524D01*
X70742381Y-92892667D01*
X70742381Y-92797429D01*
X70694762Y-92654571D01*
X70599524Y-92559333D01*
X70504286Y-92511714D01*
X70313810Y-92464095D01*
X70170952Y-92464095D01*
X69980476Y-92511714D01*
X69885238Y-92559333D01*
X69790000Y-92654571D01*
X69742381Y-92797429D01*
X69742381Y-92892667D01*
X69790000Y-93035524D01*
X69837619Y-93083143D01*
X70742381Y-94035524D02*
X70742381Y-93464095D01*
X70742381Y-93749809D02*
X69742381Y-93749809D01*
X69885238Y-93654571D01*
X69980476Y-93559333D01*
X70028095Y-93464095D01*
X70075714Y-94892667D02*
X70742381Y-94892667D01*
X69694762Y-94654571D02*
X70409048Y-94416476D01*
X70409048Y-95035524D01*
X221337143Y-95877143D02*
X221384762Y-95829524D01*
X221432381Y-95686667D01*
X221432381Y-95591429D01*
X221384762Y-95448571D01*
X221289524Y-95353333D01*
X221194286Y-95305714D01*
X221003810Y-95258095D01*
X220860952Y-95258095D01*
X220670476Y-95305714D01*
X220575238Y-95353333D01*
X220480000Y-95448571D01*
X220432381Y-95591429D01*
X220432381Y-95686667D01*
X220480000Y-95829524D01*
X220527619Y-95877143D01*
X221432381Y-96829524D02*
X221432381Y-96258095D01*
X221432381Y-96543809D02*
X220432381Y-96543809D01*
X220575238Y-96448571D01*
X220670476Y-96353333D01*
X220718095Y-96258095D01*
X220432381Y-97734286D02*
X220432381Y-97258095D01*
X220908571Y-97210476D01*
X220860952Y-97258095D01*
X220813333Y-97353333D01*
X220813333Y-97591429D01*
X220860952Y-97686667D01*
X220908571Y-97734286D01*
X221003810Y-97781905D01*
X221241905Y-97781905D01*
X221337143Y-97734286D01*
X221384762Y-97686667D01*
X221432381Y-97591429D01*
X221432381Y-97353333D01*
X221384762Y-97258095D01*
X221337143Y-97210476D01*
X174601143Y-98671143D02*
X174648762Y-98623524D01*
X174696381Y-98480667D01*
X174696381Y-98385429D01*
X174648762Y-98242571D01*
X174553524Y-98147333D01*
X174458286Y-98099714D01*
X174267810Y-98052095D01*
X174124952Y-98052095D01*
X173934476Y-98099714D01*
X173839238Y-98147333D01*
X173744000Y-98242571D01*
X173696381Y-98385429D01*
X173696381Y-98480667D01*
X173744000Y-98623524D01*
X173791619Y-98671143D01*
X174696381Y-99623524D02*
X174696381Y-99052095D01*
X174696381Y-99337809D02*
X173696381Y-99337809D01*
X173839238Y-99242571D01*
X173934476Y-99147333D01*
X173982095Y-99052095D01*
X173696381Y-100480667D02*
X173696381Y-100290190D01*
X173744000Y-100194952D01*
X173791619Y-100147333D01*
X173934476Y-100052095D01*
X174124952Y-100004476D01*
X174505905Y-100004476D01*
X174601143Y-100052095D01*
X174648762Y-100099714D01*
X174696381Y-100194952D01*
X174696381Y-100385429D01*
X174648762Y-100480667D01*
X174601143Y-100528286D01*
X174505905Y-100575905D01*
X174267810Y-100575905D01*
X174172571Y-100528286D01*
X174124952Y-100480667D01*
X174077333Y-100385429D01*
X174077333Y-100194952D01*
X174124952Y-100099714D01*
X174172571Y-100052095D01*
X174267810Y-100004476D01*
X46145143Y-81145143D02*
X46192762Y-81097524D01*
X46240381Y-80954667D01*
X46240381Y-80859429D01*
X46192762Y-80716571D01*
X46097524Y-80621333D01*
X46002286Y-80573714D01*
X45811810Y-80526095D01*
X45668952Y-80526095D01*
X45478476Y-80573714D01*
X45383238Y-80621333D01*
X45288000Y-80716571D01*
X45240381Y-80859429D01*
X45240381Y-80954667D01*
X45288000Y-81097524D01*
X45335619Y-81145143D01*
X46240381Y-82097524D02*
X46240381Y-81526095D01*
X46240381Y-81811809D02*
X45240381Y-81811809D01*
X45383238Y-81716571D01*
X45478476Y-81621333D01*
X45526095Y-81526095D01*
X45240381Y-82430857D02*
X45240381Y-83097524D01*
X46240381Y-82668952D01*
X150285143Y-94861143D02*
X150332762Y-94813524D01*
X150380381Y-94670667D01*
X150380381Y-94575429D01*
X150332762Y-94432571D01*
X150237524Y-94337333D01*
X150142286Y-94289714D01*
X149951810Y-94242095D01*
X149808952Y-94242095D01*
X149618476Y-94289714D01*
X149523238Y-94337333D01*
X149428000Y-94432571D01*
X149380381Y-94575429D01*
X149380381Y-94670667D01*
X149428000Y-94813524D01*
X149475619Y-94861143D01*
X150380381Y-95813524D02*
X150380381Y-95242095D01*
X150380381Y-95527809D02*
X149380381Y-95527809D01*
X149523238Y-95432571D01*
X149618476Y-95337333D01*
X149666095Y-95242095D01*
X149808952Y-96384952D02*
X149761333Y-96289714D01*
X149713714Y-96242095D01*
X149618476Y-96194476D01*
X149570857Y-96194476D01*
X149475619Y-96242095D01*
X149428000Y-96289714D01*
X149380381Y-96384952D01*
X149380381Y-96575429D01*
X149428000Y-96670667D01*
X149475619Y-96718286D01*
X149570857Y-96765905D01*
X149618476Y-96765905D01*
X149713714Y-96718286D01*
X149761333Y-96670667D01*
X149808952Y-96575429D01*
X149808952Y-96384952D01*
X149856571Y-96289714D01*
X149904190Y-96242095D01*
X149999429Y-96194476D01*
X150189905Y-96194476D01*
X150285143Y-96242095D01*
X150332762Y-96289714D01*
X150380381Y-96384952D01*
X150380381Y-96575429D01*
X150332762Y-96670667D01*
X150285143Y-96718286D01*
X150189905Y-96765905D01*
X149999429Y-96765905D01*
X149904190Y-96718286D01*
X149856571Y-96670667D01*
X149808952Y-96575429D01*
X93829143Y-99687143D02*
X93876762Y-99639524D01*
X93924381Y-99496667D01*
X93924381Y-99401429D01*
X93876762Y-99258571D01*
X93781524Y-99163333D01*
X93686286Y-99115714D01*
X93495810Y-99068095D01*
X93352952Y-99068095D01*
X93162476Y-99115714D01*
X93067238Y-99163333D01*
X92972000Y-99258571D01*
X92924381Y-99401429D01*
X92924381Y-99496667D01*
X92972000Y-99639524D01*
X93019619Y-99687143D01*
X93924381Y-100639524D02*
X93924381Y-100068095D01*
X93924381Y-100353809D02*
X92924381Y-100353809D01*
X93067238Y-100258571D01*
X93162476Y-100163333D01*
X93210095Y-100068095D01*
X93924381Y-101115714D02*
X93924381Y-101306190D01*
X93876762Y-101401429D01*
X93829143Y-101449048D01*
X93686286Y-101544286D01*
X93495810Y-101591905D01*
X93114857Y-101591905D01*
X93019619Y-101544286D01*
X92972000Y-101496667D01*
X92924381Y-101401429D01*
X92924381Y-101210952D01*
X92972000Y-101115714D01*
X93019619Y-101068095D01*
X93114857Y-101020476D01*
X93352952Y-101020476D01*
X93448190Y-101068095D01*
X93495810Y-101115714D01*
X93543429Y-101210952D01*
X93543429Y-101401429D01*
X93495810Y-101496667D01*
X93448190Y-101544286D01*
X93352952Y-101591905D01*
X116249143Y-60063143D02*
X116296762Y-60015524D01*
X116344381Y-59872667D01*
X116344381Y-59777429D01*
X116296762Y-59634571D01*
X116201524Y-59539333D01*
X116106286Y-59491714D01*
X115915810Y-59444095D01*
X115772952Y-59444095D01*
X115582476Y-59491714D01*
X115487238Y-59539333D01*
X115392000Y-59634571D01*
X115344381Y-59777429D01*
X115344381Y-59872667D01*
X115392000Y-60015524D01*
X115439619Y-60063143D01*
X115439619Y-60444095D02*
X115392000Y-60491714D01*
X115344381Y-60586952D01*
X115344381Y-60825048D01*
X115392000Y-60920286D01*
X115439619Y-60967905D01*
X115534857Y-61015524D01*
X115630095Y-61015524D01*
X115772952Y-60967905D01*
X116344381Y-60396476D01*
X116344381Y-61015524D01*
X115344381Y-61634571D02*
X115344381Y-61729810D01*
X115392000Y-61825048D01*
X115439619Y-61872667D01*
X115534857Y-61920286D01*
X115725333Y-61967905D01*
X115963429Y-61967905D01*
X116153905Y-61920286D01*
X116249143Y-61872667D01*
X116296762Y-61825048D01*
X116344381Y-61729810D01*
X116344381Y-61634571D01*
X116296762Y-61539333D01*
X116249143Y-61491714D01*
X116153905Y-61444095D01*
X115963429Y-61396476D01*
X115725333Y-61396476D01*
X115534857Y-61444095D01*
X115439619Y-61491714D01*
X115392000Y-61539333D01*
X115344381Y-61634571D01*
M02*
