G04 #@! TF.FileFunction,Soldermask,Bot*
%FSLAX46Y46*%
G04 Gerber Fmt 4.6, Leading zero omitted, Abs format (unit mm)*
G04 Created by KiCad (PCBNEW 4.0.6) date 05/07/17 15:54:07*
%MOMM*%
%LPD*%
G01*
G04 APERTURE LIST*
%ADD10C,0.100000*%
%ADD11C,0.010000*%
%ADD12C,2.900000*%
%ADD13C,4.200000*%
%ADD14R,0.950000X1.900000*%
%ADD15R,1.900000X0.950000*%
%ADD16R,1.400000X1.650000*%
%ADD17R,1.650000X1.400000*%
%ADD18C,1.705560*%
%ADD19C,2.400000*%
%ADD20C,2.000200*%
%ADD21R,1.700000X1.100000*%
%ADD22R,2.100000X2.100000*%
%ADD23O,2.100000X2.100000*%
%ADD24R,1.200100X1.200100*%
%ADD25R,1.100000X1.700000*%
%ADD26R,1.924000X1.924000*%
%ADD27R,1.300000X1.200000*%
%ADD28R,2.800000X2.400000*%
G04 APERTURE END LIST*
D10*
D11*
G36*
X97219570Y-103178742D02*
X97293881Y-103126479D01*
X97367728Y-103041623D01*
X97440405Y-102926014D01*
X97511204Y-102781494D01*
X97579421Y-102609901D01*
X97644349Y-102413077D01*
X97705282Y-102192861D01*
X97761514Y-101951094D01*
X97812338Y-101689616D01*
X97857050Y-101410268D01*
X97871802Y-101303510D01*
X97883438Y-101215662D01*
X97988979Y-101405449D01*
X98094483Y-101585904D01*
X98209402Y-101765920D01*
X98330731Y-101941827D01*
X98455460Y-102109954D01*
X98580583Y-102266630D01*
X98703093Y-102408186D01*
X98819981Y-102530950D01*
X98928240Y-102631251D01*
X99024863Y-102705420D01*
X99081185Y-102738465D01*
X99173594Y-102771057D01*
X99260406Y-102777261D01*
X99333603Y-102756951D01*
X99355529Y-102742770D01*
X99403037Y-102684220D01*
X99439369Y-102594072D01*
X99464595Y-102475227D01*
X99478783Y-102330586D01*
X99482003Y-102163050D01*
X99474325Y-101975520D01*
X99455819Y-101770898D01*
X99426555Y-101552084D01*
X99386601Y-101321979D01*
X99336028Y-101083484D01*
X99313429Y-100988776D01*
X99288464Y-100888397D01*
X99265671Y-100798687D01*
X99246783Y-100726323D01*
X99233534Y-100677983D01*
X99228617Y-100662205D01*
X99233205Y-100653710D01*
X99261251Y-100669210D01*
X99305873Y-100703718D01*
X99470412Y-100833801D01*
X99644887Y-100960453D01*
X99825362Y-101081562D01*
X100007902Y-101195015D01*
X100188570Y-101298701D01*
X100363431Y-101390506D01*
X100528550Y-101468320D01*
X100679992Y-101530030D01*
X100813819Y-101573523D01*
X100926097Y-101596687D01*
X100975909Y-101600000D01*
X101072325Y-101588493D01*
X101143106Y-101553563D01*
X101188463Y-101494598D01*
X101208607Y-101410984D01*
X101203748Y-101302109D01*
X101174097Y-101167360D01*
X101150682Y-101092000D01*
X101084044Y-100919255D01*
X100994780Y-100727917D01*
X100886583Y-100524369D01*
X100763146Y-100314998D01*
X100628164Y-100106186D01*
X100485330Y-99904320D01*
X100395873Y-99787257D01*
X100347305Y-99724733D01*
X100309023Y-99673692D01*
X100285449Y-99640144D01*
X100280157Y-99629939D01*
X100298410Y-99632562D01*
X100343299Y-99643511D01*
X100406690Y-99660738D01*
X100438937Y-99669949D01*
X100656866Y-99728162D01*
X100877828Y-99777960D01*
X101097702Y-99818988D01*
X101312368Y-99850890D01*
X101517705Y-99873309D01*
X101709595Y-99885889D01*
X101883916Y-99888274D01*
X102036548Y-99880108D01*
X102163371Y-99861035D01*
X102260265Y-99830698D01*
X102266349Y-99827893D01*
X102324825Y-99786477D01*
X102371176Y-99728936D01*
X102396201Y-99667826D01*
X102398218Y-99648005D01*
X102383423Y-99577576D01*
X102340036Y-99490064D01*
X102269876Y-99388179D01*
X102174763Y-99274630D01*
X102081830Y-99177114D01*
X101941234Y-99046013D01*
X101775181Y-98906689D01*
X101591680Y-98764948D01*
X101398737Y-98626593D01*
X101204362Y-98497430D01*
X101016561Y-98383264D01*
X100892428Y-98314923D01*
X100810786Y-98272254D01*
X100919643Y-98257067D01*
X101215068Y-98212854D01*
X101478502Y-98166799D01*
X101714234Y-98117844D01*
X101926550Y-98064927D01*
X102119737Y-98006989D01*
X102298083Y-97942968D01*
X102452180Y-97878039D01*
X102595120Y-97805470D01*
X102702207Y-97733053D01*
X102773868Y-97660216D01*
X102810529Y-97586388D01*
X102812617Y-97510997D01*
X102781988Y-97435797D01*
X102726336Y-97371641D01*
X102637782Y-97305147D01*
X102519525Y-97237663D01*
X102374762Y-97170535D01*
X102206690Y-97105113D01*
X102018506Y-97042744D01*
X101813407Y-96984776D01*
X101594591Y-96932557D01*
X101581857Y-96929801D01*
X101509354Y-96915187D01*
X101417686Y-96898189D01*
X101314042Y-96879979D01*
X101205614Y-96861726D01*
X101099590Y-96844602D01*
X101003162Y-96829777D01*
X100923520Y-96818421D01*
X100867854Y-96811706D01*
X100848350Y-96810384D01*
X100856966Y-96801970D01*
X100892105Y-96778907D01*
X100948675Y-96744356D01*
X101021584Y-96701477D01*
X101053115Y-96683312D01*
X101261277Y-96558693D01*
X101460470Y-96429029D01*
X101647917Y-96296715D01*
X101820838Y-96164144D01*
X101976458Y-96033711D01*
X102111998Y-95907811D01*
X102224681Y-95788837D01*
X102311728Y-95679185D01*
X102370364Y-95581249D01*
X102390312Y-95530584D01*
X102404694Y-95472369D01*
X102404617Y-95430090D01*
X102391316Y-95389061D01*
X102360105Y-95333205D01*
X102316582Y-95289640D01*
X102256627Y-95257088D01*
X102176119Y-95234273D01*
X102070936Y-95219917D01*
X101936960Y-95212745D01*
X101817714Y-95211310D01*
X101482870Y-95225622D01*
X101128355Y-95268334D01*
X100756578Y-95339052D01*
X100369949Y-95437382D01*
X100284721Y-95462208D01*
X100271869Y-95460169D01*
X100281665Y-95438264D01*
X100315433Y-95394014D01*
X100331203Y-95375102D01*
X100486045Y-95183768D01*
X100629911Y-94990159D01*
X100761439Y-94797074D01*
X100879269Y-94607314D01*
X100982039Y-94423678D01*
X101068388Y-94248968D01*
X101136954Y-94085983D01*
X101186376Y-93937524D01*
X101215294Y-93806391D01*
X101222345Y-93695384D01*
X101206169Y-93607305D01*
X101198845Y-93590224D01*
X101160504Y-93530968D01*
X101109956Y-93492347D01*
X101040111Y-93471120D01*
X100943874Y-93464045D01*
X100922715Y-93464029D01*
X100850829Y-93466154D01*
X100790849Y-93473127D01*
X100730947Y-93487663D01*
X100659298Y-93512479D01*
X100586148Y-93541326D01*
X100369700Y-93640164D01*
X100138133Y-93767059D01*
X99895691Y-93919384D01*
X99646619Y-94094509D01*
X99454576Y-94241974D01*
X99383105Y-94298427D01*
X99322163Y-94345713D01*
X99277136Y-94379714D01*
X99253415Y-94396314D01*
X99251273Y-94397286D01*
X99251499Y-94382188D01*
X99261956Y-94344359D01*
X99267655Y-94327515D01*
X99304540Y-94211220D01*
X99343613Y-94067477D01*
X99383030Y-93904896D01*
X99420946Y-93732090D01*
X99455516Y-93557669D01*
X99484896Y-93390247D01*
X99507241Y-93238434D01*
X99515032Y-93172643D01*
X99525194Y-93034266D01*
X99527587Y-92891779D01*
X99522608Y-92754693D01*
X99510652Y-92632517D01*
X99492117Y-92534762D01*
X99487813Y-92519500D01*
X99460665Y-92451952D01*
X99424383Y-92387965D01*
X99409192Y-92367529D01*
X99343764Y-92315284D01*
X99262552Y-92293660D01*
X99168378Y-92302128D01*
X99064063Y-92340157D01*
X98952430Y-92407217D01*
X98875271Y-92467846D01*
X98745597Y-92591539D01*
X98608303Y-92745156D01*
X98466783Y-92924048D01*
X98324430Y-93123565D01*
X98184636Y-93339057D01*
X98050797Y-93565876D01*
X97981843Y-93692090D01*
X97888041Y-93868778D01*
X97856216Y-93602474D01*
X97820996Y-93349199D01*
X97777574Y-93106512D01*
X97726962Y-92877361D01*
X97670168Y-92664695D01*
X97608203Y-92471463D01*
X97542077Y-92300613D01*
X97472800Y-92155094D01*
X97401381Y-92037854D01*
X97328830Y-91951842D01*
X97276915Y-91911182D01*
X97199710Y-91882671D01*
X97112939Y-91879023D01*
X97051532Y-91893821D01*
X96995915Y-91929813D01*
X96933338Y-91992664D01*
X96869684Y-92075301D01*
X96810837Y-92170645D01*
X96792856Y-92204927D01*
X96719967Y-92371531D01*
X96651762Y-92569010D01*
X96589576Y-92792109D01*
X96534747Y-93035573D01*
X96488612Y-93294146D01*
X96456691Y-93526429D01*
X96445626Y-93619660D01*
X96435820Y-93702233D01*
X96428212Y-93766250D01*
X96423739Y-93803814D01*
X96423281Y-93807643D01*
X96415203Y-93816943D01*
X96396186Y-93794880D01*
X96365218Y-93740247D01*
X96362525Y-93735072D01*
X96224674Y-93486724D01*
X96071483Y-93242277D01*
X95908465Y-93009585D01*
X95741134Y-92796503D01*
X95575004Y-92610885D01*
X95568756Y-92604445D01*
X95449968Y-92488560D01*
X95346208Y-92401150D01*
X95253857Y-92339559D01*
X95169296Y-92301135D01*
X95145163Y-92293797D01*
X95090037Y-92282885D01*
X95044260Y-92287252D01*
X94989058Y-92308046D01*
X94916710Y-92359666D01*
X94859633Y-92442882D01*
X94818024Y-92556284D01*
X94792078Y-92698462D01*
X94782102Y-92866162D01*
X95087049Y-92866162D01*
X95091763Y-92730281D01*
X95094565Y-92704417D01*
X95102670Y-92646867D01*
X95111285Y-92618561D01*
X95124762Y-92612660D01*
X95146977Y-92622077D01*
X95176892Y-92643911D01*
X95223808Y-92684893D01*
X95279725Y-92737873D01*
X95307327Y-92765378D01*
X95473337Y-92948448D01*
X95641804Y-93163036D01*
X95775635Y-93353890D01*
X95995600Y-93704288D01*
X96182949Y-94050421D01*
X96331093Y-94378297D01*
X96719851Y-94378297D01*
X96721304Y-94282724D01*
X96724189Y-94158611D01*
X96725244Y-94116072D01*
X96737438Y-93824907D01*
X96759694Y-93558671D01*
X96793438Y-93307051D01*
X96840096Y-93059733D01*
X96901094Y-92806402D01*
X96911929Y-92765915D01*
X96949129Y-92640138D01*
X96991488Y-92515897D01*
X97035535Y-92402310D01*
X97077800Y-92308491D01*
X97105176Y-92258306D01*
X97143103Y-92196683D01*
X97175125Y-92236228D01*
X97194634Y-92268914D01*
X97222692Y-92326831D01*
X97255232Y-92401189D01*
X97281982Y-92467178D01*
X97366936Y-92714452D01*
X97440169Y-92988854D01*
X97500379Y-93282752D01*
X97546269Y-93588519D01*
X97576538Y-93898522D01*
X97589887Y-94205134D01*
X97590428Y-94278102D01*
X97589950Y-94391892D01*
X97587939Y-94477464D01*
X97583532Y-94542877D01*
X97575865Y-94596192D01*
X97564077Y-94645470D01*
X97547302Y-94698771D01*
X97544487Y-94707072D01*
X97505515Y-94831632D01*
X97465819Y-94977003D01*
X97426765Y-95136371D01*
X97389713Y-95302926D01*
X97356030Y-95469854D01*
X97327077Y-95630343D01*
X97304219Y-95777580D01*
X97288819Y-95904755D01*
X97282241Y-96005053D01*
X97282098Y-96017977D01*
X97274917Y-96080083D01*
X97256162Y-96157631D01*
X97229845Y-96238699D01*
X97200688Y-96309637D01*
X97570726Y-96309637D01*
X97573975Y-96206811D01*
X97581367Y-96088372D01*
X97592587Y-95959386D01*
X97607316Y-95824920D01*
X97625239Y-95690040D01*
X97646037Y-95559814D01*
X97646280Y-95558429D01*
X97716566Y-95215792D01*
X97805276Y-94888825D01*
X97915724Y-94567376D01*
X98051225Y-94241295D01*
X98135046Y-94061643D01*
X98237491Y-93860691D01*
X98350145Y-93659557D01*
X98469798Y-93462867D01*
X98593240Y-93275248D01*
X98717264Y-93101324D01*
X98838658Y-92945722D01*
X98954213Y-92813068D01*
X99060721Y-92707988D01*
X99093789Y-92679782D01*
X99146375Y-92637563D01*
X99177657Y-92616013D01*
X99194367Y-92612771D01*
X99203238Y-92625472D01*
X99207619Y-92639829D01*
X99213430Y-92677614D01*
X99218201Y-92739967D01*
X99221107Y-92815172D01*
X99221477Y-92837111D01*
X99215108Y-93035886D01*
X99192660Y-93259415D01*
X99155593Y-93500688D01*
X99105367Y-93752695D01*
X99043441Y-94008424D01*
X98971276Y-94260866D01*
X98890330Y-94503008D01*
X98854865Y-94597885D01*
X98714189Y-94924115D01*
X98544947Y-95252341D01*
X98352905Y-95572810D01*
X98143828Y-95875773D01*
X97965050Y-96102715D01*
X97887515Y-96192515D01*
X97811165Y-96276345D01*
X97739996Y-96350262D01*
X97678004Y-96410323D01*
X97629185Y-96452584D01*
X97597535Y-96473102D01*
X97589013Y-96473769D01*
X97577928Y-96448183D01*
X97571938Y-96391783D01*
X97570726Y-96309637D01*
X97200688Y-96309637D01*
X97199977Y-96311366D01*
X97170569Y-96363710D01*
X97162397Y-96373710D01*
X97147122Y-96383367D01*
X97131621Y-96373425D01*
X97111287Y-96338721D01*
X97089522Y-96292067D01*
X97060250Y-96213273D01*
X97040176Y-96123681D01*
X97026602Y-96011022D01*
X97025907Y-96002929D01*
X96997823Y-95752495D01*
X96955187Y-95483312D01*
X96900632Y-95208588D01*
X96836790Y-94941533D01*
X96766291Y-94695356D01*
X96763828Y-94687572D01*
X96748205Y-94637549D01*
X96736438Y-94594897D01*
X96728123Y-94553631D01*
X96722856Y-94507766D01*
X96720233Y-94451316D01*
X96719851Y-94378297D01*
X96331093Y-94378297D01*
X96339971Y-94397945D01*
X96468954Y-94752515D01*
X96572185Y-95119787D01*
X96651953Y-95505416D01*
X96656272Y-95530610D01*
X96676690Y-95664384D01*
X96694607Y-95807267D01*
X96709441Y-95951917D01*
X96720614Y-96090991D01*
X96727544Y-96217147D01*
X96729651Y-96323043D01*
X96726356Y-96401338D01*
X96725615Y-96408155D01*
X96714197Y-96504555D01*
X96597509Y-96389813D01*
X96389107Y-96165626D01*
X96186960Y-95910541D01*
X95994158Y-95629808D01*
X95813794Y-95328675D01*
X95648956Y-95012394D01*
X95502736Y-94686213D01*
X95378225Y-94355381D01*
X95350655Y-94271952D01*
X95287419Y-94060369D01*
X95231233Y-93843335D01*
X95182982Y-93626271D01*
X95143552Y-93414600D01*
X95113830Y-93213743D01*
X95094700Y-93029123D01*
X95087049Y-92866162D01*
X94782102Y-92866162D01*
X94781992Y-92868007D01*
X94787963Y-93063509D01*
X94810185Y-93283558D01*
X94832522Y-93433580D01*
X94858476Y-93573419D01*
X94892985Y-93734983D01*
X94933033Y-93905608D01*
X94975602Y-94072629D01*
X95017676Y-94223379D01*
X95031829Y-94270286D01*
X95050235Y-94331538D01*
X95063388Y-94378606D01*
X95068433Y-94401241D01*
X95055189Y-94395640D01*
X95018837Y-94371117D01*
X94964608Y-94331411D01*
X94897733Y-94280260D01*
X94882607Y-94268441D01*
X94662496Y-94103017D01*
X94442646Y-93951578D01*
X94226979Y-93816327D01*
X94019412Y-93699464D01*
X93823867Y-93603192D01*
X93644262Y-93529713D01*
X93484518Y-93481229D01*
X93478983Y-93479930D01*
X93354128Y-93462864D01*
X93251470Y-93473810D01*
X93171699Y-93511549D01*
X93115506Y-93574867D01*
X93083582Y-93662547D01*
X93076617Y-93773373D01*
X93078944Y-93789907D01*
X93378825Y-93789907D01*
X93384052Y-93764292D01*
X93389835Y-93762286D01*
X93409624Y-93768096D01*
X93455050Y-93783595D01*
X93517713Y-93805888D01*
X93544350Y-93815557D01*
X93740218Y-93897942D01*
X93951696Y-94006785D01*
X94173765Y-94138694D01*
X94401407Y-94290276D01*
X94629605Y-94458137D01*
X94853339Y-94638885D01*
X95067592Y-94829127D01*
X95127985Y-94886309D01*
X95207908Y-94964047D01*
X95268256Y-95026389D01*
X95315880Y-95082344D01*
X95357631Y-95140919D01*
X95400360Y-95211122D01*
X95450920Y-95301961D01*
X95467899Y-95333217D01*
X95569907Y-95513923D01*
X95680889Y-95697162D01*
X95796521Y-95876541D01*
X95912481Y-96045669D01*
X96024447Y-96198152D01*
X96128097Y-96327599D01*
X96180955Y-96387709D01*
X96211603Y-96428518D01*
X96246387Y-96486073D01*
X96281376Y-96552134D01*
X96312640Y-96618460D01*
X96336247Y-96676810D01*
X96348267Y-96718942D01*
X96346843Y-96735491D01*
X96327614Y-96733243D01*
X96284140Y-96720491D01*
X96227522Y-96700609D01*
X96142181Y-96659663D01*
X96044314Y-96595106D01*
X95944714Y-96516853D01*
X95619266Y-96265596D01*
X95264357Y-96027761D01*
X94885474Y-95807014D01*
X94865724Y-95796343D01*
X94793822Y-95756094D01*
X94733435Y-95717598D01*
X94677031Y-95674765D01*
X94617077Y-95621503D01*
X94546040Y-95551723D01*
X94482413Y-95486392D01*
X94283097Y-95268809D01*
X94091354Y-95038468D01*
X93912302Y-94802307D01*
X93751058Y-94567264D01*
X93612743Y-94340276D01*
X93546343Y-94217582D01*
X93492154Y-94107036D01*
X93446767Y-94004515D01*
X93411723Y-93914499D01*
X93388563Y-93841470D01*
X93378825Y-93789907D01*
X93078944Y-93789907D01*
X93095304Y-93906130D01*
X93140333Y-94059601D01*
X93143932Y-94069564D01*
X93214300Y-94237182D01*
X93308791Y-94422983D01*
X93424038Y-94621465D01*
X93556676Y-94827125D01*
X93703338Y-95034460D01*
X93852073Y-95227322D01*
X93908776Y-95299291D01*
X93954408Y-95360134D01*
X93985472Y-95404946D01*
X93998469Y-95428821D01*
X93997583Y-95431429D01*
X93973265Y-95426520D01*
X93922448Y-95413267D01*
X93853351Y-95393884D01*
X93797654Y-95377599D01*
X93593418Y-95321925D01*
X93381525Y-95273332D01*
X93167802Y-95232581D01*
X92958074Y-95200437D01*
X92758170Y-95177662D01*
X92573914Y-95165019D01*
X92411133Y-95163271D01*
X92275655Y-95173181D01*
X92257121Y-95175865D01*
X92124414Y-95207645D01*
X92022031Y-95255892D01*
X91950835Y-95319387D01*
X91911692Y-95396912D01*
X91905467Y-95487250D01*
X91911260Y-95508682D01*
X92231522Y-95508682D01*
X92232108Y-95494285D01*
X92249036Y-95486197D01*
X92258860Y-95483374D01*
X92312338Y-95475074D01*
X92393698Y-95470723D01*
X92494771Y-95470162D01*
X92607385Y-95473233D01*
X92723370Y-95479778D01*
X92834556Y-95489638D01*
X92883892Y-95495510D01*
X93326757Y-95571277D01*
X93759099Y-95680701D01*
X94178932Y-95822942D01*
X94584270Y-95997160D01*
X94973127Y-96202513D01*
X95343517Y-96438162D01*
X95646564Y-96665049D01*
X95733998Y-96737796D01*
X95820296Y-96813744D01*
X95901337Y-96888801D01*
X95972995Y-96958875D01*
X96031148Y-97019876D01*
X96071671Y-97067710D01*
X96090441Y-97098288D01*
X96090554Y-97105569D01*
X96067545Y-97113177D01*
X96014278Y-97116949D01*
X95936543Y-97117186D01*
X95840132Y-97114192D01*
X95730834Y-97108267D01*
X95614441Y-97099714D01*
X95496743Y-97088835D01*
X95383531Y-97075932D01*
X95300039Y-97064348D01*
X94888081Y-96985988D01*
X94486389Y-96877657D01*
X94091561Y-96738066D01*
X93700195Y-96565925D01*
X93308890Y-96359946D01*
X93076167Y-96221712D01*
X92932457Y-96128334D01*
X92788239Y-96026411D01*
X92649354Y-95920650D01*
X92521637Y-95815759D01*
X92410929Y-95716445D01*
X92323068Y-95627417D01*
X92287662Y-95585887D01*
X92249350Y-95536759D01*
X92231522Y-95508682D01*
X91911260Y-95508682D01*
X91933024Y-95589184D01*
X91944880Y-95615483D01*
X92007680Y-95718010D01*
X92100873Y-95831632D01*
X92221240Y-95953772D01*
X92365563Y-96081854D01*
X92530624Y-96213299D01*
X92713203Y-96345532D01*
X92910083Y-96475974D01*
X93118044Y-96602049D01*
X93310156Y-96708662D01*
X93487778Y-96802959D01*
X93221353Y-96834457D01*
X92971522Y-96868917D01*
X92731659Y-96911598D01*
X92504682Y-96961482D01*
X92293510Y-97017550D01*
X92101062Y-97078783D01*
X91930256Y-97144162D01*
X91784012Y-97212671D01*
X91665247Y-97283289D01*
X91576881Y-97354998D01*
X91521833Y-97426781D01*
X91521361Y-97427687D01*
X91495343Y-97514266D01*
X91498393Y-97545143D01*
X91830071Y-97545143D01*
X91846731Y-97522993D01*
X91893630Y-97492948D01*
X91966147Y-97457188D01*
X92059662Y-97417889D01*
X92169552Y-97377228D01*
X92229214Y-97357061D01*
X92519502Y-97272989D01*
X92832401Y-97202527D01*
X93156079Y-97147867D01*
X93478704Y-97111200D01*
X93607137Y-97101923D01*
X93788055Y-97093640D01*
X93940145Y-97092604D01*
X94070234Y-97099305D01*
X94185145Y-97114238D01*
X94291703Y-97137895D01*
X94351928Y-97155665D01*
X94503819Y-97200873D01*
X94671280Y-97244842D01*
X94847486Y-97286244D01*
X95025610Y-97323751D01*
X95198824Y-97356037D01*
X95326812Y-97376437D01*
X96299457Y-97376437D01*
X96355007Y-97343623D01*
X96415774Y-97289771D01*
X96450087Y-97220346D01*
X96453687Y-97144930D01*
X96450204Y-97129453D01*
X96441257Y-97090562D01*
X96447843Y-97069781D01*
X96477532Y-97056763D01*
X96509516Y-97048391D01*
X96586640Y-97017153D01*
X96634857Y-96967044D01*
X96658757Y-96893134D01*
X96659589Y-96887315D01*
X96669102Y-96816384D01*
X96740759Y-96835510D01*
X96817247Y-96841633D01*
X96882678Y-96814712D01*
X96940227Y-96753337D01*
X96946357Y-96744200D01*
X96982643Y-96688506D01*
X97045819Y-96731253D01*
X97095100Y-96758543D01*
X97139002Y-96773202D01*
X97147608Y-96774000D01*
X97186399Y-96764084D01*
X97236353Y-96739311D01*
X97252118Y-96729282D01*
X97318014Y-96684563D01*
X97335799Y-96718956D01*
X97953285Y-96718956D01*
X97964300Y-96667942D01*
X97994397Y-96597267D01*
X98039158Y-96514918D01*
X98094167Y-96428879D01*
X98155004Y-96347139D01*
X98167093Y-96332473D01*
X98452306Y-95964694D01*
X98710193Y-95573489D01*
X98868036Y-95297411D01*
X98916370Y-95209179D01*
X98957224Y-95140275D01*
X98996968Y-95082487D01*
X99041971Y-95027609D01*
X99098603Y-94967431D01*
X99173233Y-94893744D01*
X99205362Y-94862687D01*
X99510561Y-94586577D01*
X99826075Y-94337948D01*
X100052016Y-94180135D01*
X100197493Y-94086853D01*
X100341644Y-94001045D01*
X100479889Y-93924993D01*
X100607653Y-93860975D01*
X100720359Y-93811272D01*
X100813428Y-93778163D01*
X100882285Y-93763929D01*
X100888238Y-93763612D01*
X100916545Y-93767292D01*
X100921866Y-93788090D01*
X100916897Y-93812122D01*
X100886727Y-93906085D01*
X100838560Y-94023155D01*
X100775479Y-94156901D01*
X100700563Y-94300894D01*
X100616893Y-94448702D01*
X100591654Y-94490992D01*
X100360813Y-94841062D01*
X100096820Y-95182502D01*
X99802457Y-95511736D01*
X99777404Y-95537725D01*
X99696924Y-95618941D01*
X99631863Y-95679291D01*
X99573887Y-95725339D01*
X99514660Y-95763648D01*
X99445849Y-95800781D01*
X99438975Y-95804253D01*
X99129882Y-95971077D01*
X98828691Y-96155698D01*
X98544544Y-96352125D01*
X98286584Y-96554370D01*
X98261714Y-96575423D01*
X98209831Y-96614232D01*
X98148589Y-96652020D01*
X98085304Y-96685383D01*
X98027290Y-96710916D01*
X97981861Y-96725216D01*
X97956332Y-96724878D01*
X97953285Y-96718956D01*
X97335799Y-96718956D01*
X97345671Y-96738046D01*
X97392197Y-96795490D01*
X97455840Y-96832417D01*
X97525613Y-96844740D01*
X97589677Y-96828831D01*
X97612472Y-96822009D01*
X97625852Y-96838059D01*
X97635176Y-96876918D01*
X97661406Y-96944869D01*
X97707499Y-97001535D01*
X97764268Y-97037792D01*
X97805606Y-97046143D01*
X97841767Y-97048848D01*
X97854318Y-97064229D01*
X97851024Y-97103185D01*
X97850145Y-97108658D01*
X97849928Y-97116681D01*
X98171000Y-97116681D01*
X98183902Y-97092881D01*
X98219325Y-97050223D01*
X98272345Y-96993584D01*
X98338038Y-96927842D01*
X98411481Y-96857874D01*
X98487749Y-96788560D01*
X98561919Y-96724776D01*
X98588823Y-96702766D01*
X98930407Y-96450775D01*
X99295057Y-96224855D01*
X99678953Y-96026710D01*
X100078275Y-95858045D01*
X100489202Y-95720564D01*
X100907914Y-95615971D01*
X101110143Y-95578015D01*
X101268814Y-95553844D01*
X101426657Y-95534236D01*
X101578029Y-95519556D01*
X101717285Y-95510168D01*
X101838781Y-95506437D01*
X101936874Y-95508730D01*
X102005921Y-95517411D01*
X102014279Y-95519524D01*
X102031543Y-95526470D01*
X102035943Y-95537843D01*
X102024427Y-95558569D01*
X101993940Y-95593575D01*
X101941428Y-95647789D01*
X101923565Y-95665866D01*
X101732059Y-95843837D01*
X101511052Y-96022015D01*
X101267031Y-96195961D01*
X101006483Y-96361242D01*
X100735893Y-96513421D01*
X100541481Y-96610967D01*
X100256753Y-96735600D01*
X99952131Y-96849043D01*
X99636968Y-96948585D01*
X99320620Y-97031517D01*
X99012440Y-97095128D01*
X98729608Y-97135868D01*
X98607818Y-97146642D01*
X98491206Y-97152455D01*
X98385081Y-97153490D01*
X98294748Y-97149930D01*
X98225515Y-97141955D01*
X98182689Y-97129749D01*
X98171000Y-97116681D01*
X97849928Y-97116681D01*
X97847883Y-97192043D01*
X97873546Y-97265156D01*
X97917284Y-97324909D01*
X97949847Y-97364611D01*
X97960851Y-97391716D01*
X97953591Y-97420065D01*
X97944348Y-97438634D01*
X97920494Y-97506923D01*
X97922504Y-97550106D01*
X98237104Y-97550106D01*
X98281159Y-97515785D01*
X98304114Y-97498968D01*
X98327543Y-97486303D01*
X98357542Y-97476623D01*
X98400207Y-97468764D01*
X98461634Y-97461558D01*
X98547918Y-97453841D01*
X98646463Y-97445921D01*
X98976960Y-97407331D01*
X99323103Y-97343258D01*
X99676575Y-97255462D01*
X99967143Y-97166638D01*
X100057663Y-97136863D01*
X100130473Y-97114783D01*
X100193276Y-97099631D01*
X100253777Y-97090638D01*
X100319678Y-97087038D01*
X100398683Y-97088062D01*
X100498495Y-97092943D01*
X100626764Y-97100910D01*
X101033708Y-97140304D01*
X101426595Y-97205235D01*
X101800892Y-97294763D01*
X102152064Y-97407945D01*
X102208866Y-97429366D01*
X102310115Y-97468878D01*
X102379593Y-97498563D01*
X102419459Y-97521460D01*
X102431870Y-97540608D01*
X102418984Y-97559047D01*
X102382959Y-97579816D01*
X102332244Y-97603141D01*
X102109015Y-97691299D01*
X101857754Y-97769962D01*
X101585803Y-97837715D01*
X101300504Y-97893146D01*
X101009198Y-97934840D01*
X100719227Y-97961384D01*
X100437934Y-97971365D01*
X100419582Y-97971407D01*
X100306659Y-97971088D01*
X100221806Y-97969458D01*
X100156810Y-97965536D01*
X100103457Y-97958339D01*
X100053533Y-97946887D01*
X99998825Y-97930197D01*
X99956939Y-97916120D01*
X99662477Y-97826678D01*
X99346238Y-97750639D01*
X99021100Y-97690656D01*
X98699943Y-97649381D01*
X98631340Y-97643094D01*
X98508492Y-97630968D01*
X98416556Y-97617652D01*
X98350159Y-97602194D01*
X98308373Y-97585957D01*
X98237104Y-97550106D01*
X97922504Y-97550106D01*
X97923750Y-97576845D01*
X97944412Y-97639058D01*
X97960639Y-97682633D01*
X97960155Y-97706981D01*
X97941585Y-97725761D01*
X97935237Y-97730291D01*
X97885373Y-97785202D01*
X97853411Y-97861919D01*
X97844428Y-97932835D01*
X97842455Y-97962357D01*
X98148153Y-97962357D01*
X98200398Y-97950897D01*
X98273937Y-97941439D01*
X98375507Y-97937949D01*
X98497371Y-97940279D01*
X98631795Y-97948279D01*
X98771041Y-97961801D01*
X98771927Y-97961905D01*
X99174086Y-98024988D01*
X99573353Y-98118942D01*
X99965912Y-98242015D01*
X100347949Y-98392454D01*
X100715648Y-98568509D01*
X101065196Y-98768425D01*
X101392776Y-98990452D01*
X101694575Y-99232837D01*
X101849464Y-99375422D01*
X101915997Y-99440860D01*
X101972000Y-99497887D01*
X102012789Y-99541579D01*
X102033680Y-99567017D01*
X102035428Y-99570809D01*
X102018362Y-99578751D01*
X101971201Y-99583690D01*
X101900002Y-99585746D01*
X101810821Y-99585036D01*
X101709716Y-99581678D01*
X101602742Y-99575789D01*
X101495957Y-99567487D01*
X101410135Y-99558654D01*
X100976315Y-99490346D01*
X100550854Y-99387711D01*
X100132555Y-99250332D01*
X99720216Y-99077796D01*
X99312639Y-98869687D01*
X99150714Y-98776414D01*
X98970320Y-98664445D01*
X98796875Y-98547832D01*
X98635043Y-98430188D01*
X98489486Y-98315129D01*
X98364867Y-98206266D01*
X98265849Y-98107216D01*
X98223766Y-98057947D01*
X98148153Y-97962357D01*
X97842455Y-97962357D01*
X97841220Y-97980819D01*
X97825543Y-98006424D01*
X97788321Y-98023400D01*
X97783596Y-98024977D01*
X97705007Y-98069104D01*
X97648974Y-98139531D01*
X97632110Y-98179883D01*
X97616225Y-98215960D01*
X97591406Y-98229260D01*
X97549368Y-98228490D01*
X97477273Y-98233333D01*
X97409909Y-98264111D01*
X97352021Y-98310781D01*
X97327106Y-98331579D01*
X97917000Y-98331579D01*
X97931941Y-98317703D01*
X97972586Y-98320771D01*
X98018889Y-98335086D01*
X98053810Y-98355050D01*
X98106816Y-98393171D01*
X98169292Y-98443035D01*
X98206034Y-98474424D01*
X98434246Y-98660276D01*
X98691535Y-98844203D01*
X98970797Y-99021532D01*
X99264930Y-99187595D01*
X99386571Y-99250533D01*
X99482500Y-99299942D01*
X99555037Y-99341094D01*
X99613759Y-99380879D01*
X99668246Y-99426189D01*
X99728078Y-99483916D01*
X99768579Y-99525363D01*
X100027477Y-99813526D01*
X100269006Y-100123035D01*
X100487510Y-100445953D01*
X100677331Y-100774341D01*
X100725974Y-100868997D01*
X100765530Y-100951309D01*
X100804517Y-101037758D01*
X100839811Y-101120780D01*
X100868288Y-101192815D01*
X100886822Y-101246301D01*
X100892428Y-101271832D01*
X100877160Y-101277378D01*
X100834110Y-101267325D01*
X100767405Y-101243345D01*
X100681176Y-101207109D01*
X100579552Y-101160288D01*
X100466662Y-101104554D01*
X100420795Y-101080931D01*
X100114464Y-100906345D01*
X99809225Y-100703698D01*
X99514935Y-100480143D01*
X99241451Y-100242829D01*
X99164445Y-100169543D01*
X99086838Y-100093006D01*
X99028486Y-100031554D01*
X98982521Y-99975948D01*
X98942074Y-99916946D01*
X98900276Y-99845311D01*
X98850258Y-99751801D01*
X98841582Y-99735240D01*
X98670524Y-99427997D01*
X98489180Y-99139382D01*
X98301431Y-98875194D01*
X98111158Y-98641233D01*
X98103682Y-98632736D01*
X98013103Y-98522864D01*
X97952215Y-98432227D01*
X97921228Y-98361160D01*
X97917000Y-98331579D01*
X97327106Y-98331579D01*
X97317801Y-98339346D01*
X97291364Y-98344839D01*
X97254982Y-98329988D01*
X97248600Y-98326707D01*
X97176903Y-98301517D01*
X97107329Y-98305676D01*
X97042494Y-98331521D01*
X97000118Y-98351865D01*
X96977774Y-98354757D01*
X96963228Y-98339351D01*
X96955593Y-98325522D01*
X96909123Y-98273693D01*
X96839714Y-98238308D01*
X96760345Y-98225429D01*
X96713730Y-98222381D01*
X96687016Y-98206745D01*
X96666672Y-98168787D01*
X96660603Y-98153673D01*
X96623983Y-98094046D01*
X96570129Y-98044114D01*
X96510748Y-98013252D01*
X96478356Y-98007782D01*
X96457137Y-98001732D01*
X96452713Y-97977201D01*
X96457147Y-97947147D01*
X96457958Y-97900365D01*
X96448234Y-97845748D01*
X96431607Y-97795307D01*
X96411710Y-97761050D01*
X96398461Y-97753137D01*
X96373750Y-97742765D01*
X96351561Y-97728007D01*
X96332536Y-97710293D01*
X96330674Y-97690569D01*
X96346860Y-97656813D01*
X96358244Y-97637268D01*
X96386109Y-97559564D01*
X96378784Y-97484254D01*
X96336878Y-97416269D01*
X96299457Y-97376437D01*
X95326812Y-97376437D01*
X95360303Y-97381775D01*
X95503220Y-97399635D01*
X95620747Y-97408292D01*
X95654302Y-97408903D01*
X95700136Y-97414693D01*
X95762277Y-97430044D01*
X95831988Y-97451797D01*
X95900531Y-97476792D01*
X95959169Y-97501868D01*
X95999164Y-97523865D01*
X96012000Y-97538268D01*
X95995174Y-97561414D01*
X95949396Y-97586817D01*
X95881712Y-97612188D01*
X95799170Y-97635240D01*
X95708818Y-97653687D01*
X95621928Y-97664882D01*
X95180715Y-97718559D01*
X94756498Y-97801772D01*
X94406357Y-97896149D01*
X94188643Y-97962357D01*
X93780428Y-97961280D01*
X93448093Y-97952504D01*
X93137959Y-97927007D01*
X92839288Y-97883283D01*
X92541341Y-97819827D01*
X92292714Y-97752799D01*
X92201440Y-97723562D01*
X92108053Y-97689314D01*
X92018881Y-97652897D01*
X91940254Y-97617151D01*
X91878503Y-97584918D01*
X91839957Y-97559039D01*
X91830071Y-97545143D01*
X91498393Y-97545143D01*
X91504040Y-97602311D01*
X91546229Y-97688292D01*
X91620683Y-97768679D01*
X91646894Y-97789517D01*
X91766598Y-97867787D01*
X91907717Y-97939137D01*
X92072339Y-98004140D01*
X92262553Y-98063372D01*
X92480448Y-98117408D01*
X92728111Y-98166824D01*
X93007630Y-98212195D01*
X93321095Y-98254096D01*
X93343316Y-98256788D01*
X93459561Y-98270786D01*
X93266617Y-98375852D01*
X93069425Y-98489033D01*
X92875557Y-98611338D01*
X92688963Y-98739609D01*
X92513594Y-98870685D01*
X92353400Y-99001409D01*
X92212332Y-99128622D01*
X92094340Y-99249165D01*
X92003374Y-99359880D01*
X91966143Y-99415691D01*
X91917275Y-99521507D01*
X91908703Y-99577072D01*
X92215438Y-99577072D01*
X92289581Y-99483343D01*
X92368438Y-99395447D01*
X92474803Y-99294868D01*
X92603879Y-99185438D01*
X92750866Y-99070989D01*
X92910964Y-98955355D01*
X93079375Y-98842367D01*
X93142616Y-98802136D01*
X93514572Y-98587336D01*
X93894680Y-98403472D01*
X94278417Y-98252627D01*
X94470466Y-98190169D01*
X94696984Y-98126601D01*
X94922417Y-98073918D01*
X95156210Y-98030346D01*
X95407808Y-97994110D01*
X95667286Y-97965317D01*
X95741075Y-97960284D01*
X95825445Y-97957896D01*
X95910821Y-97958015D01*
X95987631Y-97960504D01*
X96046301Y-97965224D01*
X96075500Y-97971188D01*
X96088033Y-97979892D01*
X96088269Y-97993955D01*
X96073059Y-98017685D01*
X96039253Y-98055387D01*
X95983703Y-98111368D01*
X95945927Y-98148401D01*
X95705196Y-98363268D01*
X95433861Y-98569353D01*
X95137120Y-98763801D01*
X94820166Y-98943757D01*
X94488197Y-99106365D01*
X94146407Y-99248769D01*
X93799993Y-99368116D01*
X93643596Y-99413644D01*
X93433638Y-99467147D01*
X93224659Y-99512771D01*
X93021464Y-99549905D01*
X92828856Y-99577940D01*
X92651641Y-99596263D01*
X92494622Y-99604266D01*
X92362604Y-99601336D01*
X92267683Y-99588532D01*
X92215438Y-99577072D01*
X91908703Y-99577072D01*
X91902335Y-99618346D01*
X91920886Y-99704271D01*
X91972487Y-99777345D01*
X92056700Y-99835633D01*
X92061893Y-99838190D01*
X92168697Y-99874869D01*
X92305365Y-99897239D01*
X92468546Y-99905598D01*
X92654888Y-99900243D01*
X92861040Y-99881474D01*
X93083651Y-99849588D01*
X93319369Y-99804884D01*
X93564842Y-99747660D01*
X93798257Y-99683671D01*
X93880570Y-99659832D01*
X93950240Y-99640328D01*
X93999864Y-99627186D01*
X94021977Y-99622429D01*
X94019073Y-99635217D01*
X93997367Y-99669042D01*
X93961318Y-99717093D01*
X93953633Y-99726750D01*
X93810905Y-99911977D01*
X93677168Y-100100037D01*
X93553749Y-100288102D01*
X93441975Y-100473344D01*
X93343172Y-100652934D01*
X93258667Y-100824043D01*
X93189788Y-100983843D01*
X93137860Y-101129506D01*
X93104238Y-101258100D01*
X93412804Y-101258100D01*
X93423535Y-101214962D01*
X93447793Y-101148285D01*
X93483863Y-101062343D01*
X93530033Y-100961405D01*
X93584587Y-100849744D01*
X93597618Y-100824019D01*
X93754648Y-100542717D01*
X93939512Y-100257804D01*
X94145918Y-99978001D01*
X94367574Y-99712024D01*
X94515871Y-99551695D01*
X94590561Y-99475365D01*
X94651255Y-99417115D01*
X94706611Y-99370434D01*
X94765286Y-99328814D01*
X94835937Y-99285746D01*
X94927221Y-99234720D01*
X94964404Y-99214452D01*
X95180296Y-99091588D01*
X95392604Y-98960227D01*
X95595169Y-98824649D01*
X95781832Y-98689134D01*
X95946431Y-98557962D01*
X96075500Y-98442477D01*
X96171555Y-98366725D01*
X96256928Y-98327886D01*
X96319213Y-98309544D01*
X96354490Y-98301539D01*
X96370429Y-98303523D01*
X96374699Y-98315145D01*
X96374857Y-98322507D01*
X96359195Y-98394867D01*
X96314255Y-98478058D01*
X96243101Y-98566465D01*
X96239647Y-98570143D01*
X96088825Y-98743268D01*
X95934039Y-98946474D01*
X95778903Y-99174356D01*
X95627032Y-99421512D01*
X95482041Y-99682536D01*
X95435694Y-99772027D01*
X95386366Y-99867286D01*
X95345663Y-99939271D01*
X95306612Y-99997468D01*
X95262235Y-100051362D01*
X95205557Y-100110440D01*
X95139780Y-100174428D01*
X94847495Y-100434364D01*
X94531796Y-100676995D01*
X94201233Y-100896256D01*
X93864361Y-101086081D01*
X93828355Y-101104368D01*
X93740562Y-101146811D01*
X93650420Y-101187546D01*
X93565290Y-101223548D01*
X93492533Y-101251789D01*
X93439510Y-101269241D01*
X93417313Y-101273429D01*
X93412804Y-101258100D01*
X93104238Y-101258100D01*
X93104211Y-101258202D01*
X93090168Y-101367105D01*
X93097057Y-101453384D01*
X93119315Y-101505353D01*
X93170398Y-101556992D01*
X93237816Y-101587439D01*
X93323394Y-101596407D01*
X93428960Y-101583609D01*
X93556340Y-101548758D01*
X93707359Y-101491566D01*
X93883843Y-101411746D01*
X93963751Y-101372530D01*
X94191073Y-101252520D01*
X94410383Y-101123157D01*
X94629620Y-100979288D01*
X94856723Y-100815760D01*
X95045047Y-100670760D01*
X95052519Y-100676367D01*
X95047488Y-100713277D01*
X95030702Y-100777517D01*
X94967784Y-101010627D01*
X94914145Y-101245064D01*
X94870220Y-101476579D01*
X94836443Y-101700926D01*
X94813250Y-101913855D01*
X94801075Y-102111119D01*
X94800384Y-102280961D01*
X95105290Y-102280961D01*
X95105965Y-102191722D01*
X95109310Y-102090518D01*
X95115209Y-101983397D01*
X95123549Y-101876405D01*
X95132298Y-101791549D01*
X95199648Y-101361411D01*
X95300194Y-100941772D01*
X95434795Y-100529851D01*
X95604309Y-100122865D01*
X95721824Y-99882425D01*
X95837888Y-99667503D01*
X95960511Y-99459155D01*
X96086757Y-99261496D01*
X96213687Y-99078640D01*
X96338364Y-98914704D01*
X96457849Y-98773803D01*
X96569206Y-98660052D01*
X96634808Y-98603434D01*
X96728431Y-98529430D01*
X96743270Y-98608751D01*
X96748381Y-98659638D01*
X96750642Y-98735471D01*
X96749901Y-98825014D01*
X96747164Y-98896714D01*
X96716084Y-99230790D01*
X96658387Y-99578501D01*
X96576323Y-99931497D01*
X96472140Y-100281427D01*
X96348087Y-100619940D01*
X96269331Y-100797133D01*
X96719571Y-100797133D01*
X96719965Y-100685419D01*
X96721852Y-100601200D01*
X96726289Y-100535687D01*
X96734334Y-100480092D01*
X96747043Y-100425625D01*
X96765473Y-100363499D01*
X96775538Y-100331877D01*
X96882874Y-99960625D01*
X96966857Y-99589903D01*
X97025725Y-99228250D01*
X97049400Y-99005572D01*
X97062124Y-98877680D01*
X97076709Y-98782446D01*
X97093778Y-98716263D01*
X97103605Y-98692607D01*
X97126377Y-98650607D01*
X97142816Y-98626683D01*
X97145928Y-98624572D01*
X97158392Y-98639163D01*
X97180148Y-98675989D01*
X97190917Y-98696420D01*
X97214874Y-98765769D01*
X97536034Y-98765769D01*
X97538630Y-98672092D01*
X97547372Y-98602665D01*
X97562491Y-98561637D01*
X97578065Y-98552000D01*
X97597195Y-98564345D01*
X97636149Y-98598187D01*
X97689733Y-98648742D01*
X97752754Y-98711224D01*
X97770832Y-98729640D01*
X97986496Y-98972265D01*
X98193195Y-99249109D01*
X98391166Y-99560521D01*
X98580643Y-99906848D01*
X98624465Y-99994357D01*
X98725385Y-100205880D01*
X98809223Y-100397800D01*
X98879610Y-100580308D01*
X98940180Y-100763593D01*
X98994563Y-100957845D01*
X99046393Y-101173253D01*
X99049287Y-101186121D01*
X99080393Y-101337508D01*
X99108461Y-101498540D01*
X99132857Y-101663181D01*
X99152942Y-101825396D01*
X99168080Y-101979148D01*
X99177635Y-102118400D01*
X99180970Y-102237117D01*
X99177449Y-102329262D01*
X99173254Y-102361617D01*
X99158912Y-102442876D01*
X99070647Y-102361617D01*
X98947249Y-102236738D01*
X98815625Y-102083257D01*
X98679461Y-101906846D01*
X98542445Y-101713177D01*
X98408264Y-101507921D01*
X98280603Y-101296752D01*
X98163149Y-101085341D01*
X98059589Y-100879360D01*
X97973609Y-100684482D01*
X97962462Y-100656572D01*
X97929339Y-100572561D01*
X97897091Y-100491072D01*
X97870658Y-100424577D01*
X97861071Y-100400612D01*
X97834162Y-100326312D01*
X97801619Y-100225056D01*
X97765822Y-100105279D01*
X97729148Y-99975415D01*
X97693976Y-99843899D01*
X97662685Y-99719164D01*
X97637654Y-99609645D01*
X97636600Y-99604673D01*
X97607166Y-99452649D01*
X97582494Y-99299974D01*
X97562814Y-99150798D01*
X97548357Y-99009272D01*
X97539353Y-98879546D01*
X97536034Y-98765769D01*
X97214874Y-98765769D01*
X97217741Y-98774066D01*
X97227571Y-98855281D01*
X97234446Y-99009600D01*
X97254209Y-99190843D01*
X97285569Y-99392537D01*
X97327233Y-99608207D01*
X97377910Y-99831377D01*
X97436307Y-100055572D01*
X97501133Y-100274318D01*
X97526109Y-100351433D01*
X97551678Y-100430286D01*
X97569387Y-100492970D01*
X97580676Y-100549631D01*
X97586982Y-100610415D01*
X97589745Y-100685465D01*
X97590401Y-100784929D01*
X97590406Y-100805004D01*
X97577764Y-101130079D01*
X97540796Y-101471349D01*
X97480865Y-101819379D01*
X97399331Y-102164734D01*
X97388595Y-102203983D01*
X97352663Y-102325356D01*
X97311462Y-102451374D01*
X97268341Y-102572718D01*
X97226648Y-102680069D01*
X97189732Y-102764111D01*
X97181016Y-102781602D01*
X97150695Y-102840236D01*
X97126143Y-102796154D01*
X97081273Y-102703078D01*
X97032981Y-102580894D01*
X96983306Y-102436366D01*
X96934290Y-102276256D01*
X96887971Y-102107329D01*
X96846390Y-101936348D01*
X96811588Y-101770077D01*
X96803642Y-101727000D01*
X96768702Y-101514834D01*
X96744133Y-101322872D01*
X96728652Y-101136951D01*
X96720981Y-100942911D01*
X96719571Y-100797133D01*
X96269331Y-100797133D01*
X96206415Y-100938687D01*
X96186109Y-100979655D01*
X96029557Y-101270410D01*
X95858246Y-101546429D01*
X95664177Y-101820315D01*
X95596846Y-101908429D01*
X95538261Y-101981140D01*
X95470732Y-102060590D01*
X95398676Y-102142069D01*
X95326510Y-102220866D01*
X95258652Y-102292271D01*
X95199519Y-102351574D01*
X95153529Y-102394065D01*
X95125098Y-102415034D01*
X95120430Y-102416429D01*
X95112408Y-102399361D01*
X95107399Y-102352190D01*
X95105290Y-102280961D01*
X94800384Y-102280961D01*
X94800353Y-102288469D01*
X94811519Y-102441659D01*
X94835008Y-102566439D01*
X94844432Y-102597430D01*
X94888455Y-102687355D01*
X94948247Y-102746581D01*
X95021799Y-102773575D01*
X95074697Y-102773289D01*
X95154500Y-102748331D01*
X95249132Y-102693808D01*
X95356230Y-102612109D01*
X95473430Y-102505623D01*
X95598371Y-102376741D01*
X95728690Y-102227851D01*
X95862024Y-102061344D01*
X95996011Y-101879608D01*
X96082909Y-101753589D01*
X96147244Y-101655638D01*
X96212783Y-101552178D01*
X96272811Y-101454041D01*
X96320612Y-101372057D01*
X96330225Y-101354693D01*
X96418756Y-101192281D01*
X96458661Y-101475572D01*
X96484958Y-101653723D01*
X96510580Y-101806833D01*
X96537765Y-101946031D01*
X96568751Y-102082445D01*
X96605775Y-102227204D01*
X96621481Y-102285211D01*
X96684558Y-102495899D01*
X96751361Y-102682484D01*
X96820841Y-102843142D01*
X96891950Y-102976050D01*
X96963640Y-103079386D01*
X97034861Y-103151325D01*
X97104567Y-103190044D01*
X97145499Y-103196572D01*
X97219570Y-103178742D01*
X97219570Y-103178742D01*
G37*
X97219570Y-103178742D02*
X97293881Y-103126479D01*
X97367728Y-103041623D01*
X97440405Y-102926014D01*
X97511204Y-102781494D01*
X97579421Y-102609901D01*
X97644349Y-102413077D01*
X97705282Y-102192861D01*
X97761514Y-101951094D01*
X97812338Y-101689616D01*
X97857050Y-101410268D01*
X97871802Y-101303510D01*
X97883438Y-101215662D01*
X97988979Y-101405449D01*
X98094483Y-101585904D01*
X98209402Y-101765920D01*
X98330731Y-101941827D01*
X98455460Y-102109954D01*
X98580583Y-102266630D01*
X98703093Y-102408186D01*
X98819981Y-102530950D01*
X98928240Y-102631251D01*
X99024863Y-102705420D01*
X99081185Y-102738465D01*
X99173594Y-102771057D01*
X99260406Y-102777261D01*
X99333603Y-102756951D01*
X99355529Y-102742770D01*
X99403037Y-102684220D01*
X99439369Y-102594072D01*
X99464595Y-102475227D01*
X99478783Y-102330586D01*
X99482003Y-102163050D01*
X99474325Y-101975520D01*
X99455819Y-101770898D01*
X99426555Y-101552084D01*
X99386601Y-101321979D01*
X99336028Y-101083484D01*
X99313429Y-100988776D01*
X99288464Y-100888397D01*
X99265671Y-100798687D01*
X99246783Y-100726323D01*
X99233534Y-100677983D01*
X99228617Y-100662205D01*
X99233205Y-100653710D01*
X99261251Y-100669210D01*
X99305873Y-100703718D01*
X99470412Y-100833801D01*
X99644887Y-100960453D01*
X99825362Y-101081562D01*
X100007902Y-101195015D01*
X100188570Y-101298701D01*
X100363431Y-101390506D01*
X100528550Y-101468320D01*
X100679992Y-101530030D01*
X100813819Y-101573523D01*
X100926097Y-101596687D01*
X100975909Y-101600000D01*
X101072325Y-101588493D01*
X101143106Y-101553563D01*
X101188463Y-101494598D01*
X101208607Y-101410984D01*
X101203748Y-101302109D01*
X101174097Y-101167360D01*
X101150682Y-101092000D01*
X101084044Y-100919255D01*
X100994780Y-100727917D01*
X100886583Y-100524369D01*
X100763146Y-100314998D01*
X100628164Y-100106186D01*
X100485330Y-99904320D01*
X100395873Y-99787257D01*
X100347305Y-99724733D01*
X100309023Y-99673692D01*
X100285449Y-99640144D01*
X100280157Y-99629939D01*
X100298410Y-99632562D01*
X100343299Y-99643511D01*
X100406690Y-99660738D01*
X100438937Y-99669949D01*
X100656866Y-99728162D01*
X100877828Y-99777960D01*
X101097702Y-99818988D01*
X101312368Y-99850890D01*
X101517705Y-99873309D01*
X101709595Y-99885889D01*
X101883916Y-99888274D01*
X102036548Y-99880108D01*
X102163371Y-99861035D01*
X102260265Y-99830698D01*
X102266349Y-99827893D01*
X102324825Y-99786477D01*
X102371176Y-99728936D01*
X102396201Y-99667826D01*
X102398218Y-99648005D01*
X102383423Y-99577576D01*
X102340036Y-99490064D01*
X102269876Y-99388179D01*
X102174763Y-99274630D01*
X102081830Y-99177114D01*
X101941234Y-99046013D01*
X101775181Y-98906689D01*
X101591680Y-98764948D01*
X101398737Y-98626593D01*
X101204362Y-98497430D01*
X101016561Y-98383264D01*
X100892428Y-98314923D01*
X100810786Y-98272254D01*
X100919643Y-98257067D01*
X101215068Y-98212854D01*
X101478502Y-98166799D01*
X101714234Y-98117844D01*
X101926550Y-98064927D01*
X102119737Y-98006989D01*
X102298083Y-97942968D01*
X102452180Y-97878039D01*
X102595120Y-97805470D01*
X102702207Y-97733053D01*
X102773868Y-97660216D01*
X102810529Y-97586388D01*
X102812617Y-97510997D01*
X102781988Y-97435797D01*
X102726336Y-97371641D01*
X102637782Y-97305147D01*
X102519525Y-97237663D01*
X102374762Y-97170535D01*
X102206690Y-97105113D01*
X102018506Y-97042744D01*
X101813407Y-96984776D01*
X101594591Y-96932557D01*
X101581857Y-96929801D01*
X101509354Y-96915187D01*
X101417686Y-96898189D01*
X101314042Y-96879979D01*
X101205614Y-96861726D01*
X101099590Y-96844602D01*
X101003162Y-96829777D01*
X100923520Y-96818421D01*
X100867854Y-96811706D01*
X100848350Y-96810384D01*
X100856966Y-96801970D01*
X100892105Y-96778907D01*
X100948675Y-96744356D01*
X101021584Y-96701477D01*
X101053115Y-96683312D01*
X101261277Y-96558693D01*
X101460470Y-96429029D01*
X101647917Y-96296715D01*
X101820838Y-96164144D01*
X101976458Y-96033711D01*
X102111998Y-95907811D01*
X102224681Y-95788837D01*
X102311728Y-95679185D01*
X102370364Y-95581249D01*
X102390312Y-95530584D01*
X102404694Y-95472369D01*
X102404617Y-95430090D01*
X102391316Y-95389061D01*
X102360105Y-95333205D01*
X102316582Y-95289640D01*
X102256627Y-95257088D01*
X102176119Y-95234273D01*
X102070936Y-95219917D01*
X101936960Y-95212745D01*
X101817714Y-95211310D01*
X101482870Y-95225622D01*
X101128355Y-95268334D01*
X100756578Y-95339052D01*
X100369949Y-95437382D01*
X100284721Y-95462208D01*
X100271869Y-95460169D01*
X100281665Y-95438264D01*
X100315433Y-95394014D01*
X100331203Y-95375102D01*
X100486045Y-95183768D01*
X100629911Y-94990159D01*
X100761439Y-94797074D01*
X100879269Y-94607314D01*
X100982039Y-94423678D01*
X101068388Y-94248968D01*
X101136954Y-94085983D01*
X101186376Y-93937524D01*
X101215294Y-93806391D01*
X101222345Y-93695384D01*
X101206169Y-93607305D01*
X101198845Y-93590224D01*
X101160504Y-93530968D01*
X101109956Y-93492347D01*
X101040111Y-93471120D01*
X100943874Y-93464045D01*
X100922715Y-93464029D01*
X100850829Y-93466154D01*
X100790849Y-93473127D01*
X100730947Y-93487663D01*
X100659298Y-93512479D01*
X100586148Y-93541326D01*
X100369700Y-93640164D01*
X100138133Y-93767059D01*
X99895691Y-93919384D01*
X99646619Y-94094509D01*
X99454576Y-94241974D01*
X99383105Y-94298427D01*
X99322163Y-94345713D01*
X99277136Y-94379714D01*
X99253415Y-94396314D01*
X99251273Y-94397286D01*
X99251499Y-94382188D01*
X99261956Y-94344359D01*
X99267655Y-94327515D01*
X99304540Y-94211220D01*
X99343613Y-94067477D01*
X99383030Y-93904896D01*
X99420946Y-93732090D01*
X99455516Y-93557669D01*
X99484896Y-93390247D01*
X99507241Y-93238434D01*
X99515032Y-93172643D01*
X99525194Y-93034266D01*
X99527587Y-92891779D01*
X99522608Y-92754693D01*
X99510652Y-92632517D01*
X99492117Y-92534762D01*
X99487813Y-92519500D01*
X99460665Y-92451952D01*
X99424383Y-92387965D01*
X99409192Y-92367529D01*
X99343764Y-92315284D01*
X99262552Y-92293660D01*
X99168378Y-92302128D01*
X99064063Y-92340157D01*
X98952430Y-92407217D01*
X98875271Y-92467846D01*
X98745597Y-92591539D01*
X98608303Y-92745156D01*
X98466783Y-92924048D01*
X98324430Y-93123565D01*
X98184636Y-93339057D01*
X98050797Y-93565876D01*
X97981843Y-93692090D01*
X97888041Y-93868778D01*
X97856216Y-93602474D01*
X97820996Y-93349199D01*
X97777574Y-93106512D01*
X97726962Y-92877361D01*
X97670168Y-92664695D01*
X97608203Y-92471463D01*
X97542077Y-92300613D01*
X97472800Y-92155094D01*
X97401381Y-92037854D01*
X97328830Y-91951842D01*
X97276915Y-91911182D01*
X97199710Y-91882671D01*
X97112939Y-91879023D01*
X97051532Y-91893821D01*
X96995915Y-91929813D01*
X96933338Y-91992664D01*
X96869684Y-92075301D01*
X96810837Y-92170645D01*
X96792856Y-92204927D01*
X96719967Y-92371531D01*
X96651762Y-92569010D01*
X96589576Y-92792109D01*
X96534747Y-93035573D01*
X96488612Y-93294146D01*
X96456691Y-93526429D01*
X96445626Y-93619660D01*
X96435820Y-93702233D01*
X96428212Y-93766250D01*
X96423739Y-93803814D01*
X96423281Y-93807643D01*
X96415203Y-93816943D01*
X96396186Y-93794880D01*
X96365218Y-93740247D01*
X96362525Y-93735072D01*
X96224674Y-93486724D01*
X96071483Y-93242277D01*
X95908465Y-93009585D01*
X95741134Y-92796503D01*
X95575004Y-92610885D01*
X95568756Y-92604445D01*
X95449968Y-92488560D01*
X95346208Y-92401150D01*
X95253857Y-92339559D01*
X95169296Y-92301135D01*
X95145163Y-92293797D01*
X95090037Y-92282885D01*
X95044260Y-92287252D01*
X94989058Y-92308046D01*
X94916710Y-92359666D01*
X94859633Y-92442882D01*
X94818024Y-92556284D01*
X94792078Y-92698462D01*
X94782102Y-92866162D01*
X95087049Y-92866162D01*
X95091763Y-92730281D01*
X95094565Y-92704417D01*
X95102670Y-92646867D01*
X95111285Y-92618561D01*
X95124762Y-92612660D01*
X95146977Y-92622077D01*
X95176892Y-92643911D01*
X95223808Y-92684893D01*
X95279725Y-92737873D01*
X95307327Y-92765378D01*
X95473337Y-92948448D01*
X95641804Y-93163036D01*
X95775635Y-93353890D01*
X95995600Y-93704288D01*
X96182949Y-94050421D01*
X96331093Y-94378297D01*
X96719851Y-94378297D01*
X96721304Y-94282724D01*
X96724189Y-94158611D01*
X96725244Y-94116072D01*
X96737438Y-93824907D01*
X96759694Y-93558671D01*
X96793438Y-93307051D01*
X96840096Y-93059733D01*
X96901094Y-92806402D01*
X96911929Y-92765915D01*
X96949129Y-92640138D01*
X96991488Y-92515897D01*
X97035535Y-92402310D01*
X97077800Y-92308491D01*
X97105176Y-92258306D01*
X97143103Y-92196683D01*
X97175125Y-92236228D01*
X97194634Y-92268914D01*
X97222692Y-92326831D01*
X97255232Y-92401189D01*
X97281982Y-92467178D01*
X97366936Y-92714452D01*
X97440169Y-92988854D01*
X97500379Y-93282752D01*
X97546269Y-93588519D01*
X97576538Y-93898522D01*
X97589887Y-94205134D01*
X97590428Y-94278102D01*
X97589950Y-94391892D01*
X97587939Y-94477464D01*
X97583532Y-94542877D01*
X97575865Y-94596192D01*
X97564077Y-94645470D01*
X97547302Y-94698771D01*
X97544487Y-94707072D01*
X97505515Y-94831632D01*
X97465819Y-94977003D01*
X97426765Y-95136371D01*
X97389713Y-95302926D01*
X97356030Y-95469854D01*
X97327077Y-95630343D01*
X97304219Y-95777580D01*
X97288819Y-95904755D01*
X97282241Y-96005053D01*
X97282098Y-96017977D01*
X97274917Y-96080083D01*
X97256162Y-96157631D01*
X97229845Y-96238699D01*
X97200688Y-96309637D01*
X97570726Y-96309637D01*
X97573975Y-96206811D01*
X97581367Y-96088372D01*
X97592587Y-95959386D01*
X97607316Y-95824920D01*
X97625239Y-95690040D01*
X97646037Y-95559814D01*
X97646280Y-95558429D01*
X97716566Y-95215792D01*
X97805276Y-94888825D01*
X97915724Y-94567376D01*
X98051225Y-94241295D01*
X98135046Y-94061643D01*
X98237491Y-93860691D01*
X98350145Y-93659557D01*
X98469798Y-93462867D01*
X98593240Y-93275248D01*
X98717264Y-93101324D01*
X98838658Y-92945722D01*
X98954213Y-92813068D01*
X99060721Y-92707988D01*
X99093789Y-92679782D01*
X99146375Y-92637563D01*
X99177657Y-92616013D01*
X99194367Y-92612771D01*
X99203238Y-92625472D01*
X99207619Y-92639829D01*
X99213430Y-92677614D01*
X99218201Y-92739967D01*
X99221107Y-92815172D01*
X99221477Y-92837111D01*
X99215108Y-93035886D01*
X99192660Y-93259415D01*
X99155593Y-93500688D01*
X99105367Y-93752695D01*
X99043441Y-94008424D01*
X98971276Y-94260866D01*
X98890330Y-94503008D01*
X98854865Y-94597885D01*
X98714189Y-94924115D01*
X98544947Y-95252341D01*
X98352905Y-95572810D01*
X98143828Y-95875773D01*
X97965050Y-96102715D01*
X97887515Y-96192515D01*
X97811165Y-96276345D01*
X97739996Y-96350262D01*
X97678004Y-96410323D01*
X97629185Y-96452584D01*
X97597535Y-96473102D01*
X97589013Y-96473769D01*
X97577928Y-96448183D01*
X97571938Y-96391783D01*
X97570726Y-96309637D01*
X97200688Y-96309637D01*
X97199977Y-96311366D01*
X97170569Y-96363710D01*
X97162397Y-96373710D01*
X97147122Y-96383367D01*
X97131621Y-96373425D01*
X97111287Y-96338721D01*
X97089522Y-96292067D01*
X97060250Y-96213273D01*
X97040176Y-96123681D01*
X97026602Y-96011022D01*
X97025907Y-96002929D01*
X96997823Y-95752495D01*
X96955187Y-95483312D01*
X96900632Y-95208588D01*
X96836790Y-94941533D01*
X96766291Y-94695356D01*
X96763828Y-94687572D01*
X96748205Y-94637549D01*
X96736438Y-94594897D01*
X96728123Y-94553631D01*
X96722856Y-94507766D01*
X96720233Y-94451316D01*
X96719851Y-94378297D01*
X96331093Y-94378297D01*
X96339971Y-94397945D01*
X96468954Y-94752515D01*
X96572185Y-95119787D01*
X96651953Y-95505416D01*
X96656272Y-95530610D01*
X96676690Y-95664384D01*
X96694607Y-95807267D01*
X96709441Y-95951917D01*
X96720614Y-96090991D01*
X96727544Y-96217147D01*
X96729651Y-96323043D01*
X96726356Y-96401338D01*
X96725615Y-96408155D01*
X96714197Y-96504555D01*
X96597509Y-96389813D01*
X96389107Y-96165626D01*
X96186960Y-95910541D01*
X95994158Y-95629808D01*
X95813794Y-95328675D01*
X95648956Y-95012394D01*
X95502736Y-94686213D01*
X95378225Y-94355381D01*
X95350655Y-94271952D01*
X95287419Y-94060369D01*
X95231233Y-93843335D01*
X95182982Y-93626271D01*
X95143552Y-93414600D01*
X95113830Y-93213743D01*
X95094700Y-93029123D01*
X95087049Y-92866162D01*
X94782102Y-92866162D01*
X94781992Y-92868007D01*
X94787963Y-93063509D01*
X94810185Y-93283558D01*
X94832522Y-93433580D01*
X94858476Y-93573419D01*
X94892985Y-93734983D01*
X94933033Y-93905608D01*
X94975602Y-94072629D01*
X95017676Y-94223379D01*
X95031829Y-94270286D01*
X95050235Y-94331538D01*
X95063388Y-94378606D01*
X95068433Y-94401241D01*
X95055189Y-94395640D01*
X95018837Y-94371117D01*
X94964608Y-94331411D01*
X94897733Y-94280260D01*
X94882607Y-94268441D01*
X94662496Y-94103017D01*
X94442646Y-93951578D01*
X94226979Y-93816327D01*
X94019412Y-93699464D01*
X93823867Y-93603192D01*
X93644262Y-93529713D01*
X93484518Y-93481229D01*
X93478983Y-93479930D01*
X93354128Y-93462864D01*
X93251470Y-93473810D01*
X93171699Y-93511549D01*
X93115506Y-93574867D01*
X93083582Y-93662547D01*
X93076617Y-93773373D01*
X93078944Y-93789907D01*
X93378825Y-93789907D01*
X93384052Y-93764292D01*
X93389835Y-93762286D01*
X93409624Y-93768096D01*
X93455050Y-93783595D01*
X93517713Y-93805888D01*
X93544350Y-93815557D01*
X93740218Y-93897942D01*
X93951696Y-94006785D01*
X94173765Y-94138694D01*
X94401407Y-94290276D01*
X94629605Y-94458137D01*
X94853339Y-94638885D01*
X95067592Y-94829127D01*
X95127985Y-94886309D01*
X95207908Y-94964047D01*
X95268256Y-95026389D01*
X95315880Y-95082344D01*
X95357631Y-95140919D01*
X95400360Y-95211122D01*
X95450920Y-95301961D01*
X95467899Y-95333217D01*
X95569907Y-95513923D01*
X95680889Y-95697162D01*
X95796521Y-95876541D01*
X95912481Y-96045669D01*
X96024447Y-96198152D01*
X96128097Y-96327599D01*
X96180955Y-96387709D01*
X96211603Y-96428518D01*
X96246387Y-96486073D01*
X96281376Y-96552134D01*
X96312640Y-96618460D01*
X96336247Y-96676810D01*
X96348267Y-96718942D01*
X96346843Y-96735491D01*
X96327614Y-96733243D01*
X96284140Y-96720491D01*
X96227522Y-96700609D01*
X96142181Y-96659663D01*
X96044314Y-96595106D01*
X95944714Y-96516853D01*
X95619266Y-96265596D01*
X95264357Y-96027761D01*
X94885474Y-95807014D01*
X94865724Y-95796343D01*
X94793822Y-95756094D01*
X94733435Y-95717598D01*
X94677031Y-95674765D01*
X94617077Y-95621503D01*
X94546040Y-95551723D01*
X94482413Y-95486392D01*
X94283097Y-95268809D01*
X94091354Y-95038468D01*
X93912302Y-94802307D01*
X93751058Y-94567264D01*
X93612743Y-94340276D01*
X93546343Y-94217582D01*
X93492154Y-94107036D01*
X93446767Y-94004515D01*
X93411723Y-93914499D01*
X93388563Y-93841470D01*
X93378825Y-93789907D01*
X93078944Y-93789907D01*
X93095304Y-93906130D01*
X93140333Y-94059601D01*
X93143932Y-94069564D01*
X93214300Y-94237182D01*
X93308791Y-94422983D01*
X93424038Y-94621465D01*
X93556676Y-94827125D01*
X93703338Y-95034460D01*
X93852073Y-95227322D01*
X93908776Y-95299291D01*
X93954408Y-95360134D01*
X93985472Y-95404946D01*
X93998469Y-95428821D01*
X93997583Y-95431429D01*
X93973265Y-95426520D01*
X93922448Y-95413267D01*
X93853351Y-95393884D01*
X93797654Y-95377599D01*
X93593418Y-95321925D01*
X93381525Y-95273332D01*
X93167802Y-95232581D01*
X92958074Y-95200437D01*
X92758170Y-95177662D01*
X92573914Y-95165019D01*
X92411133Y-95163271D01*
X92275655Y-95173181D01*
X92257121Y-95175865D01*
X92124414Y-95207645D01*
X92022031Y-95255892D01*
X91950835Y-95319387D01*
X91911692Y-95396912D01*
X91905467Y-95487250D01*
X91911260Y-95508682D01*
X92231522Y-95508682D01*
X92232108Y-95494285D01*
X92249036Y-95486197D01*
X92258860Y-95483374D01*
X92312338Y-95475074D01*
X92393698Y-95470723D01*
X92494771Y-95470162D01*
X92607385Y-95473233D01*
X92723370Y-95479778D01*
X92834556Y-95489638D01*
X92883892Y-95495510D01*
X93326757Y-95571277D01*
X93759099Y-95680701D01*
X94178932Y-95822942D01*
X94584270Y-95997160D01*
X94973127Y-96202513D01*
X95343517Y-96438162D01*
X95646564Y-96665049D01*
X95733998Y-96737796D01*
X95820296Y-96813744D01*
X95901337Y-96888801D01*
X95972995Y-96958875D01*
X96031148Y-97019876D01*
X96071671Y-97067710D01*
X96090441Y-97098288D01*
X96090554Y-97105569D01*
X96067545Y-97113177D01*
X96014278Y-97116949D01*
X95936543Y-97117186D01*
X95840132Y-97114192D01*
X95730834Y-97108267D01*
X95614441Y-97099714D01*
X95496743Y-97088835D01*
X95383531Y-97075932D01*
X95300039Y-97064348D01*
X94888081Y-96985988D01*
X94486389Y-96877657D01*
X94091561Y-96738066D01*
X93700195Y-96565925D01*
X93308890Y-96359946D01*
X93076167Y-96221712D01*
X92932457Y-96128334D01*
X92788239Y-96026411D01*
X92649354Y-95920650D01*
X92521637Y-95815759D01*
X92410929Y-95716445D01*
X92323068Y-95627417D01*
X92287662Y-95585887D01*
X92249350Y-95536759D01*
X92231522Y-95508682D01*
X91911260Y-95508682D01*
X91933024Y-95589184D01*
X91944880Y-95615483D01*
X92007680Y-95718010D01*
X92100873Y-95831632D01*
X92221240Y-95953772D01*
X92365563Y-96081854D01*
X92530624Y-96213299D01*
X92713203Y-96345532D01*
X92910083Y-96475974D01*
X93118044Y-96602049D01*
X93310156Y-96708662D01*
X93487778Y-96802959D01*
X93221353Y-96834457D01*
X92971522Y-96868917D01*
X92731659Y-96911598D01*
X92504682Y-96961482D01*
X92293510Y-97017550D01*
X92101062Y-97078783D01*
X91930256Y-97144162D01*
X91784012Y-97212671D01*
X91665247Y-97283289D01*
X91576881Y-97354998D01*
X91521833Y-97426781D01*
X91521361Y-97427687D01*
X91495343Y-97514266D01*
X91498393Y-97545143D01*
X91830071Y-97545143D01*
X91846731Y-97522993D01*
X91893630Y-97492948D01*
X91966147Y-97457188D01*
X92059662Y-97417889D01*
X92169552Y-97377228D01*
X92229214Y-97357061D01*
X92519502Y-97272989D01*
X92832401Y-97202527D01*
X93156079Y-97147867D01*
X93478704Y-97111200D01*
X93607137Y-97101923D01*
X93788055Y-97093640D01*
X93940145Y-97092604D01*
X94070234Y-97099305D01*
X94185145Y-97114238D01*
X94291703Y-97137895D01*
X94351928Y-97155665D01*
X94503819Y-97200873D01*
X94671280Y-97244842D01*
X94847486Y-97286244D01*
X95025610Y-97323751D01*
X95198824Y-97356037D01*
X95326812Y-97376437D01*
X96299457Y-97376437D01*
X96355007Y-97343623D01*
X96415774Y-97289771D01*
X96450087Y-97220346D01*
X96453687Y-97144930D01*
X96450204Y-97129453D01*
X96441257Y-97090562D01*
X96447843Y-97069781D01*
X96477532Y-97056763D01*
X96509516Y-97048391D01*
X96586640Y-97017153D01*
X96634857Y-96967044D01*
X96658757Y-96893134D01*
X96659589Y-96887315D01*
X96669102Y-96816384D01*
X96740759Y-96835510D01*
X96817247Y-96841633D01*
X96882678Y-96814712D01*
X96940227Y-96753337D01*
X96946357Y-96744200D01*
X96982643Y-96688506D01*
X97045819Y-96731253D01*
X97095100Y-96758543D01*
X97139002Y-96773202D01*
X97147608Y-96774000D01*
X97186399Y-96764084D01*
X97236353Y-96739311D01*
X97252118Y-96729282D01*
X97318014Y-96684563D01*
X97335799Y-96718956D01*
X97953285Y-96718956D01*
X97964300Y-96667942D01*
X97994397Y-96597267D01*
X98039158Y-96514918D01*
X98094167Y-96428879D01*
X98155004Y-96347139D01*
X98167093Y-96332473D01*
X98452306Y-95964694D01*
X98710193Y-95573489D01*
X98868036Y-95297411D01*
X98916370Y-95209179D01*
X98957224Y-95140275D01*
X98996968Y-95082487D01*
X99041971Y-95027609D01*
X99098603Y-94967431D01*
X99173233Y-94893744D01*
X99205362Y-94862687D01*
X99510561Y-94586577D01*
X99826075Y-94337948D01*
X100052016Y-94180135D01*
X100197493Y-94086853D01*
X100341644Y-94001045D01*
X100479889Y-93924993D01*
X100607653Y-93860975D01*
X100720359Y-93811272D01*
X100813428Y-93778163D01*
X100882285Y-93763929D01*
X100888238Y-93763612D01*
X100916545Y-93767292D01*
X100921866Y-93788090D01*
X100916897Y-93812122D01*
X100886727Y-93906085D01*
X100838560Y-94023155D01*
X100775479Y-94156901D01*
X100700563Y-94300894D01*
X100616893Y-94448702D01*
X100591654Y-94490992D01*
X100360813Y-94841062D01*
X100096820Y-95182502D01*
X99802457Y-95511736D01*
X99777404Y-95537725D01*
X99696924Y-95618941D01*
X99631863Y-95679291D01*
X99573887Y-95725339D01*
X99514660Y-95763648D01*
X99445849Y-95800781D01*
X99438975Y-95804253D01*
X99129882Y-95971077D01*
X98828691Y-96155698D01*
X98544544Y-96352125D01*
X98286584Y-96554370D01*
X98261714Y-96575423D01*
X98209831Y-96614232D01*
X98148589Y-96652020D01*
X98085304Y-96685383D01*
X98027290Y-96710916D01*
X97981861Y-96725216D01*
X97956332Y-96724878D01*
X97953285Y-96718956D01*
X97335799Y-96718956D01*
X97345671Y-96738046D01*
X97392197Y-96795490D01*
X97455840Y-96832417D01*
X97525613Y-96844740D01*
X97589677Y-96828831D01*
X97612472Y-96822009D01*
X97625852Y-96838059D01*
X97635176Y-96876918D01*
X97661406Y-96944869D01*
X97707499Y-97001535D01*
X97764268Y-97037792D01*
X97805606Y-97046143D01*
X97841767Y-97048848D01*
X97854318Y-97064229D01*
X97851024Y-97103185D01*
X97850145Y-97108658D01*
X97849928Y-97116681D01*
X98171000Y-97116681D01*
X98183902Y-97092881D01*
X98219325Y-97050223D01*
X98272345Y-96993584D01*
X98338038Y-96927842D01*
X98411481Y-96857874D01*
X98487749Y-96788560D01*
X98561919Y-96724776D01*
X98588823Y-96702766D01*
X98930407Y-96450775D01*
X99295057Y-96224855D01*
X99678953Y-96026710D01*
X100078275Y-95858045D01*
X100489202Y-95720564D01*
X100907914Y-95615971D01*
X101110143Y-95578015D01*
X101268814Y-95553844D01*
X101426657Y-95534236D01*
X101578029Y-95519556D01*
X101717285Y-95510168D01*
X101838781Y-95506437D01*
X101936874Y-95508730D01*
X102005921Y-95517411D01*
X102014279Y-95519524D01*
X102031543Y-95526470D01*
X102035943Y-95537843D01*
X102024427Y-95558569D01*
X101993940Y-95593575D01*
X101941428Y-95647789D01*
X101923565Y-95665866D01*
X101732059Y-95843837D01*
X101511052Y-96022015D01*
X101267031Y-96195961D01*
X101006483Y-96361242D01*
X100735893Y-96513421D01*
X100541481Y-96610967D01*
X100256753Y-96735600D01*
X99952131Y-96849043D01*
X99636968Y-96948585D01*
X99320620Y-97031517D01*
X99012440Y-97095128D01*
X98729608Y-97135868D01*
X98607818Y-97146642D01*
X98491206Y-97152455D01*
X98385081Y-97153490D01*
X98294748Y-97149930D01*
X98225515Y-97141955D01*
X98182689Y-97129749D01*
X98171000Y-97116681D01*
X97849928Y-97116681D01*
X97847883Y-97192043D01*
X97873546Y-97265156D01*
X97917284Y-97324909D01*
X97949847Y-97364611D01*
X97960851Y-97391716D01*
X97953591Y-97420065D01*
X97944348Y-97438634D01*
X97920494Y-97506923D01*
X97922504Y-97550106D01*
X98237104Y-97550106D01*
X98281159Y-97515785D01*
X98304114Y-97498968D01*
X98327543Y-97486303D01*
X98357542Y-97476623D01*
X98400207Y-97468764D01*
X98461634Y-97461558D01*
X98547918Y-97453841D01*
X98646463Y-97445921D01*
X98976960Y-97407331D01*
X99323103Y-97343258D01*
X99676575Y-97255462D01*
X99967143Y-97166638D01*
X100057663Y-97136863D01*
X100130473Y-97114783D01*
X100193276Y-97099631D01*
X100253777Y-97090638D01*
X100319678Y-97087038D01*
X100398683Y-97088062D01*
X100498495Y-97092943D01*
X100626764Y-97100910D01*
X101033708Y-97140304D01*
X101426595Y-97205235D01*
X101800892Y-97294763D01*
X102152064Y-97407945D01*
X102208866Y-97429366D01*
X102310115Y-97468878D01*
X102379593Y-97498563D01*
X102419459Y-97521460D01*
X102431870Y-97540608D01*
X102418984Y-97559047D01*
X102382959Y-97579816D01*
X102332244Y-97603141D01*
X102109015Y-97691299D01*
X101857754Y-97769962D01*
X101585803Y-97837715D01*
X101300504Y-97893146D01*
X101009198Y-97934840D01*
X100719227Y-97961384D01*
X100437934Y-97971365D01*
X100419582Y-97971407D01*
X100306659Y-97971088D01*
X100221806Y-97969458D01*
X100156810Y-97965536D01*
X100103457Y-97958339D01*
X100053533Y-97946887D01*
X99998825Y-97930197D01*
X99956939Y-97916120D01*
X99662477Y-97826678D01*
X99346238Y-97750639D01*
X99021100Y-97690656D01*
X98699943Y-97649381D01*
X98631340Y-97643094D01*
X98508492Y-97630968D01*
X98416556Y-97617652D01*
X98350159Y-97602194D01*
X98308373Y-97585957D01*
X98237104Y-97550106D01*
X97922504Y-97550106D01*
X97923750Y-97576845D01*
X97944412Y-97639058D01*
X97960639Y-97682633D01*
X97960155Y-97706981D01*
X97941585Y-97725761D01*
X97935237Y-97730291D01*
X97885373Y-97785202D01*
X97853411Y-97861919D01*
X97844428Y-97932835D01*
X97842455Y-97962357D01*
X98148153Y-97962357D01*
X98200398Y-97950897D01*
X98273937Y-97941439D01*
X98375507Y-97937949D01*
X98497371Y-97940279D01*
X98631795Y-97948279D01*
X98771041Y-97961801D01*
X98771927Y-97961905D01*
X99174086Y-98024988D01*
X99573353Y-98118942D01*
X99965912Y-98242015D01*
X100347949Y-98392454D01*
X100715648Y-98568509D01*
X101065196Y-98768425D01*
X101392776Y-98990452D01*
X101694575Y-99232837D01*
X101849464Y-99375422D01*
X101915997Y-99440860D01*
X101972000Y-99497887D01*
X102012789Y-99541579D01*
X102033680Y-99567017D01*
X102035428Y-99570809D01*
X102018362Y-99578751D01*
X101971201Y-99583690D01*
X101900002Y-99585746D01*
X101810821Y-99585036D01*
X101709716Y-99581678D01*
X101602742Y-99575789D01*
X101495957Y-99567487D01*
X101410135Y-99558654D01*
X100976315Y-99490346D01*
X100550854Y-99387711D01*
X100132555Y-99250332D01*
X99720216Y-99077796D01*
X99312639Y-98869687D01*
X99150714Y-98776414D01*
X98970320Y-98664445D01*
X98796875Y-98547832D01*
X98635043Y-98430188D01*
X98489486Y-98315129D01*
X98364867Y-98206266D01*
X98265849Y-98107216D01*
X98223766Y-98057947D01*
X98148153Y-97962357D01*
X97842455Y-97962357D01*
X97841220Y-97980819D01*
X97825543Y-98006424D01*
X97788321Y-98023400D01*
X97783596Y-98024977D01*
X97705007Y-98069104D01*
X97648974Y-98139531D01*
X97632110Y-98179883D01*
X97616225Y-98215960D01*
X97591406Y-98229260D01*
X97549368Y-98228490D01*
X97477273Y-98233333D01*
X97409909Y-98264111D01*
X97352021Y-98310781D01*
X97327106Y-98331579D01*
X97917000Y-98331579D01*
X97931941Y-98317703D01*
X97972586Y-98320771D01*
X98018889Y-98335086D01*
X98053810Y-98355050D01*
X98106816Y-98393171D01*
X98169292Y-98443035D01*
X98206034Y-98474424D01*
X98434246Y-98660276D01*
X98691535Y-98844203D01*
X98970797Y-99021532D01*
X99264930Y-99187595D01*
X99386571Y-99250533D01*
X99482500Y-99299942D01*
X99555037Y-99341094D01*
X99613759Y-99380879D01*
X99668246Y-99426189D01*
X99728078Y-99483916D01*
X99768579Y-99525363D01*
X100027477Y-99813526D01*
X100269006Y-100123035D01*
X100487510Y-100445953D01*
X100677331Y-100774341D01*
X100725974Y-100868997D01*
X100765530Y-100951309D01*
X100804517Y-101037758D01*
X100839811Y-101120780D01*
X100868288Y-101192815D01*
X100886822Y-101246301D01*
X100892428Y-101271832D01*
X100877160Y-101277378D01*
X100834110Y-101267325D01*
X100767405Y-101243345D01*
X100681176Y-101207109D01*
X100579552Y-101160288D01*
X100466662Y-101104554D01*
X100420795Y-101080931D01*
X100114464Y-100906345D01*
X99809225Y-100703698D01*
X99514935Y-100480143D01*
X99241451Y-100242829D01*
X99164445Y-100169543D01*
X99086838Y-100093006D01*
X99028486Y-100031554D01*
X98982521Y-99975948D01*
X98942074Y-99916946D01*
X98900276Y-99845311D01*
X98850258Y-99751801D01*
X98841582Y-99735240D01*
X98670524Y-99427997D01*
X98489180Y-99139382D01*
X98301431Y-98875194D01*
X98111158Y-98641233D01*
X98103682Y-98632736D01*
X98013103Y-98522864D01*
X97952215Y-98432227D01*
X97921228Y-98361160D01*
X97917000Y-98331579D01*
X97327106Y-98331579D01*
X97317801Y-98339346D01*
X97291364Y-98344839D01*
X97254982Y-98329988D01*
X97248600Y-98326707D01*
X97176903Y-98301517D01*
X97107329Y-98305676D01*
X97042494Y-98331521D01*
X97000118Y-98351865D01*
X96977774Y-98354757D01*
X96963228Y-98339351D01*
X96955593Y-98325522D01*
X96909123Y-98273693D01*
X96839714Y-98238308D01*
X96760345Y-98225429D01*
X96713730Y-98222381D01*
X96687016Y-98206745D01*
X96666672Y-98168787D01*
X96660603Y-98153673D01*
X96623983Y-98094046D01*
X96570129Y-98044114D01*
X96510748Y-98013252D01*
X96478356Y-98007782D01*
X96457137Y-98001732D01*
X96452713Y-97977201D01*
X96457147Y-97947147D01*
X96457958Y-97900365D01*
X96448234Y-97845748D01*
X96431607Y-97795307D01*
X96411710Y-97761050D01*
X96398461Y-97753137D01*
X96373750Y-97742765D01*
X96351561Y-97728007D01*
X96332536Y-97710293D01*
X96330674Y-97690569D01*
X96346860Y-97656813D01*
X96358244Y-97637268D01*
X96386109Y-97559564D01*
X96378784Y-97484254D01*
X96336878Y-97416269D01*
X96299457Y-97376437D01*
X95326812Y-97376437D01*
X95360303Y-97381775D01*
X95503220Y-97399635D01*
X95620747Y-97408292D01*
X95654302Y-97408903D01*
X95700136Y-97414693D01*
X95762277Y-97430044D01*
X95831988Y-97451797D01*
X95900531Y-97476792D01*
X95959169Y-97501868D01*
X95999164Y-97523865D01*
X96012000Y-97538268D01*
X95995174Y-97561414D01*
X95949396Y-97586817D01*
X95881712Y-97612188D01*
X95799170Y-97635240D01*
X95708818Y-97653687D01*
X95621928Y-97664882D01*
X95180715Y-97718559D01*
X94756498Y-97801772D01*
X94406357Y-97896149D01*
X94188643Y-97962357D01*
X93780428Y-97961280D01*
X93448093Y-97952504D01*
X93137959Y-97927007D01*
X92839288Y-97883283D01*
X92541341Y-97819827D01*
X92292714Y-97752799D01*
X92201440Y-97723562D01*
X92108053Y-97689314D01*
X92018881Y-97652897D01*
X91940254Y-97617151D01*
X91878503Y-97584918D01*
X91839957Y-97559039D01*
X91830071Y-97545143D01*
X91498393Y-97545143D01*
X91504040Y-97602311D01*
X91546229Y-97688292D01*
X91620683Y-97768679D01*
X91646894Y-97789517D01*
X91766598Y-97867787D01*
X91907717Y-97939137D01*
X92072339Y-98004140D01*
X92262553Y-98063372D01*
X92480448Y-98117408D01*
X92728111Y-98166824D01*
X93007630Y-98212195D01*
X93321095Y-98254096D01*
X93343316Y-98256788D01*
X93459561Y-98270786D01*
X93266617Y-98375852D01*
X93069425Y-98489033D01*
X92875557Y-98611338D01*
X92688963Y-98739609D01*
X92513594Y-98870685D01*
X92353400Y-99001409D01*
X92212332Y-99128622D01*
X92094340Y-99249165D01*
X92003374Y-99359880D01*
X91966143Y-99415691D01*
X91917275Y-99521507D01*
X91908703Y-99577072D01*
X92215438Y-99577072D01*
X92289581Y-99483343D01*
X92368438Y-99395447D01*
X92474803Y-99294868D01*
X92603879Y-99185438D01*
X92750866Y-99070989D01*
X92910964Y-98955355D01*
X93079375Y-98842367D01*
X93142616Y-98802136D01*
X93514572Y-98587336D01*
X93894680Y-98403472D01*
X94278417Y-98252627D01*
X94470466Y-98190169D01*
X94696984Y-98126601D01*
X94922417Y-98073918D01*
X95156210Y-98030346D01*
X95407808Y-97994110D01*
X95667286Y-97965317D01*
X95741075Y-97960284D01*
X95825445Y-97957896D01*
X95910821Y-97958015D01*
X95987631Y-97960504D01*
X96046301Y-97965224D01*
X96075500Y-97971188D01*
X96088033Y-97979892D01*
X96088269Y-97993955D01*
X96073059Y-98017685D01*
X96039253Y-98055387D01*
X95983703Y-98111368D01*
X95945927Y-98148401D01*
X95705196Y-98363268D01*
X95433861Y-98569353D01*
X95137120Y-98763801D01*
X94820166Y-98943757D01*
X94488197Y-99106365D01*
X94146407Y-99248769D01*
X93799993Y-99368116D01*
X93643596Y-99413644D01*
X93433638Y-99467147D01*
X93224659Y-99512771D01*
X93021464Y-99549905D01*
X92828856Y-99577940D01*
X92651641Y-99596263D01*
X92494622Y-99604266D01*
X92362604Y-99601336D01*
X92267683Y-99588532D01*
X92215438Y-99577072D01*
X91908703Y-99577072D01*
X91902335Y-99618346D01*
X91920886Y-99704271D01*
X91972487Y-99777345D01*
X92056700Y-99835633D01*
X92061893Y-99838190D01*
X92168697Y-99874869D01*
X92305365Y-99897239D01*
X92468546Y-99905598D01*
X92654888Y-99900243D01*
X92861040Y-99881474D01*
X93083651Y-99849588D01*
X93319369Y-99804884D01*
X93564842Y-99747660D01*
X93798257Y-99683671D01*
X93880570Y-99659832D01*
X93950240Y-99640328D01*
X93999864Y-99627186D01*
X94021977Y-99622429D01*
X94019073Y-99635217D01*
X93997367Y-99669042D01*
X93961318Y-99717093D01*
X93953633Y-99726750D01*
X93810905Y-99911977D01*
X93677168Y-100100037D01*
X93553749Y-100288102D01*
X93441975Y-100473344D01*
X93343172Y-100652934D01*
X93258667Y-100824043D01*
X93189788Y-100983843D01*
X93137860Y-101129506D01*
X93104238Y-101258100D01*
X93412804Y-101258100D01*
X93423535Y-101214962D01*
X93447793Y-101148285D01*
X93483863Y-101062343D01*
X93530033Y-100961405D01*
X93584587Y-100849744D01*
X93597618Y-100824019D01*
X93754648Y-100542717D01*
X93939512Y-100257804D01*
X94145918Y-99978001D01*
X94367574Y-99712024D01*
X94515871Y-99551695D01*
X94590561Y-99475365D01*
X94651255Y-99417115D01*
X94706611Y-99370434D01*
X94765286Y-99328814D01*
X94835937Y-99285746D01*
X94927221Y-99234720D01*
X94964404Y-99214452D01*
X95180296Y-99091588D01*
X95392604Y-98960227D01*
X95595169Y-98824649D01*
X95781832Y-98689134D01*
X95946431Y-98557962D01*
X96075500Y-98442477D01*
X96171555Y-98366725D01*
X96256928Y-98327886D01*
X96319213Y-98309544D01*
X96354490Y-98301539D01*
X96370429Y-98303523D01*
X96374699Y-98315145D01*
X96374857Y-98322507D01*
X96359195Y-98394867D01*
X96314255Y-98478058D01*
X96243101Y-98566465D01*
X96239647Y-98570143D01*
X96088825Y-98743268D01*
X95934039Y-98946474D01*
X95778903Y-99174356D01*
X95627032Y-99421512D01*
X95482041Y-99682536D01*
X95435694Y-99772027D01*
X95386366Y-99867286D01*
X95345663Y-99939271D01*
X95306612Y-99997468D01*
X95262235Y-100051362D01*
X95205557Y-100110440D01*
X95139780Y-100174428D01*
X94847495Y-100434364D01*
X94531796Y-100676995D01*
X94201233Y-100896256D01*
X93864361Y-101086081D01*
X93828355Y-101104368D01*
X93740562Y-101146811D01*
X93650420Y-101187546D01*
X93565290Y-101223548D01*
X93492533Y-101251789D01*
X93439510Y-101269241D01*
X93417313Y-101273429D01*
X93412804Y-101258100D01*
X93104238Y-101258100D01*
X93104211Y-101258202D01*
X93090168Y-101367105D01*
X93097057Y-101453384D01*
X93119315Y-101505353D01*
X93170398Y-101556992D01*
X93237816Y-101587439D01*
X93323394Y-101596407D01*
X93428960Y-101583609D01*
X93556340Y-101548758D01*
X93707359Y-101491566D01*
X93883843Y-101411746D01*
X93963751Y-101372530D01*
X94191073Y-101252520D01*
X94410383Y-101123157D01*
X94629620Y-100979288D01*
X94856723Y-100815760D01*
X95045047Y-100670760D01*
X95052519Y-100676367D01*
X95047488Y-100713277D01*
X95030702Y-100777517D01*
X94967784Y-101010627D01*
X94914145Y-101245064D01*
X94870220Y-101476579D01*
X94836443Y-101700926D01*
X94813250Y-101913855D01*
X94801075Y-102111119D01*
X94800384Y-102280961D01*
X95105290Y-102280961D01*
X95105965Y-102191722D01*
X95109310Y-102090518D01*
X95115209Y-101983397D01*
X95123549Y-101876405D01*
X95132298Y-101791549D01*
X95199648Y-101361411D01*
X95300194Y-100941772D01*
X95434795Y-100529851D01*
X95604309Y-100122865D01*
X95721824Y-99882425D01*
X95837888Y-99667503D01*
X95960511Y-99459155D01*
X96086757Y-99261496D01*
X96213687Y-99078640D01*
X96338364Y-98914704D01*
X96457849Y-98773803D01*
X96569206Y-98660052D01*
X96634808Y-98603434D01*
X96728431Y-98529430D01*
X96743270Y-98608751D01*
X96748381Y-98659638D01*
X96750642Y-98735471D01*
X96749901Y-98825014D01*
X96747164Y-98896714D01*
X96716084Y-99230790D01*
X96658387Y-99578501D01*
X96576323Y-99931497D01*
X96472140Y-100281427D01*
X96348087Y-100619940D01*
X96269331Y-100797133D01*
X96719571Y-100797133D01*
X96719965Y-100685419D01*
X96721852Y-100601200D01*
X96726289Y-100535687D01*
X96734334Y-100480092D01*
X96747043Y-100425625D01*
X96765473Y-100363499D01*
X96775538Y-100331877D01*
X96882874Y-99960625D01*
X96966857Y-99589903D01*
X97025725Y-99228250D01*
X97049400Y-99005572D01*
X97062124Y-98877680D01*
X97076709Y-98782446D01*
X97093778Y-98716263D01*
X97103605Y-98692607D01*
X97126377Y-98650607D01*
X97142816Y-98626683D01*
X97145928Y-98624572D01*
X97158392Y-98639163D01*
X97180148Y-98675989D01*
X97190917Y-98696420D01*
X97214874Y-98765769D01*
X97536034Y-98765769D01*
X97538630Y-98672092D01*
X97547372Y-98602665D01*
X97562491Y-98561637D01*
X97578065Y-98552000D01*
X97597195Y-98564345D01*
X97636149Y-98598187D01*
X97689733Y-98648742D01*
X97752754Y-98711224D01*
X97770832Y-98729640D01*
X97986496Y-98972265D01*
X98193195Y-99249109D01*
X98391166Y-99560521D01*
X98580643Y-99906848D01*
X98624465Y-99994357D01*
X98725385Y-100205880D01*
X98809223Y-100397800D01*
X98879610Y-100580308D01*
X98940180Y-100763593D01*
X98994563Y-100957845D01*
X99046393Y-101173253D01*
X99049287Y-101186121D01*
X99080393Y-101337508D01*
X99108461Y-101498540D01*
X99132857Y-101663181D01*
X99152942Y-101825396D01*
X99168080Y-101979148D01*
X99177635Y-102118400D01*
X99180970Y-102237117D01*
X99177449Y-102329262D01*
X99173254Y-102361617D01*
X99158912Y-102442876D01*
X99070647Y-102361617D01*
X98947249Y-102236738D01*
X98815625Y-102083257D01*
X98679461Y-101906846D01*
X98542445Y-101713177D01*
X98408264Y-101507921D01*
X98280603Y-101296752D01*
X98163149Y-101085341D01*
X98059589Y-100879360D01*
X97973609Y-100684482D01*
X97962462Y-100656572D01*
X97929339Y-100572561D01*
X97897091Y-100491072D01*
X97870658Y-100424577D01*
X97861071Y-100400612D01*
X97834162Y-100326312D01*
X97801619Y-100225056D01*
X97765822Y-100105279D01*
X97729148Y-99975415D01*
X97693976Y-99843899D01*
X97662685Y-99719164D01*
X97637654Y-99609645D01*
X97636600Y-99604673D01*
X97607166Y-99452649D01*
X97582494Y-99299974D01*
X97562814Y-99150798D01*
X97548357Y-99009272D01*
X97539353Y-98879546D01*
X97536034Y-98765769D01*
X97214874Y-98765769D01*
X97217741Y-98774066D01*
X97227571Y-98855281D01*
X97234446Y-99009600D01*
X97254209Y-99190843D01*
X97285569Y-99392537D01*
X97327233Y-99608207D01*
X97377910Y-99831377D01*
X97436307Y-100055572D01*
X97501133Y-100274318D01*
X97526109Y-100351433D01*
X97551678Y-100430286D01*
X97569387Y-100492970D01*
X97580676Y-100549631D01*
X97586982Y-100610415D01*
X97589745Y-100685465D01*
X97590401Y-100784929D01*
X97590406Y-100805004D01*
X97577764Y-101130079D01*
X97540796Y-101471349D01*
X97480865Y-101819379D01*
X97399331Y-102164734D01*
X97388595Y-102203983D01*
X97352663Y-102325356D01*
X97311462Y-102451374D01*
X97268341Y-102572718D01*
X97226648Y-102680069D01*
X97189732Y-102764111D01*
X97181016Y-102781602D01*
X97150695Y-102840236D01*
X97126143Y-102796154D01*
X97081273Y-102703078D01*
X97032981Y-102580894D01*
X96983306Y-102436366D01*
X96934290Y-102276256D01*
X96887971Y-102107329D01*
X96846390Y-101936348D01*
X96811588Y-101770077D01*
X96803642Y-101727000D01*
X96768702Y-101514834D01*
X96744133Y-101322872D01*
X96728652Y-101136951D01*
X96720981Y-100942911D01*
X96719571Y-100797133D01*
X96269331Y-100797133D01*
X96206415Y-100938687D01*
X96186109Y-100979655D01*
X96029557Y-101270410D01*
X95858246Y-101546429D01*
X95664177Y-101820315D01*
X95596846Y-101908429D01*
X95538261Y-101981140D01*
X95470732Y-102060590D01*
X95398676Y-102142069D01*
X95326510Y-102220866D01*
X95258652Y-102292271D01*
X95199519Y-102351574D01*
X95153529Y-102394065D01*
X95125098Y-102415034D01*
X95120430Y-102416429D01*
X95112408Y-102399361D01*
X95107399Y-102352190D01*
X95105290Y-102280961D01*
X94800384Y-102280961D01*
X94800353Y-102288469D01*
X94811519Y-102441659D01*
X94835008Y-102566439D01*
X94844432Y-102597430D01*
X94888455Y-102687355D01*
X94948247Y-102746581D01*
X95021799Y-102773575D01*
X95074697Y-102773289D01*
X95154500Y-102748331D01*
X95249132Y-102693808D01*
X95356230Y-102612109D01*
X95473430Y-102505623D01*
X95598371Y-102376741D01*
X95728690Y-102227851D01*
X95862024Y-102061344D01*
X95996011Y-101879608D01*
X96082909Y-101753589D01*
X96147244Y-101655638D01*
X96212783Y-101552178D01*
X96272811Y-101454041D01*
X96320612Y-101372057D01*
X96330225Y-101354693D01*
X96418756Y-101192281D01*
X96458661Y-101475572D01*
X96484958Y-101653723D01*
X96510580Y-101806833D01*
X96537765Y-101946031D01*
X96568751Y-102082445D01*
X96605775Y-102227204D01*
X96621481Y-102285211D01*
X96684558Y-102495899D01*
X96751361Y-102682484D01*
X96820841Y-102843142D01*
X96891950Y-102976050D01*
X96963640Y-103079386D01*
X97034861Y-103151325D01*
X97104567Y-103190044D01*
X97145499Y-103196572D01*
X97219570Y-103178742D01*
G36*
X96940802Y-97075534D02*
X96946357Y-97046143D01*
X96935140Y-97010678D01*
X96909881Y-96993886D01*
X96883166Y-97000587D01*
X96871790Y-97017588D01*
X96867734Y-97059767D01*
X96885032Y-97090125D01*
X96914552Y-97097128D01*
X96940802Y-97075534D01*
X96940802Y-97075534D01*
G37*
X96940802Y-97075534D02*
X96946357Y-97046143D01*
X96935140Y-97010678D01*
X96909881Y-96993886D01*
X96883166Y-97000587D01*
X96871790Y-97017588D01*
X96867734Y-97059767D01*
X96885032Y-97090125D01*
X96914552Y-97097128D01*
X96940802Y-97075534D01*
G36*
X97430659Y-97075534D02*
X97436214Y-97046143D01*
X97424997Y-97010678D01*
X97399738Y-96993886D01*
X97373023Y-97000587D01*
X97361647Y-97017588D01*
X97357592Y-97059767D01*
X97374889Y-97090125D01*
X97404409Y-97097128D01*
X97430659Y-97075534D01*
X97430659Y-97075534D01*
G37*
X97430659Y-97075534D02*
X97436214Y-97046143D01*
X97424997Y-97010678D01*
X97399738Y-96993886D01*
X97373023Y-97000587D01*
X97361647Y-97017588D01*
X97357592Y-97059767D01*
X97374889Y-97090125D01*
X97404409Y-97097128D01*
X97430659Y-97075534D01*
G36*
X96678054Y-97178916D02*
X96698555Y-97165649D01*
X96715849Y-97138756D01*
X96702882Y-97111400D01*
X96702184Y-97110554D01*
X96665824Y-97085019D01*
X96630257Y-97088627D01*
X96622809Y-97094524D01*
X96610510Y-97128203D01*
X96621482Y-97164656D01*
X96641149Y-97180940D01*
X96678054Y-97178916D01*
X96678054Y-97178916D01*
G37*
X96678054Y-97178916D02*
X96698555Y-97165649D01*
X96715849Y-97138756D01*
X96702882Y-97111400D01*
X96702184Y-97110554D01*
X96665824Y-97085019D01*
X96630257Y-97088627D01*
X96622809Y-97094524D01*
X96610510Y-97128203D01*
X96621482Y-97164656D01*
X96641149Y-97180940D01*
X96678054Y-97178916D01*
G36*
X97172109Y-97181307D02*
X97182881Y-97171181D01*
X97199553Y-97137409D01*
X97194859Y-97103051D01*
X97171974Y-97083306D01*
X97164352Y-97082429D01*
X97134525Y-97095156D01*
X97117958Y-97110554D01*
X97104670Y-97137271D01*
X97119905Y-97163826D01*
X97124808Y-97168870D01*
X97150730Y-97188954D01*
X97172109Y-97181307D01*
X97172109Y-97181307D01*
G37*
X97172109Y-97181307D02*
X97182881Y-97171181D01*
X97199553Y-97137409D01*
X97194859Y-97103051D01*
X97171974Y-97083306D01*
X97164352Y-97082429D01*
X97134525Y-97095156D01*
X97117958Y-97110554D01*
X97104670Y-97137271D01*
X97119905Y-97163826D01*
X97124808Y-97168870D01*
X97150730Y-97188954D01*
X97172109Y-97181307D01*
G36*
X97679730Y-97174399D02*
X97696069Y-97143943D01*
X97695709Y-97130198D01*
X97677364Y-97095313D01*
X97644304Y-97087250D01*
X97609145Y-97108962D01*
X97608461Y-97109776D01*
X97593986Y-97137596D01*
X97609511Y-97163692D01*
X97611444Y-97165649D01*
X97647201Y-97183452D01*
X97679730Y-97174399D01*
X97679730Y-97174399D01*
G37*
X97679730Y-97174399D02*
X97696069Y-97143943D01*
X97695709Y-97130198D01*
X97677364Y-97095313D01*
X97644304Y-97087250D01*
X97609145Y-97108962D01*
X97608461Y-97109776D01*
X97593986Y-97137596D01*
X97609511Y-97163692D01*
X97611444Y-97165649D01*
X97647201Y-97183452D01*
X97679730Y-97174399D01*
G36*
X96905535Y-97333155D02*
X96942214Y-97312495D01*
X96952154Y-97286536D01*
X96949721Y-97256045D01*
X96923831Y-97246081D01*
X96911333Y-97245715D01*
X96876251Y-97252668D01*
X96865058Y-97280803D01*
X96864714Y-97292333D01*
X96870637Y-97326314D01*
X96894546Y-97334298D01*
X96905535Y-97333155D01*
X96905535Y-97333155D01*
G37*
X96905535Y-97333155D02*
X96942214Y-97312495D01*
X96952154Y-97286536D01*
X96949721Y-97256045D01*
X96923831Y-97246081D01*
X96911333Y-97245715D01*
X96876251Y-97252668D01*
X96865058Y-97280803D01*
X96864714Y-97292333D01*
X96870637Y-97326314D01*
X96894546Y-97334298D01*
X96905535Y-97333155D01*
G36*
X97434955Y-97330721D02*
X97444919Y-97304831D01*
X97445285Y-97292333D01*
X97438332Y-97257251D01*
X97410197Y-97246059D01*
X97398667Y-97245715D01*
X97364686Y-97251637D01*
X97356702Y-97275547D01*
X97357845Y-97286536D01*
X97378505Y-97323214D01*
X97404464Y-97333155D01*
X97434955Y-97330721D01*
X97434955Y-97330721D01*
G37*
X97434955Y-97330721D02*
X97444919Y-97304831D01*
X97445285Y-97292333D01*
X97438332Y-97257251D01*
X97410197Y-97246059D01*
X97398667Y-97245715D01*
X97364686Y-97251637D01*
X97356702Y-97275547D01*
X97357845Y-97286536D01*
X97378505Y-97323214D01*
X97404464Y-97333155D01*
X97434955Y-97330721D01*
G36*
X96699039Y-97431045D02*
X96710179Y-97395554D01*
X96706315Y-97377250D01*
X96683982Y-97357923D01*
X96649500Y-97357026D01*
X96621511Y-97373789D01*
X96617608Y-97380917D01*
X96617036Y-97420294D01*
X96645507Y-97442898D01*
X96664272Y-97445286D01*
X96699039Y-97431045D01*
X96699039Y-97431045D01*
G37*
X96699039Y-97431045D02*
X96710179Y-97395554D01*
X96706315Y-97377250D01*
X96683982Y-97357923D01*
X96649500Y-97357026D01*
X96621511Y-97373789D01*
X96617608Y-97380917D01*
X96617036Y-97420294D01*
X96645507Y-97442898D01*
X96664272Y-97445286D01*
X96699039Y-97431045D01*
G36*
X97181916Y-97434008D02*
X97199998Y-97405140D01*
X97200357Y-97399680D01*
X97186348Y-97369744D01*
X97155010Y-97356541D01*
X97122375Y-97363159D01*
X97107152Y-97381733D01*
X97106615Y-97416782D01*
X97114378Y-97430064D01*
X97148033Y-97444204D01*
X97181916Y-97434008D01*
X97181916Y-97434008D01*
G37*
X97181916Y-97434008D02*
X97199998Y-97405140D01*
X97200357Y-97399680D01*
X97186348Y-97369744D01*
X97155010Y-97356541D01*
X97122375Y-97363159D01*
X97107152Y-97381733D01*
X97106615Y-97416782D01*
X97114378Y-97430064D01*
X97148033Y-97444204D01*
X97181916Y-97434008D01*
G36*
X97671774Y-97434008D02*
X97689855Y-97405140D01*
X97690214Y-97399680D01*
X97676205Y-97369744D01*
X97644867Y-97356541D01*
X97612232Y-97363159D01*
X97597010Y-97381733D01*
X97596473Y-97416782D01*
X97604235Y-97430064D01*
X97637890Y-97444204D01*
X97671774Y-97434008D01*
X97671774Y-97434008D01*
G37*
X97671774Y-97434008D02*
X97689855Y-97405140D01*
X97690214Y-97399680D01*
X97676205Y-97369744D01*
X97644867Y-97356541D01*
X97612232Y-97363159D01*
X97597010Y-97381733D01*
X97596473Y-97416782D01*
X97604235Y-97430064D01*
X97637890Y-97444204D01*
X97671774Y-97434008D01*
G36*
X96945314Y-97584506D02*
X96953297Y-97560597D01*
X96952154Y-97549607D01*
X96931494Y-97512929D01*
X96905535Y-97502988D01*
X96875044Y-97505422D01*
X96865080Y-97531312D01*
X96864714Y-97543810D01*
X96871667Y-97578892D01*
X96899802Y-97590085D01*
X96911333Y-97590429D01*
X96945314Y-97584506D01*
X96945314Y-97584506D01*
G37*
X96945314Y-97584506D02*
X96953297Y-97560597D01*
X96952154Y-97549607D01*
X96931494Y-97512929D01*
X96905535Y-97502988D01*
X96875044Y-97505422D01*
X96865080Y-97531312D01*
X96864714Y-97543810D01*
X96871667Y-97578892D01*
X96899802Y-97590085D01*
X96911333Y-97590429D01*
X96945314Y-97584506D01*
G36*
X97435176Y-97584497D02*
X97443144Y-97560607D01*
X97442012Y-97549793D01*
X97424841Y-97515744D01*
X97394550Y-97501167D01*
X97367294Y-97511183D01*
X97356351Y-97538475D01*
X97354571Y-97557167D01*
X97366678Y-97583475D01*
X97401190Y-97590429D01*
X97435176Y-97584497D01*
X97435176Y-97584497D01*
G37*
X97435176Y-97584497D02*
X97443144Y-97560607D01*
X97442012Y-97549793D01*
X97424841Y-97515744D01*
X97394550Y-97501167D01*
X97367294Y-97511183D01*
X97356351Y-97538475D01*
X97354571Y-97557167D01*
X97366678Y-97583475D01*
X97401190Y-97590429D01*
X97435176Y-97584497D01*
G36*
X96678245Y-97687348D02*
X96696245Y-97675959D01*
X96711617Y-97641054D01*
X96709225Y-97620864D01*
X96683464Y-97595950D01*
X96645694Y-97591169D01*
X96622809Y-97602524D01*
X96610510Y-97636203D01*
X96621482Y-97672656D01*
X96641149Y-97688940D01*
X96678245Y-97687348D01*
X96678245Y-97687348D01*
G37*
X96678245Y-97687348D02*
X96696245Y-97675959D01*
X96711617Y-97641054D01*
X96709225Y-97620864D01*
X96683464Y-97595950D01*
X96645694Y-97591169D01*
X96622809Y-97602524D01*
X96610510Y-97636203D01*
X96621482Y-97672656D01*
X96641149Y-97688940D01*
X96678245Y-97687348D01*
G36*
X97171865Y-97689506D02*
X97184695Y-97677366D01*
X97204358Y-97640071D01*
X97195234Y-97607146D01*
X97161466Y-97590721D01*
X97155000Y-97590429D01*
X97119613Y-97602705D01*
X97106592Y-97619050D01*
X97109442Y-97653164D01*
X97125305Y-97677366D01*
X97150677Y-97697327D01*
X97171865Y-97689506D01*
X97171865Y-97689506D01*
G37*
X97171865Y-97689506D02*
X97184695Y-97677366D01*
X97204358Y-97640071D01*
X97195234Y-97607146D01*
X97161466Y-97590721D01*
X97155000Y-97590429D01*
X97119613Y-97602705D01*
X97106592Y-97619050D01*
X97109442Y-97653164D01*
X97125305Y-97677366D01*
X97150677Y-97697327D01*
X97171865Y-97689506D01*
G36*
X97680695Y-97681176D02*
X97696179Y-97649543D01*
X97695709Y-97638012D01*
X97677763Y-97606070D01*
X97645466Y-97593220D01*
X97613782Y-97602327D01*
X97601142Y-97619905D01*
X97602509Y-97658294D01*
X97613755Y-97675959D01*
X97648658Y-97692094D01*
X97680695Y-97681176D01*
X97680695Y-97681176D01*
G37*
X97680695Y-97681176D02*
X97696179Y-97649543D01*
X97695709Y-97638012D01*
X97677763Y-97606070D01*
X97645466Y-97593220D01*
X97613782Y-97602327D01*
X97601142Y-97619905D01*
X97602509Y-97658294D01*
X97613755Y-97675959D01*
X97648658Y-97692094D01*
X97680695Y-97681176D01*
G36*
X96942827Y-97820319D02*
X96951852Y-97796845D01*
X96943563Y-97759846D01*
X96914070Y-97744542D01*
X96883962Y-97753031D01*
X96866521Y-97780301D01*
X96873171Y-97812622D01*
X96898686Y-97833669D01*
X96910320Y-97835357D01*
X96942827Y-97820319D01*
X96942827Y-97820319D01*
G37*
X96942827Y-97820319D02*
X96951852Y-97796845D01*
X96943563Y-97759846D01*
X96914070Y-97744542D01*
X96883962Y-97753031D01*
X96866521Y-97780301D01*
X96873171Y-97812622D01*
X96898686Y-97833669D01*
X96910320Y-97835357D01*
X96942827Y-97820319D01*
G36*
X97432684Y-97820319D02*
X97441709Y-97796845D01*
X97433420Y-97759846D01*
X97403927Y-97744542D01*
X97373819Y-97753031D01*
X97356378Y-97780301D01*
X97363028Y-97812622D01*
X97388543Y-97833669D01*
X97400177Y-97835357D01*
X97432684Y-97820319D01*
X97432684Y-97820319D01*
G37*
X97432684Y-97820319D02*
X97441709Y-97796845D01*
X97433420Y-97759846D01*
X97403927Y-97744542D01*
X97373819Y-97753031D01*
X97356378Y-97780301D01*
X97363028Y-97812622D01*
X97388543Y-97833669D01*
X97400177Y-97835357D01*
X97432684Y-97820319D01*
G36*
X96689925Y-97911639D02*
X96705886Y-97894322D01*
X96705663Y-97855999D01*
X96682417Y-97829910D01*
X96648299Y-97824238D01*
X96622809Y-97838381D01*
X96612419Y-97865061D01*
X96610714Y-97883738D01*
X96625017Y-97907871D01*
X96656921Y-97917783D01*
X96689925Y-97911639D01*
X96689925Y-97911639D01*
G37*
X96689925Y-97911639D02*
X96705886Y-97894322D01*
X96705663Y-97855999D01*
X96682417Y-97829910D01*
X96648299Y-97824238D01*
X96622809Y-97838381D01*
X96612419Y-97865061D01*
X96610714Y-97883738D01*
X96625017Y-97907871D01*
X96656921Y-97917783D01*
X96689925Y-97911639D01*
G36*
X97181916Y-97905722D02*
X97199998Y-97876854D01*
X97200357Y-97871395D01*
X97186348Y-97841458D01*
X97155010Y-97828255D01*
X97122375Y-97834873D01*
X97107152Y-97853447D01*
X97106615Y-97888497D01*
X97114378Y-97901778D01*
X97148033Y-97915919D01*
X97181916Y-97905722D01*
X97181916Y-97905722D01*
G37*
X97181916Y-97905722D02*
X97199998Y-97876854D01*
X97200357Y-97871395D01*
X97186348Y-97841458D01*
X97155010Y-97828255D01*
X97122375Y-97834873D01*
X97107152Y-97853447D01*
X97106615Y-97888497D01*
X97114378Y-97901778D01*
X97148033Y-97915919D01*
X97181916Y-97905722D01*
G36*
X97671774Y-97905722D02*
X97689855Y-97876854D01*
X97690214Y-97871395D01*
X97676205Y-97841458D01*
X97644867Y-97828255D01*
X97612232Y-97834873D01*
X97597010Y-97853447D01*
X97596473Y-97888497D01*
X97604235Y-97901778D01*
X97637890Y-97915919D01*
X97671774Y-97905722D01*
X97671774Y-97905722D01*
G37*
X97671774Y-97905722D02*
X97689855Y-97876854D01*
X97690214Y-97871395D01*
X97676205Y-97841458D01*
X97644867Y-97828255D01*
X97612232Y-97834873D01*
X97597010Y-97853447D01*
X97596473Y-97888497D01*
X97604235Y-97901778D01*
X97637890Y-97915919D01*
X97671774Y-97905722D01*
G36*
X96940802Y-98055248D02*
X96946357Y-98025857D01*
X96935140Y-97990393D01*
X96909881Y-97973601D01*
X96883166Y-97980302D01*
X96871790Y-97997302D01*
X96867734Y-98039481D01*
X96885032Y-98069839D01*
X96914552Y-98076843D01*
X96940802Y-98055248D01*
X96940802Y-98055248D01*
G37*
X96940802Y-98055248D02*
X96946357Y-98025857D01*
X96935140Y-97990393D01*
X96909881Y-97973601D01*
X96883166Y-97980302D01*
X96871790Y-97997302D01*
X96867734Y-98039481D01*
X96885032Y-98069839D01*
X96914552Y-98076843D01*
X96940802Y-98055248D01*
G36*
X97430659Y-98055248D02*
X97436214Y-98025857D01*
X97424997Y-97990393D01*
X97399738Y-97973601D01*
X97373023Y-97980302D01*
X97361647Y-97997302D01*
X97357592Y-98039481D01*
X97374889Y-98069839D01*
X97404409Y-98076843D01*
X97430659Y-98055248D01*
X97430659Y-98055248D01*
G37*
X97430659Y-98055248D02*
X97436214Y-98025857D01*
X97424997Y-97990393D01*
X97399738Y-97973601D01*
X97373023Y-97980302D01*
X97361647Y-97997302D01*
X97357592Y-98039481D01*
X97374889Y-98069839D01*
X97404409Y-98076843D01*
X97430659Y-98055248D01*
D12*
X154443297Y-100674954D02*
X155254203Y-99215046D01*
X148904026Y-101754328D02*
X148943474Y-101175672D01*
D13*
X49050000Y-87150000D03*
X144300000Y-87150000D03*
X239550000Y-87150000D03*
X239550000Y-49050000D03*
X144300000Y-49050000D03*
D14*
X180404000Y-90820000D03*
X181204000Y-90820000D03*
X182004000Y-90820000D03*
X182804000Y-90820000D03*
X183604000Y-90820000D03*
X184404000Y-90820000D03*
X185204000Y-90820000D03*
X186004000Y-90820000D03*
X186804000Y-90820000D03*
X187604000Y-90820000D03*
X188404000Y-90820000D03*
D15*
X190104000Y-92520000D03*
X190104000Y-93320000D03*
X190104000Y-94120000D03*
X190104000Y-94920000D03*
X190104000Y-95720000D03*
X190104000Y-96520000D03*
X190104000Y-97320000D03*
X190104000Y-98120000D03*
X190104000Y-98920000D03*
X190104000Y-99720000D03*
X190104000Y-100520000D03*
D14*
X188404000Y-102220000D03*
X187604000Y-102220000D03*
X186804000Y-102220000D03*
X186004000Y-102220000D03*
X185204000Y-102220000D03*
X184404000Y-102220000D03*
X183604000Y-102220000D03*
X182804000Y-102220000D03*
X182004000Y-102220000D03*
X181204000Y-102220000D03*
X180404000Y-102220000D03*
D15*
X178704000Y-100520000D03*
X178704000Y-99720000D03*
X178704000Y-98920000D03*
X178704000Y-98120000D03*
X178704000Y-97320000D03*
X178704000Y-96520000D03*
X178704000Y-95720000D03*
X178704000Y-94920000D03*
X178704000Y-94120000D03*
X178704000Y-93320000D03*
X178704000Y-92520000D03*
D16*
X194294000Y-91186000D03*
X192294000Y-91186000D03*
X194294000Y-100330000D03*
X192294000Y-100330000D03*
X185658000Y-86868000D03*
X183658000Y-86868000D03*
D17*
X129540000Y-92980000D03*
X129540000Y-94980000D03*
X132588000Y-92980000D03*
X132588000Y-94980000D03*
X135636000Y-92980000D03*
X135636000Y-94980000D03*
X138684000Y-92980000D03*
X138684000Y-94980000D03*
X141732000Y-92980000D03*
X141732000Y-94980000D03*
X62992000Y-49260000D03*
X62992000Y-47260000D03*
X101092000Y-49260000D03*
X101092000Y-47260000D03*
X139192000Y-49260000D03*
X139192000Y-47260000D03*
X177292000Y-49260000D03*
X177292000Y-47260000D03*
X215392000Y-49260000D03*
X215392000Y-47260000D03*
X253492000Y-49260000D03*
X253492000Y-47260000D03*
X253492000Y-87360000D03*
X253492000Y-85360000D03*
X215392000Y-87360000D03*
X215392000Y-85360000D03*
D16*
X178546000Y-82042000D03*
X176546000Y-82042000D03*
X140700000Y-82042000D03*
X138700000Y-82042000D03*
X102346000Y-82042000D03*
X100346000Y-82042000D03*
D17*
X62992000Y-87360000D03*
X62992000Y-85360000D03*
D18*
X144018000Y-38001780D03*
X143220440Y-36802900D03*
X145615660Y-38001780D03*
X144815560Y-36802900D03*
D19*
X147574000Y-32396000D03*
X140462000Y-32396000D03*
D18*
X142420340Y-38001780D03*
D19*
X140462000Y-36968000D03*
X147574000Y-36968000D03*
D20*
X59845000Y-34445000D03*
X57305000Y-34445000D03*
X97945000Y-34445000D03*
X95405000Y-34445000D03*
X116995000Y-34445000D03*
X114455000Y-34445000D03*
X136045000Y-34445000D03*
X133505000Y-34445000D03*
X155095000Y-34445000D03*
X152555000Y-34445000D03*
X174145000Y-34445000D03*
X171605000Y-34445000D03*
X193195000Y-34445000D03*
X190655000Y-34445000D03*
X212245000Y-34445000D03*
X209705000Y-34445000D03*
X231295000Y-34445000D03*
X228755000Y-34445000D03*
X250345000Y-34445000D03*
X247805000Y-34445000D03*
X43176250Y-53495000D03*
X40636250Y-53495000D03*
X40795000Y-34445000D03*
X38255000Y-34445000D03*
X78895000Y-34445000D03*
X76355000Y-34445000D03*
X64607500Y-53495000D03*
X62067500Y-53495000D03*
X83657500Y-53495000D03*
X81117500Y-53495000D03*
X102707500Y-53495000D03*
X100167500Y-53495000D03*
X121757500Y-53495000D03*
X119217500Y-53495000D03*
X140807500Y-53495000D03*
X138267500Y-53495000D03*
X159857500Y-53495000D03*
X157317500Y-53495000D03*
X178907500Y-53495000D03*
X176367500Y-53495000D03*
X197957500Y-53495000D03*
X195417500Y-53495000D03*
X217007500Y-53495000D03*
X214467500Y-53495000D03*
X243201250Y-53495000D03*
X240661250Y-53495000D03*
X47938750Y-72545000D03*
X45398750Y-72545000D03*
X74132500Y-72545000D03*
X71592500Y-72545000D03*
X93182500Y-72545000D03*
X90642500Y-72545000D03*
X112232500Y-72545000D03*
X109692500Y-72545000D03*
X131282500Y-72545000D03*
X128742500Y-72545000D03*
X150332500Y-72545000D03*
X147792500Y-72545000D03*
X169382500Y-72545000D03*
X166842500Y-72545000D03*
X188432500Y-72545000D03*
X185892500Y-72545000D03*
X207482500Y-72545000D03*
X204942500Y-72545000D03*
X228913750Y-72545000D03*
X226373750Y-72545000D03*
X250345000Y-72545000D03*
X247805000Y-72545000D03*
X43176250Y-91595000D03*
X40636250Y-91595000D03*
X64607500Y-91595000D03*
X62067500Y-91595000D03*
X83657500Y-91595000D03*
X81117500Y-91595000D03*
X119376250Y-91595000D03*
X116836250Y-91595000D03*
X152713750Y-91595000D03*
X150173750Y-91595000D03*
X205101250Y-91595000D03*
X202561250Y-91595000D03*
X224151250Y-91595000D03*
X221611250Y-91595000D03*
X247963750Y-91595000D03*
X245423750Y-91595000D03*
X226532500Y-72545000D03*
X223992500Y-72545000D03*
X247963750Y-72545000D03*
X245423750Y-72545000D03*
X86038750Y-91595000D03*
X83498750Y-91595000D03*
X167001250Y-91595000D03*
X164461250Y-91595000D03*
X226532500Y-91595000D03*
X223992500Y-91595000D03*
D21*
X61722000Y-36764000D03*
X61722000Y-34864000D03*
X99822000Y-36764000D03*
X99822000Y-34864000D03*
X118872000Y-36764000D03*
X118872000Y-34864000D03*
X137922000Y-36764000D03*
X137922000Y-34864000D03*
X156972000Y-36764000D03*
X156972000Y-34864000D03*
X176022000Y-36764000D03*
X176022000Y-34864000D03*
X195072000Y-36764000D03*
X195072000Y-34864000D03*
X214122000Y-36764000D03*
X214122000Y-34864000D03*
X233172000Y-36764000D03*
X233172000Y-34864000D03*
X252222000Y-36764000D03*
X252222000Y-34864000D03*
X44958000Y-55814000D03*
X44958000Y-53914000D03*
X42672000Y-36764000D03*
X42672000Y-34864000D03*
X80772000Y-36764000D03*
X80772000Y-34864000D03*
X66548000Y-55814000D03*
X66548000Y-53914000D03*
X85598000Y-55814000D03*
X85598000Y-53914000D03*
X104648000Y-55814000D03*
X104648000Y-53914000D03*
X123698000Y-55814000D03*
X123698000Y-53914000D03*
X142748000Y-55814000D03*
X142748000Y-53914000D03*
X161798000Y-55814000D03*
X161798000Y-53914000D03*
X180848000Y-55814000D03*
X180848000Y-53914000D03*
X199898000Y-55814000D03*
X199898000Y-53914000D03*
X218948000Y-55814000D03*
X218948000Y-53914000D03*
X245110000Y-55814000D03*
X245110000Y-53914000D03*
X49784000Y-74864000D03*
X49784000Y-72964000D03*
X75946000Y-74864000D03*
X75946000Y-72964000D03*
X94996000Y-74864000D03*
X94996000Y-72964000D03*
X114046000Y-74864000D03*
X114046000Y-72964000D03*
X133096000Y-74864000D03*
X133096000Y-72964000D03*
X152146000Y-74864000D03*
X152146000Y-72964000D03*
X171196000Y-74864000D03*
X171196000Y-72964000D03*
X190246000Y-74864000D03*
X190246000Y-72964000D03*
X209296000Y-74864000D03*
X209296000Y-72964000D03*
X230886000Y-74864000D03*
X230886000Y-72964000D03*
X252222000Y-74864000D03*
X252222000Y-72964000D03*
X44958000Y-93914000D03*
X44958000Y-92014000D03*
X66548000Y-93914000D03*
X66548000Y-92014000D03*
X87884000Y-93914000D03*
X87884000Y-92014000D03*
X121158000Y-93914000D03*
X121158000Y-92014000D03*
X154686000Y-93914000D03*
X154686000Y-92014000D03*
X207010000Y-93914000D03*
X207010000Y-92014000D03*
X228346000Y-93914000D03*
X228346000Y-92014000D03*
X249936000Y-93914000D03*
X249936000Y-92014000D03*
X52070000Y-56708000D03*
X52070000Y-58608000D03*
D22*
X140716000Y-101346000D03*
D23*
X140716000Y-98806000D03*
X138176000Y-101346000D03*
X138176000Y-98806000D03*
X135636000Y-101346000D03*
X135636000Y-98806000D03*
D22*
X254508000Y-53594000D03*
D23*
X254508000Y-56134000D03*
X254508000Y-58674000D03*
X254508000Y-61214000D03*
X254508000Y-63754000D03*
D24*
X229550000Y-55356760D03*
X227650000Y-55356760D03*
X228600000Y-53357780D03*
D21*
X145288000Y-44892000D03*
X145288000Y-42992000D03*
X143256000Y-44892000D03*
X143256000Y-42992000D03*
D25*
X194244000Y-103632000D03*
X192344000Y-103632000D03*
X227650000Y-61722000D03*
X229550000Y-61722000D03*
X188280000Y-87884000D03*
X190180000Y-87884000D03*
D26*
X52804000Y-47468000D03*
X52804000Y-50068000D03*
X59464000Y-50068000D03*
X59464000Y-47468000D03*
X90904000Y-47468000D03*
X90904000Y-50068000D03*
X97564000Y-50068000D03*
X97564000Y-47468000D03*
X129004000Y-47468000D03*
X129004000Y-50068000D03*
X135664000Y-50068000D03*
X135664000Y-47468000D03*
X167104000Y-47468000D03*
X167104000Y-50068000D03*
X173764000Y-50068000D03*
X173764000Y-47468000D03*
X205204000Y-47468000D03*
X205204000Y-50068000D03*
X211864000Y-50068000D03*
X211864000Y-47468000D03*
X243304000Y-47468000D03*
X243304000Y-50068000D03*
X249964000Y-50068000D03*
X249964000Y-47468000D03*
X249964000Y-88168000D03*
X249964000Y-85568000D03*
X243304000Y-85568000D03*
X243304000Y-88168000D03*
X211864000Y-88168000D03*
X211864000Y-85568000D03*
X205204000Y-85568000D03*
X205204000Y-88168000D03*
X173764000Y-88168000D03*
X173764000Y-85568000D03*
X167104000Y-85568000D03*
X167104000Y-88168000D03*
X140490000Y-88168000D03*
X140490000Y-85568000D03*
X133830000Y-85568000D03*
X133830000Y-88168000D03*
X97564000Y-88168000D03*
X97564000Y-85568000D03*
X90904000Y-85568000D03*
X90904000Y-88168000D03*
X59464000Y-88168000D03*
X59464000Y-85568000D03*
X52804000Y-85568000D03*
X52804000Y-88168000D03*
D12*
X42524547Y-43524954D02*
X43335453Y-42065046D01*
X36985276Y-44604328D02*
X37024724Y-44025672D01*
X61574547Y-43524954D02*
X62385453Y-42065046D01*
X56035276Y-44604328D02*
X56074724Y-44025672D01*
X80624547Y-43524954D02*
X81435453Y-42065046D01*
X75085276Y-44604328D02*
X75124724Y-44025672D01*
X99674547Y-43524954D02*
X100485453Y-42065046D01*
X94135276Y-44604328D02*
X94174724Y-44025672D01*
X118724547Y-43524954D02*
X119535453Y-42065046D01*
X113185276Y-44604328D02*
X113224724Y-44025672D01*
X137774547Y-43524954D02*
X138585453Y-42065046D01*
X132235276Y-44604328D02*
X132274724Y-44025672D01*
X156824547Y-43524954D02*
X157635453Y-42065046D01*
X151285276Y-44604328D02*
X151324724Y-44025672D01*
X175874547Y-43524954D02*
X176685453Y-42065046D01*
X170335276Y-44604328D02*
X170374724Y-44025672D01*
X194924547Y-43524954D02*
X195735453Y-42065046D01*
X189385276Y-44604328D02*
X189424724Y-44025672D01*
X213974547Y-43524954D02*
X214785453Y-42065046D01*
X208435276Y-44604328D02*
X208474724Y-44025672D01*
X233024547Y-43524954D02*
X233835453Y-42065046D01*
X227485276Y-44604328D02*
X227524724Y-44025672D01*
X44905797Y-62574954D02*
X45716703Y-61115046D01*
X39366526Y-63654328D02*
X39405974Y-63075672D01*
X66337047Y-62574954D02*
X67147953Y-61115046D01*
X60797776Y-63654328D02*
X60837224Y-63075672D01*
X85387047Y-62574954D02*
X86197953Y-61115046D01*
X79847776Y-63654328D02*
X79887224Y-63075672D01*
X104437047Y-62574954D02*
X105247953Y-61115046D01*
X98897776Y-63654328D02*
X98937224Y-63075672D01*
X123487047Y-62574954D02*
X124297953Y-61115046D01*
X117947776Y-63654328D02*
X117987224Y-63075672D01*
X142537047Y-62574954D02*
X143347953Y-61115046D01*
X136997776Y-63654328D02*
X137037224Y-63075672D01*
X161587047Y-62574954D02*
X162397953Y-61115046D01*
X156047776Y-63654328D02*
X156087224Y-63075672D01*
X180637047Y-62574954D02*
X181447953Y-61115046D01*
X175097776Y-63654328D02*
X175137224Y-63075672D01*
X199687047Y-62574954D02*
X200497953Y-61115046D01*
X194147776Y-63654328D02*
X194187224Y-63075672D01*
X218737047Y-62574954D02*
X219547953Y-61115046D01*
X213197776Y-63654328D02*
X213237224Y-63075672D01*
X244930797Y-62574954D02*
X245741703Y-61115046D01*
X239391526Y-63654328D02*
X239430974Y-63075672D01*
X49668297Y-81624954D02*
X50479203Y-80165046D01*
X44129026Y-82704328D02*
X44168474Y-82125672D01*
X75862047Y-81624954D02*
X76672953Y-80165046D01*
X70322776Y-82704328D02*
X70362224Y-82125672D01*
X94912047Y-81624954D02*
X95722953Y-80165046D01*
X89372776Y-82704328D02*
X89412224Y-82125672D01*
X113962047Y-81624954D02*
X114772953Y-80165046D01*
X108422776Y-82704328D02*
X108462224Y-82125672D01*
X133012047Y-81624954D02*
X133822953Y-80165046D01*
X127472776Y-82704328D02*
X127512224Y-82125672D01*
X152062047Y-81624954D02*
X152872953Y-80165046D01*
X146522776Y-82704328D02*
X146562224Y-82125672D01*
X171112047Y-81624954D02*
X171922953Y-80165046D01*
X165572776Y-82704328D02*
X165612224Y-82125672D01*
X190162047Y-81624954D02*
X190972953Y-80165046D01*
X184622776Y-82704328D02*
X184662224Y-82125672D01*
X209212047Y-81624954D02*
X210022953Y-80165046D01*
X203672776Y-82704328D02*
X203712224Y-82125672D01*
X230643297Y-81624954D02*
X231454203Y-80165046D01*
X225104026Y-82704328D02*
X225143474Y-82125672D01*
X252074547Y-81624954D02*
X252885453Y-80165046D01*
X246535276Y-82704328D02*
X246574724Y-82125672D01*
X44905797Y-100674954D02*
X45716703Y-99215046D01*
X39366526Y-101754328D02*
X39405974Y-101175672D01*
X66337047Y-100674954D02*
X67147953Y-99215046D01*
X60797776Y-101754328D02*
X60837224Y-101175672D01*
X85387047Y-100674954D02*
X86197953Y-99215046D01*
X79847776Y-101754328D02*
X79887224Y-101175672D01*
X206830797Y-100674954D02*
X207641703Y-99215046D01*
X201291526Y-101754328D02*
X201330974Y-101175672D01*
X225880797Y-100674954D02*
X226691703Y-99215046D01*
X220341526Y-101754328D02*
X220380974Y-101175672D01*
X249693297Y-100674954D02*
X250504203Y-99215046D01*
X244154026Y-101754328D02*
X244193474Y-101175672D01*
X252074547Y-43524954D02*
X252885453Y-42065046D01*
X246535276Y-44604328D02*
X246574724Y-44025672D01*
X228262047Y-81624954D02*
X229072953Y-80165046D01*
X222722776Y-82704328D02*
X222762224Y-82125672D01*
X249693297Y-81624954D02*
X250504203Y-80165046D01*
X244154026Y-82704328D02*
X244193474Y-82125672D01*
X87768297Y-100674954D02*
X88579203Y-99215046D01*
X82229026Y-101754328D02*
X82268474Y-101175672D01*
X228262047Y-100674954D02*
X229072953Y-99215046D01*
X222722776Y-101754328D02*
X222762224Y-101175672D01*
X121105797Y-100674954D02*
X121916703Y-99215046D01*
X115566526Y-101754328D02*
X115605974Y-101175672D01*
X168730797Y-100674954D02*
X169541703Y-99215046D01*
X163191526Y-101754328D02*
X163230974Y-101175672D01*
D27*
X242316000Y-32986000D03*
X242316000Y-35086000D03*
X240030000Y-91152000D03*
X240030000Y-93252000D03*
X216154000Y-90136000D03*
X216154000Y-92236000D03*
X197104000Y-90136000D03*
X197104000Y-92236000D03*
X158496000Y-90136000D03*
X158496000Y-92236000D03*
X111252000Y-90136000D03*
X111252000Y-92236000D03*
X75692000Y-90136000D03*
X75692000Y-92236000D03*
X56642000Y-90136000D03*
X56642000Y-92236000D03*
X35052000Y-90136000D03*
X35052000Y-92236000D03*
X240030000Y-71086000D03*
X240030000Y-73186000D03*
X218440000Y-71086000D03*
X218440000Y-73186000D03*
X199390000Y-71086000D03*
X199390000Y-73186000D03*
X180340000Y-71086000D03*
X180340000Y-73186000D03*
X161290000Y-71086000D03*
X161290000Y-73186000D03*
X142240000Y-71086000D03*
X142240000Y-73186000D03*
X123190000Y-71086000D03*
X123190000Y-73186000D03*
X104140000Y-71086000D03*
X104140000Y-73186000D03*
X85090000Y-71086000D03*
X85090000Y-73186000D03*
X66040000Y-71086000D03*
X66040000Y-73186000D03*
X39878000Y-71086000D03*
X39878000Y-73186000D03*
X235204000Y-52036000D03*
X235204000Y-54136000D03*
X209042000Y-52036000D03*
X209042000Y-54136000D03*
X189992000Y-52036000D03*
X189992000Y-54136000D03*
X170942000Y-52036000D03*
X170942000Y-54136000D03*
X151892000Y-52036000D03*
X151892000Y-54136000D03*
X132842000Y-52036000D03*
X132842000Y-54136000D03*
X113792000Y-52036000D03*
X113792000Y-54136000D03*
X94742000Y-52036000D03*
X94742000Y-54136000D03*
X75692000Y-52036000D03*
X75692000Y-54136000D03*
X56642000Y-52036000D03*
X56642000Y-54136000D03*
X35306000Y-52036000D03*
X35306000Y-54136000D03*
X223266000Y-32986000D03*
X223266000Y-35086000D03*
X204216000Y-32986000D03*
X204216000Y-35086000D03*
X185166000Y-32986000D03*
X185166000Y-35086000D03*
X166116000Y-32986000D03*
X166116000Y-35086000D03*
X160782000Y-32986000D03*
X160782000Y-35086000D03*
X128016000Y-32986000D03*
X128016000Y-35086000D03*
X108966000Y-32986000D03*
X108966000Y-35086000D03*
X89916000Y-32986000D03*
X89916000Y-35086000D03*
X70866000Y-32986000D03*
X70866000Y-35086000D03*
X51816000Y-32986000D03*
X51816000Y-35086000D03*
X32766000Y-32986000D03*
X32766000Y-35086000D03*
D28*
X193548000Y-93654000D03*
X193548000Y-97354000D03*
D13*
X49050000Y-49050000D03*
M02*
