M48
;DRILL file {KiCad 4.0.2-stable} date 6/1/2017 7:16:45 PM
;FORMAT={-:-/ absolute / inch / decimal}
FMAT,2
INCH,TZ
T1C0.067
T2C0.120
T3C0.157
%
G90
G05
M72
T1
X1.3Y-1.5
X1.3938Y-2.25
X1.3938Y-2.25
X1.3938Y-3.75
X1.3938Y-3.75
X1.5813Y-3.
X1.7Y-1.5
X1.7937Y-2.25
X1.7937Y-2.25
X1.7937Y-3.75
X1.7937Y-3.75
X1.9812Y-3.
X2.05Y-1.5
X2.2375Y-2.25
X2.2375Y-3.75
X2.45Y-1.5
X2.6125Y-3.
X2.6375Y-2.25
X2.6375Y-3.75
X2.8Y-1.5
X2.9874Y-3.75
X2.9875Y-2.25
X3.0125Y-3.
X3.2Y-1.5
X3.3625Y-3.
X3.3875Y-2.25
X3.4812Y-3.75
X3.55Y-1.5
X3.7375Y-2.25
X3.7625Y-3.
X3.95Y-1.5
X4.1125Y-3.
X4.1375Y-2.25
X4.3Y-1.5
X4.3937Y-3.75
X4.4875Y-2.25
X4.5125Y-3.
X4.7Y-1.5
X4.7938Y-3.75
X4.8625Y-3.
X4.8875Y-2.25
X5.05Y-1.5
X5.2375Y-2.25
X5.2625Y-3.
X5.45Y-1.5
X5.6125Y-3.
X5.6375Y-2.25
X5.7062Y-3.75
X5.8Y-1.5
X5.9875Y-2.25
X6.0125Y-3.
X6.1063Y-3.75
X6.2Y-1.5
X6.2687Y-3.75
X6.3625Y-3.
X6.3875Y-2.25
X6.55Y-1.5
X6.6688Y-3.75
X6.7375Y-2.25
X6.7625Y-3.
X6.95Y-1.5
X7.1125Y-3.
X7.1375Y-2.25
X7.3Y-1.5
X7.4875Y-2.25
X7.5125Y-3.
X7.7Y-1.5
X7.7687Y-3.75
X7.8625Y-3.
X7.8875Y-2.25
X8.05Y-1.5
X8.1687Y-3.75
X8.2375Y-2.25
X8.2625Y-3.
X8.45Y-1.5
X8.5187Y-3.75
X8.6124Y-3.
X8.6375Y-2.25
X8.8Y-1.5
X9.0125Y-3.75
X9.1062Y-3.
X9.2Y-1.5
X9.2687Y-2.25
X9.4562Y-3.
X9.4562Y-3.75
X9.4562Y-3.75
X9.55Y-1.5
X9.6687Y-2.25
X9.8562Y-3.75
X9.8562Y-3.75
X9.95Y-1.5
X9.95Y-3.
T2
X3.9362Y-4.025
X4.1238Y-4.025
X5.0637Y-4.025
X5.9988Y-4.025
X6.9387Y-4.025
T3
X1.5Y-1.5
X1.5938Y-2.25
X1.5938Y-2.25
X1.5938Y-3.75
X1.5938Y-3.75
X1.7812Y-3.
X2.25Y-1.5
X2.4375Y-2.25
X2.4375Y-3.75
X2.8125Y-3.
X3.Y-1.5
X3.1875Y-2.25
X3.5625Y-3.
X3.75Y-1.5
X3.9362Y-3.425
X3.9375Y-2.25
X4.1238Y-3.425
X4.3125Y-3.
X4.5Y-1.5
X4.5938Y-3.75
X4.6875Y-2.25
X5.0625Y-3.
X5.0637Y-3.425
X5.25Y-1.5
X5.4375Y-2.25
X5.8125Y-3.
X5.9062Y-3.75
X5.9988Y-3.425
X6.Y-1.5
X6.1875Y-2.25
X6.4688Y-3.75
X6.5625Y-3.
X6.75Y-1.5
X6.9375Y-2.25
X6.9387Y-3.425
X7.3125Y-3.
X7.5Y-1.5
X7.6875Y-2.25
X7.8762Y-3.425
X7.9688Y-3.75
X8.0625Y-3.
X8.25Y-1.5
X8.4375Y-2.25
X9.Y-1.5
X9.4688Y-2.25
X9.6562Y-3.75
X9.6562Y-3.75
X9.75Y-1.5
T0
M30
