G04 #@! TF.FileFunction,Soldermask,Bot*
%FSLAX46Y46*%
G04 Gerber Fmt 4.6, Leading zero omitted, Abs format (unit mm)*
G04 Created by KiCad (PCBNEW 4.0.2-stable) date 6/1/2017 7:16:42 PM*
%MOMM*%
G01*
G04 APERTURE LIST*
%ADD10C,0.100000*%
%ADD11C,0.010000*%
%ADD12R,1.800200X1.800200*%
%ADD13C,1.800200*%
%ADD14R,1.450000X1.200000*%
%ADD15C,4.000000*%
%ADD16R,2.600000X2.200000*%
%ADD17O,2.099920X0.606400*%
%ADD18O,0.606400X2.099920*%
%ADD19O,1.450000X0.480000*%
%ADD20O,0.480000X1.412000*%
%ADD21R,5.280000X5.280000*%
%ADD22O,1.957680X1.800200*%
%ADD23R,0.835000X1.470000*%
%ADD24R,1.470000X0.835000*%
%ADD25R,0.900000X1.500000*%
%ADD26R,1.800000X1.400000*%
%ADD27R,1.200000X1.450000*%
%ADD28R,1.500000X0.900000*%
%ADD29R,1.900000X1.900000*%
%ADD30O,1.900000X1.900000*%
%ADD31C,1.900000*%
%ADD32C,2.700000*%
%ADD33C,2.800000*%
%ADD34C,2.577000*%
%ADD35C,2.400000*%
%ADD36C,2.400000*%
%ADD37C,1.901800*%
%ADD38C,4.187800*%
%ADD39C,2.350000*%
%ADD40C,3.248000*%
%ADD41O,1.100000X1.700000*%
%ADD42O,1.700000X2.200000*%
%ADD43R,1.760000X0.850000*%
%ADD44R,1.000100X1.000100*%
G04 APERTURE END LIST*
D10*
D11*
G36*
X134588095Y-95184222D02*
X134588095Y-94422317D01*
X134778571Y-94422317D01*
X134778571Y-94231841D01*
X134207143Y-94231841D01*
X134207143Y-94422317D01*
X134397619Y-94422317D01*
X134397619Y-95184222D01*
X134588095Y-95184222D01*
X134588095Y-95184222D01*
G37*
X134588095Y-95184222D02*
X134588095Y-94422317D01*
X134778571Y-94422317D01*
X134778571Y-94231841D01*
X134207143Y-94231841D01*
X134207143Y-94422317D01*
X134397619Y-94422317D01*
X134397619Y-95184222D01*
X134588095Y-95184222D01*
G36*
X134016666Y-95184222D02*
X134016666Y-94231841D01*
X133826190Y-94231841D01*
X133826190Y-94612793D01*
X133635714Y-94612793D01*
X133635714Y-94231841D01*
X133445238Y-94231841D01*
X133445238Y-95184222D01*
X133635714Y-95184222D01*
X133635714Y-94803270D01*
X133826190Y-94803270D01*
X133826190Y-95184222D01*
X134016666Y-95184222D01*
X134016666Y-95184222D01*
G37*
X134016666Y-95184222D02*
X134016666Y-94231841D01*
X133826190Y-94231841D01*
X133826190Y-94612793D01*
X133635714Y-94612793D01*
X133635714Y-94231841D01*
X133445238Y-94231841D01*
X133445238Y-95184222D01*
X133635714Y-95184222D01*
X133635714Y-94803270D01*
X133826190Y-94803270D01*
X133826190Y-95184222D01*
X134016666Y-95184222D01*
G36*
X133254762Y-95184222D02*
X133254762Y-94803270D01*
X133064285Y-94803270D01*
X133064285Y-95184222D01*
X133254762Y-95184222D01*
X133254762Y-95184222D01*
G37*
X133254762Y-95184222D02*
X133254762Y-94803270D01*
X133064285Y-94803270D01*
X133064285Y-95184222D01*
X133254762Y-95184222D01*
G36*
X132873809Y-95184222D02*
X132873809Y-94803270D01*
X132683333Y-94803270D01*
X132683333Y-95184222D01*
X132873809Y-95184222D01*
X132873809Y-95184222D01*
G37*
X132873809Y-95184222D02*
X132873809Y-94803270D01*
X132683333Y-94803270D01*
X132683333Y-95184222D01*
X132873809Y-95184222D01*
G36*
X133064285Y-94803270D02*
X133064285Y-94612793D01*
X132873809Y-94612793D01*
X132873809Y-94803270D01*
X133064285Y-94803270D01*
X133064285Y-94803270D01*
G37*
X133064285Y-94803270D02*
X133064285Y-94612793D01*
X132873809Y-94612793D01*
X132873809Y-94803270D01*
X133064285Y-94803270D01*
G36*
X133254762Y-94612793D02*
X133254762Y-94231841D01*
X133064285Y-94231841D01*
X133064285Y-94612793D01*
X133254762Y-94612793D01*
X133254762Y-94612793D01*
G37*
X133254762Y-94612793D02*
X133254762Y-94231841D01*
X133064285Y-94231841D01*
X133064285Y-94612793D01*
X133254762Y-94612793D01*
G36*
X132873809Y-94612793D02*
X132873809Y-94231841D01*
X132683333Y-94231841D01*
X132683333Y-94612793D01*
X132873809Y-94612793D01*
X132873809Y-94612793D01*
G37*
X132873809Y-94612793D02*
X132873809Y-94231841D01*
X132683333Y-94231841D01*
X132683333Y-94612793D01*
X132873809Y-94612793D01*
G36*
X132492857Y-95184222D02*
X132492857Y-94993745D01*
X132302380Y-94993745D01*
X132302380Y-94803270D01*
X132111904Y-94803270D01*
X132111904Y-94993745D01*
X131921428Y-94993745D01*
X131921428Y-95184222D01*
X132492857Y-95184222D01*
X132492857Y-95184222D01*
G37*
X132492857Y-95184222D02*
X132492857Y-94993745D01*
X132302380Y-94993745D01*
X132302380Y-94803270D01*
X132111904Y-94803270D01*
X132111904Y-94993745D01*
X131921428Y-94993745D01*
X131921428Y-95184222D01*
X132492857Y-95184222D01*
G36*
X132492857Y-94612793D02*
X132492857Y-94422317D01*
X132302380Y-94422317D01*
X132302380Y-94612793D01*
X132492857Y-94612793D01*
X132492857Y-94612793D01*
G37*
X132492857Y-94612793D02*
X132492857Y-94422317D01*
X132302380Y-94422317D01*
X132302380Y-94612793D01*
X132492857Y-94612793D01*
G36*
X132111904Y-94803270D02*
X132111904Y-94422317D01*
X131921428Y-94422317D01*
X131921428Y-94803270D01*
X132111904Y-94803270D01*
X132111904Y-94803270D01*
G37*
X132111904Y-94803270D02*
X132111904Y-94422317D01*
X131921428Y-94422317D01*
X131921428Y-94803270D01*
X132111904Y-94803270D01*
G36*
X132302380Y-94422317D02*
X132302380Y-94231841D01*
X132111904Y-94231841D01*
X132111904Y-94422317D01*
X132302380Y-94422317D01*
X132302380Y-94422317D01*
G37*
X132302380Y-94422317D02*
X132302380Y-94231841D01*
X132111904Y-94231841D01*
X132111904Y-94422317D01*
X132302380Y-94422317D01*
G36*
X139350000Y-96268159D02*
X139350000Y-95506253D01*
X139159524Y-95506253D01*
X139159524Y-95696730D01*
X138969047Y-95696730D01*
X138969047Y-95506253D01*
X138778571Y-95506253D01*
X138778571Y-96268159D01*
X138969047Y-96268159D01*
X138969047Y-95887205D01*
X139159524Y-95887205D01*
X139159524Y-96268159D01*
X139350000Y-96268159D01*
X139350000Y-96268159D01*
G37*
X139350000Y-96268159D02*
X139350000Y-95506253D01*
X139159524Y-95506253D01*
X139159524Y-95696730D01*
X138969047Y-95696730D01*
X138969047Y-95506253D01*
X138778571Y-95506253D01*
X138778571Y-96268159D01*
X138969047Y-96268159D01*
X138969047Y-95887205D01*
X139159524Y-95887205D01*
X139159524Y-96268159D01*
X139350000Y-96268159D01*
G36*
X139159524Y-95506253D02*
X139159524Y-95315777D01*
X138969047Y-95315777D01*
X138969047Y-95506253D01*
X139159524Y-95506253D01*
X139159524Y-95506253D01*
G37*
X139159524Y-95506253D02*
X139159524Y-95315777D01*
X138969047Y-95315777D01*
X138969047Y-95506253D01*
X139159524Y-95506253D01*
G36*
X138588095Y-96268159D02*
X138588095Y-95315777D01*
X138397619Y-95315777D01*
X138397619Y-96077682D01*
X138016667Y-96077682D01*
X138016667Y-96268159D01*
X138588095Y-96268159D01*
X138588095Y-96268159D01*
G37*
X138588095Y-96268159D02*
X138588095Y-95315777D01*
X138397619Y-95315777D01*
X138397619Y-96077682D01*
X138016667Y-96077682D01*
X138016667Y-96268159D01*
X138588095Y-96268159D01*
G36*
X137826190Y-96268159D02*
X137826190Y-95315777D01*
X137635714Y-95315777D01*
X137635714Y-96077682D01*
X137254762Y-96077682D01*
X137254762Y-96268159D01*
X137826190Y-96268159D01*
X137826190Y-96268159D01*
G37*
X137826190Y-96268159D02*
X137826190Y-95315777D01*
X137635714Y-95315777D01*
X137635714Y-96077682D01*
X137254762Y-96077682D01*
X137254762Y-96268159D01*
X137826190Y-96268159D01*
G36*
X136683333Y-96268159D02*
X136683333Y-95887205D01*
X136492857Y-95887205D01*
X136492857Y-96268159D01*
X136683333Y-96268159D01*
X136683333Y-96268159D01*
G37*
X136683333Y-96268159D02*
X136683333Y-95887205D01*
X136492857Y-95887205D01*
X136492857Y-96268159D01*
X136683333Y-96268159D01*
G36*
X137064286Y-96268159D02*
X137064286Y-95315777D01*
X136873809Y-95315777D01*
X136873809Y-95696730D01*
X136683333Y-95696730D01*
X136683333Y-95887205D01*
X136873809Y-95887205D01*
X136873809Y-96268159D01*
X137064286Y-96268159D01*
X137064286Y-96268159D01*
G37*
X137064286Y-96268159D02*
X137064286Y-95315777D01*
X136873809Y-95315777D01*
X136873809Y-95696730D01*
X136683333Y-95696730D01*
X136683333Y-95887205D01*
X136873809Y-95887205D01*
X136873809Y-96268159D01*
X137064286Y-96268159D01*
G36*
X136683333Y-95696730D02*
X136683333Y-95315777D01*
X136492857Y-95315777D01*
X136492857Y-95696730D01*
X136683333Y-95696730D01*
X136683333Y-95696730D01*
G37*
X136683333Y-95696730D02*
X136683333Y-95315777D01*
X136492857Y-95315777D01*
X136492857Y-95696730D01*
X136683333Y-95696730D01*
G36*
X136302381Y-96268159D02*
X136302381Y-95315777D01*
X135730952Y-95315777D01*
X135730952Y-95506253D01*
X136111905Y-95506253D01*
X136111905Y-95696730D01*
X135921428Y-95696730D01*
X135921428Y-95887205D01*
X136111905Y-95887205D01*
X136111905Y-96077682D01*
X135730952Y-96077682D01*
X135730952Y-96268159D01*
X136302381Y-96268159D01*
X136302381Y-96268159D01*
G37*
X136302381Y-96268159D02*
X136302381Y-95315777D01*
X135730952Y-95315777D01*
X135730952Y-95506253D01*
X136111905Y-95506253D01*
X136111905Y-95696730D01*
X135921428Y-95696730D01*
X135921428Y-95887205D01*
X136111905Y-95887205D01*
X136111905Y-96077682D01*
X135730952Y-96077682D01*
X135730952Y-96268159D01*
X136302381Y-96268159D01*
G36*
X135350000Y-96268159D02*
X135350000Y-95696730D01*
X135159524Y-95696730D01*
X135159524Y-96268159D01*
X135350000Y-96268159D01*
X135350000Y-96268159D01*
G37*
X135350000Y-96268159D02*
X135350000Y-95696730D01*
X135159524Y-95696730D01*
X135159524Y-96268159D01*
X135350000Y-96268159D01*
G36*
X135540476Y-95696730D02*
X135540476Y-95315777D01*
X135350000Y-95315777D01*
X135350000Y-95696730D01*
X135540476Y-95696730D01*
X135540476Y-95696730D01*
G37*
X135540476Y-95696730D02*
X135540476Y-95315777D01*
X135350000Y-95315777D01*
X135350000Y-95696730D01*
X135540476Y-95696730D01*
G36*
X135159524Y-95696730D02*
X135159524Y-95315777D01*
X134969047Y-95315777D01*
X134969047Y-95696730D01*
X135159524Y-95696730D01*
X135159524Y-95696730D01*
G37*
X135159524Y-95696730D02*
X135159524Y-95315777D01*
X134969047Y-95315777D01*
X134969047Y-95696730D01*
X135159524Y-95696730D01*
G36*
X134397619Y-96077682D02*
X134397619Y-95887205D01*
X134207142Y-95887205D01*
X134207142Y-96077682D01*
X134397619Y-96077682D01*
X134397619Y-96077682D01*
G37*
X134397619Y-96077682D02*
X134397619Y-95887205D01*
X134207142Y-95887205D01*
X134207142Y-96077682D01*
X134397619Y-96077682D01*
G36*
X134397619Y-95696730D02*
X134397619Y-95506253D01*
X134207142Y-95506253D01*
X134207142Y-95696730D01*
X134397619Y-95696730D01*
X134397619Y-95696730D01*
G37*
X134397619Y-95696730D02*
X134397619Y-95506253D01*
X134207142Y-95506253D01*
X134207142Y-95696730D01*
X134397619Y-95696730D01*
G36*
X134778571Y-96268159D02*
X134778571Y-95315777D01*
X134397619Y-95315777D01*
X134397619Y-95506253D01*
X134588095Y-95506253D01*
X134588095Y-95696730D01*
X134397619Y-95696730D01*
X134397619Y-95887205D01*
X134588095Y-95887205D01*
X134588095Y-96077682D01*
X134397619Y-96077682D01*
X134397619Y-96268159D01*
X134778571Y-96268159D01*
X134778571Y-96268159D01*
G37*
X134778571Y-96268159D02*
X134778571Y-95315777D01*
X134397619Y-95315777D01*
X134397619Y-95506253D01*
X134588095Y-95506253D01*
X134588095Y-95696730D01*
X134397619Y-95696730D01*
X134397619Y-95887205D01*
X134588095Y-95887205D01*
X134588095Y-96077682D01*
X134397619Y-96077682D01*
X134397619Y-96268159D01*
X134778571Y-96268159D01*
G36*
X133826190Y-96268159D02*
X133826190Y-96077682D01*
X133635714Y-96077682D01*
X133635714Y-96268159D01*
X133826190Y-96268159D01*
X133826190Y-96268159D01*
G37*
X133826190Y-96268159D02*
X133826190Y-96077682D01*
X133635714Y-96077682D01*
X133635714Y-96268159D01*
X133826190Y-96268159D01*
G36*
X134016666Y-96077682D02*
X134016666Y-95506253D01*
X133826190Y-95506253D01*
X133826190Y-96077682D01*
X134016666Y-96077682D01*
X134016666Y-96077682D01*
G37*
X134016666Y-96077682D02*
X134016666Y-95506253D01*
X133826190Y-95506253D01*
X133826190Y-96077682D01*
X134016666Y-96077682D01*
G36*
X133635714Y-96077682D02*
X133635714Y-95506253D01*
X133445238Y-95506253D01*
X133445238Y-96077682D01*
X133635714Y-96077682D01*
X133635714Y-96077682D01*
G37*
X133635714Y-96077682D02*
X133635714Y-95506253D01*
X133445238Y-95506253D01*
X133445238Y-96077682D01*
X133635714Y-96077682D01*
G36*
X133826190Y-95506253D02*
X133826190Y-95315777D01*
X133635714Y-95315777D01*
X133635714Y-95506253D01*
X133826190Y-95506253D01*
X133826190Y-95506253D01*
G37*
X133826190Y-95506253D02*
X133826190Y-95315777D01*
X133635714Y-95315777D01*
X133635714Y-95506253D01*
X133826190Y-95506253D01*
G36*
X133254762Y-96268159D02*
X133254762Y-95506253D01*
X133064285Y-95506253D01*
X133064285Y-95696730D01*
X132873809Y-95696730D01*
X132873809Y-95506253D01*
X132683333Y-95506253D01*
X132683333Y-96268159D01*
X132873809Y-96268159D01*
X132873809Y-95887205D01*
X133064285Y-95887205D01*
X133064285Y-96268159D01*
X133254762Y-96268159D01*
X133254762Y-96268159D01*
G37*
X133254762Y-96268159D02*
X133254762Y-95506253D01*
X133064285Y-95506253D01*
X133064285Y-95696730D01*
X132873809Y-95696730D01*
X132873809Y-95506253D01*
X132683333Y-95506253D01*
X132683333Y-96268159D01*
X132873809Y-96268159D01*
X132873809Y-95887205D01*
X133064285Y-95887205D01*
X133064285Y-96268159D01*
X133254762Y-96268159D01*
G36*
X133064285Y-95506253D02*
X133064285Y-95315777D01*
X132873809Y-95315777D01*
X132873809Y-95506253D01*
X133064285Y-95506253D01*
X133064285Y-95506253D01*
G37*
X133064285Y-95506253D02*
X133064285Y-95315777D01*
X132873809Y-95315777D01*
X132873809Y-95506253D01*
X133064285Y-95506253D01*
G36*
X132111904Y-96268159D02*
X132111904Y-95887205D01*
X131921428Y-95887205D01*
X131921428Y-96268159D01*
X132111904Y-96268159D01*
X132111904Y-96268159D01*
G37*
X132111904Y-96268159D02*
X132111904Y-95887205D01*
X131921428Y-95887205D01*
X131921428Y-96268159D01*
X132111904Y-96268159D01*
G36*
X132111904Y-95696730D02*
X132111904Y-95506253D01*
X131921428Y-95506253D01*
X131921428Y-95696730D01*
X132111904Y-95696730D01*
X132111904Y-95696730D01*
G37*
X132111904Y-95696730D02*
X132111904Y-95506253D01*
X131921428Y-95506253D01*
X131921428Y-95696730D01*
X132111904Y-95696730D01*
G36*
X132492857Y-96268159D02*
X132492857Y-95315777D01*
X132111904Y-95315777D01*
X132111904Y-95506253D01*
X132302380Y-95506253D01*
X132302380Y-95696730D01*
X132111904Y-95696730D01*
X132111904Y-95887205D01*
X132302380Y-95887205D01*
X132302380Y-96268159D01*
X132492857Y-96268159D01*
X132492857Y-96268159D01*
G37*
X132492857Y-96268159D02*
X132492857Y-95315777D01*
X132111904Y-95315777D01*
X132111904Y-95506253D01*
X132302380Y-95506253D01*
X132302380Y-95696730D01*
X132111904Y-95696730D01*
X132111904Y-95887205D01*
X132302380Y-95887205D01*
X132302380Y-96268159D01*
X132492857Y-96268159D01*
G36*
X131350000Y-96077682D02*
X131350000Y-95506253D01*
X131159524Y-95506253D01*
X131159524Y-96077682D01*
X131350000Y-96077682D01*
X131350000Y-96077682D01*
G37*
X131350000Y-96077682D02*
X131350000Y-95506253D01*
X131159524Y-95506253D01*
X131159524Y-96077682D01*
X131350000Y-96077682D01*
G36*
X131730952Y-96268159D02*
X131730952Y-95315777D01*
X131350000Y-95315777D01*
X131350000Y-95506253D01*
X131540476Y-95506253D01*
X131540476Y-96077682D01*
X131350000Y-96077682D01*
X131350000Y-96268159D01*
X131730952Y-96268159D01*
X131730952Y-96268159D01*
G37*
X131730952Y-96268159D02*
X131730952Y-95315777D01*
X131350000Y-95315777D01*
X131350000Y-95506253D01*
X131540476Y-95506253D01*
X131540476Y-96077682D01*
X131350000Y-96077682D01*
X131350000Y-96268159D01*
X131730952Y-96268159D01*
G36*
X130969047Y-96268159D02*
X130969047Y-95315777D01*
X130397618Y-95315777D01*
X130397618Y-95506253D01*
X130778571Y-95506253D01*
X130778571Y-95696730D01*
X130588095Y-95696730D01*
X130588095Y-95887205D01*
X130778571Y-95887205D01*
X130778571Y-96268159D01*
X130969047Y-96268159D01*
X130969047Y-96268159D01*
G37*
X130969047Y-96268159D02*
X130969047Y-95315777D01*
X130397618Y-95315777D01*
X130397618Y-95506253D01*
X130778571Y-95506253D01*
X130778571Y-95696730D01*
X130588095Y-95696730D01*
X130588095Y-95887205D01*
X130778571Y-95887205D01*
X130778571Y-96268159D01*
X130969047Y-96268159D01*
G36*
X130207142Y-96268159D02*
X130207142Y-95506253D01*
X130016666Y-95506253D01*
X130016666Y-95696730D01*
X129826190Y-95696730D01*
X129826190Y-95506253D01*
X129635713Y-95506253D01*
X129635713Y-96268159D01*
X129826190Y-96268159D01*
X129826190Y-95887205D01*
X130016666Y-95887205D01*
X130016666Y-96268159D01*
X130207142Y-96268159D01*
X130207142Y-96268159D01*
G37*
X130207142Y-96268159D02*
X130207142Y-95506253D01*
X130016666Y-95506253D01*
X130016666Y-95696730D01*
X129826190Y-95696730D01*
X129826190Y-95506253D01*
X129635713Y-95506253D01*
X129635713Y-96268159D01*
X129826190Y-96268159D01*
X129826190Y-95887205D01*
X130016666Y-95887205D01*
X130016666Y-96268159D01*
X130207142Y-96268159D01*
G36*
X130016666Y-95506253D02*
X130016666Y-95315777D01*
X129826190Y-95315777D01*
X129826190Y-95506253D01*
X130016666Y-95506253D01*
X130016666Y-95506253D01*
G37*
X130016666Y-95506253D02*
X130016666Y-95315777D01*
X129826190Y-95315777D01*
X129826190Y-95506253D01*
X130016666Y-95506253D01*
G36*
X129445238Y-96268159D02*
X129445238Y-95315777D01*
X129254761Y-95315777D01*
X129254761Y-95506253D01*
X129064285Y-95506253D01*
X129064285Y-95696730D01*
X129254761Y-95696730D01*
X129254761Y-96268159D01*
X129445238Y-96268159D01*
X129445238Y-96268159D01*
G37*
X129445238Y-96268159D02*
X129445238Y-95315777D01*
X129254761Y-95315777D01*
X129254761Y-95506253D01*
X129064285Y-95506253D01*
X129064285Y-95696730D01*
X129254761Y-95696730D01*
X129254761Y-96268159D01*
X129445238Y-96268159D01*
G36*
X128873809Y-96268159D02*
X128873809Y-95887205D01*
X129064285Y-95887205D01*
X129064285Y-95696730D01*
X128873809Y-95696730D01*
X128873809Y-95315777D01*
X128683333Y-95315777D01*
X128683333Y-96268159D01*
X128873809Y-96268159D01*
X128873809Y-96268159D01*
G37*
X128873809Y-96268159D02*
X128873809Y-95887205D01*
X129064285Y-95887205D01*
X129064285Y-95696730D01*
X128873809Y-95696730D01*
X128873809Y-95315777D01*
X128683333Y-95315777D01*
X128683333Y-96268159D01*
X128873809Y-96268159D01*
G36*
X128492856Y-96268159D02*
X128492856Y-96077682D01*
X127921427Y-96077682D01*
X127921427Y-96268159D01*
X128492856Y-96268159D01*
X128492856Y-96268159D01*
G37*
X128492856Y-96268159D02*
X128492856Y-96077682D01*
X127921427Y-96077682D01*
X127921427Y-96268159D01*
X128492856Y-96268159D01*
G36*
X127921427Y-96077682D02*
X127921427Y-95887205D01*
X127730952Y-95887205D01*
X127730952Y-96077682D01*
X127921427Y-96077682D01*
X127921427Y-96077682D01*
G37*
X127921427Y-96077682D02*
X127921427Y-95887205D01*
X127730952Y-95887205D01*
X127730952Y-96077682D01*
X127921427Y-96077682D01*
G36*
X128302380Y-95887205D02*
X128302380Y-95696730D01*
X127921427Y-95696730D01*
X127921427Y-95887205D01*
X128302380Y-95887205D01*
X128302380Y-95887205D01*
G37*
X128302380Y-95887205D02*
X128302380Y-95696730D01*
X127921427Y-95696730D01*
X127921427Y-95887205D01*
X128302380Y-95887205D01*
G36*
X128492856Y-95696730D02*
X128492856Y-95506253D01*
X128302380Y-95506253D01*
X128302380Y-95696730D01*
X128492856Y-95696730D01*
X128492856Y-95696730D01*
G37*
X128492856Y-95696730D02*
X128492856Y-95506253D01*
X128302380Y-95506253D01*
X128302380Y-95696730D01*
X128492856Y-95696730D01*
G36*
X128302380Y-95506253D02*
X128302380Y-95315777D01*
X127921427Y-95315777D01*
X127921427Y-95506253D01*
X128302380Y-95506253D01*
X128302380Y-95506253D01*
G37*
X128302380Y-95506253D02*
X128302380Y-95315777D01*
X127921427Y-95315777D01*
X127921427Y-95506253D01*
X128302380Y-95506253D01*
G36*
X127540475Y-96268159D02*
X127540475Y-96077682D01*
X127350000Y-96077682D01*
X127350000Y-96268159D01*
X127540475Y-96268159D01*
X127540475Y-96268159D01*
G37*
X127540475Y-96268159D02*
X127540475Y-96077682D01*
X127350000Y-96077682D01*
X127350000Y-96268159D01*
X127540475Y-96268159D01*
G36*
X127540475Y-95887205D02*
X127540475Y-95315777D01*
X127350000Y-95315777D01*
X127350000Y-95887205D01*
X127540475Y-95887205D01*
X127540475Y-95887205D01*
G37*
X127540475Y-95887205D02*
X127540475Y-95315777D01*
X127350000Y-95315777D01*
X127350000Y-95887205D01*
X127540475Y-95887205D01*
G36*
X103980707Y-90399871D02*
X104058678Y-90404741D01*
X104119890Y-90415627D01*
X104174667Y-90433764D01*
X104310481Y-90511013D01*
X104425164Y-90578493D01*
X104501681Y-90611570D01*
X104545360Y-90628100D01*
X104581093Y-90655798D01*
X104680308Y-90741422D01*
X104721307Y-90768224D01*
X104759701Y-90783215D01*
X104808801Y-90789645D01*
X104881920Y-90790769D01*
X104992373Y-90783974D01*
X105053068Y-90763338D01*
X105133770Y-90738357D01*
X105292695Y-90716674D01*
X105449417Y-90697080D01*
X105544051Y-90677937D01*
X105755079Y-90635274D01*
X105877732Y-90613255D01*
X105947099Y-90593779D01*
X106074778Y-90578202D01*
X106345129Y-90565727D01*
X106596304Y-90562122D01*
X106796554Y-90571554D01*
X107003333Y-90599268D01*
X107274096Y-90650506D01*
X107623673Y-90719805D01*
X107759282Y-90754301D01*
X107905740Y-90802571D01*
X108133760Y-90884973D01*
X108185121Y-90898069D01*
X108219884Y-90900246D01*
X108251291Y-90907032D01*
X108268411Y-90927529D01*
X108313039Y-90965773D01*
X108408625Y-91017128D01*
X108550728Y-91087195D01*
X108689822Y-91164055D01*
X108811777Y-91239465D01*
X108902465Y-91305183D01*
X109136478Y-91496980D01*
X109270302Y-91611953D01*
X109402249Y-91735689D01*
X109646355Y-91993246D01*
X109751435Y-92118966D01*
X109840482Y-92237247D01*
X109909954Y-92344038D01*
X109956314Y-92435289D01*
X110052101Y-92633571D01*
X110129208Y-92804711D01*
X110168263Y-92959568D01*
X110204663Y-93108478D01*
X110232717Y-93246952D01*
X110251823Y-93325693D01*
X110271916Y-93397679D01*
X110287104Y-93500439D01*
X110293759Y-93600308D01*
X110288250Y-93663616D01*
X110271255Y-93762062D01*
X110264236Y-93805480D01*
X110249985Y-93827634D01*
X110236477Y-93840130D01*
X110231226Y-93860308D01*
X110208788Y-93931570D01*
X110164783Y-94032873D01*
X110145613Y-94072306D01*
X110128880Y-94088928D01*
X110098904Y-94107599D01*
X110047901Y-94151991D01*
X109978240Y-94209633D01*
X109908412Y-94246017D01*
X109827376Y-94265204D01*
X109724091Y-94271258D01*
X109616525Y-94266817D01*
X109494607Y-94253163D01*
X109235238Y-94204614D01*
X109001038Y-94138413D01*
X108910579Y-94102693D01*
X108847056Y-94067361D01*
X108804544Y-94046614D01*
X108760214Y-94038662D01*
X108715902Y-94027898D01*
X108673671Y-93998434D01*
X108639952Y-93969325D01*
X108616299Y-93957461D01*
X108585065Y-93942129D01*
X108525562Y-93899598D01*
X108354706Y-93758062D01*
X108152846Y-93589174D01*
X108031143Y-93479411D01*
X107898707Y-93343931D01*
X107760834Y-93182278D01*
X107663378Y-93045426D01*
X107609188Y-92937963D01*
X107599208Y-92896686D01*
X107601112Y-92864477D01*
X107610642Y-92842028D01*
X107623909Y-92830510D01*
X107641977Y-92830667D01*
X107665910Y-92843244D01*
X107735630Y-92908636D01*
X107841584Y-93032644D01*
X107989367Y-93202923D01*
X108109214Y-93324152D01*
X108226593Y-93428412D01*
X108502219Y-93687256D01*
X108633983Y-93799481D01*
X108712532Y-93856879D01*
X108850187Y-93933185D01*
X109107903Y-94059783D01*
X109290961Y-94130351D01*
X109371539Y-94150852D01*
X109458424Y-94165607D01*
X109684648Y-94192907D01*
X109763081Y-94196712D01*
X109825112Y-94193025D01*
X109875777Y-94181151D01*
X109920115Y-94160394D01*
X110009960Y-94089450D01*
X110081837Y-94011041D01*
X110143323Y-93917995D01*
X110191978Y-93814666D01*
X110225362Y-93705410D01*
X110232617Y-93621118D01*
X110229088Y-93504159D01*
X110216595Y-93381778D01*
X110196961Y-93281216D01*
X110149652Y-93112751D01*
X110129582Y-93027642D01*
X110121226Y-92964984D01*
X110116762Y-92932148D01*
X110106020Y-92918719D01*
X110095106Y-92910265D01*
X110090217Y-92889424D01*
X110087207Y-92855876D01*
X110077026Y-92820068D01*
X110019751Y-92700311D01*
X109952787Y-92546232D01*
X109938678Y-92507901D01*
X109919441Y-92479219D01*
X109895813Y-92440650D01*
X109871138Y-92378563D01*
X109848264Y-92323929D01*
X109828973Y-92303275D01*
X109814824Y-92296233D01*
X109804324Y-92274328D01*
X109787861Y-92242726D01*
X109759350Y-92212384D01*
X109737548Y-92191317D01*
X109737236Y-92182020D01*
X109730593Y-92166917D01*
X109693554Y-92131928D01*
X109655950Y-92097029D01*
X109647959Y-92082159D01*
X109628424Y-92053801D01*
X109563056Y-91986472D01*
X109381196Y-91804592D01*
X109354748Y-91769135D01*
X109354139Y-91751366D01*
X109355212Y-91738359D01*
X109342511Y-91733278D01*
X109307183Y-91717525D01*
X109243302Y-91673192D01*
X109060768Y-91521951D01*
X108973206Y-91451634D01*
X108884575Y-91391155D01*
X108789608Y-91325508D01*
X108702427Y-91261901D01*
X108609218Y-91208850D01*
X108551198Y-91176176D01*
X108409534Y-91097575D01*
X108340295Y-91064593D01*
X108310875Y-91055318D01*
X108186465Y-91000530D01*
X108080230Y-90954157D01*
X107999738Y-90929193D01*
X107949541Y-90915154D01*
X107916175Y-90895028D01*
X107887750Y-90878093D01*
X107849410Y-90871722D01*
X107811635Y-90867091D01*
X107784559Y-90854353D01*
X107751622Y-90837803D01*
X107699780Y-90823990D01*
X107498144Y-90787936D01*
X107266343Y-90741348D01*
X107095915Y-90711357D01*
X106935427Y-90678434D01*
X106859408Y-90667021D01*
X106737813Y-90660853D01*
X106421649Y-90662373D01*
X106114442Y-90679236D01*
X106004042Y-90692245D01*
X105943695Y-90707680D01*
X105892983Y-90726894D01*
X105847785Y-90730912D01*
X105742453Y-90747949D01*
X105550993Y-90794501D01*
X105361745Y-90847473D01*
X105263053Y-90883773D01*
X105190150Y-90912670D01*
X105127395Y-90933457D01*
X105064705Y-90963089D01*
X105014708Y-90994700D01*
X104990030Y-91021427D01*
X104988012Y-91048710D01*
X104997460Y-91081374D01*
X105042522Y-91152886D01*
X105108752Y-91216040D01*
X105144662Y-91238258D01*
X105179690Y-91250917D01*
X105223460Y-91268277D01*
X105273232Y-91299702D01*
X105318343Y-91337420D01*
X105348130Y-91373662D01*
X105355628Y-91420053D01*
X105351186Y-91494644D01*
X105345415Y-91556293D01*
X105357566Y-91613211D01*
X105401486Y-91701196D01*
X105491027Y-91856048D01*
X105572203Y-91998225D01*
X105603933Y-92048317D01*
X105698676Y-92181673D01*
X105817148Y-92348348D01*
X105874819Y-92441501D01*
X105961088Y-92575055D01*
X106052402Y-92712362D01*
X106111763Y-92796221D01*
X106172639Y-92882864D01*
X106300528Y-93082736D01*
X106419472Y-93266283D01*
X106494784Y-93385078D01*
X106582992Y-93518210D01*
X106656839Y-93633204D01*
X106725592Y-93742234D01*
X106768179Y-93800526D01*
X106803338Y-93873080D01*
X106832985Y-93926887D01*
X106873035Y-93964642D01*
X106958691Y-94020895D01*
X107015536Y-94077819D01*
X107051807Y-94146535D01*
X107075740Y-94238162D01*
X107089085Y-94282763D01*
X107104090Y-94301075D01*
X107115772Y-94310749D01*
X107121135Y-94334594D01*
X107129059Y-94358354D01*
X107146902Y-94367864D01*
X107162542Y-94374366D01*
X107162730Y-94392786D01*
X107173153Y-94425041D01*
X107207438Y-94493594D01*
X107321389Y-94695149D01*
X107452163Y-94908564D01*
X107547342Y-95044954D01*
X107626058Y-95161737D01*
X107721448Y-95295067D01*
X107766111Y-95352326D01*
X107809158Y-95420124D01*
X107881389Y-95528583D01*
X107941072Y-95611920D01*
X108022298Y-95728628D01*
X108173047Y-95935482D01*
X108287619Y-96093784D01*
X108356693Y-96178315D01*
X108461203Y-96294691D01*
X108727639Y-96565933D01*
X108814229Y-96644364D01*
X108893717Y-96695304D01*
X108973367Y-96722315D01*
X109060444Y-96728957D01*
X109153075Y-96719539D01*
X109224908Y-96700705D01*
X109277121Y-96684274D01*
X109291671Y-96691693D01*
X109306731Y-96710520D01*
X109323962Y-96730145D01*
X109350526Y-96737704D01*
X109499024Y-96719912D01*
X109629318Y-96695124D01*
X109758025Y-96663222D01*
X109862658Y-96630438D01*
X109920734Y-96603005D01*
X109943247Y-96593125D01*
X109971322Y-96591029D01*
X110032249Y-96588664D01*
X110117883Y-96576773D01*
X110197704Y-96560542D01*
X110241189Y-96545161D01*
X110293522Y-96520956D01*
X110385397Y-96500703D01*
X110507247Y-96485975D01*
X110649505Y-96478346D01*
X110829800Y-96479945D01*
X110872914Y-96489343D01*
X110904737Y-96506697D01*
X110947329Y-96545053D01*
X110978232Y-96593982D01*
X110999328Y-96657561D01*
X111012500Y-96739865D01*
X111011762Y-96840363D01*
X110994665Y-96951148D01*
X110966546Y-97047748D01*
X110950020Y-97083081D01*
X110932740Y-97105692D01*
X110915202Y-97128193D01*
X110908266Y-97151510D01*
X110901479Y-97171354D01*
X110884312Y-97185526D01*
X110864568Y-97201017D01*
X110851564Y-97224015D01*
X110805147Y-97266560D01*
X110705088Y-97329069D01*
X110541768Y-97420209D01*
X110491448Y-97442908D01*
X110425175Y-97461678D01*
X110231002Y-97491148D01*
X110231002Y-97403437D01*
X110334016Y-97391647D01*
X110426015Y-97370202D01*
X110517692Y-97336726D01*
X110619739Y-97288841D01*
X110728070Y-97227936D01*
X110809746Y-97151386D01*
X110878053Y-97072020D01*
X110919293Y-97001457D01*
X110938850Y-96926851D01*
X110942107Y-96835353D01*
X110932349Y-96736004D01*
X110909664Y-96662306D01*
X110873918Y-96613989D01*
X110824977Y-96590780D01*
X110692802Y-96578775D01*
X110541021Y-96583354D01*
X110406521Y-96601579D01*
X110357280Y-96614890D01*
X110326191Y-96630512D01*
X110252590Y-96652436D01*
X110099633Y-96685623D01*
X109873971Y-96737429D01*
X109822388Y-96754674D01*
X109626790Y-96799821D01*
X109293786Y-96864399D01*
X109168083Y-96886702D01*
X109108499Y-96903658D01*
X109110668Y-96914890D01*
X109126706Y-96936223D01*
X109193269Y-97002650D01*
X109414494Y-97184756D01*
X109541042Y-97265229D01*
X109685380Y-97338660D01*
X109777059Y-97376836D01*
X109846275Y-97397480D01*
X109920325Y-97406187D01*
X110026509Y-97408556D01*
X110231002Y-97403437D01*
X110231002Y-97491148D01*
X110169803Y-97497832D01*
X110009957Y-97515209D01*
X109937854Y-97528345D01*
X109932179Y-97535306D01*
X109919786Y-97536643D01*
X109797963Y-97515250D01*
X109690212Y-97491692D01*
X109610116Y-97467692D01*
X109493434Y-97420781D01*
X109403785Y-97398989D01*
X109380115Y-97394617D01*
X109370017Y-97382888D01*
X109365121Y-97371014D01*
X109353941Y-97366315D01*
X109327765Y-97353287D01*
X109286804Y-97321366D01*
X109163934Y-97226897D01*
X109022130Y-97124427D01*
X108964148Y-97086930D01*
X108923635Y-97071700D01*
X108878992Y-97060330D01*
X108811076Y-97032119D01*
X108744138Y-97007145D01*
X108677616Y-96995479D01*
X108613992Y-96997307D01*
X108555745Y-97012813D01*
X108457773Y-97040443D01*
X108305583Y-97068719D01*
X108203178Y-97079054D01*
X108093710Y-97078235D01*
X107988709Y-97077289D01*
X107897018Y-97087305D01*
X107819386Y-97096348D01*
X107752729Y-97084424D01*
X107580041Y-97051551D01*
X107367348Y-97028120D01*
X107262588Y-97009955D01*
X107154083Y-96982053D01*
X106966238Y-96934520D01*
X106796107Y-96894864D01*
X106796107Y-96671884D01*
X107065896Y-96768578D01*
X107174647Y-96798412D01*
X107248105Y-96808693D01*
X107314935Y-96821640D01*
X107425689Y-96854040D01*
X107623954Y-96906868D01*
X107825607Y-96942504D01*
X107990250Y-96955575D01*
X108046068Y-96951969D01*
X108077484Y-96940707D01*
X108102614Y-96929446D01*
X108131727Y-96935514D01*
X108178263Y-96951181D01*
X108232273Y-96956786D01*
X108294619Y-96952339D01*
X108366161Y-96937851D01*
X108519987Y-96895606D01*
X108563283Y-96878064D01*
X108586236Y-96859926D01*
X108590398Y-96838954D01*
X108577321Y-96812911D01*
X108505653Y-96736662D01*
X108142014Y-96375607D01*
X108058936Y-96286089D01*
X108010669Y-96225205D01*
X107862704Y-96049037D01*
X107605912Y-95776158D01*
X107493845Y-95640174D01*
X107380447Y-95490717D01*
X107314597Y-95418685D01*
X107263089Y-95352119D01*
X107124117Y-95165939D01*
X107001546Y-94999362D01*
X106928967Y-94898606D01*
X106856836Y-94788380D01*
X106753221Y-94606103D01*
X106615576Y-94366463D01*
X106565426Y-94295567D01*
X106519905Y-94245196D01*
X106447549Y-94143695D01*
X106400598Y-94078488D01*
X106356807Y-94033248D01*
X106327255Y-94003766D01*
X106314591Y-93976447D01*
X106297048Y-93924085D01*
X106253014Y-93841071D01*
X106193037Y-93745513D01*
X106127665Y-93655519D01*
X106057642Y-93557975D01*
X106000745Y-93463598D01*
X105915777Y-93316665D01*
X105851835Y-93229636D01*
X105794959Y-93136856D01*
X105752967Y-93068502D01*
X105715348Y-93022732D01*
X105687608Y-92988119D01*
X105669381Y-92946575D01*
X105646887Y-92899712D01*
X105608878Y-92852305D01*
X105570288Y-92802453D01*
X105546387Y-92749710D01*
X105533089Y-92711095D01*
X105519999Y-92695220D01*
X105500933Y-92677019D01*
X105473261Y-92632778D01*
X105383982Y-92502844D01*
X105335135Y-92443776D01*
X105304026Y-92415066D01*
X105294576Y-92405013D01*
X105290335Y-92388331D01*
X105279762Y-92364466D01*
X105255101Y-92337120D01*
X105230451Y-92310032D01*
X105219893Y-92286805D01*
X105204369Y-92253341D01*
X105167763Y-92201652D01*
X105083406Y-92095405D01*
X105026084Y-91995047D01*
X104990273Y-91929419D01*
X104934624Y-91843695D01*
X104879508Y-91767628D01*
X104845294Y-91730970D01*
X104832001Y-91708458D01*
X104792072Y-91638985D01*
X104716958Y-91521010D01*
X104676582Y-91459920D01*
X104634088Y-91421579D01*
X104589708Y-91406131D01*
X104543673Y-91413719D01*
X104494545Y-91438960D01*
X104452211Y-91472307D01*
X104416116Y-91514931D01*
X104385706Y-91568006D01*
X104360427Y-91632704D01*
X104339725Y-91710196D01*
X104309835Y-91908255D01*
X104296427Y-92005056D01*
X104281981Y-92062955D01*
X104272256Y-92106298D01*
X104268837Y-92180483D01*
X104278955Y-92397344D01*
X104308414Y-92665474D01*
X104353293Y-92936810D01*
X104440457Y-93350319D01*
X104497407Y-93586419D01*
X104589417Y-93855590D01*
X104698124Y-94158255D01*
X104757652Y-94310826D01*
X104879609Y-94555067D01*
X104976911Y-94757871D01*
X105010223Y-94836192D01*
X105083133Y-94954513D01*
X105135218Y-95042261D01*
X105195195Y-95159578D01*
X105279377Y-95318650D01*
X105397252Y-95484017D01*
X105515576Y-95668625D01*
X105560347Y-95733906D01*
X105620779Y-95803819D01*
X105788549Y-95989876D01*
X105887443Y-96099932D01*
X105979449Y-96189179D01*
X106068425Y-96261050D01*
X106158227Y-96318979D01*
X106346386Y-96430210D01*
X106456793Y-96507470D01*
X106511232Y-96542651D01*
X106590957Y-96583488D01*
X106796107Y-96671885D01*
X106796107Y-96894865D01*
X106769944Y-96888778D01*
X106573600Y-96840126D01*
X106420061Y-96792107D01*
X106265220Y-96723170D01*
X106168315Y-96675637D01*
X106114546Y-96639963D01*
X106060950Y-96587678D01*
X106003907Y-96535461D01*
X105940242Y-96505259D01*
X105886382Y-96485036D01*
X105851313Y-96462124D01*
X105827758Y-96444796D01*
X105801569Y-96437997D01*
X105734956Y-96399161D01*
X105602987Y-96304066D01*
X105450501Y-96186268D01*
X105322338Y-96079326D01*
X105274188Y-96042347D01*
X105234205Y-96021184D01*
X105200115Y-95993524D01*
X105166148Y-95940927D01*
X105116361Y-95859336D01*
X105044222Y-95761976D01*
X104918023Y-95594679D01*
X104877466Y-95541186D01*
X104833492Y-95495016D01*
X104776108Y-95433721D01*
X104711508Y-95345919D01*
X104642571Y-95235879D01*
X104572173Y-95107870D01*
X104507733Y-94990011D01*
X104471144Y-94935281D01*
X104445992Y-94902408D01*
X104404626Y-94829526D01*
X104296187Y-94612157D01*
X104191703Y-94380021D01*
X104137046Y-94229964D01*
X104124944Y-94186385D01*
X104111205Y-94163175D01*
X104100388Y-94146122D01*
X104095303Y-94117332D01*
X104084670Y-94075709D01*
X104060517Y-94027807D01*
X104035725Y-93969325D01*
X104024761Y-93901458D01*
X104017746Y-93835551D01*
X104003641Y-93780973D01*
X103959407Y-93633644D01*
X103930913Y-93498931D01*
X103887704Y-93186178D01*
X103860142Y-92938939D01*
X103845467Y-92681134D01*
X103844996Y-92454921D01*
X103860048Y-92302458D01*
X103893269Y-92142442D01*
X103933124Y-91997209D01*
X103985130Y-91843180D01*
X104047324Y-91662613D01*
X104077704Y-91600555D01*
X104110037Y-91551647D01*
X104211907Y-91411577D01*
X104237506Y-91367832D01*
X104245828Y-91342208D01*
X104250397Y-91325766D01*
X104262202Y-91318678D01*
X104274001Y-91311398D01*
X104278552Y-91294502D01*
X104295132Y-91259865D01*
X104335825Y-91209921D01*
X104379645Y-91151367D01*
X104392377Y-91097910D01*
X104387682Y-91060220D01*
X104378215Y-91041432D01*
X104290417Y-90949743D01*
X104216508Y-90852965D01*
X104201034Y-90808553D01*
X104166652Y-90737897D01*
X104129848Y-90672501D01*
X104107105Y-90643874D01*
X104096590Y-90637653D01*
X104091899Y-90622183D01*
X104084898Y-90606432D01*
X104066550Y-90588140D01*
X104007513Y-90550101D01*
X103938186Y-90520411D01*
X103881964Y-90511413D01*
X103842604Y-90511348D01*
X103841611Y-90501418D01*
X103850060Y-90482118D01*
X103872831Y-90446217D01*
X103900768Y-90421072D01*
X103936014Y-90405888D01*
X103980707Y-90399874D01*
X103980707Y-90399871D01*
X103980707Y-90399871D01*
G37*
X103980707Y-90399871D02*
X104058678Y-90404741D01*
X104119890Y-90415627D01*
X104174667Y-90433764D01*
X104310481Y-90511013D01*
X104425164Y-90578493D01*
X104501681Y-90611570D01*
X104545360Y-90628100D01*
X104581093Y-90655798D01*
X104680308Y-90741422D01*
X104721307Y-90768224D01*
X104759701Y-90783215D01*
X104808801Y-90789645D01*
X104881920Y-90790769D01*
X104992373Y-90783974D01*
X105053068Y-90763338D01*
X105133770Y-90738357D01*
X105292695Y-90716674D01*
X105449417Y-90697080D01*
X105544051Y-90677937D01*
X105755079Y-90635274D01*
X105877732Y-90613255D01*
X105947099Y-90593779D01*
X106074778Y-90578202D01*
X106345129Y-90565727D01*
X106596304Y-90562122D01*
X106796554Y-90571554D01*
X107003333Y-90599268D01*
X107274096Y-90650506D01*
X107623673Y-90719805D01*
X107759282Y-90754301D01*
X107905740Y-90802571D01*
X108133760Y-90884973D01*
X108185121Y-90898069D01*
X108219884Y-90900246D01*
X108251291Y-90907032D01*
X108268411Y-90927529D01*
X108313039Y-90965773D01*
X108408625Y-91017128D01*
X108550728Y-91087195D01*
X108689822Y-91164055D01*
X108811777Y-91239465D01*
X108902465Y-91305183D01*
X109136478Y-91496980D01*
X109270302Y-91611953D01*
X109402249Y-91735689D01*
X109646355Y-91993246D01*
X109751435Y-92118966D01*
X109840482Y-92237247D01*
X109909954Y-92344038D01*
X109956314Y-92435289D01*
X110052101Y-92633571D01*
X110129208Y-92804711D01*
X110168263Y-92959568D01*
X110204663Y-93108478D01*
X110232717Y-93246952D01*
X110251823Y-93325693D01*
X110271916Y-93397679D01*
X110287104Y-93500439D01*
X110293759Y-93600308D01*
X110288250Y-93663616D01*
X110271255Y-93762062D01*
X110264236Y-93805480D01*
X110249985Y-93827634D01*
X110236477Y-93840130D01*
X110231226Y-93860308D01*
X110208788Y-93931570D01*
X110164783Y-94032873D01*
X110145613Y-94072306D01*
X110128880Y-94088928D01*
X110098904Y-94107599D01*
X110047901Y-94151991D01*
X109978240Y-94209633D01*
X109908412Y-94246017D01*
X109827376Y-94265204D01*
X109724091Y-94271258D01*
X109616525Y-94266817D01*
X109494607Y-94253163D01*
X109235238Y-94204614D01*
X109001038Y-94138413D01*
X108910579Y-94102693D01*
X108847056Y-94067361D01*
X108804544Y-94046614D01*
X108760214Y-94038662D01*
X108715902Y-94027898D01*
X108673671Y-93998434D01*
X108639952Y-93969325D01*
X108616299Y-93957461D01*
X108585065Y-93942129D01*
X108525562Y-93899598D01*
X108354706Y-93758062D01*
X108152846Y-93589174D01*
X108031143Y-93479411D01*
X107898707Y-93343931D01*
X107760834Y-93182278D01*
X107663378Y-93045426D01*
X107609188Y-92937963D01*
X107599208Y-92896686D01*
X107601112Y-92864477D01*
X107610642Y-92842028D01*
X107623909Y-92830510D01*
X107641977Y-92830667D01*
X107665910Y-92843244D01*
X107735630Y-92908636D01*
X107841584Y-93032644D01*
X107989367Y-93202923D01*
X108109214Y-93324152D01*
X108226593Y-93428412D01*
X108502219Y-93687256D01*
X108633983Y-93799481D01*
X108712532Y-93856879D01*
X108850187Y-93933185D01*
X109107903Y-94059783D01*
X109290961Y-94130351D01*
X109371539Y-94150852D01*
X109458424Y-94165607D01*
X109684648Y-94192907D01*
X109763081Y-94196712D01*
X109825112Y-94193025D01*
X109875777Y-94181151D01*
X109920115Y-94160394D01*
X110009960Y-94089450D01*
X110081837Y-94011041D01*
X110143323Y-93917995D01*
X110191978Y-93814666D01*
X110225362Y-93705410D01*
X110232617Y-93621118D01*
X110229088Y-93504159D01*
X110216595Y-93381778D01*
X110196961Y-93281216D01*
X110149652Y-93112751D01*
X110129582Y-93027642D01*
X110121226Y-92964984D01*
X110116762Y-92932148D01*
X110106020Y-92918719D01*
X110095106Y-92910265D01*
X110090217Y-92889424D01*
X110087207Y-92855876D01*
X110077026Y-92820068D01*
X110019751Y-92700311D01*
X109952787Y-92546232D01*
X109938678Y-92507901D01*
X109919441Y-92479219D01*
X109895813Y-92440650D01*
X109871138Y-92378563D01*
X109848264Y-92323929D01*
X109828973Y-92303275D01*
X109814824Y-92296233D01*
X109804324Y-92274328D01*
X109787861Y-92242726D01*
X109759350Y-92212384D01*
X109737548Y-92191317D01*
X109737236Y-92182020D01*
X109730593Y-92166917D01*
X109693554Y-92131928D01*
X109655950Y-92097029D01*
X109647959Y-92082159D01*
X109628424Y-92053801D01*
X109563056Y-91986472D01*
X109381196Y-91804592D01*
X109354748Y-91769135D01*
X109354139Y-91751366D01*
X109355212Y-91738359D01*
X109342511Y-91733278D01*
X109307183Y-91717525D01*
X109243302Y-91673192D01*
X109060768Y-91521951D01*
X108973206Y-91451634D01*
X108884575Y-91391155D01*
X108789608Y-91325508D01*
X108702427Y-91261901D01*
X108609218Y-91208850D01*
X108551198Y-91176176D01*
X108409534Y-91097575D01*
X108340295Y-91064593D01*
X108310875Y-91055318D01*
X108186465Y-91000530D01*
X108080230Y-90954157D01*
X107999738Y-90929193D01*
X107949541Y-90915154D01*
X107916175Y-90895028D01*
X107887750Y-90878093D01*
X107849410Y-90871722D01*
X107811635Y-90867091D01*
X107784559Y-90854353D01*
X107751622Y-90837803D01*
X107699780Y-90823990D01*
X107498144Y-90787936D01*
X107266343Y-90741348D01*
X107095915Y-90711357D01*
X106935427Y-90678434D01*
X106859408Y-90667021D01*
X106737813Y-90660853D01*
X106421649Y-90662373D01*
X106114442Y-90679236D01*
X106004042Y-90692245D01*
X105943695Y-90707680D01*
X105892983Y-90726894D01*
X105847785Y-90730912D01*
X105742453Y-90747949D01*
X105550993Y-90794501D01*
X105361745Y-90847473D01*
X105263053Y-90883773D01*
X105190150Y-90912670D01*
X105127395Y-90933457D01*
X105064705Y-90963089D01*
X105014708Y-90994700D01*
X104990030Y-91021427D01*
X104988012Y-91048710D01*
X104997460Y-91081374D01*
X105042522Y-91152886D01*
X105108752Y-91216040D01*
X105144662Y-91238258D01*
X105179690Y-91250917D01*
X105223460Y-91268277D01*
X105273232Y-91299702D01*
X105318343Y-91337420D01*
X105348130Y-91373662D01*
X105355628Y-91420053D01*
X105351186Y-91494644D01*
X105345415Y-91556293D01*
X105357566Y-91613211D01*
X105401486Y-91701196D01*
X105491027Y-91856048D01*
X105572203Y-91998225D01*
X105603933Y-92048317D01*
X105698676Y-92181673D01*
X105817148Y-92348348D01*
X105874819Y-92441501D01*
X105961088Y-92575055D01*
X106052402Y-92712362D01*
X106111763Y-92796221D01*
X106172639Y-92882864D01*
X106300528Y-93082736D01*
X106419472Y-93266283D01*
X106494784Y-93385078D01*
X106582992Y-93518210D01*
X106656839Y-93633204D01*
X106725592Y-93742234D01*
X106768179Y-93800526D01*
X106803338Y-93873080D01*
X106832985Y-93926887D01*
X106873035Y-93964642D01*
X106958691Y-94020895D01*
X107015536Y-94077819D01*
X107051807Y-94146535D01*
X107075740Y-94238162D01*
X107089085Y-94282763D01*
X107104090Y-94301075D01*
X107115772Y-94310749D01*
X107121135Y-94334594D01*
X107129059Y-94358354D01*
X107146902Y-94367864D01*
X107162542Y-94374366D01*
X107162730Y-94392786D01*
X107173153Y-94425041D01*
X107207438Y-94493594D01*
X107321389Y-94695149D01*
X107452163Y-94908564D01*
X107547342Y-95044954D01*
X107626058Y-95161737D01*
X107721448Y-95295067D01*
X107766111Y-95352326D01*
X107809158Y-95420124D01*
X107881389Y-95528583D01*
X107941072Y-95611920D01*
X108022298Y-95728628D01*
X108173047Y-95935482D01*
X108287619Y-96093784D01*
X108356693Y-96178315D01*
X108461203Y-96294691D01*
X108727639Y-96565933D01*
X108814229Y-96644364D01*
X108893717Y-96695304D01*
X108973367Y-96722315D01*
X109060444Y-96728957D01*
X109153075Y-96719539D01*
X109224908Y-96700705D01*
X109277121Y-96684274D01*
X109291671Y-96691693D01*
X109306731Y-96710520D01*
X109323962Y-96730145D01*
X109350526Y-96737704D01*
X109499024Y-96719912D01*
X109629318Y-96695124D01*
X109758025Y-96663222D01*
X109862658Y-96630438D01*
X109920734Y-96603005D01*
X109943247Y-96593125D01*
X109971322Y-96591029D01*
X110032249Y-96588664D01*
X110117883Y-96576773D01*
X110197704Y-96560542D01*
X110241189Y-96545161D01*
X110293522Y-96520956D01*
X110385397Y-96500703D01*
X110507247Y-96485975D01*
X110649505Y-96478346D01*
X110829800Y-96479945D01*
X110872914Y-96489343D01*
X110904737Y-96506697D01*
X110947329Y-96545053D01*
X110978232Y-96593982D01*
X110999328Y-96657561D01*
X111012500Y-96739865D01*
X111011762Y-96840363D01*
X110994665Y-96951148D01*
X110966546Y-97047748D01*
X110950020Y-97083081D01*
X110932740Y-97105692D01*
X110915202Y-97128193D01*
X110908266Y-97151510D01*
X110901479Y-97171354D01*
X110884312Y-97185526D01*
X110864568Y-97201017D01*
X110851564Y-97224015D01*
X110805147Y-97266560D01*
X110705088Y-97329069D01*
X110541768Y-97420209D01*
X110491448Y-97442908D01*
X110425175Y-97461678D01*
X110231002Y-97491148D01*
X110231002Y-97403437D01*
X110334016Y-97391647D01*
X110426015Y-97370202D01*
X110517692Y-97336726D01*
X110619739Y-97288841D01*
X110728070Y-97227936D01*
X110809746Y-97151386D01*
X110878053Y-97072020D01*
X110919293Y-97001457D01*
X110938850Y-96926851D01*
X110942107Y-96835353D01*
X110932349Y-96736004D01*
X110909664Y-96662306D01*
X110873918Y-96613989D01*
X110824977Y-96590780D01*
X110692802Y-96578775D01*
X110541021Y-96583354D01*
X110406521Y-96601579D01*
X110357280Y-96614890D01*
X110326191Y-96630512D01*
X110252590Y-96652436D01*
X110099633Y-96685623D01*
X109873971Y-96737429D01*
X109822388Y-96754674D01*
X109626790Y-96799821D01*
X109293786Y-96864399D01*
X109168083Y-96886702D01*
X109108499Y-96903658D01*
X109110668Y-96914890D01*
X109126706Y-96936223D01*
X109193269Y-97002650D01*
X109414494Y-97184756D01*
X109541042Y-97265229D01*
X109685380Y-97338660D01*
X109777059Y-97376836D01*
X109846275Y-97397480D01*
X109920325Y-97406187D01*
X110026509Y-97408556D01*
X110231002Y-97403437D01*
X110231002Y-97491148D01*
X110169803Y-97497832D01*
X110009957Y-97515209D01*
X109937854Y-97528345D01*
X109932179Y-97535306D01*
X109919786Y-97536643D01*
X109797963Y-97515250D01*
X109690212Y-97491692D01*
X109610116Y-97467692D01*
X109493434Y-97420781D01*
X109403785Y-97398989D01*
X109380115Y-97394617D01*
X109370017Y-97382888D01*
X109365121Y-97371014D01*
X109353941Y-97366315D01*
X109327765Y-97353287D01*
X109286804Y-97321366D01*
X109163934Y-97226897D01*
X109022130Y-97124427D01*
X108964148Y-97086930D01*
X108923635Y-97071700D01*
X108878992Y-97060330D01*
X108811076Y-97032119D01*
X108744138Y-97007145D01*
X108677616Y-96995479D01*
X108613992Y-96997307D01*
X108555745Y-97012813D01*
X108457773Y-97040443D01*
X108305583Y-97068719D01*
X108203178Y-97079054D01*
X108093710Y-97078235D01*
X107988709Y-97077289D01*
X107897018Y-97087305D01*
X107819386Y-97096348D01*
X107752729Y-97084424D01*
X107580041Y-97051551D01*
X107367348Y-97028120D01*
X107262588Y-97009955D01*
X107154083Y-96982053D01*
X106966238Y-96934520D01*
X106796107Y-96894864D01*
X106796107Y-96671884D01*
X107065896Y-96768578D01*
X107174647Y-96798412D01*
X107248105Y-96808693D01*
X107314935Y-96821640D01*
X107425689Y-96854040D01*
X107623954Y-96906868D01*
X107825607Y-96942504D01*
X107990250Y-96955575D01*
X108046068Y-96951969D01*
X108077484Y-96940707D01*
X108102614Y-96929446D01*
X108131727Y-96935514D01*
X108178263Y-96951181D01*
X108232273Y-96956786D01*
X108294619Y-96952339D01*
X108366161Y-96937851D01*
X108519987Y-96895606D01*
X108563283Y-96878064D01*
X108586236Y-96859926D01*
X108590398Y-96838954D01*
X108577321Y-96812911D01*
X108505653Y-96736662D01*
X108142014Y-96375607D01*
X108058936Y-96286089D01*
X108010669Y-96225205D01*
X107862704Y-96049037D01*
X107605912Y-95776158D01*
X107493845Y-95640174D01*
X107380447Y-95490717D01*
X107314597Y-95418685D01*
X107263089Y-95352119D01*
X107124117Y-95165939D01*
X107001546Y-94999362D01*
X106928967Y-94898606D01*
X106856836Y-94788380D01*
X106753221Y-94606103D01*
X106615576Y-94366463D01*
X106565426Y-94295567D01*
X106519905Y-94245196D01*
X106447549Y-94143695D01*
X106400598Y-94078488D01*
X106356807Y-94033248D01*
X106327255Y-94003766D01*
X106314591Y-93976447D01*
X106297048Y-93924085D01*
X106253014Y-93841071D01*
X106193037Y-93745513D01*
X106127665Y-93655519D01*
X106057642Y-93557975D01*
X106000745Y-93463598D01*
X105915777Y-93316665D01*
X105851835Y-93229636D01*
X105794959Y-93136856D01*
X105752967Y-93068502D01*
X105715348Y-93022732D01*
X105687608Y-92988119D01*
X105669381Y-92946575D01*
X105646887Y-92899712D01*
X105608878Y-92852305D01*
X105570288Y-92802453D01*
X105546387Y-92749710D01*
X105533089Y-92711095D01*
X105519999Y-92695220D01*
X105500933Y-92677019D01*
X105473261Y-92632778D01*
X105383982Y-92502844D01*
X105335135Y-92443776D01*
X105304026Y-92415066D01*
X105294576Y-92405013D01*
X105290335Y-92388331D01*
X105279762Y-92364466D01*
X105255101Y-92337120D01*
X105230451Y-92310032D01*
X105219893Y-92286805D01*
X105204369Y-92253341D01*
X105167763Y-92201652D01*
X105083406Y-92095405D01*
X105026084Y-91995047D01*
X104990273Y-91929419D01*
X104934624Y-91843695D01*
X104879508Y-91767628D01*
X104845294Y-91730970D01*
X104832001Y-91708458D01*
X104792072Y-91638985D01*
X104716958Y-91521010D01*
X104676582Y-91459920D01*
X104634088Y-91421579D01*
X104589708Y-91406131D01*
X104543673Y-91413719D01*
X104494545Y-91438960D01*
X104452211Y-91472307D01*
X104416116Y-91514931D01*
X104385706Y-91568006D01*
X104360427Y-91632704D01*
X104339725Y-91710196D01*
X104309835Y-91908255D01*
X104296427Y-92005056D01*
X104281981Y-92062955D01*
X104272256Y-92106298D01*
X104268837Y-92180483D01*
X104278955Y-92397344D01*
X104308414Y-92665474D01*
X104353293Y-92936810D01*
X104440457Y-93350319D01*
X104497407Y-93586419D01*
X104589417Y-93855590D01*
X104698124Y-94158255D01*
X104757652Y-94310826D01*
X104879609Y-94555067D01*
X104976911Y-94757871D01*
X105010223Y-94836192D01*
X105083133Y-94954513D01*
X105135218Y-95042261D01*
X105195195Y-95159578D01*
X105279377Y-95318650D01*
X105397252Y-95484017D01*
X105515576Y-95668625D01*
X105560347Y-95733906D01*
X105620779Y-95803819D01*
X105788549Y-95989876D01*
X105887443Y-96099932D01*
X105979449Y-96189179D01*
X106068425Y-96261050D01*
X106158227Y-96318979D01*
X106346386Y-96430210D01*
X106456793Y-96507470D01*
X106511232Y-96542651D01*
X106590957Y-96583488D01*
X106796107Y-96671885D01*
X106796107Y-96894865D01*
X106769944Y-96888778D01*
X106573600Y-96840126D01*
X106420061Y-96792107D01*
X106265220Y-96723170D01*
X106168315Y-96675637D01*
X106114546Y-96639963D01*
X106060950Y-96587678D01*
X106003907Y-96535461D01*
X105940242Y-96505259D01*
X105886382Y-96485036D01*
X105851313Y-96462124D01*
X105827758Y-96444796D01*
X105801569Y-96437997D01*
X105734956Y-96399161D01*
X105602987Y-96304066D01*
X105450501Y-96186268D01*
X105322338Y-96079326D01*
X105274188Y-96042347D01*
X105234205Y-96021184D01*
X105200115Y-95993524D01*
X105166148Y-95940927D01*
X105116361Y-95859336D01*
X105044222Y-95761976D01*
X104918023Y-95594679D01*
X104877466Y-95541186D01*
X104833492Y-95495016D01*
X104776108Y-95433721D01*
X104711508Y-95345919D01*
X104642571Y-95235879D01*
X104572173Y-95107870D01*
X104507733Y-94990011D01*
X104471144Y-94935281D01*
X104445992Y-94902408D01*
X104404626Y-94829526D01*
X104296187Y-94612157D01*
X104191703Y-94380021D01*
X104137046Y-94229964D01*
X104124944Y-94186385D01*
X104111205Y-94163175D01*
X104100388Y-94146122D01*
X104095303Y-94117332D01*
X104084670Y-94075709D01*
X104060517Y-94027807D01*
X104035725Y-93969325D01*
X104024761Y-93901458D01*
X104017746Y-93835551D01*
X104003641Y-93780973D01*
X103959407Y-93633644D01*
X103930913Y-93498931D01*
X103887704Y-93186178D01*
X103860142Y-92938939D01*
X103845467Y-92681134D01*
X103844996Y-92454921D01*
X103860048Y-92302458D01*
X103893269Y-92142442D01*
X103933124Y-91997209D01*
X103985130Y-91843180D01*
X104047324Y-91662613D01*
X104077704Y-91600555D01*
X104110037Y-91551647D01*
X104211907Y-91411577D01*
X104237506Y-91367832D01*
X104245828Y-91342208D01*
X104250397Y-91325766D01*
X104262202Y-91318678D01*
X104274001Y-91311398D01*
X104278552Y-91294502D01*
X104295132Y-91259865D01*
X104335825Y-91209921D01*
X104379645Y-91151367D01*
X104392377Y-91097910D01*
X104387682Y-91060220D01*
X104378215Y-91041432D01*
X104290417Y-90949743D01*
X104216508Y-90852965D01*
X104201034Y-90808553D01*
X104166652Y-90737897D01*
X104129848Y-90672501D01*
X104107105Y-90643874D01*
X104096590Y-90637653D01*
X104091899Y-90622183D01*
X104084898Y-90606432D01*
X104066550Y-90588140D01*
X104007513Y-90550101D01*
X103938186Y-90520411D01*
X103881964Y-90511413D01*
X103842604Y-90511348D01*
X103841611Y-90501418D01*
X103850060Y-90482118D01*
X103872831Y-90446217D01*
X103900768Y-90421072D01*
X103936014Y-90405888D01*
X103980707Y-90399874D01*
X103980707Y-90399871D01*
G36*
X93774743Y-88308819D02*
X93816471Y-88310981D01*
X93855835Y-88322121D01*
X93961769Y-88385374D01*
X94052604Y-88452884D01*
X94111336Y-88507453D01*
X94137153Y-88548168D01*
X94137463Y-88563044D01*
X94129240Y-88574114D01*
X94118720Y-88585029D01*
X94140495Y-88580575D01*
X94160097Y-88579075D01*
X94180313Y-88588499D01*
X94235064Y-88649178D01*
X94284889Y-88724841D01*
X94320440Y-88795578D01*
X94376545Y-88904459D01*
X94458516Y-89046611D01*
X94521579Y-89155467D01*
X94546973Y-89214231D01*
X94565237Y-89262059D01*
X94590083Y-89306290D01*
X94650520Y-89424763D01*
X94727942Y-89617038D01*
X94802596Y-89830429D01*
X94854732Y-90012253D01*
X94880822Y-90087938D01*
X94915707Y-90176146D01*
X94935072Y-90226434D01*
X94950146Y-90246861D01*
X94971361Y-90237899D01*
X94994713Y-90215410D01*
X95039472Y-90139844D01*
X95076099Y-90074981D01*
X95125606Y-90008821D01*
X95172796Y-89959516D01*
X95190773Y-89946855D01*
X95202470Y-89945215D01*
X95213155Y-89945731D01*
X95217304Y-89934381D01*
X95227832Y-89907115D01*
X95253854Y-89869380D01*
X95473080Y-89634526D01*
X95590921Y-89516831D01*
X95648430Y-89466208D01*
X95685794Y-89440308D01*
X95754826Y-89378571D01*
X95842794Y-89304747D01*
X95925676Y-89249788D01*
X96091905Y-89150249D01*
X96159324Y-89114624D01*
X96238111Y-89089253D01*
X96325120Y-89074894D01*
X96417206Y-89072303D01*
X96509038Y-89069290D01*
X96559855Y-89053891D01*
X96591537Y-89042172D01*
X96663668Y-89029447D01*
X96949833Y-88998034D01*
X97067524Y-88992215D01*
X97164557Y-89000520D01*
X97243254Y-89025179D01*
X97305934Y-89068420D01*
X97354916Y-89132472D01*
X97392521Y-89219562D01*
X97421069Y-89331920D01*
X97442879Y-89471774D01*
X97455044Y-89646644D01*
X97455380Y-89846477D01*
X97445006Y-90028747D01*
X97425038Y-90150926D01*
X97383966Y-90355593D01*
X97354248Y-90526021D01*
X97322419Y-90661613D01*
X97299895Y-90737361D01*
X97272625Y-90789079D01*
X97251168Y-90820749D01*
X97242610Y-90848291D01*
X97227821Y-90893827D01*
X97186769Y-90969466D01*
X97053819Y-91164274D01*
X96982531Y-91263946D01*
X96938804Y-91339813D01*
X96922780Y-91391576D01*
X96925201Y-91408325D01*
X96934602Y-91418934D01*
X96983025Y-91424620D01*
X97068896Y-91422801D01*
X97155032Y-91415458D01*
X97204245Y-91404572D01*
X97248358Y-91410214D01*
X97338595Y-91434116D01*
X97451786Y-91462464D01*
X97551089Y-91478791D01*
X97664762Y-91495254D01*
X97787651Y-91524283D01*
X97908520Y-91562769D01*
X98016132Y-91607600D01*
X98200388Y-91717149D01*
X98370429Y-91834580D01*
X98715267Y-92133300D01*
X98821756Y-92237132D01*
X98795320Y-92277507D01*
X98734512Y-92341849D01*
X98668514Y-92401602D01*
X98626506Y-92428208D01*
X98592305Y-92441527D01*
X98546249Y-92472659D01*
X98500620Y-92503767D01*
X98467459Y-92517062D01*
X98437896Y-92527772D01*
X98400917Y-92552668D01*
X98364136Y-92577568D01*
X98335047Y-92588274D01*
X98295689Y-92603928D01*
X97976451Y-92792867D01*
X97861358Y-92844798D01*
X97746215Y-92890169D01*
X97456087Y-93009747D01*
X97317703Y-93058434D01*
X97226757Y-93083705D01*
X97167320Y-93097796D01*
X97137406Y-93112553D01*
X97114612Y-93123738D01*
X97072306Y-93129225D01*
X97011066Y-93140342D01*
X96942727Y-93165080D01*
X96896417Y-93182125D01*
X96835019Y-93195575D01*
X96640683Y-93216141D01*
X96319134Y-93248890D01*
X96319108Y-93248890D01*
X96245965Y-93257854D01*
X96200562Y-93256766D01*
X96090190Y-93253958D01*
X95982097Y-93251081D01*
X95840495Y-93236767D01*
X95713307Y-93217078D01*
X95648454Y-93198077D01*
X95628395Y-93187336D01*
X95603356Y-93183292D01*
X95568724Y-93176717D01*
X95525584Y-93159911D01*
X95480768Y-93143114D01*
X95442122Y-93136580D01*
X95385913Y-93123063D01*
X95311373Y-93089919D01*
X95245108Y-93050805D01*
X95213725Y-93019375D01*
X95220329Y-92990165D01*
X95244798Y-92957483D01*
X95278038Y-92930701D01*
X95310953Y-92919191D01*
X95339263Y-92930240D01*
X95366934Y-92957803D01*
X95407865Y-92992845D01*
X95468062Y-93021860D01*
X95637148Y-93078486D01*
X95762497Y-93109263D01*
X95924138Y-93128086D01*
X96131130Y-93135601D01*
X96392532Y-93132455D01*
X96715669Y-93116915D01*
X96800145Y-93101635D01*
X96882969Y-93075579D01*
X96992852Y-93041984D01*
X97068379Y-93026904D01*
X97116720Y-93018142D01*
X97161234Y-92999721D01*
X97202516Y-92981369D01*
X97243106Y-92972786D01*
X97299610Y-92962382D01*
X97378206Y-92936573D01*
X97570271Y-92850487D01*
X97661871Y-92808424D01*
X97721467Y-92790332D01*
X97767066Y-92776840D01*
X97825030Y-92745830D01*
X97881270Y-92714730D01*
X97922705Y-92701031D01*
X97967460Y-92685820D01*
X98031710Y-92651088D01*
X98312758Y-92486499D01*
X98389205Y-92435888D01*
X98466880Y-92366848D01*
X98526954Y-92298199D01*
X98544506Y-92269902D01*
X98550597Y-92248760D01*
X98537306Y-92220802D01*
X98502014Y-92176411D01*
X98387459Y-92059186D01*
X98250996Y-91938793D01*
X98136690Y-91856942D01*
X98062248Y-91801756D01*
X97965964Y-91736855D01*
X97734366Y-91623810D01*
X97642303Y-91587697D01*
X97515433Y-91557110D01*
X97436895Y-91537233D01*
X97397805Y-91533157D01*
X97294689Y-91518919D01*
X97211824Y-91506587D01*
X97141952Y-91507017D01*
X96933459Y-91527964D01*
X96798150Y-91546541D01*
X96755567Y-91564299D01*
X96711845Y-91592940D01*
X96590143Y-91694615D01*
X96434071Y-91845728D01*
X96392275Y-91880252D01*
X96370269Y-91891331D01*
X96359065Y-91895679D01*
X96359609Y-91905444D01*
X96353004Y-91923703D01*
X96321504Y-91947338D01*
X96274457Y-91970748D01*
X96221210Y-91988335D01*
X96165127Y-92014532D01*
X96110689Y-92058156D01*
X96046014Y-92108054D01*
X95946394Y-92169875D01*
X95848055Y-92222649D01*
X95787226Y-92245406D01*
X95728090Y-92282478D01*
X95689573Y-92305811D01*
X95659164Y-92310406D01*
X95638947Y-92309069D01*
X95624924Y-92318134D01*
X95603775Y-92330121D01*
X95566433Y-92335825D01*
X95528840Y-92341969D01*
X95507073Y-92355007D01*
X95488879Y-92363899D01*
X95451032Y-92369467D01*
X95342384Y-92371450D01*
X95233139Y-92362597D01*
X95194547Y-92354619D01*
X95175312Y-92344546D01*
X95161493Y-92309325D01*
X95159372Y-92264907D01*
X95168699Y-92214572D01*
X95189226Y-92161595D01*
X95238789Y-92082904D01*
X95310725Y-91992486D01*
X95386155Y-91912211D01*
X95446197Y-91863949D01*
X95544418Y-91800116D01*
X95599332Y-91766645D01*
X95661226Y-91739092D01*
X95778604Y-91683185D01*
X95820910Y-91659989D01*
X95851730Y-91649964D01*
X95977656Y-91597064D01*
X96067153Y-91553076D01*
X96129281Y-91529249D01*
X96188939Y-91518520D01*
X96271029Y-91513826D01*
X96371789Y-91515543D01*
X96392072Y-91521871D01*
X96392301Y-91531833D01*
X96332622Y-91562624D01*
X96192809Y-91607848D01*
X96057235Y-91654534D01*
X95932335Y-91708181D01*
X95714225Y-91805980D01*
X95588498Y-91865912D01*
X95505831Y-91920601D01*
X95457603Y-91954314D01*
X95410324Y-91996941D01*
X95327120Y-92096645D01*
X95273233Y-92195119D01*
X95262602Y-92236209D01*
X95265681Y-92267768D01*
X95275517Y-92277622D01*
X95294558Y-92284629D01*
X95353340Y-92290121D01*
X95428200Y-92284282D01*
X95505309Y-92267148D01*
X95598039Y-92243667D01*
X95698820Y-92203017D01*
X95799377Y-92153944D01*
X95849618Y-92127134D01*
X95924955Y-92087055D01*
X96080475Y-91987840D01*
X96160070Y-91934823D01*
X96203668Y-91912502D01*
X96251441Y-91879072D01*
X96334589Y-91800747D01*
X96421625Y-91708995D01*
X96481063Y-91635281D01*
X96521151Y-91581854D01*
X96561395Y-91539991D01*
X96591263Y-91508194D01*
X96587066Y-91497675D01*
X96571110Y-91485128D01*
X96555543Y-91473031D01*
X96552117Y-91464293D01*
X96586043Y-91445248D01*
X96651913Y-91426091D01*
X96688564Y-91397832D01*
X96744431Y-91326826D01*
X96806081Y-91232023D01*
X96860084Y-91132371D01*
X96952867Y-90929218D01*
X96984693Y-90815319D01*
X97022312Y-90619224D01*
X97043756Y-90482961D01*
X97060528Y-90338300D01*
X97088978Y-90117010D01*
X97115739Y-89923399D01*
X97136088Y-89634425D01*
X97144114Y-89473248D01*
X97155792Y-89363043D01*
X97162703Y-89284535D01*
X97156083Y-89205744D01*
X97137981Y-89138751D01*
X97110446Y-89095636D01*
X97088720Y-89081858D01*
X97059809Y-89074263D01*
X96959275Y-89074689D01*
X96732916Y-89088157D01*
X96658174Y-89094021D01*
X96631166Y-89100332D01*
X96630043Y-89108301D01*
X96615866Y-89119312D01*
X96560018Y-89145815D01*
X96486962Y-89170560D01*
X96420038Y-89184266D01*
X96327022Y-89219111D01*
X96235621Y-89272797D01*
X96147712Y-89319162D01*
X96103311Y-89340126D01*
X96085047Y-89356756D01*
X96079537Y-89366480D01*
X96065815Y-89370820D01*
X95955816Y-89416936D01*
X95883445Y-89448328D01*
X95836474Y-89459748D01*
X95804930Y-89461724D01*
X95776859Y-89472100D01*
X95756854Y-89488332D01*
X95749508Y-89507878D01*
X95757396Y-89524374D01*
X95775523Y-89530861D01*
X95793563Y-89533353D01*
X95801216Y-89540254D01*
X95772510Y-89588830D01*
X95735544Y-89627393D01*
X95675478Y-89662691D01*
X95605120Y-89717341D01*
X95575378Y-89739529D01*
X95573842Y-89726670D01*
X95591156Y-89694906D01*
X95653175Y-89619616D01*
X95697671Y-89566462D01*
X95694382Y-89553984D01*
X95674221Y-89550391D01*
X95656444Y-89558309D01*
X95649423Y-89576456D01*
X95646133Y-89594628D01*
X95637348Y-89602596D01*
X95601571Y-89626999D01*
X95544179Y-89681045D01*
X95490976Y-89738679D01*
X95467764Y-89773843D01*
X95475584Y-89787286D01*
X95493680Y-89792504D01*
X95511810Y-89798359D01*
X95519670Y-89813351D01*
X95506666Y-89852997D01*
X95474150Y-89905061D01*
X95433987Y-89953188D01*
X95398043Y-89981020D01*
X95366372Y-90006650D01*
X95336882Y-90050987D01*
X95315373Y-90103058D01*
X95307648Y-90151895D01*
X95300210Y-90174649D01*
X95278533Y-90209111D01*
X95201103Y-90301079D01*
X95125342Y-90385300D01*
X95094036Y-90428347D01*
X95052615Y-90492428D01*
X95030861Y-90521821D01*
X95020093Y-90548486D01*
X95018548Y-90580841D01*
X95024463Y-90627299D01*
X95044391Y-90796460D01*
X95068741Y-91092789D01*
X95078211Y-91289858D01*
X95060641Y-91440826D01*
X95031868Y-91605290D01*
X95001887Y-91667398D01*
X94937783Y-91753119D01*
X94867182Y-91829256D01*
X94838078Y-91853355D01*
X94817709Y-91862609D01*
X94774474Y-91889345D01*
X94744472Y-91905972D01*
X94710368Y-91908104D01*
X94710368Y-91765853D01*
X94729757Y-91773700D01*
X94743589Y-91766797D01*
X94756604Y-91720441D01*
X94767271Y-91637788D01*
X94780203Y-91412726D01*
X94779668Y-91189880D01*
X94773500Y-91109997D01*
X94762945Y-91067519D01*
X94747473Y-91052555D01*
X94731519Y-91052940D01*
X94716071Y-91068180D01*
X94702119Y-91097783D01*
X94663158Y-91170884D01*
X94642066Y-91234340D01*
X94625161Y-91347165D01*
X94616806Y-91468854D01*
X94621365Y-91558900D01*
X94652275Y-91684180D01*
X94676941Y-91733544D01*
X94710368Y-91765853D01*
X94710368Y-91908104D01*
X94680210Y-91900967D01*
X94650259Y-91885086D01*
X94621850Y-91860377D01*
X94596319Y-91826754D01*
X94559082Y-91745568D01*
X94531194Y-91644427D01*
X94516115Y-91539887D01*
X94517304Y-91448503D01*
X94530498Y-91335448D01*
X94551961Y-91254643D01*
X94569297Y-91219463D01*
X94586455Y-91198937D01*
X94598554Y-91174155D01*
X94602755Y-91130830D01*
X94608544Y-91086668D01*
X94626757Y-91063792D01*
X94649684Y-91042405D01*
X94669072Y-91005749D01*
X94684484Y-90935741D01*
X94695037Y-90843507D01*
X94698125Y-90762238D01*
X94691137Y-90725123D01*
X94677858Y-90685311D01*
X94665146Y-90595519D01*
X94639245Y-90429088D01*
X94593030Y-90231826D01*
X94530836Y-90020079D01*
X94457000Y-89810195D01*
X94408076Y-89675696D01*
X94394385Y-89650600D01*
X94351151Y-89515928D01*
X94305171Y-89382365D01*
X94241300Y-89238756D01*
X94124394Y-88995675D01*
X94040742Y-88814445D01*
X93963394Y-88671162D01*
X93885643Y-88554593D01*
X93800782Y-88453506D01*
X93764713Y-88432013D01*
X93715417Y-88420398D01*
X93669018Y-88420585D01*
X93641635Y-88434498D01*
X93628930Y-88440338D01*
X93610775Y-88432510D01*
X93596478Y-88429575D01*
X93575533Y-88436034D01*
X93521396Y-88470997D01*
X93463757Y-88525131D01*
X93418009Y-88586166D01*
X93390567Y-88625027D01*
X93368787Y-88641451D01*
X93347868Y-88654050D01*
X93336344Y-88683185D01*
X93336239Y-88717754D01*
X93349580Y-88746655D01*
X93365543Y-88772827D01*
X93342598Y-88792896D01*
X93316325Y-88802924D01*
X93298990Y-88800996D01*
X93291402Y-88800362D01*
X93288579Y-88813494D01*
X93280054Y-88840197D01*
X93258713Y-88872208D01*
X93222373Y-88950599D01*
X93180083Y-89085386D01*
X93145409Y-89227726D01*
X93131917Y-89328778D01*
X93123188Y-89377583D01*
X93100734Y-89437237D01*
X93078247Y-89495925D01*
X93069451Y-89542415D01*
X93065226Y-89572326D01*
X93053722Y-89591141D01*
X93042560Y-89623608D01*
X93039162Y-89686356D01*
X93034929Y-89752112D01*
X93028003Y-89770876D01*
X93017843Y-89780353D01*
X93007755Y-89788388D01*
X93002297Y-89802780D01*
X93004649Y-89854100D01*
X93004737Y-89926441D01*
X92990561Y-90010439D01*
X92977250Y-90084984D01*
X92974880Y-90171276D01*
X92983686Y-90276253D01*
X93003904Y-90406853D01*
X93015111Y-90520629D01*
X93017762Y-90540559D01*
X93033796Y-90571045D01*
X93058185Y-90625645D01*
X93080931Y-90703530D01*
X93095023Y-90753370D01*
X93114034Y-90794996D01*
X93180643Y-90877760D01*
X93257287Y-90963874D01*
X93331814Y-91058897D01*
X93426110Y-91180500D01*
X93482737Y-91255214D01*
X93556757Y-91373067D01*
X93683727Y-91575398D01*
X93751684Y-91691139D01*
X93810482Y-91811679D01*
X93858479Y-91933290D01*
X93894035Y-92052243D01*
X93902086Y-92092800D01*
X93901913Y-92125365D01*
X93892222Y-92158585D01*
X93871722Y-92201104D01*
X93837584Y-92258974D01*
X93811989Y-92290778D01*
X93728436Y-92327744D01*
X93686417Y-92338732D01*
X93662010Y-92339006D01*
X93604886Y-92326682D01*
X93557379Y-92316743D01*
X93374577Y-92059623D01*
X93374577Y-91841165D01*
X93435850Y-91938716D01*
X93499546Y-92019773D01*
X93523927Y-92040725D01*
X93542346Y-92047621D01*
X93564016Y-92039200D01*
X93571874Y-92018186D01*
X93565776Y-91988787D01*
X93545577Y-91955215D01*
X93527180Y-91923080D01*
X93519065Y-91891158D01*
X93482129Y-91805154D01*
X93394035Y-91647014D01*
X93286436Y-91470814D01*
X93190981Y-91330627D01*
X93153571Y-91287131D01*
X93123599Y-91265335D01*
X93101036Y-91265228D01*
X93085852Y-91286797D01*
X93107735Y-91355224D01*
X93175924Y-91493899D01*
X93271259Y-91667616D01*
X93374577Y-91841165D01*
X93374577Y-92059623D01*
X93244552Y-91858981D01*
X93211422Y-91801930D01*
X93177017Y-91760461D01*
X93151806Y-91728436D01*
X93140789Y-91694094D01*
X93131709Y-91655439D01*
X93110507Y-91619698D01*
X93083394Y-91594680D01*
X93056581Y-91588195D01*
X93044370Y-91594632D01*
X93035781Y-91608077D01*
X93028753Y-91657792D01*
X93025718Y-91703583D01*
X93017494Y-91729747D01*
X93003824Y-91736674D01*
X92984450Y-91724756D01*
X92972097Y-91705637D01*
X92985666Y-91689795D01*
X92997561Y-91676287D01*
X92990735Y-91664898D01*
X92976062Y-91634104D01*
X92959522Y-91572982D01*
X92947152Y-91507887D01*
X92944992Y-91465176D01*
X92927946Y-91406213D01*
X92870158Y-91232226D01*
X92810667Y-91001524D01*
X92777048Y-90880233D01*
X92726416Y-90777558D01*
X92639211Y-90662624D01*
X92495876Y-90504553D01*
X92453439Y-90451676D01*
X92442901Y-90422209D01*
X92446139Y-90414963D01*
X92436839Y-90415525D01*
X92402765Y-90402563D01*
X92349513Y-90361536D01*
X92294769Y-90307940D01*
X92256224Y-90257273D01*
X92224821Y-90216198D01*
X92186526Y-90184197D01*
X92083437Y-90105718D01*
X91846615Y-89888886D01*
X91712232Y-89769353D01*
X91644110Y-89719750D01*
X91603347Y-89696961D01*
X91534732Y-89641904D01*
X91456015Y-89578527D01*
X91390965Y-89535731D01*
X91352981Y-89509270D01*
X91346006Y-89497057D01*
X91347408Y-89485937D01*
X91351818Y-89474338D01*
X91345917Y-89476868D01*
X91321306Y-89473556D01*
X91280718Y-89447921D01*
X91229258Y-89416022D01*
X91178521Y-89397654D01*
X91140302Y-89384791D01*
X91118912Y-89366123D01*
X91107515Y-89350142D01*
X91093344Y-89343736D01*
X91085482Y-89349451D01*
X91089267Y-89362620D01*
X91090005Y-89374149D01*
X91069314Y-89372559D01*
X90942068Y-89353494D01*
X90894673Y-89354859D01*
X90876102Y-89364260D01*
X90868661Y-89377795D01*
X90850136Y-89383815D01*
X90833823Y-89387966D01*
X90831724Y-89397008D01*
X90830604Y-89412451D01*
X90816642Y-89431993D01*
X90800040Y-89443931D01*
X90792540Y-89441088D01*
X90784991Y-89448526D01*
X90768264Y-89485192D01*
X90754749Y-89530224D01*
X90754897Y-89557771D01*
X90754785Y-89576637D01*
X90740611Y-89597712D01*
X90720727Y-89612259D01*
X90703487Y-89611540D01*
X90697308Y-89611995D01*
X90701401Y-89629356D01*
X90703735Y-89651368D01*
X90688928Y-89659371D01*
X90672484Y-89668511D01*
X90666441Y-89689635D01*
X90658627Y-89824435D01*
X90643258Y-89933959D01*
X90643159Y-89954901D01*
X90653072Y-89987903D01*
X90662655Y-90027407D01*
X90661460Y-90063758D01*
X90651238Y-90087706D01*
X90633741Y-90090000D01*
X90622882Y-90086648D01*
X90634078Y-90102896D01*
X90645327Y-90143742D01*
X90651815Y-90216281D01*
X90652280Y-90293320D01*
X90645458Y-90347667D01*
X90648711Y-90390285D01*
X90666169Y-90461659D01*
X90690460Y-90536050D01*
X90714211Y-90587717D01*
X90727647Y-90615450D01*
X90720746Y-90625734D01*
X90710463Y-90630151D01*
X90711502Y-90640120D01*
X90732125Y-90711010D01*
X90745558Y-90757316D01*
X90761669Y-90788633D01*
X90771724Y-90812418D01*
X90770589Y-90840638D01*
X90774628Y-90882094D01*
X90797101Y-90937692D01*
X90822447Y-90992370D01*
X90833403Y-91031615D01*
X90841660Y-91057677D01*
X90860512Y-91080663D01*
X90877191Y-91097412D01*
X90880241Y-91108467D01*
X90890587Y-91127703D01*
X90924792Y-91164125D01*
X90958695Y-91205379D01*
X90964199Y-91234468D01*
X90959573Y-91246287D01*
X90965022Y-91244233D01*
X91002725Y-91275869D01*
X91075642Y-91368693D01*
X91232131Y-91585934D01*
X91290994Y-91681819D01*
X91301849Y-91707053D01*
X91337176Y-91750518D01*
X91503289Y-91916527D01*
X91660995Y-92080520D01*
X91680715Y-92095566D01*
X91718219Y-92104348D01*
X91921445Y-92121816D01*
X92127388Y-92146544D01*
X92321984Y-92193252D01*
X92518377Y-92243717D01*
X92646614Y-92282330D01*
X92786575Y-92342425D01*
X92908057Y-92386738D01*
X93016038Y-92435611D01*
X93121305Y-92505072D01*
X93212088Y-92586087D01*
X93276618Y-92669625D01*
X93290463Y-92696692D01*
X93292925Y-92717886D01*
X93282518Y-92741585D01*
X93257759Y-92776170D01*
X93221170Y-92818873D01*
X93197355Y-92836847D01*
X93124031Y-92891387D01*
X93088926Y-92921237D01*
X93057530Y-92937021D01*
X93016722Y-92942636D01*
X92953379Y-92941976D01*
X92890204Y-92936554D01*
X92827824Y-92922403D01*
X92665796Y-92855210D01*
X92665796Y-92733979D01*
X92815139Y-92796236D01*
X92906045Y-92827604D01*
X93012814Y-92841096D01*
X93046812Y-92831402D01*
X93080714Y-92807952D01*
X93106595Y-92777849D01*
X93116527Y-92748192D01*
X93105926Y-92723328D01*
X93081268Y-92695565D01*
X93056600Y-92667983D01*
X93046010Y-92643560D01*
X93015542Y-92608560D01*
X92943043Y-92555551D01*
X92829664Y-92472933D01*
X92812174Y-92461337D01*
X92785535Y-92457006D01*
X92722547Y-92441949D01*
X92529367Y-92366842D01*
X92357963Y-92315079D01*
X92249103Y-92286408D01*
X92115403Y-92234846D01*
X92075587Y-92224920D01*
X92021753Y-92221677D01*
X91957268Y-92217891D01*
X91891852Y-92206644D01*
X91834333Y-92198234D01*
X91808954Y-92207827D01*
X91817092Y-92232676D01*
X91860122Y-92270030D01*
X91980557Y-92358014D01*
X92128628Y-92466266D01*
X92260089Y-92542779D01*
X92450305Y-92636844D01*
X92665796Y-92733979D01*
X92665796Y-92855210D01*
X92575128Y-92810882D01*
X92454942Y-92754454D01*
X92282973Y-92663860D01*
X92207641Y-92624581D01*
X92159557Y-92608625D01*
X92135968Y-92603972D01*
X92119528Y-92591902D01*
X92045011Y-92536642D01*
X91938440Y-92458969D01*
X91834529Y-92376352D01*
X91687681Y-92257507D01*
X91613253Y-92202189D01*
X91558475Y-92180853D01*
X91353465Y-92173986D01*
X91252232Y-92162466D01*
X91150109Y-92149843D01*
X91045453Y-92136675D01*
X91022348Y-92134583D01*
X91006467Y-92144451D01*
X90983920Y-92159115D01*
X90946534Y-92163324D01*
X90904726Y-92157314D01*
X90868912Y-92141321D01*
X90860598Y-92128431D01*
X90891491Y-92120335D01*
X91137884Y-92110983D01*
X91365570Y-92101424D01*
X91430125Y-92094400D01*
X91457843Y-92086185D01*
X91463261Y-92058321D01*
X91453466Y-92017725D01*
X91434697Y-91981231D01*
X91413193Y-91965676D01*
X91385370Y-91950608D01*
X91345935Y-91913926D01*
X91308330Y-91869743D01*
X91285999Y-91832171D01*
X91232925Y-91752187D01*
X91150606Y-91637269D01*
X91036805Y-91478693D01*
X90976695Y-91395775D01*
X90934956Y-91323919D01*
X90896807Y-91257964D01*
X90845307Y-91189222D01*
X90798530Y-91122830D01*
X90771734Y-91062525D01*
X90750688Y-91001369D01*
X90717741Y-90932946D01*
X90688000Y-90863038D01*
X90674706Y-90798299D01*
X90660609Y-90700666D01*
X90629011Y-90551689D01*
X90595288Y-90377077D01*
X90592048Y-90310597D01*
X90595840Y-90238638D01*
X90610848Y-89924344D01*
X90623965Y-89743923D01*
X90656682Y-89597262D01*
X90681407Y-89533491D01*
X90712251Y-89474439D01*
X90793923Y-89365527D01*
X90866005Y-89294685D01*
X90905860Y-89270983D01*
X91063293Y-89294886D01*
X91183747Y-89311007D01*
X91295179Y-89336556D01*
X91404654Y-89375438D01*
X91519233Y-89431558D01*
X91645981Y-89508819D01*
X91791961Y-89611128D01*
X92169868Y-89906503D01*
X92388256Y-90089677D01*
X92549932Y-90235929D01*
X92640465Y-90320513D01*
X92687785Y-90355445D01*
X92710676Y-90342435D01*
X92742474Y-90311738D01*
X92761963Y-90283910D01*
X92774789Y-90248187D01*
X92788442Y-90119693D01*
X92798557Y-90008539D01*
X92811873Y-89950185D01*
X92821365Y-89919111D01*
X92822284Y-89873556D01*
X92823376Y-89821520D01*
X92833267Y-89774862D01*
X92859232Y-89655446D01*
X92916357Y-89352089D01*
X93001905Y-89010931D01*
X93033776Y-88907682D01*
X93062232Y-88835661D01*
X93094627Y-88779360D01*
X93138317Y-88723274D01*
X93208928Y-88651286D01*
X93236304Y-88633466D01*
X93259025Y-88627264D01*
X93287111Y-88619290D01*
X93319905Y-88590479D01*
X93433652Y-88432361D01*
X93485274Y-88393267D01*
X93575805Y-88353678D01*
X93680536Y-88322546D01*
X93774756Y-88308820D01*
X93774743Y-88308819D01*
X93774743Y-88308819D01*
G37*
X93774743Y-88308819D02*
X93816471Y-88310981D01*
X93855835Y-88322121D01*
X93961769Y-88385374D01*
X94052604Y-88452884D01*
X94111336Y-88507453D01*
X94137153Y-88548168D01*
X94137463Y-88563044D01*
X94129240Y-88574114D01*
X94118720Y-88585029D01*
X94140495Y-88580575D01*
X94160097Y-88579075D01*
X94180313Y-88588499D01*
X94235064Y-88649178D01*
X94284889Y-88724841D01*
X94320440Y-88795578D01*
X94376545Y-88904459D01*
X94458516Y-89046611D01*
X94521579Y-89155467D01*
X94546973Y-89214231D01*
X94565237Y-89262059D01*
X94590083Y-89306290D01*
X94650520Y-89424763D01*
X94727942Y-89617038D01*
X94802596Y-89830429D01*
X94854732Y-90012253D01*
X94880822Y-90087938D01*
X94915707Y-90176146D01*
X94935072Y-90226434D01*
X94950146Y-90246861D01*
X94971361Y-90237899D01*
X94994713Y-90215410D01*
X95039472Y-90139844D01*
X95076099Y-90074981D01*
X95125606Y-90008821D01*
X95172796Y-89959516D01*
X95190773Y-89946855D01*
X95202470Y-89945215D01*
X95213155Y-89945731D01*
X95217304Y-89934381D01*
X95227832Y-89907115D01*
X95253854Y-89869380D01*
X95473080Y-89634526D01*
X95590921Y-89516831D01*
X95648430Y-89466208D01*
X95685794Y-89440308D01*
X95754826Y-89378571D01*
X95842794Y-89304747D01*
X95925676Y-89249788D01*
X96091905Y-89150249D01*
X96159324Y-89114624D01*
X96238111Y-89089253D01*
X96325120Y-89074894D01*
X96417206Y-89072303D01*
X96509038Y-89069290D01*
X96559855Y-89053891D01*
X96591537Y-89042172D01*
X96663668Y-89029447D01*
X96949833Y-88998034D01*
X97067524Y-88992215D01*
X97164557Y-89000520D01*
X97243254Y-89025179D01*
X97305934Y-89068420D01*
X97354916Y-89132472D01*
X97392521Y-89219562D01*
X97421069Y-89331920D01*
X97442879Y-89471774D01*
X97455044Y-89646644D01*
X97455380Y-89846477D01*
X97445006Y-90028747D01*
X97425038Y-90150926D01*
X97383966Y-90355593D01*
X97354248Y-90526021D01*
X97322419Y-90661613D01*
X97299895Y-90737361D01*
X97272625Y-90789079D01*
X97251168Y-90820749D01*
X97242610Y-90848291D01*
X97227821Y-90893827D01*
X97186769Y-90969466D01*
X97053819Y-91164274D01*
X96982531Y-91263946D01*
X96938804Y-91339813D01*
X96922780Y-91391576D01*
X96925201Y-91408325D01*
X96934602Y-91418934D01*
X96983025Y-91424620D01*
X97068896Y-91422801D01*
X97155032Y-91415458D01*
X97204245Y-91404572D01*
X97248358Y-91410214D01*
X97338595Y-91434116D01*
X97451786Y-91462464D01*
X97551089Y-91478791D01*
X97664762Y-91495254D01*
X97787651Y-91524283D01*
X97908520Y-91562769D01*
X98016132Y-91607600D01*
X98200388Y-91717149D01*
X98370429Y-91834580D01*
X98715267Y-92133300D01*
X98821756Y-92237132D01*
X98795320Y-92277507D01*
X98734512Y-92341849D01*
X98668514Y-92401602D01*
X98626506Y-92428208D01*
X98592305Y-92441527D01*
X98546249Y-92472659D01*
X98500620Y-92503767D01*
X98467459Y-92517062D01*
X98437896Y-92527772D01*
X98400917Y-92552668D01*
X98364136Y-92577568D01*
X98335047Y-92588274D01*
X98295689Y-92603928D01*
X97976451Y-92792867D01*
X97861358Y-92844798D01*
X97746215Y-92890169D01*
X97456087Y-93009747D01*
X97317703Y-93058434D01*
X97226757Y-93083705D01*
X97167320Y-93097796D01*
X97137406Y-93112553D01*
X97114612Y-93123738D01*
X97072306Y-93129225D01*
X97011066Y-93140342D01*
X96942727Y-93165080D01*
X96896417Y-93182125D01*
X96835019Y-93195575D01*
X96640683Y-93216141D01*
X96319134Y-93248890D01*
X96319108Y-93248890D01*
X96245965Y-93257854D01*
X96200562Y-93256766D01*
X96090190Y-93253958D01*
X95982097Y-93251081D01*
X95840495Y-93236767D01*
X95713307Y-93217078D01*
X95648454Y-93198077D01*
X95628395Y-93187336D01*
X95603356Y-93183292D01*
X95568724Y-93176717D01*
X95525584Y-93159911D01*
X95480768Y-93143114D01*
X95442122Y-93136580D01*
X95385913Y-93123063D01*
X95311373Y-93089919D01*
X95245108Y-93050805D01*
X95213725Y-93019375D01*
X95220329Y-92990165D01*
X95244798Y-92957483D01*
X95278038Y-92930701D01*
X95310953Y-92919191D01*
X95339263Y-92930240D01*
X95366934Y-92957803D01*
X95407865Y-92992845D01*
X95468062Y-93021860D01*
X95637148Y-93078486D01*
X95762497Y-93109263D01*
X95924138Y-93128086D01*
X96131130Y-93135601D01*
X96392532Y-93132455D01*
X96715669Y-93116915D01*
X96800145Y-93101635D01*
X96882969Y-93075579D01*
X96992852Y-93041984D01*
X97068379Y-93026904D01*
X97116720Y-93018142D01*
X97161234Y-92999721D01*
X97202516Y-92981369D01*
X97243106Y-92972786D01*
X97299610Y-92962382D01*
X97378206Y-92936573D01*
X97570271Y-92850487D01*
X97661871Y-92808424D01*
X97721467Y-92790332D01*
X97767066Y-92776840D01*
X97825030Y-92745830D01*
X97881270Y-92714730D01*
X97922705Y-92701031D01*
X97967460Y-92685820D01*
X98031710Y-92651088D01*
X98312758Y-92486499D01*
X98389205Y-92435888D01*
X98466880Y-92366848D01*
X98526954Y-92298199D01*
X98544506Y-92269902D01*
X98550597Y-92248760D01*
X98537306Y-92220802D01*
X98502014Y-92176411D01*
X98387459Y-92059186D01*
X98250996Y-91938793D01*
X98136690Y-91856942D01*
X98062248Y-91801756D01*
X97965964Y-91736855D01*
X97734366Y-91623810D01*
X97642303Y-91587697D01*
X97515433Y-91557110D01*
X97436895Y-91537233D01*
X97397805Y-91533157D01*
X97294689Y-91518919D01*
X97211824Y-91506587D01*
X97141952Y-91507017D01*
X96933459Y-91527964D01*
X96798150Y-91546541D01*
X96755567Y-91564299D01*
X96711845Y-91592940D01*
X96590143Y-91694615D01*
X96434071Y-91845728D01*
X96392275Y-91880252D01*
X96370269Y-91891331D01*
X96359065Y-91895679D01*
X96359609Y-91905444D01*
X96353004Y-91923703D01*
X96321504Y-91947338D01*
X96274457Y-91970748D01*
X96221210Y-91988335D01*
X96165127Y-92014532D01*
X96110689Y-92058156D01*
X96046014Y-92108054D01*
X95946394Y-92169875D01*
X95848055Y-92222649D01*
X95787226Y-92245406D01*
X95728090Y-92282478D01*
X95689573Y-92305811D01*
X95659164Y-92310406D01*
X95638947Y-92309069D01*
X95624924Y-92318134D01*
X95603775Y-92330121D01*
X95566433Y-92335825D01*
X95528840Y-92341969D01*
X95507073Y-92355007D01*
X95488879Y-92363899D01*
X95451032Y-92369467D01*
X95342384Y-92371450D01*
X95233139Y-92362597D01*
X95194547Y-92354619D01*
X95175312Y-92344546D01*
X95161493Y-92309325D01*
X95159372Y-92264907D01*
X95168699Y-92214572D01*
X95189226Y-92161595D01*
X95238789Y-92082904D01*
X95310725Y-91992486D01*
X95386155Y-91912211D01*
X95446197Y-91863949D01*
X95544418Y-91800116D01*
X95599332Y-91766645D01*
X95661226Y-91739092D01*
X95778604Y-91683185D01*
X95820910Y-91659989D01*
X95851730Y-91649964D01*
X95977656Y-91597064D01*
X96067153Y-91553076D01*
X96129281Y-91529249D01*
X96188939Y-91518520D01*
X96271029Y-91513826D01*
X96371789Y-91515543D01*
X96392072Y-91521871D01*
X96392301Y-91531833D01*
X96332622Y-91562624D01*
X96192809Y-91607848D01*
X96057235Y-91654534D01*
X95932335Y-91708181D01*
X95714225Y-91805980D01*
X95588498Y-91865912D01*
X95505831Y-91920601D01*
X95457603Y-91954314D01*
X95410324Y-91996941D01*
X95327120Y-92096645D01*
X95273233Y-92195119D01*
X95262602Y-92236209D01*
X95265681Y-92267768D01*
X95275517Y-92277622D01*
X95294558Y-92284629D01*
X95353340Y-92290121D01*
X95428200Y-92284282D01*
X95505309Y-92267148D01*
X95598039Y-92243667D01*
X95698820Y-92203017D01*
X95799377Y-92153944D01*
X95849618Y-92127134D01*
X95924955Y-92087055D01*
X96080475Y-91987840D01*
X96160070Y-91934823D01*
X96203668Y-91912502D01*
X96251441Y-91879072D01*
X96334589Y-91800747D01*
X96421625Y-91708995D01*
X96481063Y-91635281D01*
X96521151Y-91581854D01*
X96561395Y-91539991D01*
X96591263Y-91508194D01*
X96587066Y-91497675D01*
X96571110Y-91485128D01*
X96555543Y-91473031D01*
X96552117Y-91464293D01*
X96586043Y-91445248D01*
X96651913Y-91426091D01*
X96688564Y-91397832D01*
X96744431Y-91326826D01*
X96806081Y-91232023D01*
X96860084Y-91132371D01*
X96952867Y-90929218D01*
X96984693Y-90815319D01*
X97022312Y-90619224D01*
X97043756Y-90482961D01*
X97060528Y-90338300D01*
X97088978Y-90117010D01*
X97115739Y-89923399D01*
X97136088Y-89634425D01*
X97144114Y-89473248D01*
X97155792Y-89363043D01*
X97162703Y-89284535D01*
X97156083Y-89205744D01*
X97137981Y-89138751D01*
X97110446Y-89095636D01*
X97088720Y-89081858D01*
X97059809Y-89074263D01*
X96959275Y-89074689D01*
X96732916Y-89088157D01*
X96658174Y-89094021D01*
X96631166Y-89100332D01*
X96630043Y-89108301D01*
X96615866Y-89119312D01*
X96560018Y-89145815D01*
X96486962Y-89170560D01*
X96420038Y-89184266D01*
X96327022Y-89219111D01*
X96235621Y-89272797D01*
X96147712Y-89319162D01*
X96103311Y-89340126D01*
X96085047Y-89356756D01*
X96079537Y-89366480D01*
X96065815Y-89370820D01*
X95955816Y-89416936D01*
X95883445Y-89448328D01*
X95836474Y-89459748D01*
X95804930Y-89461724D01*
X95776859Y-89472100D01*
X95756854Y-89488332D01*
X95749508Y-89507878D01*
X95757396Y-89524374D01*
X95775523Y-89530861D01*
X95793563Y-89533353D01*
X95801216Y-89540254D01*
X95772510Y-89588830D01*
X95735544Y-89627393D01*
X95675478Y-89662691D01*
X95605120Y-89717341D01*
X95575378Y-89739529D01*
X95573842Y-89726670D01*
X95591156Y-89694906D01*
X95653175Y-89619616D01*
X95697671Y-89566462D01*
X95694382Y-89553984D01*
X95674221Y-89550391D01*
X95656444Y-89558309D01*
X95649423Y-89576456D01*
X95646133Y-89594628D01*
X95637348Y-89602596D01*
X95601571Y-89626999D01*
X95544179Y-89681045D01*
X95490976Y-89738679D01*
X95467764Y-89773843D01*
X95475584Y-89787286D01*
X95493680Y-89792504D01*
X95511810Y-89798359D01*
X95519670Y-89813351D01*
X95506666Y-89852997D01*
X95474150Y-89905061D01*
X95433987Y-89953188D01*
X95398043Y-89981020D01*
X95366372Y-90006650D01*
X95336882Y-90050987D01*
X95315373Y-90103058D01*
X95307648Y-90151895D01*
X95300210Y-90174649D01*
X95278533Y-90209111D01*
X95201103Y-90301079D01*
X95125342Y-90385300D01*
X95094036Y-90428347D01*
X95052615Y-90492428D01*
X95030861Y-90521821D01*
X95020093Y-90548486D01*
X95018548Y-90580841D01*
X95024463Y-90627299D01*
X95044391Y-90796460D01*
X95068741Y-91092789D01*
X95078211Y-91289858D01*
X95060641Y-91440826D01*
X95031868Y-91605290D01*
X95001887Y-91667398D01*
X94937783Y-91753119D01*
X94867182Y-91829256D01*
X94838078Y-91853355D01*
X94817709Y-91862609D01*
X94774474Y-91889345D01*
X94744472Y-91905972D01*
X94710368Y-91908104D01*
X94710368Y-91765853D01*
X94729757Y-91773700D01*
X94743589Y-91766797D01*
X94756604Y-91720441D01*
X94767271Y-91637788D01*
X94780203Y-91412726D01*
X94779668Y-91189880D01*
X94773500Y-91109997D01*
X94762945Y-91067519D01*
X94747473Y-91052555D01*
X94731519Y-91052940D01*
X94716071Y-91068180D01*
X94702119Y-91097783D01*
X94663158Y-91170884D01*
X94642066Y-91234340D01*
X94625161Y-91347165D01*
X94616806Y-91468854D01*
X94621365Y-91558900D01*
X94652275Y-91684180D01*
X94676941Y-91733544D01*
X94710368Y-91765853D01*
X94710368Y-91908104D01*
X94680210Y-91900967D01*
X94650259Y-91885086D01*
X94621850Y-91860377D01*
X94596319Y-91826754D01*
X94559082Y-91745568D01*
X94531194Y-91644427D01*
X94516115Y-91539887D01*
X94517304Y-91448503D01*
X94530498Y-91335448D01*
X94551961Y-91254643D01*
X94569297Y-91219463D01*
X94586455Y-91198937D01*
X94598554Y-91174155D01*
X94602755Y-91130830D01*
X94608544Y-91086668D01*
X94626757Y-91063792D01*
X94649684Y-91042405D01*
X94669072Y-91005749D01*
X94684484Y-90935741D01*
X94695037Y-90843507D01*
X94698125Y-90762238D01*
X94691137Y-90725123D01*
X94677858Y-90685311D01*
X94665146Y-90595519D01*
X94639245Y-90429088D01*
X94593030Y-90231826D01*
X94530836Y-90020079D01*
X94457000Y-89810195D01*
X94408076Y-89675696D01*
X94394385Y-89650600D01*
X94351151Y-89515928D01*
X94305171Y-89382365D01*
X94241300Y-89238756D01*
X94124394Y-88995675D01*
X94040742Y-88814445D01*
X93963394Y-88671162D01*
X93885643Y-88554593D01*
X93800782Y-88453506D01*
X93764713Y-88432013D01*
X93715417Y-88420398D01*
X93669018Y-88420585D01*
X93641635Y-88434498D01*
X93628930Y-88440338D01*
X93610775Y-88432510D01*
X93596478Y-88429575D01*
X93575533Y-88436034D01*
X93521396Y-88470997D01*
X93463757Y-88525131D01*
X93418009Y-88586166D01*
X93390567Y-88625027D01*
X93368787Y-88641451D01*
X93347868Y-88654050D01*
X93336344Y-88683185D01*
X93336239Y-88717754D01*
X93349580Y-88746655D01*
X93365543Y-88772827D01*
X93342598Y-88792896D01*
X93316325Y-88802924D01*
X93298990Y-88800996D01*
X93291402Y-88800362D01*
X93288579Y-88813494D01*
X93280054Y-88840197D01*
X93258713Y-88872208D01*
X93222373Y-88950599D01*
X93180083Y-89085386D01*
X93145409Y-89227726D01*
X93131917Y-89328778D01*
X93123188Y-89377583D01*
X93100734Y-89437237D01*
X93078247Y-89495925D01*
X93069451Y-89542415D01*
X93065226Y-89572326D01*
X93053722Y-89591141D01*
X93042560Y-89623608D01*
X93039162Y-89686356D01*
X93034929Y-89752112D01*
X93028003Y-89770876D01*
X93017843Y-89780353D01*
X93007755Y-89788388D01*
X93002297Y-89802780D01*
X93004649Y-89854100D01*
X93004737Y-89926441D01*
X92990561Y-90010439D01*
X92977250Y-90084984D01*
X92974880Y-90171276D01*
X92983686Y-90276253D01*
X93003904Y-90406853D01*
X93015111Y-90520629D01*
X93017762Y-90540559D01*
X93033796Y-90571045D01*
X93058185Y-90625645D01*
X93080931Y-90703530D01*
X93095023Y-90753370D01*
X93114034Y-90794996D01*
X93180643Y-90877760D01*
X93257287Y-90963874D01*
X93331814Y-91058897D01*
X93426110Y-91180500D01*
X93482737Y-91255214D01*
X93556757Y-91373067D01*
X93683727Y-91575398D01*
X93751684Y-91691139D01*
X93810482Y-91811679D01*
X93858479Y-91933290D01*
X93894035Y-92052243D01*
X93902086Y-92092800D01*
X93901913Y-92125365D01*
X93892222Y-92158585D01*
X93871722Y-92201104D01*
X93837584Y-92258974D01*
X93811989Y-92290778D01*
X93728436Y-92327744D01*
X93686417Y-92338732D01*
X93662010Y-92339006D01*
X93604886Y-92326682D01*
X93557379Y-92316743D01*
X93374577Y-92059623D01*
X93374577Y-91841165D01*
X93435850Y-91938716D01*
X93499546Y-92019773D01*
X93523927Y-92040725D01*
X93542346Y-92047621D01*
X93564016Y-92039200D01*
X93571874Y-92018186D01*
X93565776Y-91988787D01*
X93545577Y-91955215D01*
X93527180Y-91923080D01*
X93519065Y-91891158D01*
X93482129Y-91805154D01*
X93394035Y-91647014D01*
X93286436Y-91470814D01*
X93190981Y-91330627D01*
X93153571Y-91287131D01*
X93123599Y-91265335D01*
X93101036Y-91265228D01*
X93085852Y-91286797D01*
X93107735Y-91355224D01*
X93175924Y-91493899D01*
X93271259Y-91667616D01*
X93374577Y-91841165D01*
X93374577Y-92059623D01*
X93244552Y-91858981D01*
X93211422Y-91801930D01*
X93177017Y-91760461D01*
X93151806Y-91728436D01*
X93140789Y-91694094D01*
X93131709Y-91655439D01*
X93110507Y-91619698D01*
X93083394Y-91594680D01*
X93056581Y-91588195D01*
X93044370Y-91594632D01*
X93035781Y-91608077D01*
X93028753Y-91657792D01*
X93025718Y-91703583D01*
X93017494Y-91729747D01*
X93003824Y-91736674D01*
X92984450Y-91724756D01*
X92972097Y-91705637D01*
X92985666Y-91689795D01*
X92997561Y-91676287D01*
X92990735Y-91664898D01*
X92976062Y-91634104D01*
X92959522Y-91572982D01*
X92947152Y-91507887D01*
X92944992Y-91465176D01*
X92927946Y-91406213D01*
X92870158Y-91232226D01*
X92810667Y-91001524D01*
X92777048Y-90880233D01*
X92726416Y-90777558D01*
X92639211Y-90662624D01*
X92495876Y-90504553D01*
X92453439Y-90451676D01*
X92442901Y-90422209D01*
X92446139Y-90414963D01*
X92436839Y-90415525D01*
X92402765Y-90402563D01*
X92349513Y-90361536D01*
X92294769Y-90307940D01*
X92256224Y-90257273D01*
X92224821Y-90216198D01*
X92186526Y-90184197D01*
X92083437Y-90105718D01*
X91846615Y-89888886D01*
X91712232Y-89769353D01*
X91644110Y-89719750D01*
X91603347Y-89696961D01*
X91534732Y-89641904D01*
X91456015Y-89578527D01*
X91390965Y-89535731D01*
X91352981Y-89509270D01*
X91346006Y-89497057D01*
X91347408Y-89485937D01*
X91351818Y-89474338D01*
X91345917Y-89476868D01*
X91321306Y-89473556D01*
X91280718Y-89447921D01*
X91229258Y-89416022D01*
X91178521Y-89397654D01*
X91140302Y-89384791D01*
X91118912Y-89366123D01*
X91107515Y-89350142D01*
X91093344Y-89343736D01*
X91085482Y-89349451D01*
X91089267Y-89362620D01*
X91090005Y-89374149D01*
X91069314Y-89372559D01*
X90942068Y-89353494D01*
X90894673Y-89354859D01*
X90876102Y-89364260D01*
X90868661Y-89377795D01*
X90850136Y-89383815D01*
X90833823Y-89387966D01*
X90831724Y-89397008D01*
X90830604Y-89412451D01*
X90816642Y-89431993D01*
X90800040Y-89443931D01*
X90792540Y-89441088D01*
X90784991Y-89448526D01*
X90768264Y-89485192D01*
X90754749Y-89530224D01*
X90754897Y-89557771D01*
X90754785Y-89576637D01*
X90740611Y-89597712D01*
X90720727Y-89612259D01*
X90703487Y-89611540D01*
X90697308Y-89611995D01*
X90701401Y-89629356D01*
X90703735Y-89651368D01*
X90688928Y-89659371D01*
X90672484Y-89668511D01*
X90666441Y-89689635D01*
X90658627Y-89824435D01*
X90643258Y-89933959D01*
X90643159Y-89954901D01*
X90653072Y-89987903D01*
X90662655Y-90027407D01*
X90661460Y-90063758D01*
X90651238Y-90087706D01*
X90633741Y-90090000D01*
X90622882Y-90086648D01*
X90634078Y-90102896D01*
X90645327Y-90143742D01*
X90651815Y-90216281D01*
X90652280Y-90293320D01*
X90645458Y-90347667D01*
X90648711Y-90390285D01*
X90666169Y-90461659D01*
X90690460Y-90536050D01*
X90714211Y-90587717D01*
X90727647Y-90615450D01*
X90720746Y-90625734D01*
X90710463Y-90630151D01*
X90711502Y-90640120D01*
X90732125Y-90711010D01*
X90745558Y-90757316D01*
X90761669Y-90788633D01*
X90771724Y-90812418D01*
X90770589Y-90840638D01*
X90774628Y-90882094D01*
X90797101Y-90937692D01*
X90822447Y-90992370D01*
X90833403Y-91031615D01*
X90841660Y-91057677D01*
X90860512Y-91080663D01*
X90877191Y-91097412D01*
X90880241Y-91108467D01*
X90890587Y-91127703D01*
X90924792Y-91164125D01*
X90958695Y-91205379D01*
X90964199Y-91234468D01*
X90959573Y-91246287D01*
X90965022Y-91244233D01*
X91002725Y-91275869D01*
X91075642Y-91368693D01*
X91232131Y-91585934D01*
X91290994Y-91681819D01*
X91301849Y-91707053D01*
X91337176Y-91750518D01*
X91503289Y-91916527D01*
X91660995Y-92080520D01*
X91680715Y-92095566D01*
X91718219Y-92104348D01*
X91921445Y-92121816D01*
X92127388Y-92146544D01*
X92321984Y-92193252D01*
X92518377Y-92243717D01*
X92646614Y-92282330D01*
X92786575Y-92342425D01*
X92908057Y-92386738D01*
X93016038Y-92435611D01*
X93121305Y-92505072D01*
X93212088Y-92586087D01*
X93276618Y-92669625D01*
X93290463Y-92696692D01*
X93292925Y-92717886D01*
X93282518Y-92741585D01*
X93257759Y-92776170D01*
X93221170Y-92818873D01*
X93197355Y-92836847D01*
X93124031Y-92891387D01*
X93088926Y-92921237D01*
X93057530Y-92937021D01*
X93016722Y-92942636D01*
X92953379Y-92941976D01*
X92890204Y-92936554D01*
X92827824Y-92922403D01*
X92665796Y-92855210D01*
X92665796Y-92733979D01*
X92815139Y-92796236D01*
X92906045Y-92827604D01*
X93012814Y-92841096D01*
X93046812Y-92831402D01*
X93080714Y-92807952D01*
X93106595Y-92777849D01*
X93116527Y-92748192D01*
X93105926Y-92723328D01*
X93081268Y-92695565D01*
X93056600Y-92667983D01*
X93046010Y-92643560D01*
X93015542Y-92608560D01*
X92943043Y-92555551D01*
X92829664Y-92472933D01*
X92812174Y-92461337D01*
X92785535Y-92457006D01*
X92722547Y-92441949D01*
X92529367Y-92366842D01*
X92357963Y-92315079D01*
X92249103Y-92286408D01*
X92115403Y-92234846D01*
X92075587Y-92224920D01*
X92021753Y-92221677D01*
X91957268Y-92217891D01*
X91891852Y-92206644D01*
X91834333Y-92198234D01*
X91808954Y-92207827D01*
X91817092Y-92232676D01*
X91860122Y-92270030D01*
X91980557Y-92358014D01*
X92128628Y-92466266D01*
X92260089Y-92542779D01*
X92450305Y-92636844D01*
X92665796Y-92733979D01*
X92665796Y-92855210D01*
X92575128Y-92810882D01*
X92454942Y-92754454D01*
X92282973Y-92663860D01*
X92207641Y-92624581D01*
X92159557Y-92608625D01*
X92135968Y-92603972D01*
X92119528Y-92591902D01*
X92045011Y-92536642D01*
X91938440Y-92458969D01*
X91834529Y-92376352D01*
X91687681Y-92257507D01*
X91613253Y-92202189D01*
X91558475Y-92180853D01*
X91353465Y-92173986D01*
X91252232Y-92162466D01*
X91150109Y-92149843D01*
X91045453Y-92136675D01*
X91022348Y-92134583D01*
X91006467Y-92144451D01*
X90983920Y-92159115D01*
X90946534Y-92163324D01*
X90904726Y-92157314D01*
X90868912Y-92141321D01*
X90860598Y-92128431D01*
X90891491Y-92120335D01*
X91137884Y-92110983D01*
X91365570Y-92101424D01*
X91430125Y-92094400D01*
X91457843Y-92086185D01*
X91463261Y-92058321D01*
X91453466Y-92017725D01*
X91434697Y-91981231D01*
X91413193Y-91965676D01*
X91385370Y-91950608D01*
X91345935Y-91913926D01*
X91308330Y-91869743D01*
X91285999Y-91832171D01*
X91232925Y-91752187D01*
X91150606Y-91637269D01*
X91036805Y-91478693D01*
X90976695Y-91395775D01*
X90934956Y-91323919D01*
X90896807Y-91257964D01*
X90845307Y-91189222D01*
X90798530Y-91122830D01*
X90771734Y-91062525D01*
X90750688Y-91001369D01*
X90717741Y-90932946D01*
X90688000Y-90863038D01*
X90674706Y-90798299D01*
X90660609Y-90700666D01*
X90629011Y-90551689D01*
X90595288Y-90377077D01*
X90592048Y-90310597D01*
X90595840Y-90238638D01*
X90610848Y-89924344D01*
X90623965Y-89743923D01*
X90656682Y-89597262D01*
X90681407Y-89533491D01*
X90712251Y-89474439D01*
X90793923Y-89365527D01*
X90866005Y-89294685D01*
X90905860Y-89270983D01*
X91063293Y-89294886D01*
X91183747Y-89311007D01*
X91295179Y-89336556D01*
X91404654Y-89375438D01*
X91519233Y-89431558D01*
X91645981Y-89508819D01*
X91791961Y-89611128D01*
X92169868Y-89906503D01*
X92388256Y-90089677D01*
X92549932Y-90235929D01*
X92640465Y-90320513D01*
X92687785Y-90355445D01*
X92710676Y-90342435D01*
X92742474Y-90311738D01*
X92761963Y-90283910D01*
X92774789Y-90248187D01*
X92788442Y-90119693D01*
X92798557Y-90008539D01*
X92811873Y-89950185D01*
X92821365Y-89919111D01*
X92822284Y-89873556D01*
X92823376Y-89821520D01*
X92833267Y-89774862D01*
X92859232Y-89655446D01*
X92916357Y-89352089D01*
X93001905Y-89010931D01*
X93033776Y-88907682D01*
X93062232Y-88835661D01*
X93094627Y-88779360D01*
X93138317Y-88723274D01*
X93208928Y-88651286D01*
X93236304Y-88633466D01*
X93259025Y-88627264D01*
X93287111Y-88619290D01*
X93319905Y-88590479D01*
X93433652Y-88432361D01*
X93485274Y-88393267D01*
X93575805Y-88353678D01*
X93680536Y-88322546D01*
X93774756Y-88308820D01*
X93774743Y-88308819D01*
G36*
X97237218Y-89091833D02*
X97232597Y-89098567D01*
X97250288Y-89137279D01*
X97264251Y-89152808D01*
X97266886Y-89133627D01*
X97261515Y-89110416D01*
X97249220Y-89094890D01*
X97237218Y-89091833D01*
X97237218Y-89091833D01*
X97237218Y-89091833D01*
G37*
X97237218Y-89091833D02*
X97232597Y-89098567D01*
X97250288Y-89137279D01*
X97264251Y-89152808D01*
X97266886Y-89133627D01*
X97261515Y-89110416D01*
X97249220Y-89094890D01*
X97237218Y-89091833D01*
X97237218Y-89091833D01*
G36*
X96129151Y-89224394D02*
X96099597Y-89228811D01*
X96044049Y-89253048D01*
X95983730Y-89286531D01*
X95939864Y-89318689D01*
X95877349Y-89363191D01*
X95856721Y-89376859D01*
X95848401Y-89392759D01*
X95855982Y-89404868D01*
X95873055Y-89409203D01*
X95892323Y-89405614D01*
X95906494Y-89393952D01*
X96004070Y-89334095D01*
X96062292Y-89301009D01*
X96105363Y-89269227D01*
X96129057Y-89242453D01*
X96129151Y-89224394D01*
X96129151Y-89224394D01*
X96129151Y-89224394D01*
G37*
X96129151Y-89224394D02*
X96099597Y-89228811D01*
X96044049Y-89253048D01*
X95983730Y-89286531D01*
X95939864Y-89318689D01*
X95877349Y-89363191D01*
X95856721Y-89376859D01*
X95848401Y-89392759D01*
X95855982Y-89404868D01*
X95873055Y-89409203D01*
X95892323Y-89405614D01*
X95906494Y-89393952D01*
X96004070Y-89334095D01*
X96062292Y-89301009D01*
X96105363Y-89269227D01*
X96129057Y-89242453D01*
X96129151Y-89224394D01*
X96129151Y-89224394D01*
G36*
X91990929Y-89796155D02*
X91978366Y-89801461D01*
X91973386Y-89813573D01*
X91981313Y-89830345D01*
X91998830Y-89812927D01*
X92000657Y-89800896D01*
X91990929Y-89796155D01*
X91990929Y-89796155D01*
X91990929Y-89796155D01*
G37*
X91990929Y-89796155D02*
X91978366Y-89801461D01*
X91973386Y-89813573D01*
X91981313Y-89830345D01*
X91998830Y-89812927D01*
X92000657Y-89800896D01*
X91990929Y-89796155D01*
X91990929Y-89796155D01*
G36*
X95450074Y-89835762D02*
X95397939Y-89845861D01*
X95380756Y-89855185D01*
X95377942Y-89865256D01*
X95385754Y-89874447D01*
X95396968Y-89877279D01*
X95452881Y-89863243D01*
X95477465Y-89851246D01*
X95477679Y-89840408D01*
X95450074Y-89835762D01*
X95450074Y-89835762D01*
X95450074Y-89835762D01*
G37*
X95450074Y-89835762D02*
X95397939Y-89845861D01*
X95380756Y-89855185D01*
X95377942Y-89865256D01*
X95385754Y-89874447D01*
X95396968Y-89877279D01*
X95452881Y-89863243D01*
X95477465Y-89851246D01*
X95477679Y-89840408D01*
X95450074Y-89835762D01*
X95450074Y-89835762D01*
G36*
X95197699Y-90026937D02*
X95185773Y-90029348D01*
X95169274Y-90047735D01*
X95186419Y-90054791D01*
X95198259Y-90049213D01*
X95202917Y-90036404D01*
X95197699Y-90026938D01*
X95197699Y-90026937D01*
X95197699Y-90026937D01*
G37*
X95197699Y-90026937D02*
X95185773Y-90029348D01*
X95169274Y-90047735D01*
X95186419Y-90054791D01*
X95198259Y-90049213D01*
X95202917Y-90036404D01*
X95197699Y-90026938D01*
X95197699Y-90026937D01*
G36*
X90788766Y-92122064D02*
X90812936Y-92127872D01*
X90803425Y-92141544D01*
X90774425Y-92157386D01*
X90751221Y-92151930D01*
X90733436Y-92144229D01*
X90719218Y-92148204D01*
X90667651Y-92158972D01*
X90560071Y-92167609D01*
X90408792Y-92181433D01*
X90252162Y-92204682D01*
X90071899Y-92248315D01*
X89903878Y-92320868D01*
X89859914Y-92336168D01*
X89829509Y-92335453D01*
X89817531Y-92331553D01*
X89821037Y-92342137D01*
X89822870Y-92350774D01*
X89817354Y-92359036D01*
X89786251Y-92372699D01*
X89667107Y-92419114D01*
X89611067Y-92440565D01*
X89577533Y-92443514D01*
X89559336Y-92444701D01*
X89540187Y-92461901D01*
X89518886Y-92483718D01*
X89495512Y-92496016D01*
X89389637Y-92540170D01*
X89287540Y-92579305D01*
X89261598Y-92592065D01*
X89228826Y-92621993D01*
X89196500Y-92649822D01*
X89171627Y-92657549D01*
X89153548Y-92656693D01*
X89135910Y-92665182D01*
X89105298Y-92703768D01*
X89086463Y-92760455D01*
X89086078Y-92822386D01*
X89103812Y-92874771D01*
X89131896Y-92921477D01*
X89227807Y-93047428D01*
X89286516Y-93118727D01*
X89356833Y-93189417D01*
X89430091Y-93251479D01*
X89497624Y-93296895D01*
X89535378Y-93323040D01*
X89551344Y-93344230D01*
X89574601Y-93368726D01*
X89627423Y-93404595D01*
X89685471Y-93436874D01*
X89724405Y-93450601D01*
X89736013Y-93454952D01*
X89741078Y-93466006D01*
X89752601Y-93480438D01*
X89779716Y-93492916D01*
X89878459Y-93539803D01*
X89990644Y-93606245D01*
X90064826Y-93639935D01*
X90170613Y-93677929D01*
X90346274Y-93737971D01*
X90384032Y-93756071D01*
X90401122Y-93771380D01*
X90436979Y-93792203D01*
X90518555Y-93816394D01*
X90811849Y-93873155D01*
X91140429Y-93929459D01*
X91244582Y-93944090D01*
X91344600Y-93951026D01*
X91620008Y-93959574D01*
X91752742Y-93959922D01*
X91866752Y-93950101D01*
X91958830Y-93930567D01*
X92025765Y-93901779D01*
X92117526Y-93857128D01*
X92157685Y-93833797D01*
X92184042Y-93803806D01*
X92204800Y-93780017D01*
X92232618Y-93774536D01*
X92258301Y-93773179D01*
X92275058Y-93762211D01*
X92403469Y-93659741D01*
X92586445Y-93527478D01*
X92688305Y-93476937D01*
X92850118Y-93416194D01*
X93016244Y-93364348D01*
X93131048Y-93340502D01*
X93161793Y-93340950D01*
X93183455Y-93347249D01*
X93199811Y-93361438D01*
X93214634Y-93385551D01*
X93228262Y-93415916D01*
X93229826Y-93444084D01*
X93186681Y-93554985D01*
X93149387Y-93609019D01*
X93089777Y-93671320D01*
X92970832Y-93780400D01*
X92927025Y-93810483D01*
X92864541Y-93840847D01*
X92797117Y-93865996D01*
X92738485Y-93880435D01*
X92738485Y-93769690D01*
X92743529Y-93768176D01*
X92851412Y-93726115D01*
X92891496Y-93698775D01*
X92930630Y-93662549D01*
X92985653Y-93596321D01*
X93029877Y-93526155D01*
X93055381Y-93466763D01*
X93058638Y-93445706D01*
X93054245Y-93432861D01*
X93019298Y-93435700D01*
X92956049Y-93462280D01*
X92884136Y-93493472D01*
X92828358Y-93507403D01*
X92779637Y-93522718D01*
X92724695Y-93557222D01*
X92579562Y-93658450D01*
X92421036Y-93768499D01*
X92331511Y-93825921D01*
X92309726Y-93834837D01*
X92288044Y-93855095D01*
X92273349Y-93878445D01*
X92272523Y-93896636D01*
X92285497Y-93907685D01*
X92306712Y-93909274D01*
X92390076Y-93882051D01*
X92515004Y-93837369D01*
X92738485Y-93769691D01*
X92738485Y-93880436D01*
X92720049Y-93883965D01*
X92695490Y-93889133D01*
X92679920Y-93900464D01*
X92653643Y-93915433D01*
X92603365Y-93929336D01*
X92553377Y-93942752D01*
X92527780Y-93956569D01*
X92505432Y-93968171D01*
X92450925Y-93980238D01*
X92240520Y-94006612D01*
X92085795Y-94032367D01*
X91962354Y-94077874D01*
X91869693Y-94137485D01*
X91795678Y-94197414D01*
X91720441Y-94241469D01*
X91642197Y-94297326D01*
X91548199Y-94384515D01*
X91411439Y-94511931D01*
X91389290Y-94529559D01*
X91380330Y-94546768D01*
X91343014Y-94598634D01*
X91252690Y-94699604D01*
X91013185Y-94958309D01*
X90869621Y-95128720D01*
X90825485Y-95191819D01*
X90795336Y-95246049D01*
X90775842Y-95295812D01*
X90763669Y-95345509D01*
X90725504Y-95463236D01*
X90709852Y-95523811D01*
X90709134Y-95595574D01*
X90722640Y-95670349D01*
X90749656Y-95739961D01*
X90793681Y-95792542D01*
X90865896Y-95855009D01*
X90940550Y-95907248D01*
X90991893Y-95929148D01*
X91015546Y-95933980D01*
X91035474Y-95945572D01*
X91077225Y-95960850D01*
X91157708Y-95971329D01*
X91389779Y-95978279D01*
X91641508Y-95967192D01*
X91746562Y-95955125D01*
X91822712Y-95938839D01*
X92075236Y-95859576D01*
X92206459Y-95811965D01*
X92297371Y-95767616D01*
X92347634Y-95737738D01*
X92381131Y-95724903D01*
X92420480Y-95707590D01*
X92487452Y-95661744D01*
X92671962Y-95512277D01*
X92870061Y-95332153D01*
X93017148Y-95177020D01*
X93112088Y-95046177D01*
X93140690Y-94992004D01*
X93157368Y-94942439D01*
X93162613Y-94895314D01*
X93156919Y-94848459D01*
X93140775Y-94799706D01*
X93114674Y-94746888D01*
X93084213Y-94661387D01*
X93072700Y-94555053D01*
X93080310Y-94438085D01*
X93107219Y-94320682D01*
X93156119Y-94186854D01*
X93243729Y-94078773D01*
X93287648Y-94034927D01*
X93317229Y-94013395D01*
X93320061Y-94013058D01*
X93320061Y-94125716D01*
X93290873Y-94147172D01*
X93252767Y-94191428D01*
X93215888Y-94245465D01*
X93190383Y-94296268D01*
X93151373Y-94379582D01*
X93140475Y-94429568D01*
X93138228Y-94516913D01*
X93150875Y-94623842D01*
X93166299Y-94665230D01*
X93190632Y-94708983D01*
X93228996Y-94764055D01*
X93253147Y-94786755D01*
X93282234Y-94747266D01*
X93325492Y-94653585D01*
X93367960Y-94541604D01*
X93394678Y-94447216D01*
X93410034Y-94294131D01*
X93399959Y-94241484D01*
X93377200Y-94185428D01*
X93349327Y-94140993D01*
X93323912Y-94123207D01*
X93320061Y-94125717D01*
X93320061Y-94013059D01*
X93350883Y-94010485D01*
X93385906Y-94018789D01*
X93462281Y-94063208D01*
X93536633Y-94136663D01*
X93596413Y-94229504D01*
X93620603Y-94301834D01*
X93627023Y-94385040D01*
X93615586Y-94482258D01*
X93586201Y-94596623D01*
X93524160Y-94743063D01*
X93487479Y-94808893D01*
X93457392Y-94849445D01*
X93405706Y-94925631D01*
X93370352Y-95013885D01*
X93369958Y-95061475D01*
X93395771Y-95096452D01*
X93431452Y-95140382D01*
X93461932Y-95196503D01*
X93539086Y-95295000D01*
X93643549Y-95412813D01*
X93755958Y-95526882D01*
X93920596Y-95695919D01*
X93987866Y-95768784D01*
X94139351Y-95909359D01*
X94300832Y-96050773D01*
X94398087Y-96126150D01*
X94455193Y-96164324D01*
X94520112Y-96220148D01*
X94796813Y-96470735D01*
X95083327Y-96720225D01*
X95178277Y-96790042D01*
X95296660Y-96867630D01*
X95405566Y-96932378D01*
X95472088Y-96963679D01*
X95501724Y-96974278D01*
X95514254Y-96986588D01*
X95543110Y-97017435D01*
X95614395Y-97067191D01*
X95706449Y-97121992D01*
X95797613Y-97167974D01*
X95913803Y-97209506D01*
X95948517Y-97214069D01*
X95960959Y-97206264D01*
X95943597Y-97168045D01*
X95902321Y-97101610D01*
X95807875Y-96974637D01*
X95766806Y-96925383D01*
X95749459Y-96894330D01*
X95732407Y-96858651D01*
X95692037Y-96798270D01*
X95610388Y-96679994D01*
X95550730Y-96578198D01*
X95526714Y-96542607D01*
X95499718Y-96515831D01*
X95475549Y-96486756D01*
X95458347Y-96445637D01*
X95434643Y-96392542D01*
X95394838Y-96334669D01*
X95336971Y-96249001D01*
X95269856Y-96129082D01*
X95202767Y-96006423D01*
X95144948Y-95914153D01*
X95100902Y-95843635D01*
X95066927Y-95773269D01*
X95030621Y-95698760D01*
X94980980Y-95618296D01*
X94825039Y-95349398D01*
X94663102Y-95054346D01*
X94553060Y-94881150D01*
X94502670Y-94797589D01*
X94466203Y-94744736D01*
X94395081Y-94664904D01*
X94327206Y-94586443D01*
X94298549Y-94536865D01*
X94292975Y-94513411D01*
X94280584Y-94497781D01*
X94268219Y-94482564D01*
X94262670Y-94460087D01*
X94239883Y-94404198D01*
X94187419Y-94314179D01*
X94127054Y-94224678D01*
X94080563Y-94170343D01*
X94063249Y-94152479D01*
X94053581Y-94127418D01*
X94050697Y-94023868D01*
X94059925Y-93940332D01*
X94081190Y-93880140D01*
X94113766Y-93843316D01*
X94156930Y-93829888D01*
X94209959Y-93839881D01*
X94272129Y-93873322D01*
X94342716Y-93930236D01*
X94420997Y-94010649D01*
X94517379Y-94117070D01*
X94635404Y-94259743D01*
X94773431Y-94431016D01*
X94848470Y-94542606D01*
X94921447Y-94646393D01*
X95016587Y-94785041D01*
X95141445Y-94968091D01*
X95208381Y-95063702D01*
X95277384Y-95176759D01*
X95409088Y-95405112D01*
X95476138Y-95502606D01*
X95530877Y-95594567D01*
X95602909Y-95719996D01*
X95712486Y-95903866D01*
X95812571Y-96089302D01*
X95890658Y-96184330D01*
X96029590Y-96322838D01*
X96184223Y-96462112D01*
X96309418Y-96559438D01*
X96523618Y-96677981D01*
X96630462Y-96727242D01*
X96704590Y-96753819D01*
X96849698Y-96798420D01*
X96935329Y-96819537D01*
X97028013Y-96828197D01*
X97113691Y-96824043D01*
X97178304Y-96806719D01*
X97211146Y-96777434D01*
X97227129Y-96728176D01*
X97229654Y-96656940D01*
X97221470Y-96576253D01*
X97204505Y-96498285D01*
X97180689Y-96435201D01*
X97063588Y-96226592D01*
X96942677Y-96042017D01*
X96861625Y-95916886D01*
X96792189Y-95796561D01*
X96619016Y-95527529D01*
X96549692Y-95416113D01*
X96479001Y-95303927D01*
X96377475Y-95136804D01*
X96257611Y-94948263D01*
X96193665Y-94853145D01*
X96149028Y-94772138D01*
X96114082Y-94684904D01*
X96079208Y-94571105D01*
X96046854Y-94423650D01*
X96033728Y-94284534D01*
X96040168Y-94166771D01*
X96050830Y-94119965D01*
X96066510Y-94083377D01*
X96111876Y-94022817D01*
X96181029Y-93946770D01*
X96255638Y-93874187D01*
X96317369Y-93824021D01*
X96342337Y-93809660D01*
X96365282Y-93804274D01*
X96436015Y-93819175D01*
X96499732Y-93843651D01*
X96560084Y-93878150D01*
X96621315Y-93925526D01*
X96687669Y-93988634D01*
X96824900Y-94128028D01*
X97007061Y-94320749D01*
X97194422Y-94534187D01*
X97366232Y-94743895D01*
X97501742Y-94925428D01*
X97595926Y-95055356D01*
X97660019Y-95133549D01*
X97797848Y-95305990D01*
X98033263Y-95622448D01*
X98203902Y-95820653D01*
X98252181Y-95884784D01*
X98374852Y-96039036D01*
X98497374Y-96187623D01*
X98532734Y-96229989D01*
X98611389Y-96306718D01*
X98693173Y-96380203D01*
X98737921Y-96412839D01*
X98752070Y-96409613D01*
X98754977Y-96393489D01*
X98721721Y-96277967D01*
X98656014Y-96044534D01*
X98603873Y-95793350D01*
X98563489Y-95514060D01*
X98533055Y-95196314D01*
X98497708Y-94820320D01*
X98476995Y-94723736D01*
X98445269Y-94630118D01*
X98392316Y-94501170D01*
X98343669Y-94403610D01*
X98311209Y-94341713D01*
X98297130Y-94298505D01*
X98280208Y-94239542D01*
X98246593Y-94171155D01*
X98221953Y-94104285D01*
X98205804Y-94037366D01*
X98197666Y-93968831D01*
X98197311Y-93887623D01*
X98203121Y-93872798D01*
X98213518Y-93871504D01*
X98242014Y-93870914D01*
X98279165Y-93858360D01*
X98317617Y-93846393D01*
X98329086Y-93851976D01*
X98339370Y-93865764D01*
X98359811Y-93884997D01*
X98386481Y-93892644D01*
X98411653Y-93888225D01*
X98427603Y-93871255D01*
X98433938Y-93867204D01*
X98437914Y-93887530D01*
X98452923Y-93921757D01*
X98490814Y-93949773D01*
X98544858Y-93981545D01*
X98592870Y-94021492D01*
X98634952Y-94069714D01*
X98671206Y-94126313D01*
X98756084Y-94265931D01*
X98800491Y-94350130D01*
X98844218Y-94458845D01*
X98901640Y-94600773D01*
X98912125Y-94624602D01*
X98917393Y-94659761D01*
X98931379Y-94712393D01*
X98962814Y-94778232D01*
X99049432Y-94937926D01*
X99087773Y-95003997D01*
X99119949Y-95044273D01*
X99139692Y-95064327D01*
X99148150Y-95081792D01*
X99160308Y-95110807D01*
X99195313Y-95160338D01*
X99330653Y-95317437D01*
X99547754Y-95546063D01*
X99840198Y-95839188D01*
X100144304Y-96148240D01*
X100262954Y-96269117D01*
X100310528Y-96307526D01*
X100339679Y-96321848D01*
X100372023Y-96337397D01*
X100423017Y-96374897D01*
X100574791Y-96487941D01*
X100696685Y-96554642D01*
X100825544Y-96618475D01*
X100877935Y-96643438D01*
X100950899Y-96667653D01*
X101167318Y-96716349D01*
X101203008Y-96713374D01*
X101239354Y-96694518D01*
X101270953Y-96663730D01*
X101292400Y-96624960D01*
X101296509Y-96568507D01*
X101275537Y-96487903D01*
X101227887Y-96378743D01*
X101151963Y-96236622D01*
X100998232Y-95956990D01*
X100888333Y-95780126D01*
X100843653Y-95714274D01*
X100817071Y-95663170D01*
X100763177Y-95555680D01*
X100709631Y-95446750D01*
X100683287Y-95397224D01*
X100638741Y-95337248D01*
X100578777Y-95255530D01*
X100515350Y-95153725D01*
X100398741Y-94971023D01*
X100246328Y-94771250D01*
X100044692Y-94496389D01*
X99919834Y-94321365D01*
X99828667Y-94191911D01*
X99764739Y-94083068D01*
X99726608Y-93992009D01*
X99712831Y-93915906D01*
X99713737Y-93886465D01*
X99721138Y-93868386D01*
X99738773Y-93857320D01*
X99770377Y-93848918D01*
X99835288Y-93842851D01*
X99908255Y-93846038D01*
X99954787Y-93855673D01*
X99998797Y-93877954D01*
X100054728Y-93922548D01*
X100137024Y-93999122D01*
X100318027Y-94192657D01*
X100553321Y-94467230D01*
X100768716Y-94733767D01*
X100890022Y-94903192D01*
X100943295Y-94978181D01*
X101027447Y-95084752D01*
X101084801Y-95173257D01*
X101148559Y-95268770D01*
X101237462Y-95406325D01*
X101317471Y-95541693D01*
X101461567Y-95810806D01*
X101599587Y-96111840D01*
X101651205Y-96230335D01*
X101710323Y-96329303D01*
X101787757Y-96424097D01*
X101894326Y-96530070D01*
X102016141Y-96639533D01*
X102076109Y-96684819D01*
X102198408Y-96734141D01*
X102375801Y-96808388D01*
X102512922Y-96846218D01*
X102566731Y-96851536D01*
X102610891Y-96847819D01*
X102645544Y-96835093D01*
X102670830Y-96813379D01*
X102683500Y-96769331D01*
X102681650Y-96694993D01*
X102667364Y-96598567D01*
X102642728Y-96488257D01*
X102570747Y-96258790D01*
X102527572Y-96156038D01*
X102482388Y-96072209D01*
X102436743Y-95980025D01*
X102417411Y-95938675D01*
X102390329Y-95898327D01*
X102367029Y-95859285D01*
X102356785Y-95821102D01*
X102341557Y-95775510D01*
X102306270Y-95718631D01*
X102267513Y-95656252D01*
X102243953Y-95597451D01*
X102225327Y-95544679D01*
X102198433Y-95496794D01*
X102115145Y-95343387D01*
X102027160Y-95184414D01*
X101944867Y-95045994D01*
X101831289Y-94824550D01*
X101744919Y-94665527D01*
X101566587Y-94340609D01*
X101512094Y-94227153D01*
X101484445Y-94153697D01*
X101439040Y-93957697D01*
X101442232Y-93923704D01*
X101459598Y-93901000D01*
X101501639Y-93869629D01*
X101551901Y-93855588D01*
X101610812Y-93858835D01*
X101678801Y-93879333D01*
X101752171Y-93918605D01*
X101775935Y-93941364D01*
X101793198Y-93967839D01*
X101870746Y-94078236D01*
X101921211Y-94135062D01*
X101989194Y-94061240D01*
X102046718Y-94008859D01*
X102089527Y-93986599D01*
X102119054Y-93975916D01*
X102144663Y-93951365D01*
X102164160Y-93930277D01*
X102178977Y-93927885D01*
X102186944Y-93929905D01*
X102189960Y-93919437D01*
X102192242Y-93911385D01*
X102200103Y-93908202D01*
X102235430Y-93916229D01*
X102280643Y-93923818D01*
X102324458Y-93914912D01*
X102435153Y-93886238D01*
X102578647Y-93856546D01*
X102681077Y-93837574D01*
X102769445Y-93836120D01*
X102853150Y-93853028D01*
X102941591Y-93889145D01*
X103028303Y-93926294D01*
X103073605Y-93935709D01*
X103084952Y-93935610D01*
X103090029Y-93949872D01*
X103104387Y-93975583D01*
X103138034Y-94003020D01*
X103245948Y-94073711D01*
X103351933Y-94152560D01*
X103444010Y-94230106D01*
X103510198Y-94296890D01*
X103576644Y-94368537D01*
X103631900Y-94417201D01*
X103719606Y-94497646D01*
X103849708Y-94635006D01*
X103974537Y-94777041D01*
X104046428Y-94871509D01*
X104077851Y-94920014D01*
X104106931Y-94952809D01*
X104203455Y-95074464D01*
X104308294Y-95232366D01*
X104416404Y-95369574D01*
X104491891Y-95467682D01*
X104551170Y-95574479D01*
X104599121Y-95700550D01*
X104640627Y-95856482D01*
X104667685Y-95940615D01*
X104695709Y-96025914D01*
X104716382Y-96123280D01*
X104727447Y-96218975D01*
X104726648Y-96299261D01*
X104703107Y-96406518D01*
X104659010Y-96532327D01*
X104604590Y-96651260D01*
X104550083Y-96737891D01*
X104462920Y-96822877D01*
X104359409Y-96886677D01*
X104240322Y-96928921D01*
X104106434Y-96949242D01*
X103996015Y-96948728D01*
X103896833Y-96932603D01*
X103811559Y-96901621D01*
X103742868Y-96856537D01*
X103742868Y-96676419D01*
X103806253Y-96710435D01*
X103860002Y-96736727D01*
X103926216Y-96757769D01*
X104045866Y-96779141D01*
X104127588Y-96775529D01*
X104157963Y-96763395D01*
X104183341Y-96743867D01*
X104225080Y-96681090D01*
X104244442Y-96636379D01*
X104253982Y-96595604D01*
X104249381Y-96477193D01*
X104223078Y-96243428D01*
X104194552Y-96085677D01*
X104147019Y-95936093D01*
X104063697Y-95726828D01*
X103953634Y-95467502D01*
X103881516Y-95315704D01*
X103802427Y-95181976D01*
X103717623Y-95037489D01*
X103628198Y-94885895D01*
X103592944Y-94833239D01*
X103562377Y-94798806D01*
X103543023Y-94778934D01*
X103534722Y-94761311D01*
X103488398Y-94687021D01*
X103403429Y-94588498D01*
X103202240Y-94361319D01*
X103079373Y-94224883D01*
X103017177Y-94167808D01*
X102968855Y-94141524D01*
X102881772Y-94082732D01*
X102796675Y-94020156D01*
X102754317Y-93982521D01*
X102735872Y-93973998D01*
X102699901Y-93971166D01*
X102662461Y-93967111D01*
X102640492Y-93955636D01*
X102611943Y-93946502D01*
X102558694Y-93948083D01*
X102319828Y-93985960D01*
X102261488Y-94006354D01*
X102212546Y-94035645D01*
X102129109Y-94090806D01*
X102076954Y-94147110D01*
X102035807Y-94197923D01*
X102079588Y-94163087D01*
X102137091Y-94126279D01*
X102198077Y-94100905D01*
X102250943Y-94090602D01*
X102284081Y-94099005D01*
X102291817Y-94111656D01*
X102288899Y-94126743D01*
X102245668Y-94174964D01*
X102196531Y-94225959D01*
X102167706Y-94271853D01*
X102156299Y-94319364D01*
X102159422Y-94375209D01*
X102172286Y-94427114D01*
X102199160Y-94490335D01*
X102314768Y-94691068D01*
X102388689Y-94818932D01*
X102465417Y-94935764D01*
X102539470Y-95056594D01*
X102646380Y-95253586D01*
X102789749Y-95529938D01*
X102858800Y-95650299D01*
X102915328Y-95765640D01*
X102996504Y-95952740D01*
X103089017Y-96116375D01*
X103210936Y-96271705D01*
X103328494Y-96401110D01*
X103419532Y-96487362D01*
X103507370Y-96549849D01*
X103615327Y-96607964D01*
X103742868Y-96676419D01*
X103742868Y-96856537D01*
X103740333Y-96854849D01*
X103686165Y-96813541D01*
X103641242Y-96790246D01*
X103607207Y-96776229D01*
X103579223Y-96757249D01*
X103437122Y-96677415D01*
X103333416Y-96617395D01*
X103250394Y-96553625D01*
X103193418Y-96506925D01*
X103152322Y-96487954D01*
X103133385Y-96492339D01*
X103120030Y-96509085D01*
X103096987Y-96608115D01*
X103058198Y-96726587D01*
X103031969Y-96782766D01*
X103010816Y-96813901D01*
X102962587Y-96878901D01*
X102913284Y-96929774D01*
X102846998Y-96973098D01*
X102760454Y-97023886D01*
X102736179Y-97039678D01*
X102696334Y-97050135D01*
X102656950Y-97052636D01*
X102634056Y-97044559D01*
X102609789Y-97033253D01*
X102568062Y-97031489D01*
X102482399Y-97010984D01*
X102337486Y-96954615D01*
X102178282Y-96881521D01*
X102049746Y-96810845D01*
X101978907Y-96772107D01*
X101880312Y-96702212D01*
X101763282Y-96611122D01*
X101745316Y-96603380D01*
X101724076Y-96609673D01*
X101646226Y-96679228D01*
X101568855Y-96745143D01*
X101476439Y-96807584D01*
X101388983Y-96854399D01*
X101326490Y-96873435D01*
X101304406Y-96879049D01*
X101289269Y-96891574D01*
X101261246Y-96902685D01*
X101204187Y-96903260D01*
X101129489Y-96894047D01*
X101048548Y-96875795D01*
X100896259Y-96835568D01*
X100837663Y-96813727D01*
X100794783Y-96785202D01*
X100763822Y-96761919D01*
X100733882Y-96752652D01*
X100706863Y-96745857D01*
X100682920Y-96728500D01*
X100662665Y-96711037D01*
X100644506Y-96704026D01*
X100617615Y-96692248D01*
X100576375Y-96663326D01*
X100504986Y-96621090D01*
X100473657Y-96613323D01*
X100446341Y-96614228D01*
X100423867Y-96623634D01*
X100407062Y-96641370D01*
X100396754Y-96667264D01*
X100393772Y-96701144D01*
X100383964Y-96747822D01*
X100356277Y-96810526D01*
X100315994Y-96879062D01*
X100268392Y-96943231D01*
X100215169Y-97019736D01*
X100191655Y-97032785D01*
X100134639Y-97045702D01*
X100065463Y-97063651D01*
X100012738Y-97088811D01*
X99987773Y-97103092D01*
X99956931Y-97111954D01*
X99862138Y-97116243D01*
X99772944Y-97110059D01*
X99712358Y-97099223D01*
X99671882Y-97091470D01*
X99671882Y-96869012D01*
X99730373Y-96892990D01*
X99730399Y-96892990D01*
X99864946Y-96924844D01*
X99920684Y-96928285D01*
X99994316Y-96923094D01*
X100064164Y-96911765D01*
X100108550Y-96896792D01*
X100122451Y-96868493D01*
X100124259Y-96817251D01*
X100114709Y-96753960D01*
X100094536Y-96689515D01*
X100076191Y-96624613D01*
X100075155Y-96563181D01*
X100091145Y-96507438D01*
X100123881Y-96459603D01*
X100157632Y-96414314D01*
X100174602Y-96370602D01*
X100173461Y-96335127D01*
X100152877Y-96314544D01*
X100117758Y-96291795D01*
X100077416Y-96252749D01*
X99670417Y-95829375D01*
X99548724Y-95701175D01*
X99475067Y-95613725D01*
X99410284Y-95536014D01*
X99309907Y-95431222D01*
X99206688Y-95324009D01*
X99135081Y-95240494D01*
X99032189Y-95125401D01*
X98978344Y-95076924D01*
X98984233Y-95296276D01*
X98993658Y-95480980D01*
X99008062Y-95617005D01*
X99038251Y-95785917D01*
X99084244Y-95937461D01*
X99139256Y-96103441D01*
X99169062Y-96189060D01*
X99210866Y-96279783D01*
X99274947Y-96416219D01*
X99318483Y-96502452D01*
X99393356Y-96613242D01*
X99479386Y-96721158D01*
X99556393Y-96798769D01*
X99613322Y-96838299D01*
X99671883Y-96869012D01*
X99671883Y-97091470D01*
X99601764Y-97078052D01*
X99544132Y-97066845D01*
X99504362Y-97049777D01*
X99435734Y-97012437D01*
X99372746Y-96990664D01*
X99376645Y-97010145D01*
X99380541Y-97021167D01*
X99369092Y-97017649D01*
X99357057Y-97005558D01*
X99356444Y-96993000D01*
X99333865Y-96969978D01*
X99269007Y-96932746D01*
X99141462Y-96867483D01*
X99088168Y-96833282D01*
X99051676Y-96817055D01*
X98996929Y-96803937D01*
X98954719Y-96791062D01*
X98904747Y-96759587D01*
X98729373Y-96601332D01*
X98563254Y-96435724D01*
X98423913Y-96285295D01*
X98327874Y-96168784D01*
X98301257Y-96129104D01*
X98291662Y-96104932D01*
X98282879Y-96086988D01*
X98262342Y-96066344D01*
X98218474Y-96016126D01*
X98153635Y-95927050D01*
X98034567Y-95768847D01*
X97935277Y-95663668D01*
X97883186Y-95600680D01*
X97842224Y-95538761D01*
X97769844Y-95430650D01*
X97741866Y-95390743D01*
X97729889Y-95360755D01*
X97723083Y-95338130D01*
X97707551Y-95315930D01*
X97610767Y-95204608D01*
X97554243Y-95123687D01*
X97541672Y-95102731D01*
X97511978Y-95073818D01*
X97456225Y-95012624D01*
X97380958Y-94914050D01*
X97274040Y-94778482D01*
X97254094Y-94754630D01*
X97231079Y-94711842D01*
X97199941Y-94663838D01*
X97160463Y-94627436D01*
X97120279Y-94592312D01*
X97087437Y-94547377D01*
X97018709Y-94454051D01*
X96758123Y-94188465D01*
X96674673Y-94092472D01*
X96631453Y-94053916D01*
X96547628Y-94000687D01*
X96483201Y-93965398D01*
X96444341Y-93949711D01*
X96417879Y-93950654D01*
X96390643Y-93965254D01*
X96357010Y-93998795D01*
X96341744Y-94041511D01*
X96344808Y-94102778D01*
X96360888Y-94183713D01*
X96386616Y-94270779D01*
X96418621Y-94350438D01*
X96577171Y-94674863D01*
X96612666Y-94735953D01*
X96630966Y-94752318D01*
X96654032Y-94775401D01*
X96689830Y-94831407D01*
X96765937Y-94960986D01*
X96871837Y-95130892D01*
X96988072Y-95297642D01*
X97092009Y-95453311D01*
X97238000Y-95703437D01*
X97285221Y-95767978D01*
X97295191Y-95776628D01*
X97299583Y-95789967D01*
X97343787Y-95861155D01*
X97388039Y-95932914D01*
X97458432Y-96070146D01*
X97541049Y-96227355D01*
X97577674Y-96297449D01*
X97596110Y-96354637D01*
X97604808Y-96454410D01*
X97604604Y-96522132D01*
X97598360Y-96574565D01*
X97583630Y-96623510D01*
X97557971Y-96680769D01*
X97514887Y-96753744D01*
X97462162Y-96817371D01*
X97401658Y-96869740D01*
X97335239Y-96908942D01*
X97250435Y-96955207D01*
X97183665Y-96974513D01*
X97073100Y-96988106D01*
X96992119Y-96991965D01*
X96934159Y-96988007D01*
X96879463Y-96972886D01*
X96808277Y-96943256D01*
X96673306Y-96889188D01*
X96611165Y-96869959D01*
X96508753Y-96824195D01*
X96407622Y-96771911D01*
X96349322Y-96733122D01*
X96304422Y-96700271D01*
X96250025Y-96679743D01*
X96204333Y-96675960D01*
X96190442Y-96681728D01*
X96185553Y-96693341D01*
X96204302Y-96737634D01*
X96256356Y-96828000D01*
X96440860Y-97114727D01*
X96574563Y-97324364D01*
X96685686Y-97501371D01*
X96731028Y-97561259D01*
X96761316Y-97590330D01*
X96802761Y-97617215D01*
X96857546Y-97647491D01*
X96965710Y-97696443D01*
X97154450Y-97769231D01*
X97198210Y-97782522D01*
X97231576Y-97799942D01*
X97532080Y-97946342D01*
X97756415Y-98055031D01*
X97910256Y-98139381D01*
X98021271Y-98204232D01*
X98142653Y-98266028D01*
X98362020Y-98384033D01*
X98652003Y-98557617D01*
X98916596Y-98727347D01*
X99059792Y-98833790D01*
X99237004Y-99018480D01*
X99424880Y-99231628D01*
X99486926Y-99315350D01*
X99510821Y-99362615D01*
X99565137Y-99499524D01*
X99605046Y-99610758D01*
X99621119Y-99701359D01*
X99611549Y-99796825D01*
X99583544Y-99903322D01*
X99544597Y-99998300D01*
X99502199Y-100059210D01*
X99485515Y-100086616D01*
X99487117Y-100122496D01*
X99489909Y-100154046D01*
X99467959Y-100159817D01*
X99412376Y-100167544D01*
X99305483Y-100207225D01*
X99179606Y-100261592D01*
X99179606Y-100261617D01*
X99143331Y-100280244D01*
X99110111Y-100286181D01*
X99063745Y-100279220D01*
X98988033Y-100259155D01*
X98883284Y-100236521D01*
X98783938Y-100224593D01*
X98699495Y-100212338D01*
X98636096Y-100184961D01*
X98599620Y-100167866D01*
X98599620Y-99962851D01*
X98700176Y-100020186D01*
X98794546Y-100066089D01*
X98878848Y-100098171D01*
X98949197Y-100114047D01*
X99069941Y-100124990D01*
X99156785Y-100125018D01*
X99224372Y-100112995D01*
X99287344Y-100087783D01*
X99325703Y-100064144D01*
X99341412Y-100044872D01*
X99347443Y-100033298D01*
X99362532Y-100028174D01*
X99378415Y-100019376D01*
X99397599Y-99996124D01*
X99439077Y-99920967D01*
X99473373Y-99832127D01*
X99486893Y-99759028D01*
X99491032Y-99706441D01*
X99503342Y-99673429D01*
X99508123Y-99656098D01*
X99502193Y-99622919D01*
X99454964Y-99497336D01*
X99400758Y-99378748D01*
X99363849Y-99314137D01*
X99338952Y-99276344D01*
X99305172Y-99228002D01*
X99230182Y-99139432D01*
X99152429Y-99054349D01*
X99110357Y-99016466D01*
X99091558Y-99001989D01*
X99065433Y-98966696D01*
X99038854Y-98931429D01*
X99018943Y-98916977D01*
X98985562Y-98895385D01*
X98926611Y-98842957D01*
X98865580Y-98790579D01*
X98827196Y-98769110D01*
X98749374Y-98729951D01*
X98593508Y-98635034D01*
X98356276Y-98489673D01*
X98098375Y-98352471D01*
X97897037Y-98243043D01*
X97819049Y-98201734D01*
X97775186Y-98184851D01*
X97752101Y-98175469D01*
X97724075Y-98152201D01*
X97695864Y-98128946D01*
X97672343Y-98119577D01*
X97648822Y-98110195D01*
X97620611Y-98086927D01*
X97590096Y-98063735D01*
X97561027Y-98054501D01*
X97531363Y-98047931D01*
X97499430Y-98031145D01*
X97468649Y-98014176D01*
X97441760Y-98007167D01*
X97416697Y-98000755D01*
X97390301Y-97985252D01*
X97303062Y-97942714D01*
X97131665Y-97874358D01*
X96942162Y-97800821D01*
X96901509Y-97796583D01*
X96878098Y-97809184D01*
X96950202Y-97943536D01*
X97097028Y-98188578D01*
X97201610Y-98359850D01*
X97267103Y-98460529D01*
X97302764Y-98502201D01*
X97313111Y-98508557D01*
X97317747Y-98524340D01*
X97349869Y-98585617D01*
X97425216Y-98705911D01*
X97584358Y-98936259D01*
X97685810Y-99071701D01*
X97785231Y-99196153D01*
X97929138Y-99362252D01*
X98220798Y-99673578D01*
X98306150Y-99751319D01*
X98400146Y-99826875D01*
X98599620Y-99962851D01*
X98599620Y-100167866D01*
X98563407Y-100155545D01*
X98531240Y-100150970D01*
X98491582Y-100145679D01*
X98481628Y-100137987D01*
X98478116Y-100126868D01*
X98473379Y-100109014D01*
X98462860Y-100101797D01*
X98382927Y-100052922D01*
X98329569Y-100018324D01*
X98292979Y-100004296D01*
X98254762Y-99987814D01*
X98197491Y-99947321D01*
X98142016Y-99906789D01*
X98108115Y-99890197D01*
X98050036Y-99857894D01*
X97949020Y-99781461D01*
X97845436Y-99693364D01*
X97779658Y-99626070D01*
X97728036Y-99565932D01*
X97662403Y-99501958D01*
X97576058Y-99416019D01*
X97474633Y-99303080D01*
X97280674Y-99088150D01*
X97205691Y-99005206D01*
X97140262Y-98922021D01*
X97090310Y-98857287D01*
X97052551Y-98818706D01*
X97021291Y-98783202D01*
X96986954Y-98725876D01*
X96944015Y-98652741D01*
X96892062Y-98579227D01*
X96781464Y-98429182D01*
X96648111Y-98221799D01*
X96563206Y-98093666D01*
X96490132Y-97996731D01*
X96420320Y-97904691D01*
X96343259Y-97788337D01*
X96232606Y-97624634D01*
X96124070Y-97503673D01*
X96065930Y-97454897D01*
X96002719Y-97411616D01*
X95853618Y-97334625D01*
X95656536Y-97231346D01*
X95566793Y-97176757D01*
X95518129Y-97140567D01*
X95354460Y-97042744D01*
X95240889Y-96974109D01*
X95185399Y-96932521D01*
X95170468Y-96916865D01*
X95154414Y-96910605D01*
X95105497Y-96883801D01*
X95012302Y-96812056D01*
X94764460Y-96592062D01*
X94553611Y-96396915D01*
X94491735Y-96346738D01*
X94448676Y-96319338D01*
X94396092Y-96279063D01*
X94320339Y-96207724D01*
X94205048Y-96096284D01*
X93989902Y-95894752D01*
X93878826Y-95780978D01*
X93827070Y-95719922D01*
X93812556Y-95698103D01*
X93792756Y-95689384D01*
X93761757Y-95672718D01*
X93720326Y-95631813D01*
X93680841Y-95590646D01*
X93654505Y-95573322D01*
X93614166Y-95536293D01*
X93541028Y-95447744D01*
X93351861Y-95214948D01*
X93302737Y-95171417D01*
X93268229Y-95159912D01*
X93218010Y-95195897D01*
X93124636Y-95282062D01*
X92990858Y-95404211D01*
X92943325Y-95440166D01*
X92785273Y-95572747D01*
X92651170Y-95662723D01*
X92594767Y-95695470D01*
X92547110Y-95731873D01*
X92496821Y-95773007D01*
X92432337Y-95815676D01*
X92268197Y-95902172D01*
X92069513Y-95984464D01*
X91851112Y-96055659D01*
X91713403Y-96075953D01*
X91501731Y-96089709D01*
X91278301Y-96094304D01*
X91105319Y-96087115D01*
X91030830Y-96072547D01*
X90958944Y-96047462D01*
X90898892Y-96015829D01*
X90859902Y-95981614D01*
X90834836Y-95960005D01*
X90806803Y-95951474D01*
X90770489Y-95937316D01*
X90727253Y-95898073D01*
X90683559Y-95840910D01*
X90645867Y-95772996D01*
X90629464Y-95725220D01*
X90619296Y-95669148D01*
X90616865Y-95543431D01*
X90636980Y-95418479D01*
X90654993Y-95363362D01*
X90678045Y-95316923D01*
X90702594Y-95257314D01*
X90719196Y-95214653D01*
X90759817Y-95139090D01*
X90838134Y-95030369D01*
X90954019Y-94891924D01*
X91064465Y-94772716D01*
X91104208Y-94735626D01*
X91126464Y-94721705D01*
X91142092Y-94706362D01*
X91154368Y-94670097D01*
X91167380Y-94633812D01*
X91184781Y-94618415D01*
X91220979Y-94597814D01*
X91274740Y-94551350D01*
X91323419Y-94500526D01*
X91344375Y-94466846D01*
X91356626Y-94445280D01*
X91386715Y-94419015D01*
X91461456Y-94355779D01*
X91508392Y-94321788D01*
X91521095Y-94312461D01*
X91530606Y-94290554D01*
X91563366Y-94249403D01*
X91631958Y-94193774D01*
X91710171Y-94130260D01*
X91722164Y-94108113D01*
X91714419Y-94090995D01*
X91685690Y-94077870D01*
X91634730Y-94067706D01*
X91461133Y-94052119D01*
X91152392Y-94028924D01*
X91082461Y-94017729D01*
X91022354Y-94001431D01*
X90902838Y-93971738D01*
X90796840Y-93950941D01*
X90664130Y-93936306D01*
X90604491Y-93930304D01*
X90551596Y-93914167D01*
X90419881Y-93872026D01*
X90354060Y-93852332D01*
X90313261Y-93831401D01*
X90288260Y-93816225D01*
X90260410Y-93810355D01*
X90218145Y-93799323D01*
X90122588Y-93758598D01*
X90017354Y-93731663D01*
X89978867Y-93717678D01*
X89924723Y-93683087D01*
X89871343Y-93648487D01*
X89834701Y-93634461D01*
X89801340Y-93624090D01*
X89755861Y-93598283D01*
X89672399Y-93545234D01*
X89588795Y-93492684D01*
X89495028Y-93423455D01*
X89303128Y-93259272D01*
X89148934Y-93101311D01*
X89102302Y-93039858D01*
X89084685Y-92998195D01*
X89073609Y-92960454D01*
X89048557Y-92920075D01*
X89023639Y-92872344D01*
X89012500Y-92811628D01*
X89015725Y-92747148D01*
X89033897Y-92688126D01*
X89072663Y-92642682D01*
X89142560Y-92591228D01*
X89232308Y-92540950D01*
X89330624Y-92499037D01*
X89386928Y-92474652D01*
X89410135Y-92456126D01*
X89430914Y-92440076D01*
X89481372Y-92421638D01*
X89586501Y-92385112D01*
X89746071Y-92320981D01*
X89982469Y-92230090D01*
X90090957Y-92194271D01*
X90215970Y-92167685D01*
X90373913Y-92147627D01*
X90581190Y-92131396D01*
X90788764Y-92122054D01*
X90788766Y-92122064D01*
X90788766Y-92122064D01*
G37*
X90788766Y-92122064D02*
X90812936Y-92127872D01*
X90803425Y-92141544D01*
X90774425Y-92157386D01*
X90751221Y-92151930D01*
X90733436Y-92144229D01*
X90719218Y-92148204D01*
X90667651Y-92158972D01*
X90560071Y-92167609D01*
X90408792Y-92181433D01*
X90252162Y-92204682D01*
X90071899Y-92248315D01*
X89903878Y-92320868D01*
X89859914Y-92336168D01*
X89829509Y-92335453D01*
X89817531Y-92331553D01*
X89821037Y-92342137D01*
X89822870Y-92350774D01*
X89817354Y-92359036D01*
X89786251Y-92372699D01*
X89667107Y-92419114D01*
X89611067Y-92440565D01*
X89577533Y-92443514D01*
X89559336Y-92444701D01*
X89540187Y-92461901D01*
X89518886Y-92483718D01*
X89495512Y-92496016D01*
X89389637Y-92540170D01*
X89287540Y-92579305D01*
X89261598Y-92592065D01*
X89228826Y-92621993D01*
X89196500Y-92649822D01*
X89171627Y-92657549D01*
X89153548Y-92656693D01*
X89135910Y-92665182D01*
X89105298Y-92703768D01*
X89086463Y-92760455D01*
X89086078Y-92822386D01*
X89103812Y-92874771D01*
X89131896Y-92921477D01*
X89227807Y-93047428D01*
X89286516Y-93118727D01*
X89356833Y-93189417D01*
X89430091Y-93251479D01*
X89497624Y-93296895D01*
X89535378Y-93323040D01*
X89551344Y-93344230D01*
X89574601Y-93368726D01*
X89627423Y-93404595D01*
X89685471Y-93436874D01*
X89724405Y-93450601D01*
X89736013Y-93454952D01*
X89741078Y-93466006D01*
X89752601Y-93480438D01*
X89779716Y-93492916D01*
X89878459Y-93539803D01*
X89990644Y-93606245D01*
X90064826Y-93639935D01*
X90170613Y-93677929D01*
X90346274Y-93737971D01*
X90384032Y-93756071D01*
X90401122Y-93771380D01*
X90436979Y-93792203D01*
X90518555Y-93816394D01*
X90811849Y-93873155D01*
X91140429Y-93929459D01*
X91244582Y-93944090D01*
X91344600Y-93951026D01*
X91620008Y-93959574D01*
X91752742Y-93959922D01*
X91866752Y-93950101D01*
X91958830Y-93930567D01*
X92025765Y-93901779D01*
X92117526Y-93857128D01*
X92157685Y-93833797D01*
X92184042Y-93803806D01*
X92204800Y-93780017D01*
X92232618Y-93774536D01*
X92258301Y-93773179D01*
X92275058Y-93762211D01*
X92403469Y-93659741D01*
X92586445Y-93527478D01*
X92688305Y-93476937D01*
X92850118Y-93416194D01*
X93016244Y-93364348D01*
X93131048Y-93340502D01*
X93161793Y-93340950D01*
X93183455Y-93347249D01*
X93199811Y-93361438D01*
X93214634Y-93385551D01*
X93228262Y-93415916D01*
X93229826Y-93444084D01*
X93186681Y-93554985D01*
X93149387Y-93609019D01*
X93089777Y-93671320D01*
X92970832Y-93780400D01*
X92927025Y-93810483D01*
X92864541Y-93840847D01*
X92797117Y-93865996D01*
X92738485Y-93880435D01*
X92738485Y-93769690D01*
X92743529Y-93768176D01*
X92851412Y-93726115D01*
X92891496Y-93698775D01*
X92930630Y-93662549D01*
X92985653Y-93596321D01*
X93029877Y-93526155D01*
X93055381Y-93466763D01*
X93058638Y-93445706D01*
X93054245Y-93432861D01*
X93019298Y-93435700D01*
X92956049Y-93462280D01*
X92884136Y-93493472D01*
X92828358Y-93507403D01*
X92779637Y-93522718D01*
X92724695Y-93557222D01*
X92579562Y-93658450D01*
X92421036Y-93768499D01*
X92331511Y-93825921D01*
X92309726Y-93834837D01*
X92288044Y-93855095D01*
X92273349Y-93878445D01*
X92272523Y-93896636D01*
X92285497Y-93907685D01*
X92306712Y-93909274D01*
X92390076Y-93882051D01*
X92515004Y-93837369D01*
X92738485Y-93769691D01*
X92738485Y-93880436D01*
X92720049Y-93883965D01*
X92695490Y-93889133D01*
X92679920Y-93900464D01*
X92653643Y-93915433D01*
X92603365Y-93929336D01*
X92553377Y-93942752D01*
X92527780Y-93956569D01*
X92505432Y-93968171D01*
X92450925Y-93980238D01*
X92240520Y-94006612D01*
X92085795Y-94032367D01*
X91962354Y-94077874D01*
X91869693Y-94137485D01*
X91795678Y-94197414D01*
X91720441Y-94241469D01*
X91642197Y-94297326D01*
X91548199Y-94384515D01*
X91411439Y-94511931D01*
X91389290Y-94529559D01*
X91380330Y-94546768D01*
X91343014Y-94598634D01*
X91252690Y-94699604D01*
X91013185Y-94958309D01*
X90869621Y-95128720D01*
X90825485Y-95191819D01*
X90795336Y-95246049D01*
X90775842Y-95295812D01*
X90763669Y-95345509D01*
X90725504Y-95463236D01*
X90709852Y-95523811D01*
X90709134Y-95595574D01*
X90722640Y-95670349D01*
X90749656Y-95739961D01*
X90793681Y-95792542D01*
X90865896Y-95855009D01*
X90940550Y-95907248D01*
X90991893Y-95929148D01*
X91015546Y-95933980D01*
X91035474Y-95945572D01*
X91077225Y-95960850D01*
X91157708Y-95971329D01*
X91389779Y-95978279D01*
X91641508Y-95967192D01*
X91746562Y-95955125D01*
X91822712Y-95938839D01*
X92075236Y-95859576D01*
X92206459Y-95811965D01*
X92297371Y-95767616D01*
X92347634Y-95737738D01*
X92381131Y-95724903D01*
X92420480Y-95707590D01*
X92487452Y-95661744D01*
X92671962Y-95512277D01*
X92870061Y-95332153D01*
X93017148Y-95177020D01*
X93112088Y-95046177D01*
X93140690Y-94992004D01*
X93157368Y-94942439D01*
X93162613Y-94895314D01*
X93156919Y-94848459D01*
X93140775Y-94799706D01*
X93114674Y-94746888D01*
X93084213Y-94661387D01*
X93072700Y-94555053D01*
X93080310Y-94438085D01*
X93107219Y-94320682D01*
X93156119Y-94186854D01*
X93243729Y-94078773D01*
X93287648Y-94034927D01*
X93317229Y-94013395D01*
X93320061Y-94013058D01*
X93320061Y-94125716D01*
X93290873Y-94147172D01*
X93252767Y-94191428D01*
X93215888Y-94245465D01*
X93190383Y-94296268D01*
X93151373Y-94379582D01*
X93140475Y-94429568D01*
X93138228Y-94516913D01*
X93150875Y-94623842D01*
X93166299Y-94665230D01*
X93190632Y-94708983D01*
X93228996Y-94764055D01*
X93253147Y-94786755D01*
X93282234Y-94747266D01*
X93325492Y-94653585D01*
X93367960Y-94541604D01*
X93394678Y-94447216D01*
X93410034Y-94294131D01*
X93399959Y-94241484D01*
X93377200Y-94185428D01*
X93349327Y-94140993D01*
X93323912Y-94123207D01*
X93320061Y-94125717D01*
X93320061Y-94013059D01*
X93350883Y-94010485D01*
X93385906Y-94018789D01*
X93462281Y-94063208D01*
X93536633Y-94136663D01*
X93596413Y-94229504D01*
X93620603Y-94301834D01*
X93627023Y-94385040D01*
X93615586Y-94482258D01*
X93586201Y-94596623D01*
X93524160Y-94743063D01*
X93487479Y-94808893D01*
X93457392Y-94849445D01*
X93405706Y-94925631D01*
X93370352Y-95013885D01*
X93369958Y-95061475D01*
X93395771Y-95096452D01*
X93431452Y-95140382D01*
X93461932Y-95196503D01*
X93539086Y-95295000D01*
X93643549Y-95412813D01*
X93755958Y-95526882D01*
X93920596Y-95695919D01*
X93987866Y-95768784D01*
X94139351Y-95909359D01*
X94300832Y-96050773D01*
X94398087Y-96126150D01*
X94455193Y-96164324D01*
X94520112Y-96220148D01*
X94796813Y-96470735D01*
X95083327Y-96720225D01*
X95178277Y-96790042D01*
X95296660Y-96867630D01*
X95405566Y-96932378D01*
X95472088Y-96963679D01*
X95501724Y-96974278D01*
X95514254Y-96986588D01*
X95543110Y-97017435D01*
X95614395Y-97067191D01*
X95706449Y-97121992D01*
X95797613Y-97167974D01*
X95913803Y-97209506D01*
X95948517Y-97214069D01*
X95960959Y-97206264D01*
X95943597Y-97168045D01*
X95902321Y-97101610D01*
X95807875Y-96974637D01*
X95766806Y-96925383D01*
X95749459Y-96894330D01*
X95732407Y-96858651D01*
X95692037Y-96798270D01*
X95610388Y-96679994D01*
X95550730Y-96578198D01*
X95526714Y-96542607D01*
X95499718Y-96515831D01*
X95475549Y-96486756D01*
X95458347Y-96445637D01*
X95434643Y-96392542D01*
X95394838Y-96334669D01*
X95336971Y-96249001D01*
X95269856Y-96129082D01*
X95202767Y-96006423D01*
X95144948Y-95914153D01*
X95100902Y-95843635D01*
X95066927Y-95773269D01*
X95030621Y-95698760D01*
X94980980Y-95618296D01*
X94825039Y-95349398D01*
X94663102Y-95054346D01*
X94553060Y-94881150D01*
X94502670Y-94797589D01*
X94466203Y-94744736D01*
X94395081Y-94664904D01*
X94327206Y-94586443D01*
X94298549Y-94536865D01*
X94292975Y-94513411D01*
X94280584Y-94497781D01*
X94268219Y-94482564D01*
X94262670Y-94460087D01*
X94239883Y-94404198D01*
X94187419Y-94314179D01*
X94127054Y-94224678D01*
X94080563Y-94170343D01*
X94063249Y-94152479D01*
X94053581Y-94127418D01*
X94050697Y-94023868D01*
X94059925Y-93940332D01*
X94081190Y-93880140D01*
X94113766Y-93843316D01*
X94156930Y-93829888D01*
X94209959Y-93839881D01*
X94272129Y-93873322D01*
X94342716Y-93930236D01*
X94420997Y-94010649D01*
X94517379Y-94117070D01*
X94635404Y-94259743D01*
X94773431Y-94431016D01*
X94848470Y-94542606D01*
X94921447Y-94646393D01*
X95016587Y-94785041D01*
X95141445Y-94968091D01*
X95208381Y-95063702D01*
X95277384Y-95176759D01*
X95409088Y-95405112D01*
X95476138Y-95502606D01*
X95530877Y-95594567D01*
X95602909Y-95719996D01*
X95712486Y-95903866D01*
X95812571Y-96089302D01*
X95890658Y-96184330D01*
X96029590Y-96322838D01*
X96184223Y-96462112D01*
X96309418Y-96559438D01*
X96523618Y-96677981D01*
X96630462Y-96727242D01*
X96704590Y-96753819D01*
X96849698Y-96798420D01*
X96935329Y-96819537D01*
X97028013Y-96828197D01*
X97113691Y-96824043D01*
X97178304Y-96806719D01*
X97211146Y-96777434D01*
X97227129Y-96728176D01*
X97229654Y-96656940D01*
X97221470Y-96576253D01*
X97204505Y-96498285D01*
X97180689Y-96435201D01*
X97063588Y-96226592D01*
X96942677Y-96042017D01*
X96861625Y-95916886D01*
X96792189Y-95796561D01*
X96619016Y-95527529D01*
X96549692Y-95416113D01*
X96479001Y-95303927D01*
X96377475Y-95136804D01*
X96257611Y-94948263D01*
X96193665Y-94853145D01*
X96149028Y-94772138D01*
X96114082Y-94684904D01*
X96079208Y-94571105D01*
X96046854Y-94423650D01*
X96033728Y-94284534D01*
X96040168Y-94166771D01*
X96050830Y-94119965D01*
X96066510Y-94083377D01*
X96111876Y-94022817D01*
X96181029Y-93946770D01*
X96255638Y-93874187D01*
X96317369Y-93824021D01*
X96342337Y-93809660D01*
X96365282Y-93804274D01*
X96436015Y-93819175D01*
X96499732Y-93843651D01*
X96560084Y-93878150D01*
X96621315Y-93925526D01*
X96687669Y-93988634D01*
X96824900Y-94128028D01*
X97007061Y-94320749D01*
X97194422Y-94534187D01*
X97366232Y-94743895D01*
X97501742Y-94925428D01*
X97595926Y-95055356D01*
X97660019Y-95133549D01*
X97797848Y-95305990D01*
X98033263Y-95622448D01*
X98203902Y-95820653D01*
X98252181Y-95884784D01*
X98374852Y-96039036D01*
X98497374Y-96187623D01*
X98532734Y-96229989D01*
X98611389Y-96306718D01*
X98693173Y-96380203D01*
X98737921Y-96412839D01*
X98752070Y-96409613D01*
X98754977Y-96393489D01*
X98721721Y-96277967D01*
X98656014Y-96044534D01*
X98603873Y-95793350D01*
X98563489Y-95514060D01*
X98533055Y-95196314D01*
X98497708Y-94820320D01*
X98476995Y-94723736D01*
X98445269Y-94630118D01*
X98392316Y-94501170D01*
X98343669Y-94403610D01*
X98311209Y-94341713D01*
X98297130Y-94298505D01*
X98280208Y-94239542D01*
X98246593Y-94171155D01*
X98221953Y-94104285D01*
X98205804Y-94037366D01*
X98197666Y-93968831D01*
X98197311Y-93887623D01*
X98203121Y-93872798D01*
X98213518Y-93871504D01*
X98242014Y-93870914D01*
X98279165Y-93858360D01*
X98317617Y-93846393D01*
X98329086Y-93851976D01*
X98339370Y-93865764D01*
X98359811Y-93884997D01*
X98386481Y-93892644D01*
X98411653Y-93888225D01*
X98427603Y-93871255D01*
X98433938Y-93867204D01*
X98437914Y-93887530D01*
X98452923Y-93921757D01*
X98490814Y-93949773D01*
X98544858Y-93981545D01*
X98592870Y-94021492D01*
X98634952Y-94069714D01*
X98671206Y-94126313D01*
X98756084Y-94265931D01*
X98800491Y-94350130D01*
X98844218Y-94458845D01*
X98901640Y-94600773D01*
X98912125Y-94624602D01*
X98917393Y-94659761D01*
X98931379Y-94712393D01*
X98962814Y-94778232D01*
X99049432Y-94937926D01*
X99087773Y-95003997D01*
X99119949Y-95044273D01*
X99139692Y-95064327D01*
X99148150Y-95081792D01*
X99160308Y-95110807D01*
X99195313Y-95160338D01*
X99330653Y-95317437D01*
X99547754Y-95546063D01*
X99840198Y-95839188D01*
X100144304Y-96148240D01*
X100262954Y-96269117D01*
X100310528Y-96307526D01*
X100339679Y-96321848D01*
X100372023Y-96337397D01*
X100423017Y-96374897D01*
X100574791Y-96487941D01*
X100696685Y-96554642D01*
X100825544Y-96618475D01*
X100877935Y-96643438D01*
X100950899Y-96667653D01*
X101167318Y-96716349D01*
X101203008Y-96713374D01*
X101239354Y-96694518D01*
X101270953Y-96663730D01*
X101292400Y-96624960D01*
X101296509Y-96568507D01*
X101275537Y-96487903D01*
X101227887Y-96378743D01*
X101151963Y-96236622D01*
X100998232Y-95956990D01*
X100888333Y-95780126D01*
X100843653Y-95714274D01*
X100817071Y-95663170D01*
X100763177Y-95555680D01*
X100709631Y-95446750D01*
X100683287Y-95397224D01*
X100638741Y-95337248D01*
X100578777Y-95255530D01*
X100515350Y-95153725D01*
X100398741Y-94971023D01*
X100246328Y-94771250D01*
X100044692Y-94496389D01*
X99919834Y-94321365D01*
X99828667Y-94191911D01*
X99764739Y-94083068D01*
X99726608Y-93992009D01*
X99712831Y-93915906D01*
X99713737Y-93886465D01*
X99721138Y-93868386D01*
X99738773Y-93857320D01*
X99770377Y-93848918D01*
X99835288Y-93842851D01*
X99908255Y-93846038D01*
X99954787Y-93855673D01*
X99998797Y-93877954D01*
X100054728Y-93922548D01*
X100137024Y-93999122D01*
X100318027Y-94192657D01*
X100553321Y-94467230D01*
X100768716Y-94733767D01*
X100890022Y-94903192D01*
X100943295Y-94978181D01*
X101027447Y-95084752D01*
X101084801Y-95173257D01*
X101148559Y-95268770D01*
X101237462Y-95406325D01*
X101317471Y-95541693D01*
X101461567Y-95810806D01*
X101599587Y-96111840D01*
X101651205Y-96230335D01*
X101710323Y-96329303D01*
X101787757Y-96424097D01*
X101894326Y-96530070D01*
X102016141Y-96639533D01*
X102076109Y-96684819D01*
X102198408Y-96734141D01*
X102375801Y-96808388D01*
X102512922Y-96846218D01*
X102566731Y-96851536D01*
X102610891Y-96847819D01*
X102645544Y-96835093D01*
X102670830Y-96813379D01*
X102683500Y-96769331D01*
X102681650Y-96694993D01*
X102667364Y-96598567D01*
X102642728Y-96488257D01*
X102570747Y-96258790D01*
X102527572Y-96156038D01*
X102482388Y-96072209D01*
X102436743Y-95980025D01*
X102417411Y-95938675D01*
X102390329Y-95898327D01*
X102367029Y-95859285D01*
X102356785Y-95821102D01*
X102341557Y-95775510D01*
X102306270Y-95718631D01*
X102267513Y-95656252D01*
X102243953Y-95597451D01*
X102225327Y-95544679D01*
X102198433Y-95496794D01*
X102115145Y-95343387D01*
X102027160Y-95184414D01*
X101944867Y-95045994D01*
X101831289Y-94824550D01*
X101744919Y-94665527D01*
X101566587Y-94340609D01*
X101512094Y-94227153D01*
X101484445Y-94153697D01*
X101439040Y-93957697D01*
X101442232Y-93923704D01*
X101459598Y-93901000D01*
X101501639Y-93869629D01*
X101551901Y-93855588D01*
X101610812Y-93858835D01*
X101678801Y-93879333D01*
X101752171Y-93918605D01*
X101775935Y-93941364D01*
X101793198Y-93967839D01*
X101870746Y-94078236D01*
X101921211Y-94135062D01*
X101989194Y-94061240D01*
X102046718Y-94008859D01*
X102089527Y-93986599D01*
X102119054Y-93975916D01*
X102144663Y-93951365D01*
X102164160Y-93930277D01*
X102178977Y-93927885D01*
X102186944Y-93929905D01*
X102189960Y-93919437D01*
X102192242Y-93911385D01*
X102200103Y-93908202D01*
X102235430Y-93916229D01*
X102280643Y-93923818D01*
X102324458Y-93914912D01*
X102435153Y-93886238D01*
X102578647Y-93856546D01*
X102681077Y-93837574D01*
X102769445Y-93836120D01*
X102853150Y-93853028D01*
X102941591Y-93889145D01*
X103028303Y-93926294D01*
X103073605Y-93935709D01*
X103084952Y-93935610D01*
X103090029Y-93949872D01*
X103104387Y-93975583D01*
X103138034Y-94003020D01*
X103245948Y-94073711D01*
X103351933Y-94152560D01*
X103444010Y-94230106D01*
X103510198Y-94296890D01*
X103576644Y-94368537D01*
X103631900Y-94417201D01*
X103719606Y-94497646D01*
X103849708Y-94635006D01*
X103974537Y-94777041D01*
X104046428Y-94871509D01*
X104077851Y-94920014D01*
X104106931Y-94952809D01*
X104203455Y-95074464D01*
X104308294Y-95232366D01*
X104416404Y-95369574D01*
X104491891Y-95467682D01*
X104551170Y-95574479D01*
X104599121Y-95700550D01*
X104640627Y-95856482D01*
X104667685Y-95940615D01*
X104695709Y-96025914D01*
X104716382Y-96123280D01*
X104727447Y-96218975D01*
X104726648Y-96299261D01*
X104703107Y-96406518D01*
X104659010Y-96532327D01*
X104604590Y-96651260D01*
X104550083Y-96737891D01*
X104462920Y-96822877D01*
X104359409Y-96886677D01*
X104240322Y-96928921D01*
X104106434Y-96949242D01*
X103996015Y-96948728D01*
X103896833Y-96932603D01*
X103811559Y-96901621D01*
X103742868Y-96856537D01*
X103742868Y-96676419D01*
X103806253Y-96710435D01*
X103860002Y-96736727D01*
X103926216Y-96757769D01*
X104045866Y-96779141D01*
X104127588Y-96775529D01*
X104157963Y-96763395D01*
X104183341Y-96743867D01*
X104225080Y-96681090D01*
X104244442Y-96636379D01*
X104253982Y-96595604D01*
X104249381Y-96477193D01*
X104223078Y-96243428D01*
X104194552Y-96085677D01*
X104147019Y-95936093D01*
X104063697Y-95726828D01*
X103953634Y-95467502D01*
X103881516Y-95315704D01*
X103802427Y-95181976D01*
X103717623Y-95037489D01*
X103628198Y-94885895D01*
X103592944Y-94833239D01*
X103562377Y-94798806D01*
X103543023Y-94778934D01*
X103534722Y-94761311D01*
X103488398Y-94687021D01*
X103403429Y-94588498D01*
X103202240Y-94361319D01*
X103079373Y-94224883D01*
X103017177Y-94167808D01*
X102968855Y-94141524D01*
X102881772Y-94082732D01*
X102796675Y-94020156D01*
X102754317Y-93982521D01*
X102735872Y-93973998D01*
X102699901Y-93971166D01*
X102662461Y-93967111D01*
X102640492Y-93955636D01*
X102611943Y-93946502D01*
X102558694Y-93948083D01*
X102319828Y-93985960D01*
X102261488Y-94006354D01*
X102212546Y-94035645D01*
X102129109Y-94090806D01*
X102076954Y-94147110D01*
X102035807Y-94197923D01*
X102079588Y-94163087D01*
X102137091Y-94126279D01*
X102198077Y-94100905D01*
X102250943Y-94090602D01*
X102284081Y-94099005D01*
X102291817Y-94111656D01*
X102288899Y-94126743D01*
X102245668Y-94174964D01*
X102196531Y-94225959D01*
X102167706Y-94271853D01*
X102156299Y-94319364D01*
X102159422Y-94375209D01*
X102172286Y-94427114D01*
X102199160Y-94490335D01*
X102314768Y-94691068D01*
X102388689Y-94818932D01*
X102465417Y-94935764D01*
X102539470Y-95056594D01*
X102646380Y-95253586D01*
X102789749Y-95529938D01*
X102858800Y-95650299D01*
X102915328Y-95765640D01*
X102996504Y-95952740D01*
X103089017Y-96116375D01*
X103210936Y-96271705D01*
X103328494Y-96401110D01*
X103419532Y-96487362D01*
X103507370Y-96549849D01*
X103615327Y-96607964D01*
X103742868Y-96676419D01*
X103742868Y-96856537D01*
X103740333Y-96854849D01*
X103686165Y-96813541D01*
X103641242Y-96790246D01*
X103607207Y-96776229D01*
X103579223Y-96757249D01*
X103437122Y-96677415D01*
X103333416Y-96617395D01*
X103250394Y-96553625D01*
X103193418Y-96506925D01*
X103152322Y-96487954D01*
X103133385Y-96492339D01*
X103120030Y-96509085D01*
X103096987Y-96608115D01*
X103058198Y-96726587D01*
X103031969Y-96782766D01*
X103010816Y-96813901D01*
X102962587Y-96878901D01*
X102913284Y-96929774D01*
X102846998Y-96973098D01*
X102760454Y-97023886D01*
X102736179Y-97039678D01*
X102696334Y-97050135D01*
X102656950Y-97052636D01*
X102634056Y-97044559D01*
X102609789Y-97033253D01*
X102568062Y-97031489D01*
X102482399Y-97010984D01*
X102337486Y-96954615D01*
X102178282Y-96881521D01*
X102049746Y-96810845D01*
X101978907Y-96772107D01*
X101880312Y-96702212D01*
X101763282Y-96611122D01*
X101745316Y-96603380D01*
X101724076Y-96609673D01*
X101646226Y-96679228D01*
X101568855Y-96745143D01*
X101476439Y-96807584D01*
X101388983Y-96854399D01*
X101326490Y-96873435D01*
X101304406Y-96879049D01*
X101289269Y-96891574D01*
X101261246Y-96902685D01*
X101204187Y-96903260D01*
X101129489Y-96894047D01*
X101048548Y-96875795D01*
X100896259Y-96835568D01*
X100837663Y-96813727D01*
X100794783Y-96785202D01*
X100763822Y-96761919D01*
X100733882Y-96752652D01*
X100706863Y-96745857D01*
X100682920Y-96728500D01*
X100662665Y-96711037D01*
X100644506Y-96704026D01*
X100617615Y-96692248D01*
X100576375Y-96663326D01*
X100504986Y-96621090D01*
X100473657Y-96613323D01*
X100446341Y-96614228D01*
X100423867Y-96623634D01*
X100407062Y-96641370D01*
X100396754Y-96667264D01*
X100393772Y-96701144D01*
X100383964Y-96747822D01*
X100356277Y-96810526D01*
X100315994Y-96879062D01*
X100268392Y-96943231D01*
X100215169Y-97019736D01*
X100191655Y-97032785D01*
X100134639Y-97045702D01*
X100065463Y-97063651D01*
X100012738Y-97088811D01*
X99987773Y-97103092D01*
X99956931Y-97111954D01*
X99862138Y-97116243D01*
X99772944Y-97110059D01*
X99712358Y-97099223D01*
X99671882Y-97091470D01*
X99671882Y-96869012D01*
X99730373Y-96892990D01*
X99730399Y-96892990D01*
X99864946Y-96924844D01*
X99920684Y-96928285D01*
X99994316Y-96923094D01*
X100064164Y-96911765D01*
X100108550Y-96896792D01*
X100122451Y-96868493D01*
X100124259Y-96817251D01*
X100114709Y-96753960D01*
X100094536Y-96689515D01*
X100076191Y-96624613D01*
X100075155Y-96563181D01*
X100091145Y-96507438D01*
X100123881Y-96459603D01*
X100157632Y-96414314D01*
X100174602Y-96370602D01*
X100173461Y-96335127D01*
X100152877Y-96314544D01*
X100117758Y-96291795D01*
X100077416Y-96252749D01*
X99670417Y-95829375D01*
X99548724Y-95701175D01*
X99475067Y-95613725D01*
X99410284Y-95536014D01*
X99309907Y-95431222D01*
X99206688Y-95324009D01*
X99135081Y-95240494D01*
X99032189Y-95125401D01*
X98978344Y-95076924D01*
X98984233Y-95296276D01*
X98993658Y-95480980D01*
X99008062Y-95617005D01*
X99038251Y-95785917D01*
X99084244Y-95937461D01*
X99139256Y-96103441D01*
X99169062Y-96189060D01*
X99210866Y-96279783D01*
X99274947Y-96416219D01*
X99318483Y-96502452D01*
X99393356Y-96613242D01*
X99479386Y-96721158D01*
X99556393Y-96798769D01*
X99613322Y-96838299D01*
X99671883Y-96869012D01*
X99671883Y-97091470D01*
X99601764Y-97078052D01*
X99544132Y-97066845D01*
X99504362Y-97049777D01*
X99435734Y-97012437D01*
X99372746Y-96990664D01*
X99376645Y-97010145D01*
X99380541Y-97021167D01*
X99369092Y-97017649D01*
X99357057Y-97005558D01*
X99356444Y-96993000D01*
X99333865Y-96969978D01*
X99269007Y-96932746D01*
X99141462Y-96867483D01*
X99088168Y-96833282D01*
X99051676Y-96817055D01*
X98996929Y-96803937D01*
X98954719Y-96791062D01*
X98904747Y-96759587D01*
X98729373Y-96601332D01*
X98563254Y-96435724D01*
X98423913Y-96285295D01*
X98327874Y-96168784D01*
X98301257Y-96129104D01*
X98291662Y-96104932D01*
X98282879Y-96086988D01*
X98262342Y-96066344D01*
X98218474Y-96016126D01*
X98153635Y-95927050D01*
X98034567Y-95768847D01*
X97935277Y-95663668D01*
X97883186Y-95600680D01*
X97842224Y-95538761D01*
X97769844Y-95430650D01*
X97741866Y-95390743D01*
X97729889Y-95360755D01*
X97723083Y-95338130D01*
X97707551Y-95315930D01*
X97610767Y-95204608D01*
X97554243Y-95123687D01*
X97541672Y-95102731D01*
X97511978Y-95073818D01*
X97456225Y-95012624D01*
X97380958Y-94914050D01*
X97274040Y-94778482D01*
X97254094Y-94754630D01*
X97231079Y-94711842D01*
X97199941Y-94663838D01*
X97160463Y-94627436D01*
X97120279Y-94592312D01*
X97087437Y-94547377D01*
X97018709Y-94454051D01*
X96758123Y-94188465D01*
X96674673Y-94092472D01*
X96631453Y-94053916D01*
X96547628Y-94000687D01*
X96483201Y-93965398D01*
X96444341Y-93949711D01*
X96417879Y-93950654D01*
X96390643Y-93965254D01*
X96357010Y-93998795D01*
X96341744Y-94041511D01*
X96344808Y-94102778D01*
X96360888Y-94183713D01*
X96386616Y-94270779D01*
X96418621Y-94350438D01*
X96577171Y-94674863D01*
X96612666Y-94735953D01*
X96630966Y-94752318D01*
X96654032Y-94775401D01*
X96689830Y-94831407D01*
X96765937Y-94960986D01*
X96871837Y-95130892D01*
X96988072Y-95297642D01*
X97092009Y-95453311D01*
X97238000Y-95703437D01*
X97285221Y-95767978D01*
X97295191Y-95776628D01*
X97299583Y-95789967D01*
X97343787Y-95861155D01*
X97388039Y-95932914D01*
X97458432Y-96070146D01*
X97541049Y-96227355D01*
X97577674Y-96297449D01*
X97596110Y-96354637D01*
X97604808Y-96454410D01*
X97604604Y-96522132D01*
X97598360Y-96574565D01*
X97583630Y-96623510D01*
X97557971Y-96680769D01*
X97514887Y-96753744D01*
X97462162Y-96817371D01*
X97401658Y-96869740D01*
X97335239Y-96908942D01*
X97250435Y-96955207D01*
X97183665Y-96974513D01*
X97073100Y-96988106D01*
X96992119Y-96991965D01*
X96934159Y-96988007D01*
X96879463Y-96972886D01*
X96808277Y-96943256D01*
X96673306Y-96889188D01*
X96611165Y-96869959D01*
X96508753Y-96824195D01*
X96407622Y-96771911D01*
X96349322Y-96733122D01*
X96304422Y-96700271D01*
X96250025Y-96679743D01*
X96204333Y-96675960D01*
X96190442Y-96681728D01*
X96185553Y-96693341D01*
X96204302Y-96737634D01*
X96256356Y-96828000D01*
X96440860Y-97114727D01*
X96574563Y-97324364D01*
X96685686Y-97501371D01*
X96731028Y-97561259D01*
X96761316Y-97590330D01*
X96802761Y-97617215D01*
X96857546Y-97647491D01*
X96965710Y-97696443D01*
X97154450Y-97769231D01*
X97198210Y-97782522D01*
X97231576Y-97799942D01*
X97532080Y-97946342D01*
X97756415Y-98055031D01*
X97910256Y-98139381D01*
X98021271Y-98204232D01*
X98142653Y-98266028D01*
X98362020Y-98384033D01*
X98652003Y-98557617D01*
X98916596Y-98727347D01*
X99059792Y-98833790D01*
X99237004Y-99018480D01*
X99424880Y-99231628D01*
X99486926Y-99315350D01*
X99510821Y-99362615D01*
X99565137Y-99499524D01*
X99605046Y-99610758D01*
X99621119Y-99701359D01*
X99611549Y-99796825D01*
X99583544Y-99903322D01*
X99544597Y-99998300D01*
X99502199Y-100059210D01*
X99485515Y-100086616D01*
X99487117Y-100122496D01*
X99489909Y-100154046D01*
X99467959Y-100159817D01*
X99412376Y-100167544D01*
X99305483Y-100207225D01*
X99179606Y-100261592D01*
X99179606Y-100261617D01*
X99143331Y-100280244D01*
X99110111Y-100286181D01*
X99063745Y-100279220D01*
X98988033Y-100259155D01*
X98883284Y-100236521D01*
X98783938Y-100224593D01*
X98699495Y-100212338D01*
X98636096Y-100184961D01*
X98599620Y-100167866D01*
X98599620Y-99962851D01*
X98700176Y-100020186D01*
X98794546Y-100066089D01*
X98878848Y-100098171D01*
X98949197Y-100114047D01*
X99069941Y-100124990D01*
X99156785Y-100125018D01*
X99224372Y-100112995D01*
X99287344Y-100087783D01*
X99325703Y-100064144D01*
X99341412Y-100044872D01*
X99347443Y-100033298D01*
X99362532Y-100028174D01*
X99378415Y-100019376D01*
X99397599Y-99996124D01*
X99439077Y-99920967D01*
X99473373Y-99832127D01*
X99486893Y-99759028D01*
X99491032Y-99706441D01*
X99503342Y-99673429D01*
X99508123Y-99656098D01*
X99502193Y-99622919D01*
X99454964Y-99497336D01*
X99400758Y-99378748D01*
X99363849Y-99314137D01*
X99338952Y-99276344D01*
X99305172Y-99228002D01*
X99230182Y-99139432D01*
X99152429Y-99054349D01*
X99110357Y-99016466D01*
X99091558Y-99001989D01*
X99065433Y-98966696D01*
X99038854Y-98931429D01*
X99018943Y-98916977D01*
X98985562Y-98895385D01*
X98926611Y-98842957D01*
X98865580Y-98790579D01*
X98827196Y-98769110D01*
X98749374Y-98729951D01*
X98593508Y-98635034D01*
X98356276Y-98489673D01*
X98098375Y-98352471D01*
X97897037Y-98243043D01*
X97819049Y-98201734D01*
X97775186Y-98184851D01*
X97752101Y-98175469D01*
X97724075Y-98152201D01*
X97695864Y-98128946D01*
X97672343Y-98119577D01*
X97648822Y-98110195D01*
X97620611Y-98086927D01*
X97590096Y-98063735D01*
X97561027Y-98054501D01*
X97531363Y-98047931D01*
X97499430Y-98031145D01*
X97468649Y-98014176D01*
X97441760Y-98007167D01*
X97416697Y-98000755D01*
X97390301Y-97985252D01*
X97303062Y-97942714D01*
X97131665Y-97874358D01*
X96942162Y-97800821D01*
X96901509Y-97796583D01*
X96878098Y-97809184D01*
X96950202Y-97943536D01*
X97097028Y-98188578D01*
X97201610Y-98359850D01*
X97267103Y-98460529D01*
X97302764Y-98502201D01*
X97313111Y-98508557D01*
X97317747Y-98524340D01*
X97349869Y-98585617D01*
X97425216Y-98705911D01*
X97584358Y-98936259D01*
X97685810Y-99071701D01*
X97785231Y-99196153D01*
X97929138Y-99362252D01*
X98220798Y-99673578D01*
X98306150Y-99751319D01*
X98400146Y-99826875D01*
X98599620Y-99962851D01*
X98599620Y-100167866D01*
X98563407Y-100155545D01*
X98531240Y-100150970D01*
X98491582Y-100145679D01*
X98481628Y-100137987D01*
X98478116Y-100126868D01*
X98473379Y-100109014D01*
X98462860Y-100101797D01*
X98382927Y-100052922D01*
X98329569Y-100018324D01*
X98292979Y-100004296D01*
X98254762Y-99987814D01*
X98197491Y-99947321D01*
X98142016Y-99906789D01*
X98108115Y-99890197D01*
X98050036Y-99857894D01*
X97949020Y-99781461D01*
X97845436Y-99693364D01*
X97779658Y-99626070D01*
X97728036Y-99565932D01*
X97662403Y-99501958D01*
X97576058Y-99416019D01*
X97474633Y-99303080D01*
X97280674Y-99088150D01*
X97205691Y-99005206D01*
X97140262Y-98922021D01*
X97090310Y-98857287D01*
X97052551Y-98818706D01*
X97021291Y-98783202D01*
X96986954Y-98725876D01*
X96944015Y-98652741D01*
X96892062Y-98579227D01*
X96781464Y-98429182D01*
X96648111Y-98221799D01*
X96563206Y-98093666D01*
X96490132Y-97996731D01*
X96420320Y-97904691D01*
X96343259Y-97788337D01*
X96232606Y-97624634D01*
X96124070Y-97503673D01*
X96065930Y-97454897D01*
X96002719Y-97411616D01*
X95853618Y-97334625D01*
X95656536Y-97231346D01*
X95566793Y-97176757D01*
X95518129Y-97140567D01*
X95354460Y-97042744D01*
X95240889Y-96974109D01*
X95185399Y-96932521D01*
X95170468Y-96916865D01*
X95154414Y-96910605D01*
X95105497Y-96883801D01*
X95012302Y-96812056D01*
X94764460Y-96592062D01*
X94553611Y-96396915D01*
X94491735Y-96346738D01*
X94448676Y-96319338D01*
X94396092Y-96279063D01*
X94320339Y-96207724D01*
X94205048Y-96096284D01*
X93989902Y-95894752D01*
X93878826Y-95780978D01*
X93827070Y-95719922D01*
X93812556Y-95698103D01*
X93792756Y-95689384D01*
X93761757Y-95672718D01*
X93720326Y-95631813D01*
X93680841Y-95590646D01*
X93654505Y-95573322D01*
X93614166Y-95536293D01*
X93541028Y-95447744D01*
X93351861Y-95214948D01*
X93302737Y-95171417D01*
X93268229Y-95159912D01*
X93218010Y-95195897D01*
X93124636Y-95282062D01*
X92990858Y-95404211D01*
X92943325Y-95440166D01*
X92785273Y-95572747D01*
X92651170Y-95662723D01*
X92594767Y-95695470D01*
X92547110Y-95731873D01*
X92496821Y-95773007D01*
X92432337Y-95815676D01*
X92268197Y-95902172D01*
X92069513Y-95984464D01*
X91851112Y-96055659D01*
X91713403Y-96075953D01*
X91501731Y-96089709D01*
X91278301Y-96094304D01*
X91105319Y-96087115D01*
X91030830Y-96072547D01*
X90958944Y-96047462D01*
X90898892Y-96015829D01*
X90859902Y-95981614D01*
X90834836Y-95960005D01*
X90806803Y-95951474D01*
X90770489Y-95937316D01*
X90727253Y-95898073D01*
X90683559Y-95840910D01*
X90645867Y-95772996D01*
X90629464Y-95725220D01*
X90619296Y-95669148D01*
X90616865Y-95543431D01*
X90636980Y-95418479D01*
X90654993Y-95363362D01*
X90678045Y-95316923D01*
X90702594Y-95257314D01*
X90719196Y-95214653D01*
X90759817Y-95139090D01*
X90838134Y-95030369D01*
X90954019Y-94891924D01*
X91064465Y-94772716D01*
X91104208Y-94735626D01*
X91126464Y-94721705D01*
X91142092Y-94706362D01*
X91154368Y-94670097D01*
X91167380Y-94633812D01*
X91184781Y-94618415D01*
X91220979Y-94597814D01*
X91274740Y-94551350D01*
X91323419Y-94500526D01*
X91344375Y-94466846D01*
X91356626Y-94445280D01*
X91386715Y-94419015D01*
X91461456Y-94355779D01*
X91508392Y-94321788D01*
X91521095Y-94312461D01*
X91530606Y-94290554D01*
X91563366Y-94249403D01*
X91631958Y-94193774D01*
X91710171Y-94130260D01*
X91722164Y-94108113D01*
X91714419Y-94090995D01*
X91685690Y-94077870D01*
X91634730Y-94067706D01*
X91461133Y-94052119D01*
X91152392Y-94028924D01*
X91082461Y-94017729D01*
X91022354Y-94001431D01*
X90902838Y-93971738D01*
X90796840Y-93950941D01*
X90664130Y-93936306D01*
X90604491Y-93930304D01*
X90551596Y-93914167D01*
X90419881Y-93872026D01*
X90354060Y-93852332D01*
X90313261Y-93831401D01*
X90288260Y-93816225D01*
X90260410Y-93810355D01*
X90218145Y-93799323D01*
X90122588Y-93758598D01*
X90017354Y-93731663D01*
X89978867Y-93717678D01*
X89924723Y-93683087D01*
X89871343Y-93648487D01*
X89834701Y-93634461D01*
X89801340Y-93624090D01*
X89755861Y-93598283D01*
X89672399Y-93545234D01*
X89588795Y-93492684D01*
X89495028Y-93423455D01*
X89303128Y-93259272D01*
X89148934Y-93101311D01*
X89102302Y-93039858D01*
X89084685Y-92998195D01*
X89073609Y-92960454D01*
X89048557Y-92920075D01*
X89023639Y-92872344D01*
X89012500Y-92811628D01*
X89015725Y-92747148D01*
X89033897Y-92688126D01*
X89072663Y-92642682D01*
X89142560Y-92591228D01*
X89232308Y-92540950D01*
X89330624Y-92499037D01*
X89386928Y-92474652D01*
X89410135Y-92456126D01*
X89430914Y-92440076D01*
X89481372Y-92421638D01*
X89586501Y-92385112D01*
X89746071Y-92320981D01*
X89982469Y-92230090D01*
X90090957Y-92194271D01*
X90215970Y-92167685D01*
X90373913Y-92147627D01*
X90581190Y-92131396D01*
X90788764Y-92122054D01*
X90788766Y-92122064D01*
G36*
X99130981Y-92670519D02*
X99130063Y-92686992D01*
X99131354Y-92697660D01*
X99151098Y-92703587D01*
X99249579Y-92701677D01*
X99307947Y-92712339D01*
X99372468Y-92747755D01*
X99433270Y-92800944D01*
X99480485Y-92864924D01*
X99505763Y-92932218D01*
X99518383Y-93010355D01*
X99517093Y-93082678D01*
X99500636Y-93132530D01*
X99485444Y-93141087D01*
X99457498Y-93146421D01*
X99378329Y-93148099D01*
X99293101Y-93138930D01*
X99231788Y-93120280D01*
X99185490Y-93079062D01*
X99120770Y-93007101D01*
X99047185Y-92908128D01*
X99011247Y-92830885D01*
X99006834Y-92798241D01*
X99011161Y-92768425D01*
X99024002Y-92740568D01*
X99045135Y-92713803D01*
X99094615Y-92677953D01*
X99130982Y-92670519D01*
X99130981Y-92670519D01*
X99130981Y-92670519D01*
G37*
X99130981Y-92670519D02*
X99130063Y-92686992D01*
X99131354Y-92697660D01*
X99151098Y-92703587D01*
X99249579Y-92701677D01*
X99307947Y-92712339D01*
X99372468Y-92747755D01*
X99433270Y-92800944D01*
X99480485Y-92864924D01*
X99505763Y-92932218D01*
X99518383Y-93010355D01*
X99517093Y-93082678D01*
X99500636Y-93132530D01*
X99485444Y-93141087D01*
X99457498Y-93146421D01*
X99378329Y-93148099D01*
X99293101Y-93138930D01*
X99231788Y-93120280D01*
X99185490Y-93079062D01*
X99120770Y-93007101D01*
X99047185Y-92908128D01*
X99011247Y-92830885D01*
X99006834Y-92798241D01*
X99011161Y-92768425D01*
X99024002Y-92740568D01*
X99045135Y-92713803D01*
X99094615Y-92677953D01*
X99130982Y-92670519D01*
X99130981Y-92670519D01*
D12*
X115570000Y-33020000D03*
D13*
X113030000Y-33020000D03*
D14*
X213677500Y-86725000D03*
X213677500Y-84725000D03*
X162877500Y-86725000D03*
X162877500Y-84725000D03*
X122872500Y-86725000D03*
X122872500Y-84725000D03*
X72072500Y-86725000D03*
X72072500Y-84725000D03*
D15*
X47625000Y-85725000D03*
X142875000Y-85725000D03*
X238125000Y-85725000D03*
X238125000Y-47625000D03*
X142875000Y-47625000D03*
D16*
X193992500Y-93400000D03*
X193992500Y-97100000D03*
D15*
X47625000Y-47625000D03*
D17*
X177165000Y-95250000D03*
X177165000Y-94449900D03*
X177165000Y-93649800D03*
X177165000Y-92849700D03*
X177165000Y-92049600D03*
X177165000Y-91249500D03*
X177165000Y-96050100D03*
X177165000Y-96850200D03*
X177165000Y-97650300D03*
X177165000Y-98450400D03*
X177165000Y-99250500D03*
X188595000Y-95250000D03*
X188595000Y-94449900D03*
X188595000Y-93649800D03*
X188595000Y-92849700D03*
X188595000Y-92049600D03*
X188595000Y-91249500D03*
X188595000Y-96050100D03*
X188595000Y-96850200D03*
X188595000Y-97650300D03*
X188595000Y-98450400D03*
X188595000Y-99250500D03*
D18*
X182880000Y-89535000D03*
X182880000Y-100965000D03*
X183680100Y-89535000D03*
X183680100Y-100965000D03*
X184480200Y-100965000D03*
X184480200Y-89535000D03*
X185280300Y-89535000D03*
X185280300Y-100965000D03*
X186080400Y-100965000D03*
X186080400Y-89535000D03*
X186880500Y-89535000D03*
X186880500Y-100965000D03*
X182079900Y-100965000D03*
X182079900Y-89535000D03*
X181279800Y-89535000D03*
X181279800Y-100965000D03*
X180479700Y-100965000D03*
X180479700Y-89535000D03*
X179679600Y-89535000D03*
X179679600Y-100965000D03*
X178879500Y-100965000D03*
X178879500Y-89535000D03*
D19*
X179476400Y-97748100D03*
X186276400Y-92748100D03*
D20*
X185376400Y-98648100D03*
X180376400Y-91848100D03*
X180876400Y-91848100D03*
X181376400Y-91848100D03*
X181876400Y-91848100D03*
X182376400Y-91848100D03*
X182876400Y-91848100D03*
X183376400Y-91848100D03*
X183876400Y-91848100D03*
X184376400Y-91848100D03*
X184876400Y-91848100D03*
X185376400Y-91848100D03*
X184876400Y-98648100D03*
X184376400Y-98648100D03*
X183876400Y-98648100D03*
X183376400Y-98648100D03*
X182876400Y-98648100D03*
X182376400Y-98648100D03*
X181876400Y-98648100D03*
X181376400Y-98648100D03*
X180876400Y-98648100D03*
X180376400Y-98648100D03*
D19*
X186276400Y-93248100D03*
X186276400Y-93748100D03*
X186276400Y-94248100D03*
X186276400Y-94748100D03*
X186276400Y-95248100D03*
X186276400Y-95748100D03*
X186276400Y-96248100D03*
X186276400Y-96748100D03*
X186276400Y-97248100D03*
X186276400Y-97748100D03*
X179476400Y-97248100D03*
X179476400Y-96748100D03*
X179476400Y-96248100D03*
X179476400Y-95748100D03*
X179476400Y-95248100D03*
X179476400Y-94748100D03*
X179476400Y-94248100D03*
X179476400Y-93748100D03*
X179476400Y-93248100D03*
X179476400Y-92748100D03*
D21*
X182880000Y-95250000D03*
D12*
X39370000Y-33020000D03*
D13*
X36830000Y-33020000D03*
D12*
X58420000Y-33020000D03*
D13*
X55880000Y-33020000D03*
D12*
X77470000Y-33020000D03*
D13*
X74930000Y-33020000D03*
D12*
X96520000Y-33020000D03*
D13*
X93980000Y-33020000D03*
D12*
X134620000Y-33020000D03*
D13*
X132080000Y-33020000D03*
D12*
X153670000Y-33020000D03*
D13*
X151130000Y-33020000D03*
D12*
X172720000Y-33020000D03*
D13*
X170180000Y-33020000D03*
D12*
X191770000Y-33020000D03*
D13*
X189230000Y-33020000D03*
D12*
X210820000Y-33020000D03*
D13*
X208280000Y-33020000D03*
D12*
X229870000Y-33020000D03*
D13*
X227330000Y-33020000D03*
D12*
X41751250Y-52070000D03*
D13*
X39211250Y-52070000D03*
D12*
X63182500Y-52070000D03*
D13*
X60642500Y-52070000D03*
D12*
X82232500Y-52070000D03*
D13*
X79692500Y-52070000D03*
D12*
X101282500Y-52070000D03*
D13*
X98742500Y-52070000D03*
D12*
X120332500Y-52070000D03*
D13*
X117792500Y-52070000D03*
D12*
X139382500Y-52070000D03*
D13*
X136842500Y-52070000D03*
D12*
X158432500Y-52070000D03*
D13*
X155892500Y-52070000D03*
D12*
X177482500Y-52070000D03*
D13*
X174942500Y-52070000D03*
D12*
X196532500Y-52070000D03*
D13*
X193992500Y-52070000D03*
D12*
X215582500Y-52070000D03*
D13*
X213042500Y-52070000D03*
D12*
X241776250Y-52070000D03*
D13*
X239236250Y-52070000D03*
D12*
X46513750Y-71120000D03*
D13*
X43973750Y-71120000D03*
D12*
X72707500Y-71120000D03*
D13*
X70167500Y-71120000D03*
D12*
X91757500Y-71120000D03*
D13*
X89217500Y-71120000D03*
D12*
X110807500Y-71120000D03*
D13*
X108267500Y-71120000D03*
D12*
X129857500Y-71120000D03*
D13*
X127317500Y-71120000D03*
D12*
X148907500Y-71120000D03*
D13*
X146367500Y-71120000D03*
D12*
X167957500Y-71120000D03*
D13*
X165417500Y-71120000D03*
D12*
X187007500Y-71120000D03*
D13*
X184467500Y-71120000D03*
D12*
X206057500Y-71120000D03*
D13*
X203517500Y-71120000D03*
D12*
X41751250Y-90170000D03*
D13*
X39211250Y-90170000D03*
D12*
X63182500Y-90170000D03*
D13*
X60642500Y-90170000D03*
D12*
X117951250Y-90170000D03*
D13*
X115411250Y-90170000D03*
D12*
X151288750Y-90170000D03*
D13*
X148748750Y-90170000D03*
D12*
X203676250Y-90170000D03*
D13*
X201136250Y-90170000D03*
D12*
X246538750Y-90170000D03*
D13*
X243998750Y-90170000D03*
D12*
X248920000Y-33020000D03*
D13*
X246380000Y-33020000D03*
D12*
X165576250Y-90170000D03*
D13*
X163036250Y-90170000D03*
D12*
X222566230Y-71120000D03*
X227488750Y-71120000D03*
D22*
X225027490Y-71120000D03*
D12*
X243997480Y-71120000D03*
X248920000Y-71120000D03*
D22*
X246458740Y-71120000D03*
D12*
X220184980Y-90170000D03*
X225107500Y-90170000D03*
D22*
X222646240Y-90170000D03*
D12*
X79691230Y-90170000D03*
X84613750Y-90170000D03*
D22*
X82152490Y-90170000D03*
D23*
X31889700Y-32067500D03*
X32702500Y-32067500D03*
X33515300Y-32067500D03*
X34270950Y-51117500D03*
X35083750Y-51117500D03*
X35896550Y-51117500D03*
D24*
X51435000Y-63373000D03*
X51435000Y-62357000D03*
X45720000Y-38608000D03*
X45720000Y-37592000D03*
X227330000Y-30289500D03*
X227330000Y-31305500D03*
X189230000Y-30289500D03*
X189230000Y-31305500D03*
X222567500Y-56388000D03*
X222567500Y-55372000D03*
X208280000Y-30289500D03*
X208280000Y-31305500D03*
X170180000Y-30289500D03*
X170180000Y-31305500D03*
X151130000Y-30289500D03*
X151130000Y-31305500D03*
X132080000Y-30289500D03*
X132080000Y-31305500D03*
X113030000Y-30289500D03*
X113030000Y-31305500D03*
X93980000Y-30289500D03*
X93980000Y-31305500D03*
X74930000Y-30289500D03*
X74930000Y-31305500D03*
X55880000Y-30289500D03*
X55880000Y-31305500D03*
X36830000Y-30289500D03*
X36830000Y-31305500D03*
X253523750Y-94488000D03*
X253523750Y-93472000D03*
X234473750Y-75438000D03*
X234473750Y-74422000D03*
X217805000Y-37338000D03*
X217805000Y-36322000D03*
D25*
X50485000Y-60325000D03*
X52385000Y-60325000D03*
D26*
X114975000Y-46125000D03*
X114975000Y-49125000D03*
X119975000Y-49125000D03*
X119975000Y-46125000D03*
X170775000Y-87225000D03*
X170775000Y-84225000D03*
X165775000Y-84225000D03*
X165775000Y-87225000D03*
X119975000Y-87225000D03*
X119975000Y-84225000D03*
X114975000Y-84225000D03*
X114975000Y-87225000D03*
X69175000Y-87225000D03*
X69175000Y-84225000D03*
X64175000Y-84225000D03*
X64175000Y-87225000D03*
X64175000Y-46125000D03*
X64175000Y-49125000D03*
X69175000Y-49125000D03*
X69175000Y-46125000D03*
X165775000Y-46125000D03*
X165775000Y-49125000D03*
X170775000Y-49125000D03*
X170775000Y-46125000D03*
X216575000Y-46125000D03*
X216575000Y-49125000D03*
X221575000Y-49125000D03*
X221575000Y-46125000D03*
X221575000Y-87225000D03*
X221575000Y-84225000D03*
X216575000Y-84225000D03*
X216575000Y-87225000D03*
D25*
X191132500Y-88582500D03*
X189232500Y-88582500D03*
D27*
X185150000Y-85090000D03*
X183150000Y-85090000D03*
X194992500Y-90805000D03*
X192992500Y-90805000D03*
X194992500Y-99695000D03*
X192992500Y-99695000D03*
X194992500Y-88582500D03*
X192992500Y-88582500D03*
X194992500Y-101917500D03*
X192992500Y-101917500D03*
X175212500Y-79057500D03*
X177212500Y-79057500D03*
D14*
X173355000Y-90122500D03*
X173355000Y-92122500D03*
D27*
X179022500Y-85090000D03*
X181022500Y-85090000D03*
D28*
X32385000Y-36192500D03*
X32385000Y-34292500D03*
X51435000Y-36192500D03*
X51435000Y-34292500D03*
X70485000Y-36192500D03*
X70485000Y-34292500D03*
X89535000Y-36192500D03*
X89535000Y-34292500D03*
X108585000Y-36192500D03*
X108585000Y-34292500D03*
X127635000Y-36192500D03*
X127635000Y-34292500D03*
X149225000Y-36192500D03*
X149225000Y-34292500D03*
X165735000Y-36192500D03*
X165735000Y-34292500D03*
X184785000Y-36192500D03*
X184785000Y-34292500D03*
X203835000Y-36192500D03*
X203835000Y-34292500D03*
X222885000Y-36192500D03*
X222885000Y-34292500D03*
X34448750Y-55242500D03*
X34448750Y-53342500D03*
X55880000Y-55242500D03*
X55880000Y-53342500D03*
X74930000Y-55242500D03*
X74930000Y-53342500D03*
X93980000Y-55242500D03*
X93980000Y-53342500D03*
X113030000Y-55242500D03*
X113030000Y-53342500D03*
X132080000Y-55242500D03*
X132080000Y-53342500D03*
X151130000Y-55242500D03*
X151130000Y-53342500D03*
X170180000Y-55242500D03*
X170180000Y-53342500D03*
X189230000Y-55242500D03*
X189230000Y-53342500D03*
X208280000Y-55242500D03*
X208280000Y-53342500D03*
X234473750Y-55242500D03*
X234473750Y-53342500D03*
X39370000Y-74292500D03*
X39370000Y-72392500D03*
X65722500Y-74292500D03*
X65722500Y-72392500D03*
X84455000Y-74292500D03*
X84455000Y-72392500D03*
X103822500Y-74292500D03*
X103822500Y-72392500D03*
X122872500Y-74292500D03*
X122872500Y-72392500D03*
X141922500Y-74292500D03*
X141922500Y-72392500D03*
X160972500Y-74292500D03*
X160972500Y-72392500D03*
X180022500Y-74292500D03*
X180022500Y-72392500D03*
X199072500Y-74292500D03*
X199072500Y-72392500D03*
X218122500Y-74292500D03*
X218122500Y-72392500D03*
X239553750Y-74292500D03*
X239553750Y-72392500D03*
X34607500Y-93342500D03*
X34607500Y-91442500D03*
X56197500Y-93342500D03*
X56197500Y-91442500D03*
X75247500Y-93342500D03*
X75247500Y-91442500D03*
X113506250Y-93342500D03*
X113506250Y-91442500D03*
X143986250Y-93342500D03*
X143986250Y-91442500D03*
X199231250Y-93342500D03*
X199231250Y-91442500D03*
X215741250Y-93342500D03*
X215741250Y-91442500D03*
X239395000Y-93342500D03*
X239395000Y-91442500D03*
X241935000Y-36192500D03*
X241935000Y-34292500D03*
D14*
X213677500Y-46625000D03*
X213677500Y-48625000D03*
X162877500Y-46625000D03*
X162877500Y-48625000D03*
X72072500Y-46625000D03*
X72072500Y-48625000D03*
X122872500Y-46625000D03*
X122872500Y-48625000D03*
X173355000Y-100377500D03*
X173355000Y-98377500D03*
X173355000Y-96250000D03*
X173355000Y-94250000D03*
D29*
X29210000Y-62865000D03*
D30*
X29210000Y-65405000D03*
X29210000Y-67945000D03*
X29210000Y-70485000D03*
D29*
X218281250Y-104140000D03*
D30*
X215741250Y-104140000D03*
X213201250Y-104140000D03*
X210661250Y-104140000D03*
X208121250Y-104140000D03*
X205581250Y-104140000D03*
D31*
X254000000Y-62865000D03*
D29*
X256540000Y-62865000D03*
D30*
X254000000Y-65405000D03*
X256540000Y-65405000D03*
X254000000Y-67945000D03*
X256540000Y-67945000D03*
X254000000Y-70485000D03*
X256540000Y-70485000D03*
D32*
X35560276Y-43179328D02*
X35599724Y-42600672D01*
D33*
X41881969Y-40660694D02*
X40618031Y-42079306D01*
D34*
X41900000Y-40640000D03*
X40600000Y-42100000D03*
D32*
X87947776Y-81279328D02*
X87987224Y-80700672D01*
D33*
X94269469Y-78760694D02*
X93005531Y-80179306D01*
D34*
X94287500Y-78740000D03*
X92987500Y-80200000D03*
D32*
X245110276Y-43179328D02*
X245149724Y-42600672D01*
D33*
X251431969Y-40660694D02*
X250168031Y-42079306D01*
D34*
X251450000Y-40640000D03*
X250150000Y-42100000D03*
D32*
X199866526Y-100329328D02*
X199905974Y-99750672D01*
D33*
X206188219Y-97810694D02*
X204924281Y-99229306D01*
D34*
X206206250Y-97790000D03*
X204906250Y-99250000D03*
D32*
X59372776Y-100329328D02*
X59412224Y-99750672D01*
D33*
X65694469Y-97810694D02*
X64430531Y-99229306D01*
D34*
X65712500Y-97790000D03*
X64412500Y-99250000D03*
D32*
X202247776Y-81279328D02*
X202287224Y-80700672D01*
D33*
X208569469Y-78760694D02*
X207305531Y-80179306D01*
D34*
X208587500Y-78740000D03*
X207287500Y-80200000D03*
D32*
X183197776Y-81279328D02*
X183237224Y-80700672D01*
D33*
X189519469Y-78760694D02*
X188255531Y-80179306D01*
D34*
X189537500Y-78740000D03*
X188237500Y-80200000D03*
D32*
X164147776Y-81279328D02*
X164187224Y-80700672D01*
D33*
X170469469Y-78760694D02*
X169205531Y-80179306D01*
D34*
X170487500Y-78740000D03*
X169187500Y-80200000D03*
D32*
X145097776Y-81279328D02*
X145137224Y-80700672D01*
D33*
X151419469Y-78760694D02*
X150155531Y-80179306D01*
D34*
X151437500Y-78740000D03*
X150137500Y-80200000D03*
D32*
X126047776Y-81279328D02*
X126087224Y-80700672D01*
D33*
X132369469Y-78760694D02*
X131105531Y-80179306D01*
D34*
X132387500Y-78740000D03*
X131087500Y-80200000D03*
D32*
X106997776Y-81279328D02*
X107037224Y-80700672D01*
D33*
X113319469Y-78760694D02*
X112055531Y-80179306D01*
D34*
X113337500Y-78740000D03*
X112037500Y-80200000D03*
D32*
X68897776Y-81279328D02*
X68937224Y-80700672D01*
D33*
X75219469Y-78760694D02*
X73955531Y-80179306D01*
D34*
X75237500Y-78740000D03*
X73937500Y-80200000D03*
D32*
X211772776Y-62229328D02*
X211812224Y-61650672D01*
D33*
X218094469Y-59710694D02*
X216830531Y-61129306D01*
D34*
X218112500Y-59690000D03*
X216812500Y-61150000D03*
D32*
X192722776Y-62229328D02*
X192762224Y-61650672D01*
D33*
X199044469Y-59710694D02*
X197780531Y-61129306D01*
D34*
X199062500Y-59690000D03*
X197762500Y-61150000D03*
D32*
X173672776Y-62229328D02*
X173712224Y-61650672D01*
D33*
X179994469Y-59710694D02*
X178730531Y-61129306D01*
D34*
X180012500Y-59690000D03*
X178712500Y-61150000D03*
D32*
X154622776Y-62229328D02*
X154662224Y-61650672D01*
D33*
X160944469Y-59710694D02*
X159680531Y-61129306D01*
D34*
X160962500Y-59690000D03*
X159662500Y-61150000D03*
D32*
X135572776Y-62229328D02*
X135612224Y-61650672D01*
D33*
X141894469Y-59710694D02*
X140630531Y-61129306D01*
D34*
X141912500Y-59690000D03*
X140612500Y-61150000D03*
D32*
X116522776Y-62229328D02*
X116562224Y-61650672D01*
D33*
X122844469Y-59710694D02*
X121580531Y-61129306D01*
D34*
X122862500Y-59690000D03*
X121562500Y-61150000D03*
D32*
X97472776Y-62229328D02*
X97512224Y-61650672D01*
D33*
X103794469Y-59710694D02*
X102530531Y-61129306D01*
D34*
X103812500Y-59690000D03*
X102512500Y-61150000D03*
D32*
X78422776Y-62229328D02*
X78462224Y-61650672D01*
D33*
X84744469Y-59710694D02*
X83480531Y-61129306D01*
D34*
X84762500Y-59690000D03*
X83462500Y-61150000D03*
D32*
X59372776Y-62229328D02*
X59412224Y-61650672D01*
D33*
X65694469Y-59710694D02*
X64430531Y-61129306D01*
D34*
X65712500Y-59690000D03*
X64412500Y-61150000D03*
D32*
X226060276Y-43179328D02*
X226099724Y-42600672D01*
D33*
X232381969Y-40660694D02*
X231118031Y-42079306D01*
D34*
X232400000Y-40640000D03*
X231100000Y-42100000D03*
D32*
X207010276Y-43179328D02*
X207049724Y-42600672D01*
D33*
X213331969Y-40660694D02*
X212068031Y-42079306D01*
D34*
X213350000Y-40640000D03*
X212050000Y-42100000D03*
D32*
X187960276Y-43179328D02*
X187999724Y-42600672D01*
D33*
X194281969Y-40660694D02*
X193018031Y-42079306D01*
D34*
X194300000Y-40640000D03*
X193000000Y-42100000D03*
D32*
X168910276Y-43179328D02*
X168949724Y-42600672D01*
D33*
X175231969Y-40660694D02*
X173968031Y-42079306D01*
D34*
X175250000Y-40640000D03*
X173950000Y-42100000D03*
D32*
X149860276Y-43179328D02*
X149899724Y-42600672D01*
D33*
X156181969Y-40660694D02*
X154918031Y-42079306D01*
D34*
X156200000Y-40640000D03*
X154900000Y-42100000D03*
D32*
X130810276Y-43179328D02*
X130849724Y-42600672D01*
D33*
X137131969Y-40660694D02*
X135868031Y-42079306D01*
D34*
X137150000Y-40640000D03*
X135850000Y-42100000D03*
D32*
X111760276Y-43179328D02*
X111799724Y-42600672D01*
D33*
X118081969Y-40660694D02*
X116818031Y-42079306D01*
D34*
X118100000Y-40640000D03*
X116800000Y-42100000D03*
D32*
X92710276Y-43179328D02*
X92749724Y-42600672D01*
D33*
X99031969Y-40660694D02*
X97768031Y-42079306D01*
D34*
X99050000Y-40640000D03*
X97750000Y-42100000D03*
D32*
X73660276Y-43179328D02*
X73699724Y-42600672D01*
D33*
X79981969Y-40660694D02*
X78718031Y-42079306D01*
D34*
X80000000Y-40640000D03*
X78700000Y-42100000D03*
D32*
X54610276Y-43179328D02*
X54649724Y-42600672D01*
D33*
X60931969Y-40660694D02*
X59668031Y-42079306D01*
D34*
X60950000Y-40640000D03*
X59650000Y-42100000D03*
D32*
X37941526Y-100329328D02*
X37980974Y-99750672D01*
D33*
X44263219Y-97810694D02*
X42999281Y-99229306D01*
D34*
X44281250Y-97790000D03*
X42981250Y-99250000D03*
D32*
X37941526Y-62229328D02*
X37980974Y-61650672D01*
D33*
X44263219Y-59710694D02*
X42999281Y-61129306D01*
D34*
X44281250Y-59690000D03*
X42981250Y-61150000D03*
D32*
X242729026Y-100329328D02*
X242768474Y-99750672D01*
D33*
X249050719Y-97810694D02*
X247786781Y-99229306D01*
D34*
X249068750Y-97790000D03*
X247768750Y-99250000D03*
D32*
X42704026Y-81279328D02*
X42743474Y-80700672D01*
D33*
X49025719Y-78760694D02*
X47761781Y-80179306D01*
D34*
X49043750Y-78740000D03*
X47743750Y-80200000D03*
D32*
X237966526Y-62229328D02*
X238005974Y-61650672D01*
D33*
X244288219Y-59710694D02*
X243024281Y-61129306D01*
D34*
X244306250Y-59690000D03*
X243006250Y-61150000D03*
D35*
X227618199Y-78760694D02*
X226354261Y-80179306D01*
D33*
X230000719Y-78760694D02*
X228736781Y-80179306D01*
D36*
X226336230Y-80200000D03*
X227636230Y-78740000D03*
D32*
X221296506Y-81279328D02*
X221335954Y-80700672D01*
D37*
X228916230Y-76200000D03*
D38*
X223836230Y-76200000D03*
X226218750Y-76200000D03*
D37*
X221138750Y-76200000D03*
D39*
X223677325Y-81304271D02*
X223720175Y-80675729D01*
D34*
X230018750Y-78740000D03*
X228718750Y-80200000D03*
D35*
X225236949Y-97810694D02*
X223973011Y-99229306D01*
D33*
X227619469Y-97810694D02*
X226355531Y-99229306D01*
D36*
X223954980Y-99250000D03*
X225254980Y-97790000D03*
D32*
X218915256Y-100329328D02*
X218954704Y-99750672D01*
D37*
X226534980Y-95250000D03*
D38*
X221454980Y-95250000D03*
X223837500Y-95250000D03*
D37*
X218757500Y-95250000D03*
D39*
X221296075Y-100354271D02*
X221338925Y-99725729D01*
D34*
X227637500Y-97790000D03*
X226337500Y-99250000D03*
D35*
X249049449Y-78760694D02*
X247785511Y-80179306D01*
D33*
X251431969Y-78760694D02*
X250168031Y-80179306D01*
D36*
X247767480Y-80200000D03*
X249067480Y-78740000D03*
D32*
X242727756Y-81279328D02*
X242767204Y-80700672D01*
D37*
X250347480Y-76200000D03*
D38*
X245267480Y-76200000D03*
X247650000Y-76200000D03*
D37*
X242570000Y-76200000D03*
D39*
X245108575Y-81304271D02*
X245151425Y-80675729D01*
D34*
X251450000Y-78740000D03*
X250150000Y-80200000D03*
D35*
X84743199Y-97810694D02*
X83479261Y-99229306D01*
D33*
X87125719Y-97810694D02*
X85861781Y-99229306D01*
D36*
X83461230Y-99250000D03*
X84761230Y-97790000D03*
D32*
X78421506Y-100329328D02*
X78460954Y-99750672D01*
D37*
X86041230Y-95250000D03*
D38*
X80961230Y-95250000D03*
X83343750Y-95250000D03*
D37*
X78263750Y-95250000D03*
D39*
X80802325Y-100354271D02*
X80845175Y-99725729D01*
D34*
X87143750Y-97790000D03*
X85843750Y-99250000D03*
D40*
X200056750Y-102235000D03*
D32*
X147479026Y-100329328D02*
X147518474Y-99750672D01*
D33*
X153800719Y-97810694D02*
X152536781Y-99229306D01*
D34*
X153818750Y-97790000D03*
X152518750Y-99250000D03*
D32*
X114141526Y-100329328D02*
X114180974Y-99750672D01*
D33*
X120463219Y-97810694D02*
X119199281Y-99229306D01*
D34*
X120481250Y-97790000D03*
X119181250Y-99250000D03*
D32*
X161766526Y-100329328D02*
X161805974Y-99750672D01*
D33*
X168088219Y-97810694D02*
X166824281Y-99229306D01*
D34*
X168106250Y-97790000D03*
X166806250Y-99250000D03*
D41*
X142875000Y-37047780D03*
X142077440Y-35448900D03*
X144472660Y-37047780D03*
X143672560Y-35448900D03*
D42*
X146431000Y-30988000D03*
X139319000Y-30988000D03*
D41*
X141277340Y-37047780D03*
D42*
X139319000Y-35814000D03*
X146431000Y-35814000D03*
D43*
X144225000Y-39055000D03*
X144225000Y-40005000D03*
X144225000Y-40955000D03*
X141525000Y-40955000D03*
X141525000Y-39055000D03*
X141525000Y-40005000D03*
D44*
X52385000Y-58150760D03*
X50485000Y-58150760D03*
X51435000Y-56151780D03*
D28*
X46513750Y-61597500D03*
X46513750Y-63497500D03*
X34448750Y-61597500D03*
X34448750Y-63497500D03*
X46196250Y-52390000D03*
X46196250Y-54290000D03*
X43815000Y-33340000D03*
X43815000Y-35240000D03*
X41910000Y-33340000D03*
X41910000Y-35240000D03*
X62865000Y-33340000D03*
X62865000Y-35240000D03*
X81915000Y-33340000D03*
X81915000Y-35240000D03*
X100965000Y-33340000D03*
X100965000Y-35240000D03*
X120015000Y-33340000D03*
X120015000Y-35240000D03*
X136525000Y-33340000D03*
X136525000Y-35240000D03*
X158115000Y-33340000D03*
X158115000Y-35240000D03*
X177165000Y-33340000D03*
X177165000Y-35240000D03*
X196215000Y-33340000D03*
X196215000Y-35240000D03*
X215265000Y-33340000D03*
X215265000Y-35240000D03*
X234315000Y-33340000D03*
X234315000Y-35240000D03*
X44291250Y-52390000D03*
X44291250Y-54290000D03*
X67627500Y-52390000D03*
X67627500Y-54290000D03*
X86677500Y-52390000D03*
X86677500Y-54290000D03*
X105727500Y-52390000D03*
X105727500Y-54290000D03*
X124777500Y-52390000D03*
X124777500Y-54290000D03*
X143827500Y-52390000D03*
X143827500Y-54290000D03*
X162877500Y-52390000D03*
X162877500Y-54290000D03*
X181927500Y-52390000D03*
X181927500Y-54290000D03*
X200977500Y-52390000D03*
X200977500Y-54290000D03*
X220027500Y-52390000D03*
X220027500Y-54290000D03*
X246221250Y-52390000D03*
X246221250Y-54290000D03*
X50958750Y-71440000D03*
X50958750Y-73340000D03*
X77152500Y-71440000D03*
X77152500Y-73340000D03*
X96202500Y-71440000D03*
X96202500Y-73340000D03*
X115252500Y-71440000D03*
X115252500Y-73340000D03*
X134302500Y-71440000D03*
X134302500Y-73340000D03*
X153352500Y-71440000D03*
X153352500Y-73340000D03*
X172402500Y-71440000D03*
X172402500Y-73340000D03*
X191452500Y-71440000D03*
X191452500Y-73340000D03*
X210502500Y-71440000D03*
X210502500Y-73340000D03*
X231933750Y-71440000D03*
X231933750Y-73340000D03*
X250825000Y-71440000D03*
X250825000Y-73340000D03*
X46196250Y-90490000D03*
X46196250Y-92390000D03*
X67627500Y-90490000D03*
X67627500Y-92390000D03*
X86995000Y-90490000D03*
X86995000Y-92390000D03*
X122396250Y-90490000D03*
X122396250Y-92390000D03*
X155733750Y-90490000D03*
X155733750Y-92390000D03*
X208438750Y-90490000D03*
X208438750Y-92390000D03*
X229552500Y-90490000D03*
X229552500Y-92390000D03*
X250983750Y-90490000D03*
X250983750Y-92390000D03*
X253365000Y-33340000D03*
X253365000Y-35240000D03*
X141922500Y-44130000D03*
X141922500Y-42230000D03*
X143827500Y-44130000D03*
X143827500Y-42230000D03*
M02*
