G04 #@! TF.FileFunction,Legend,Top*
%FSLAX46Y46*%
G04 Gerber Fmt 4.6, Leading zero omitted, Abs format (unit mm)*
G04 Created by KiCad (PCBNEW 4.0.2-stable) date 8/17/2017 4:27:58 PM*
%MOMM*%
G01*
G04 APERTURE LIST*
%ADD10C,0.254000*%
%ADD11C,0.010000*%
G04 APERTURE END LIST*
D10*
D11*
G36*
X178100741Y-95380233D02*
X178013923Y-95454647D01*
X178100741Y-95541465D01*
X178162751Y-95454647D01*
X178100741Y-95380233D01*
X178100741Y-95380233D01*
X178100741Y-95380233D01*
G37*
X178100741Y-95380233D02*
X178013923Y-95454647D01*
X178100741Y-95541465D01*
X178162751Y-95454647D01*
X178100741Y-95380233D01*
X178100741Y-95380233D01*
G36*
X174243611Y-91597519D02*
X173152204Y-91833163D01*
X173152204Y-91981991D01*
X172532087Y-92230038D01*
X172457673Y-92465683D01*
X172606501Y-92936972D01*
X172755329Y-92936972D01*
X172755329Y-92230038D01*
X172916561Y-92230038D01*
X173214217Y-93011387D01*
X173375447Y-93011387D01*
X173487069Y-92862558D01*
X173536678Y-92664121D01*
X173536678Y-92428475D01*
X173536678Y-92230038D01*
X173685507Y-92230038D01*
X174082382Y-92614512D01*
X174243611Y-93259433D01*
X174392439Y-93259433D01*
X174466853Y-93172616D01*
X174652889Y-92936972D01*
X174727303Y-92626913D01*
X174814118Y-92316855D01*
X174851327Y-91981991D01*
X174690095Y-91597519D01*
X174243611Y-91597519D01*
X174243611Y-91597519D01*
X174243611Y-91597519D01*
G37*
X174243611Y-91597519D02*
X173152204Y-91833163D01*
X173152204Y-91981991D01*
X172532087Y-92230038D01*
X172457673Y-92465683D01*
X172606501Y-92936972D01*
X172755329Y-92936972D01*
X172755329Y-92230038D01*
X172916561Y-92230038D01*
X173214217Y-93011387D01*
X173375447Y-93011387D01*
X173487069Y-92862558D01*
X173536678Y-92664121D01*
X173536678Y-92428475D01*
X173536678Y-92230038D01*
X173685507Y-92230038D01*
X174082382Y-92614512D01*
X174243611Y-93259433D01*
X174392439Y-93259433D01*
X174466853Y-93172616D01*
X174652889Y-92936972D01*
X174727303Y-92626913D01*
X174814118Y-92316855D01*
X174851327Y-91981991D01*
X174690095Y-91597519D01*
X174243611Y-91597519D01*
X174243611Y-91597519D01*
G36*
X172222030Y-98852889D02*
X172308845Y-98852889D01*
X172308845Y-98914902D01*
X172370858Y-98852889D01*
X172308845Y-98766074D01*
X172222030Y-98852889D01*
X172222030Y-98852889D01*
X172222030Y-98852889D01*
G37*
X172222030Y-98852889D02*
X172308845Y-98852889D01*
X172308845Y-98914902D01*
X172370858Y-98852889D01*
X172308845Y-98766074D01*
X172222030Y-98852889D01*
X172222030Y-98852889D01*
G36*
X173685507Y-98914902D02*
X173685507Y-99055462D01*
X173759921Y-98914902D01*
X173685507Y-98914902D01*
X173685507Y-98914902D01*
X173685507Y-98914902D01*
G37*
X173685507Y-98914902D02*
X173685507Y-99055462D01*
X173759921Y-98914902D01*
X173685507Y-98914902D01*
X173685507Y-98914902D01*
G36*
X172308845Y-92614512D02*
X172370858Y-92540097D01*
X172308845Y-92465683D01*
X172222030Y-92540097D01*
X172308845Y-92614512D01*
X172308845Y-92614512D01*
X172308845Y-92614512D01*
G37*
X172308845Y-92614512D02*
X172370858Y-92540097D01*
X172308845Y-92465683D01*
X172222030Y-92540097D01*
X172308845Y-92614512D01*
X172308845Y-92614512D01*
G36*
X29773879Y-28074782D02*
X29775440Y-28075840D01*
X29121269Y-28205069D01*
X28575492Y-28575784D01*
X28204651Y-29121565D01*
X28075285Y-29775997D01*
X28074253Y-29773880D01*
X28074253Y-103573511D01*
X28075285Y-103575627D01*
X28204379Y-104229366D01*
X28574711Y-104774768D01*
X29119982Y-105145509D01*
X29773890Y-105275266D01*
X173536689Y-105275266D01*
X173536689Y-100328798D01*
X173301043Y-99783095D01*
X173685517Y-99055491D01*
X173685517Y-98914931D01*
X173685517Y-98518056D01*
X172990986Y-98604871D01*
X172829754Y-99398621D01*
X172606512Y-99398621D01*
X172606512Y-99621863D01*
X172308856Y-99398621D01*
X172308856Y-98914931D01*
X172222041Y-98852918D01*
X172135223Y-98852918D01*
X171911981Y-98914931D01*
X171639129Y-98778504D01*
X171490301Y-98530457D01*
X171453096Y-98220400D01*
X171453096Y-97897939D01*
X171601924Y-97414246D01*
X171837567Y-97414246D01*
X171986395Y-97897939D01*
X172308856Y-97897939D01*
X172308856Y-97749111D01*
X172222041Y-96880947D01*
X172457684Y-96880947D01*
X172606512Y-97265418D01*
X172755340Y-97265418D01*
X172829754Y-97811121D01*
X172990986Y-97811121D01*
X173301043Y-97414246D01*
X173214228Y-97104189D01*
X173449872Y-97042176D01*
X173449872Y-96955361D01*
X173536689Y-96955361D01*
X174144403Y-97414246D01*
X174144403Y-97749111D01*
X173685517Y-98518056D01*
X173685517Y-98914931D01*
X174082392Y-98852918D01*
X174144403Y-98691689D01*
X174293231Y-98691689D01*
X174454463Y-98096377D01*
X174690106Y-97501064D01*
X174776924Y-96880947D01*
X174776924Y-96248426D01*
X174690106Y-95938369D01*
X174293231Y-95938369D01*
X173759931Y-96049989D01*
X173177020Y-96087197D01*
X172680926Y-96285634D01*
X172135223Y-96397254D01*
X171986395Y-96335244D01*
X171911981Y-95851551D01*
X172060809Y-95541494D01*
X172172431Y-95231434D01*
X172222041Y-94834559D01*
X172222041Y-94437684D01*
X172370869Y-94437684D01*
X172755340Y-94673330D01*
X172916572Y-95070205D01*
X173152215Y-95111546D01*
X173152215Y-94673330D01*
X172990986Y-94673330D01*
X172866963Y-94512098D01*
X172829754Y-94313660D01*
X172829754Y-94078017D01*
X172829754Y-93879580D01*
X172222041Y-93792762D01*
X172135223Y-93259463D01*
X172308856Y-92614541D01*
X171911981Y-92540127D01*
X171763153Y-91833192D01*
X171949189Y-91361903D01*
X172172431Y-90965028D01*
X172296455Y-90530947D01*
X172370869Y-90010048D01*
X172606512Y-90010048D01*
X173152215Y-90171278D01*
X173449872Y-90965028D01*
X174243622Y-90965028D01*
X175086981Y-90890614D01*
X175620283Y-91126259D01*
X175781512Y-92155653D01*
X175657489Y-92775770D01*
X175496260Y-93371082D01*
X175186200Y-93916785D01*
X174851338Y-94437684D01*
X174466864Y-94437684D01*
X174144403Y-93966395D01*
X174293231Y-93333877D01*
X174243622Y-93333877D01*
X173908760Y-93792762D01*
X173685517Y-93792762D01*
X173685517Y-93643934D01*
X173301043Y-93643934D01*
X173152215Y-94673330D01*
X173152215Y-95111546D01*
X173759931Y-95219033D01*
X174776924Y-95144619D01*
X175000166Y-95219033D01*
X175235809Y-95777137D01*
X175322627Y-95777137D01*
X175384637Y-95938369D01*
X175186200Y-97042176D01*
X174962957Y-98059168D01*
X174615692Y-99076160D01*
X174082392Y-100006337D01*
X173536689Y-100328798D01*
X173536689Y-105275266D01*
X177716278Y-105275266D01*
X177716278Y-100093153D01*
X177641864Y-100006337D01*
X177480635Y-100093153D01*
X177282197Y-99857509D01*
X177257406Y-99559853D01*
X177257406Y-99237392D01*
X177257406Y-98914931D01*
X177356624Y-97699502D01*
X177517853Y-96521278D01*
X177641877Y-95305848D01*
X177641877Y-94040809D01*
X177406234Y-93333877D01*
X177096174Y-93333877D01*
X176463656Y-93482705D01*
X176228010Y-93333877D01*
X176165999Y-92701356D01*
X176389242Y-92378895D01*
X176550471Y-92378895D01*
X176699299Y-92155653D01*
X177406234Y-91448720D01*
X177555062Y-91448720D01*
X177666682Y-91163465D01*
X177827913Y-90927822D01*
X177865119Y-90654970D01*
X177939533Y-90344910D01*
X178559650Y-90171278D01*
X179018538Y-90493739D01*
X179018538Y-91051845D01*
X178336408Y-92378895D01*
X178708478Y-92378895D01*
X179638656Y-92155653D01*
X179787484Y-91361903D01*
X179713070Y-90803798D01*
X179936312Y-90729384D01*
X180655648Y-91275088D01*
X180655648Y-91597548D01*
X180568830Y-92068838D01*
X182491195Y-92304481D01*
X182578010Y-92701356D01*
X182193538Y-92775770D01*
X182193538Y-92937002D01*
X181809064Y-92937002D01*
X180494416Y-92775770D01*
X180494416Y-92937002D01*
X180568830Y-93333877D01*
X180494416Y-93569520D01*
X181573421Y-93730752D01*
X181573421Y-93879580D01*
X181499007Y-93879580D01*
X181412189Y-94189637D01*
X180420002Y-94276455D01*
X180320783Y-95219033D01*
X181350179Y-95293447D01*
X181350179Y-95777137D01*
X181263361Y-95777137D01*
X181188947Y-96161611D01*
X180568830Y-96248426D01*
X180320783Y-96161611D01*
X180320783Y-97042176D01*
X180568830Y-97191004D01*
X181263361Y-97389442D01*
X181995101Y-97538270D01*
X182689632Y-97736707D01*
X183359359Y-97972353D01*
X183359359Y-98145986D01*
X183185726Y-98456043D01*
X182974885Y-98456043D01*
X182974885Y-98914931D01*
X182578010Y-98914931D01*
X181883478Y-98778504D01*
X181226156Y-98580067D01*
X180494416Y-98456043D01*
X179713070Y-98456043D01*
X179713070Y-98369228D01*
X179179767Y-98294814D01*
X178249593Y-98518056D01*
X177865119Y-98456043D01*
X177865119Y-98766103D01*
X178162775Y-99857509D01*
X177939533Y-99857509D01*
X177939533Y-100006337D01*
X177716291Y-100093153D01*
X177716291Y-105275266D01*
X188853595Y-105275266D01*
X188853595Y-99956728D01*
X188469124Y-98939736D01*
X188667562Y-98406434D01*
X188580744Y-98195595D01*
X188580744Y-97922744D01*
X188580744Y-97649892D01*
X188283088Y-97575478D01*
X187613361Y-99150574D01*
X187228890Y-99212587D01*
X187228890Y-99274598D01*
X186943635Y-99274598D01*
X186770002Y-99212587D01*
X186658382Y-98468447D01*
X186770002Y-98319619D01*
X186943635Y-98319619D01*
X187042853Y-98121181D01*
X187228890Y-98121181D01*
X187514142Y-97451455D01*
X187228890Y-97451455D01*
X186571564Y-97575478D01*
X186571564Y-97711903D01*
X185604181Y-97922744D01*
X185132892Y-97711903D01*
X184959260Y-97377041D01*
X185331330Y-96905752D01*
X185790218Y-96843738D01*
X185790218Y-96694910D01*
X187340510Y-96632900D01*
X187340510Y-96434462D01*
X186943635Y-96360048D01*
X186770002Y-95417470D01*
X186844416Y-95268642D01*
X187414924Y-95268642D01*
X187898616Y-95479481D01*
X187985431Y-96012783D01*
X187712580Y-96496473D01*
X188283088Y-96496473D01*
X188283088Y-96360048D01*
X188469124Y-96360048D01*
X188469124Y-95690322D01*
X188283088Y-95070205D01*
X188853595Y-95070205D01*
X189089241Y-95442275D01*
X189238069Y-95814345D01*
X189324885Y-96223621D01*
X189523322Y-96632900D01*
X190230257Y-96707314D01*
X190565119Y-96738318D01*
X190565119Y-96137838D01*
X190478304Y-96149215D01*
X189610140Y-95950778D01*
X189610140Y-95752340D01*
X189808577Y-95752340D01*
X189907796Y-95070213D01*
X190292267Y-94995799D01*
X190478304Y-95070213D01*
X190478304Y-95206637D01*
X190763556Y-95268650D01*
X190961994Y-95814353D01*
X190850374Y-95913572D01*
X190800765Y-96062400D01*
X190664338Y-96124411D01*
X190565119Y-96137851D01*
X190565119Y-96738331D01*
X190899984Y-96769338D01*
X191569710Y-96868556D01*
X192189827Y-97042189D01*
X192189827Y-97451468D01*
X191718538Y-97513478D01*
X191247249Y-97377054D01*
X190713947Y-97277835D01*
X190565119Y-97270585D01*
X190565119Y-97513465D01*
X191148030Y-98121181D01*
X191334064Y-98121181D01*
X191334064Y-98406434D01*
X191048812Y-98728895D01*
X190961994Y-98728895D01*
X190478304Y-98406434D01*
X190292267Y-98406434D01*
X189994611Y-97711903D01*
X190093830Y-97513465D01*
X190565119Y-97513465D01*
X190565119Y-97270585D01*
X190193049Y-97253017D01*
X189610140Y-97253017D01*
X189337288Y-97612684D01*
X189337288Y-98083973D01*
X189337288Y-98567666D01*
X189337288Y-99001746D01*
X189523322Y-99807900D01*
X188853595Y-99956728D01*
X188853595Y-105275266D01*
X191991390Y-105275266D01*
X191991390Y-100490028D01*
X191817757Y-100415613D01*
X191619319Y-99349012D01*
X191718538Y-99150574D01*
X191916976Y-99150574D01*
X192289046Y-99212587D01*
X193231624Y-98728895D01*
X193665705Y-97823525D01*
X193913752Y-96868543D01*
X193913752Y-95851551D01*
X194000569Y-94859364D01*
X193913752Y-94536903D01*
X193727718Y-94536903D01*
X193727718Y-94400478D01*
X192859554Y-94226845D01*
X191904572Y-94127627D01*
X190899984Y-94053213D01*
X189907796Y-94053213D01*
X189238069Y-94189637D01*
X189238069Y-94326064D01*
X187799398Y-94735340D01*
X187414924Y-94660926D01*
X187414924Y-94797353D01*
X186658382Y-94859364D01*
X186273908Y-94797353D01*
X186273908Y-94660926D01*
X185988655Y-94598916D01*
X185988655Y-94251650D01*
X186273908Y-93991199D01*
X186770002Y-93780361D01*
X186943635Y-93619129D01*
X187092463Y-93383486D01*
X187142072Y-93147840D01*
X187142072Y-92899793D01*
X185988655Y-92763369D01*
X185988655Y-92626942D01*
X185703400Y-92626942D01*
X185517366Y-92292080D01*
X185331330Y-92292080D01*
X185132892Y-91820791D01*
X185331330Y-91820791D01*
X185331330Y-91684364D01*
X185988655Y-91547939D01*
X185988655Y-91399111D01*
X187042853Y-91002236D01*
X187514142Y-90382119D01*
X187898616Y-90382119D01*
X188369905Y-90667371D01*
X188580744Y-91064246D01*
X190664338Y-91064246D01*
X190664338Y-90927822D01*
X190515510Y-90803798D01*
X190478304Y-90630166D01*
X190478304Y-90431728D01*
X190478304Y-90258095D01*
X190565119Y-90121668D01*
X191048812Y-90034853D01*
X191148030Y-90258095D01*
X191334064Y-90258095D01*
X191619319Y-91002236D01*
X192202228Y-91002236D01*
X192772736Y-91064246D01*
X193293635Y-91101455D01*
X193802132Y-91200673D01*
X193802132Y-91399111D01*
X194000569Y-91399111D01*
X194099788Y-92081239D01*
X193913752Y-92081239D01*
X193343244Y-91957215D01*
X192809944Y-91857996D01*
X192239437Y-91820791D01*
X191619319Y-91820791D01*
X191532502Y-92230067D01*
X191148030Y-92292080D01*
X191148030Y-92465713D01*
X191048812Y-92639345D01*
X190899984Y-92775770D01*
X190850374Y-92899793D01*
X190565119Y-92899793D01*
X190093830Y-92701356D01*
X189994611Y-92428504D01*
X190478304Y-91733973D01*
X189907796Y-91733973D01*
X188952814Y-92081239D01*
X188580744Y-92899793D01*
X188183869Y-92974207D01*
X188183869Y-93247059D01*
X188580744Y-93581923D01*
X190230257Y-93581923D01*
X191805353Y-93656338D01*
X193380452Y-93755556D01*
X194161800Y-93857873D01*
X194868733Y-94115223D01*
X195017562Y-94425283D01*
X195067171Y-94772548D01*
X195067171Y-95070205D01*
X195067171Y-95417470D01*
X194868733Y-95777137D01*
X194769515Y-96198817D01*
X194769515Y-96645301D01*
X194769515Y-97042176D01*
X194868733Y-97711903D01*
X194571077Y-98406434D01*
X194484259Y-99349012D01*
X194298226Y-99349012D01*
X194199007Y-99547449D01*
X194000569Y-99547449D01*
X194000569Y-99671473D01*
X193802132Y-99671473D01*
X193628499Y-100006337D01*
X192958773Y-100415613D01*
X191991390Y-100490028D01*
X191991390Y-105275266D01*
X255973529Y-105275266D01*
X255976624Y-105275266D01*
X256630525Y-105145909D01*
X257175956Y-104775324D01*
X257546502Y-104229800D01*
X257675747Y-103575627D01*
X257675747Y-103573511D01*
X257675747Y-29775950D01*
X257546640Y-29121955D01*
X257176215Y-28576265D01*
X256630776Y-28205378D01*
X255976624Y-28075793D01*
X255973529Y-28074734D01*
X29773879Y-28074782D01*
X29773879Y-28074782D01*
G37*
X29773879Y-28074782D02*
X29775440Y-28075840D01*
X29121269Y-28205069D01*
X28575492Y-28575784D01*
X28204651Y-29121565D01*
X28075285Y-29775997D01*
X28074253Y-29773880D01*
X28074253Y-103573511D01*
X28075285Y-103575627D01*
X28204379Y-104229366D01*
X28574711Y-104774768D01*
X29119982Y-105145509D01*
X29773890Y-105275266D01*
X173536689Y-105275266D01*
X173536689Y-100328798D01*
X173301043Y-99783095D01*
X173685517Y-99055491D01*
X173685517Y-98914931D01*
X173685517Y-98518056D01*
X172990986Y-98604871D01*
X172829754Y-99398621D01*
X172606512Y-99398621D01*
X172606512Y-99621863D01*
X172308856Y-99398621D01*
X172308856Y-98914931D01*
X172222041Y-98852918D01*
X172135223Y-98852918D01*
X171911981Y-98914931D01*
X171639129Y-98778504D01*
X171490301Y-98530457D01*
X171453096Y-98220400D01*
X171453096Y-97897939D01*
X171601924Y-97414246D01*
X171837567Y-97414246D01*
X171986395Y-97897939D01*
X172308856Y-97897939D01*
X172308856Y-97749111D01*
X172222041Y-96880947D01*
X172457684Y-96880947D01*
X172606512Y-97265418D01*
X172755340Y-97265418D01*
X172829754Y-97811121D01*
X172990986Y-97811121D01*
X173301043Y-97414246D01*
X173214228Y-97104189D01*
X173449872Y-97042176D01*
X173449872Y-96955361D01*
X173536689Y-96955361D01*
X174144403Y-97414246D01*
X174144403Y-97749111D01*
X173685517Y-98518056D01*
X173685517Y-98914931D01*
X174082392Y-98852918D01*
X174144403Y-98691689D01*
X174293231Y-98691689D01*
X174454463Y-98096377D01*
X174690106Y-97501064D01*
X174776924Y-96880947D01*
X174776924Y-96248426D01*
X174690106Y-95938369D01*
X174293231Y-95938369D01*
X173759931Y-96049989D01*
X173177020Y-96087197D01*
X172680926Y-96285634D01*
X172135223Y-96397254D01*
X171986395Y-96335244D01*
X171911981Y-95851551D01*
X172060809Y-95541494D01*
X172172431Y-95231434D01*
X172222041Y-94834559D01*
X172222041Y-94437684D01*
X172370869Y-94437684D01*
X172755340Y-94673330D01*
X172916572Y-95070205D01*
X173152215Y-95111546D01*
X173152215Y-94673330D01*
X172990986Y-94673330D01*
X172866963Y-94512098D01*
X172829754Y-94313660D01*
X172829754Y-94078017D01*
X172829754Y-93879580D01*
X172222041Y-93792762D01*
X172135223Y-93259463D01*
X172308856Y-92614541D01*
X171911981Y-92540127D01*
X171763153Y-91833192D01*
X171949189Y-91361903D01*
X172172431Y-90965028D01*
X172296455Y-90530947D01*
X172370869Y-90010048D01*
X172606512Y-90010048D01*
X173152215Y-90171278D01*
X173449872Y-90965028D01*
X174243622Y-90965028D01*
X175086981Y-90890614D01*
X175620283Y-91126259D01*
X175781512Y-92155653D01*
X175657489Y-92775770D01*
X175496260Y-93371082D01*
X175186200Y-93916785D01*
X174851338Y-94437684D01*
X174466864Y-94437684D01*
X174144403Y-93966395D01*
X174293231Y-93333877D01*
X174243622Y-93333877D01*
X173908760Y-93792762D01*
X173685517Y-93792762D01*
X173685517Y-93643934D01*
X173301043Y-93643934D01*
X173152215Y-94673330D01*
X173152215Y-95111546D01*
X173759931Y-95219033D01*
X174776924Y-95144619D01*
X175000166Y-95219033D01*
X175235809Y-95777137D01*
X175322627Y-95777137D01*
X175384637Y-95938369D01*
X175186200Y-97042176D01*
X174962957Y-98059168D01*
X174615692Y-99076160D01*
X174082392Y-100006337D01*
X173536689Y-100328798D01*
X173536689Y-105275266D01*
X177716278Y-105275266D01*
X177716278Y-100093153D01*
X177641864Y-100006337D01*
X177480635Y-100093153D01*
X177282197Y-99857509D01*
X177257406Y-99559853D01*
X177257406Y-99237392D01*
X177257406Y-98914931D01*
X177356624Y-97699502D01*
X177517853Y-96521278D01*
X177641877Y-95305848D01*
X177641877Y-94040809D01*
X177406234Y-93333877D01*
X177096174Y-93333877D01*
X176463656Y-93482705D01*
X176228010Y-93333877D01*
X176165999Y-92701356D01*
X176389242Y-92378895D01*
X176550471Y-92378895D01*
X176699299Y-92155653D01*
X177406234Y-91448720D01*
X177555062Y-91448720D01*
X177666682Y-91163465D01*
X177827913Y-90927822D01*
X177865119Y-90654970D01*
X177939533Y-90344910D01*
X178559650Y-90171278D01*
X179018538Y-90493739D01*
X179018538Y-91051845D01*
X178336408Y-92378895D01*
X178708478Y-92378895D01*
X179638656Y-92155653D01*
X179787484Y-91361903D01*
X179713070Y-90803798D01*
X179936312Y-90729384D01*
X180655648Y-91275088D01*
X180655648Y-91597548D01*
X180568830Y-92068838D01*
X182491195Y-92304481D01*
X182578010Y-92701356D01*
X182193538Y-92775770D01*
X182193538Y-92937002D01*
X181809064Y-92937002D01*
X180494416Y-92775770D01*
X180494416Y-92937002D01*
X180568830Y-93333877D01*
X180494416Y-93569520D01*
X181573421Y-93730752D01*
X181573421Y-93879580D01*
X181499007Y-93879580D01*
X181412189Y-94189637D01*
X180420002Y-94276455D01*
X180320783Y-95219033D01*
X181350179Y-95293447D01*
X181350179Y-95777137D01*
X181263361Y-95777137D01*
X181188947Y-96161611D01*
X180568830Y-96248426D01*
X180320783Y-96161611D01*
X180320783Y-97042176D01*
X180568830Y-97191004D01*
X181263361Y-97389442D01*
X181995101Y-97538270D01*
X182689632Y-97736707D01*
X183359359Y-97972353D01*
X183359359Y-98145986D01*
X183185726Y-98456043D01*
X182974885Y-98456043D01*
X182974885Y-98914931D01*
X182578010Y-98914931D01*
X181883478Y-98778504D01*
X181226156Y-98580067D01*
X180494416Y-98456043D01*
X179713070Y-98456043D01*
X179713070Y-98369228D01*
X179179767Y-98294814D01*
X178249593Y-98518056D01*
X177865119Y-98456043D01*
X177865119Y-98766103D01*
X178162775Y-99857509D01*
X177939533Y-99857509D01*
X177939533Y-100006337D01*
X177716291Y-100093153D01*
X177716291Y-105275266D01*
X188853595Y-105275266D01*
X188853595Y-99956728D01*
X188469124Y-98939736D01*
X188667562Y-98406434D01*
X188580744Y-98195595D01*
X188580744Y-97922744D01*
X188580744Y-97649892D01*
X188283088Y-97575478D01*
X187613361Y-99150574D01*
X187228890Y-99212587D01*
X187228890Y-99274598D01*
X186943635Y-99274598D01*
X186770002Y-99212587D01*
X186658382Y-98468447D01*
X186770002Y-98319619D01*
X186943635Y-98319619D01*
X187042853Y-98121181D01*
X187228890Y-98121181D01*
X187514142Y-97451455D01*
X187228890Y-97451455D01*
X186571564Y-97575478D01*
X186571564Y-97711903D01*
X185604181Y-97922744D01*
X185132892Y-97711903D01*
X184959260Y-97377041D01*
X185331330Y-96905752D01*
X185790218Y-96843738D01*
X185790218Y-96694910D01*
X187340510Y-96632900D01*
X187340510Y-96434462D01*
X186943635Y-96360048D01*
X186770002Y-95417470D01*
X186844416Y-95268642D01*
X187414924Y-95268642D01*
X187898616Y-95479481D01*
X187985431Y-96012783D01*
X187712580Y-96496473D01*
X188283088Y-96496473D01*
X188283088Y-96360048D01*
X188469124Y-96360048D01*
X188469124Y-95690322D01*
X188283088Y-95070205D01*
X188853595Y-95070205D01*
X189089241Y-95442275D01*
X189238069Y-95814345D01*
X189324885Y-96223621D01*
X189523322Y-96632900D01*
X190230257Y-96707314D01*
X190565119Y-96738318D01*
X190565119Y-96137838D01*
X190478304Y-96149215D01*
X189610140Y-95950778D01*
X189610140Y-95752340D01*
X189808577Y-95752340D01*
X189907796Y-95070213D01*
X190292267Y-94995799D01*
X190478304Y-95070213D01*
X190478304Y-95206637D01*
X190763556Y-95268650D01*
X190961994Y-95814353D01*
X190850374Y-95913572D01*
X190800765Y-96062400D01*
X190664338Y-96124411D01*
X190565119Y-96137851D01*
X190565119Y-96738331D01*
X190899984Y-96769338D01*
X191569710Y-96868556D01*
X192189827Y-97042189D01*
X192189827Y-97451468D01*
X191718538Y-97513478D01*
X191247249Y-97377054D01*
X190713947Y-97277835D01*
X190565119Y-97270585D01*
X190565119Y-97513465D01*
X191148030Y-98121181D01*
X191334064Y-98121181D01*
X191334064Y-98406434D01*
X191048812Y-98728895D01*
X190961994Y-98728895D01*
X190478304Y-98406434D01*
X190292267Y-98406434D01*
X189994611Y-97711903D01*
X190093830Y-97513465D01*
X190565119Y-97513465D01*
X190565119Y-97270585D01*
X190193049Y-97253017D01*
X189610140Y-97253017D01*
X189337288Y-97612684D01*
X189337288Y-98083973D01*
X189337288Y-98567666D01*
X189337288Y-99001746D01*
X189523322Y-99807900D01*
X188853595Y-99956728D01*
X188853595Y-105275266D01*
X191991390Y-105275266D01*
X191991390Y-100490028D01*
X191817757Y-100415613D01*
X191619319Y-99349012D01*
X191718538Y-99150574D01*
X191916976Y-99150574D01*
X192289046Y-99212587D01*
X193231624Y-98728895D01*
X193665705Y-97823525D01*
X193913752Y-96868543D01*
X193913752Y-95851551D01*
X194000569Y-94859364D01*
X193913752Y-94536903D01*
X193727718Y-94536903D01*
X193727718Y-94400478D01*
X192859554Y-94226845D01*
X191904572Y-94127627D01*
X190899984Y-94053213D01*
X189907796Y-94053213D01*
X189238069Y-94189637D01*
X189238069Y-94326064D01*
X187799398Y-94735340D01*
X187414924Y-94660926D01*
X187414924Y-94797353D01*
X186658382Y-94859364D01*
X186273908Y-94797353D01*
X186273908Y-94660926D01*
X185988655Y-94598916D01*
X185988655Y-94251650D01*
X186273908Y-93991199D01*
X186770002Y-93780361D01*
X186943635Y-93619129D01*
X187092463Y-93383486D01*
X187142072Y-93147840D01*
X187142072Y-92899793D01*
X185988655Y-92763369D01*
X185988655Y-92626942D01*
X185703400Y-92626942D01*
X185517366Y-92292080D01*
X185331330Y-92292080D01*
X185132892Y-91820791D01*
X185331330Y-91820791D01*
X185331330Y-91684364D01*
X185988655Y-91547939D01*
X185988655Y-91399111D01*
X187042853Y-91002236D01*
X187514142Y-90382119D01*
X187898616Y-90382119D01*
X188369905Y-90667371D01*
X188580744Y-91064246D01*
X190664338Y-91064246D01*
X190664338Y-90927822D01*
X190515510Y-90803798D01*
X190478304Y-90630166D01*
X190478304Y-90431728D01*
X190478304Y-90258095D01*
X190565119Y-90121668D01*
X191048812Y-90034853D01*
X191148030Y-90258095D01*
X191334064Y-90258095D01*
X191619319Y-91002236D01*
X192202228Y-91002236D01*
X192772736Y-91064246D01*
X193293635Y-91101455D01*
X193802132Y-91200673D01*
X193802132Y-91399111D01*
X194000569Y-91399111D01*
X194099788Y-92081239D01*
X193913752Y-92081239D01*
X193343244Y-91957215D01*
X192809944Y-91857996D01*
X192239437Y-91820791D01*
X191619319Y-91820791D01*
X191532502Y-92230067D01*
X191148030Y-92292080D01*
X191148030Y-92465713D01*
X191048812Y-92639345D01*
X190899984Y-92775770D01*
X190850374Y-92899793D01*
X190565119Y-92899793D01*
X190093830Y-92701356D01*
X189994611Y-92428504D01*
X190478304Y-91733973D01*
X189907796Y-91733973D01*
X188952814Y-92081239D01*
X188580744Y-92899793D01*
X188183869Y-92974207D01*
X188183869Y-93247059D01*
X188580744Y-93581923D01*
X190230257Y-93581923D01*
X191805353Y-93656338D01*
X193380452Y-93755556D01*
X194161800Y-93857873D01*
X194868733Y-94115223D01*
X195017562Y-94425283D01*
X195067171Y-94772548D01*
X195067171Y-95070205D01*
X195067171Y-95417470D01*
X194868733Y-95777137D01*
X194769515Y-96198817D01*
X194769515Y-96645301D01*
X194769515Y-97042176D01*
X194868733Y-97711903D01*
X194571077Y-98406434D01*
X194484259Y-99349012D01*
X194298226Y-99349012D01*
X194199007Y-99547449D01*
X194000569Y-99547449D01*
X194000569Y-99671473D01*
X193802132Y-99671473D01*
X193628499Y-100006337D01*
X192958773Y-100415613D01*
X191991390Y-100490028D01*
X191991390Y-105275266D01*
X255973529Y-105275266D01*
X255976624Y-105275266D01*
X256630525Y-105145909D01*
X257175956Y-104775324D01*
X257546502Y-104229800D01*
X257675747Y-103575627D01*
X257675747Y-103573511D01*
X257675747Y-29775950D01*
X257546640Y-29121955D01*
X257176215Y-28576265D01*
X256630776Y-28205378D01*
X255976624Y-28075793D01*
X255973529Y-28074734D01*
X29773879Y-28074782D01*
G36*
X179018514Y-93011387D02*
X178249569Y-93259433D01*
X178249569Y-93966366D01*
X178485212Y-93966366D01*
X178559626Y-93879551D01*
X179564217Y-93643905D01*
X179564217Y-93408262D01*
X179415389Y-93085801D01*
X179018514Y-93011387D01*
X179018514Y-93011387D01*
G37*
X179018514Y-93011387D02*
X178249569Y-93259433D01*
X178249569Y-93966366D01*
X178485212Y-93966366D01*
X178559626Y-93879551D01*
X179564217Y-93643905D01*
X179564217Y-93408262D01*
X179415389Y-93085801D01*
X179018514Y-93011387D01*
G36*
X179241756Y-94437655D02*
X178162751Y-94673301D01*
X178100741Y-95380233D01*
X178249569Y-95541465D01*
X178336384Y-95454647D01*
X178336384Y-95380233D01*
X178634040Y-95256209D01*
X178981306Y-95219004D01*
X179328572Y-95181795D01*
X179638631Y-95070176D01*
X179638631Y-94437655D01*
X179241756Y-94437655D01*
X179241756Y-94437655D01*
G37*
X179241756Y-94437655D02*
X178162751Y-94673301D01*
X178100741Y-95380233D01*
X178249569Y-95541465D01*
X178336384Y-95454647D01*
X178336384Y-95380233D01*
X178634040Y-95256209D01*
X178981306Y-95219004D01*
X179328572Y-95181795D01*
X179638631Y-95070176D01*
X179638631Y-94437655D01*
X179241756Y-94437655D01*
G36*
X179415389Y-96161582D02*
X177790681Y-96397225D01*
X177790681Y-97587850D01*
X177939509Y-97972324D01*
X178013923Y-97897910D01*
X178013923Y-97749082D01*
X178249569Y-97662264D01*
X178336384Y-97414217D01*
X178559626Y-97414217D01*
X178559626Y-97265389D01*
X179179743Y-97265389D01*
X179179743Y-97104160D01*
X179415389Y-97042147D01*
X179564217Y-96161582D01*
X179415389Y-96161582D01*
X179415389Y-96161582D01*
G37*
X179415389Y-96161582D02*
X177790681Y-96397225D01*
X177790681Y-97587850D01*
X177939509Y-97972324D01*
X178013923Y-97897910D01*
X178013923Y-97749082D01*
X178249569Y-97662264D01*
X178336384Y-97414217D01*
X178559626Y-97414217D01*
X178559626Y-97265389D01*
X179179743Y-97265389D01*
X179179743Y-97104160D01*
X179415389Y-97042147D01*
X179564217Y-96161582D01*
X179415389Y-96161582D01*
M02*
