M48
;DRILL file {KiCad 4.0.6} date 05/07/17 15:54:11
;FORMAT={-:-/ absolute / inch / decimal}
FMAT,2
INCH,TZ
T1C0.067
T2C0.120
T3C0.157
%
G90
G05
M72
T1
X1.3561Y-1.5561
X1.4499Y-2.3061
X1.4499Y-3.8061
X1.6374Y-3.0561
X1.7561Y-1.5561
X1.8499Y-2.3061
X1.8499Y-3.8061
X2.0374Y-3.0561
X2.1061Y-1.5561
X2.2936Y-2.3061
X2.2936Y-3.8061
X2.5061Y-1.5561
X2.6686Y-3.0561
X2.6936Y-2.3061
X2.6936Y-3.8061
X2.8561Y-1.5561
X3.0436Y-2.3061
X3.0436Y-3.8061
X3.0686Y-3.0561
X3.1374Y-3.8061
X3.2561Y-1.5561
X3.4186Y-3.0561
X3.4436Y-2.3061
X3.4436Y-3.8061
X3.5374Y-3.8061
X3.6061Y-1.5561
X3.7936Y-2.3061
X3.8186Y-3.0561
X4.0061Y-1.5561
X4.1686Y-3.0561
X4.1936Y-2.3061
X4.3561Y-1.5561
X4.4499Y-3.8061
X4.5436Y-2.3061
X4.5686Y-3.0561
X4.7561Y-1.5561
X4.8499Y-3.8061
X4.9186Y-3.0561
X4.9436Y-2.3061
X5.1061Y-1.5561
X5.2936Y-2.3061
X5.3186Y-3.0561
X5.5061Y-1.5561
X5.6686Y-3.0561
X5.6936Y-2.3061
X5.7624Y-3.8061
X5.8561Y-1.5561
X6.0436Y-2.3061
X6.0686Y-3.0561
X6.1624Y-3.8061
X6.2561Y-1.5561
X6.3249Y-3.8061
X6.4186Y-3.0561
X6.4436Y-2.3061
X6.6061Y-1.5561
X6.7249Y-3.8061
X6.7936Y-2.3061
X6.8186Y-3.0561
X7.0061Y-1.5561
X7.1686Y-3.0561
X7.1936Y-2.3061
X7.3561Y-1.5561
X7.5436Y-2.3061
X7.5686Y-3.0561
X7.7561Y-1.5561
X7.8249Y-3.8061
X7.9186Y-3.0561
X7.9436Y-2.3061
X8.1061Y-1.5561
X8.2249Y-3.8061
X8.2936Y-2.3061
X8.3186Y-3.0561
X8.5061Y-1.5561
X8.5749Y-3.8061
X8.6686Y-3.0561
X8.6686Y-3.8061
X8.6936Y-2.3061
X8.7624Y-3.0561
X8.8561Y-1.5561
X8.9749Y-3.8061
X9.0686Y-3.0561
X9.0686Y-3.8061
X9.1624Y-3.0561
X9.2561Y-1.5561
X9.3249Y-2.3061
X9.5124Y-3.0561
X9.5124Y-3.8061
X9.6061Y-1.5561
X9.6061Y-3.0561
X9.7249Y-2.3061
X9.9124Y-3.0561
X9.9124Y-3.8061
X10.0061Y-1.5561
X10.0061Y-3.0561
T2
X3.9924Y-4.0811
X4.1799Y-4.0811
X5.1199Y-4.0811
X6.0549Y-4.0811
X6.9949Y-4.0811
X7.9324Y-4.0811
T3
X1.5561Y-1.5561
X1.6499Y-2.3061
X1.6499Y-3.8061
X1.8374Y-3.0561
X2.3061Y-1.5561
X2.4936Y-2.3061
X2.4936Y-3.8061
X2.8686Y-3.0561
X3.0561Y-1.5561
X3.2436Y-2.3061
X3.2436Y-3.8061
X3.3374Y-3.8061
X3.6186Y-3.0561
X3.8061Y-1.5561
X3.9924Y-3.4811
X3.9936Y-2.3061
X4.1799Y-3.4811
X4.3686Y-3.0561
X4.5561Y-1.5561
X4.6499Y-3.8061
X4.7436Y-2.3061
X5.1186Y-3.0561
X5.1199Y-3.4811
X5.3061Y-1.5561
X5.4936Y-2.3061
X5.8686Y-3.0561
X5.9624Y-3.8061
X6.0549Y-3.4811
X6.0561Y-1.5561
X6.2436Y-2.3061
X6.5249Y-3.8061
X6.6186Y-3.0561
X6.8061Y-1.5561
X6.9936Y-2.3061
X6.9949Y-3.4811
X7.3686Y-3.0561
X7.5561Y-1.5561
X7.7436Y-2.3061
X7.9324Y-3.4811
X8.0249Y-3.8061
X8.1186Y-3.0561
X8.3061Y-1.5561
X8.4936Y-2.3061
X8.7749Y-3.8061
X8.8686Y-3.0561
X8.8686Y-3.8061
X8.9624Y-3.0561
X9.0561Y-1.5561
X9.5249Y-2.3061
X9.7124Y-3.0561
X9.7124Y-3.8061
X9.8061Y-1.5561
X9.8061Y-3.0561
T0
M30
