M48
;DRILL file {KiCad 4.0.2-stable} date 6/1/2017 7:16:45 PM
;FORMAT={-:-/ absolute / inch / decimal}
FMAT,2
INCH,TZ
T1C0.012
T2C0.031
T3C0.032
T4C0.036
T5C0.039
T6C0.055
T7C0.059
T8C0.067
T9C0.087
T10C0.120
T11C0.157
%
G90
G05
M72
T1
X1.2375Y-1.8625
X1.25Y-4.0125
X1.2875Y-2.1375
X1.2875Y-2.4625
X1.3625Y-2.8875
X1.375Y-1.2625
X1.4688Y-2.0125
X1.475Y-2.55
X1.5375Y-1.875
X1.5875Y-2.4875
X1.6Y-3.35
X1.7125Y-1.7125
X1.7375Y-2.4875
X1.7812Y-2.625
X1.875Y-1.1925
X1.875Y-2.2375
X1.9Y-2.0625
X1.925Y-2.2
X1.925Y-2.6
X1.975Y-2.0125
X1.975Y-2.175
X2.025Y-1.2625
X2.025Y-2.175
X2.075Y-2.0125
X2.075Y-3.2375
X2.1125Y-2.025
X2.1125Y-3.225
X2.15Y-2.0375
X2.15Y-3.2125
X2.225Y-2.4
X2.25Y-2.0125
X2.3125Y-3.
X2.375Y-1.7625
X2.6Y-2.4875
X2.6125Y-3.2125
X2.775Y-1.2625
X2.8125Y-2.25
X2.8125Y-2.65
X2.9Y-3.5125
X3.0375Y-3.825
X3.125Y-1.7625
X3.3375Y-3.25
X3.35Y-2.4875
X3.4875Y-3.45
X3.525Y-1.2625
X3.525Y-3.45
X3.5625Y-2.25
X3.5625Y-2.675
X3.775Y-3.375
X3.875Y-1.7625
X3.9375Y-3.
X4.1Y-2.4875
X4.125Y-1.5
X4.275Y-1.2625
X4.2875Y-3.375
X4.3125Y-2.25
X4.3125Y-2.7
X4.325Y-3.4875
X4.3812Y-3.45
X4.4188Y-3.45
X4.45Y-2.0125
X4.5Y-1.7125
X4.6375Y-1.75
X4.6875Y-3.
X4.8375Y-3.2375
X4.85Y-2.4875
X4.875Y-1.5
X5.025Y-1.2625
X5.0625Y-2.25
X5.0625Y-2.725
X5.0625Y-3.125
X5.2Y-2.0125
X5.275Y-3.4625
X5.375Y-1.775
X5.4375Y-1.275
X5.4375Y-2.5
X5.4375Y-3.
X5.475Y-1.675
X5.4875Y-1.8375
X5.525Y-1.7625
X5.5875Y-2.7625
X5.6Y-2.4875
X5.7Y-2.4125
X5.725Y-1.7625
X5.7625Y-1.9375
X5.7687Y-3.1125
X5.775Y-1.675
X5.8375Y-1.275
X5.975Y-3.2125
X5.9875Y-2.7625
X6.0125Y-2.7375
X6.0375Y-2.7125
X6.0375Y-2.9375
X6.0625Y-2.6875
X6.125Y-1.7625
X6.175Y-2.75
X6.1875Y-2.4125
X6.1875Y-2.475
X6.1875Y-3.75
X6.2Y-2.725
X6.2125Y-3.4875
X6.225Y-2.7
X6.25Y-2.675
X6.3375Y-2.4875
X6.3375Y-2.7625
X6.3625Y-3.1
X6.375Y-1.5
X6.525Y-1.2625
X6.5625Y-2.25
X6.5625Y-2.7375
X6.675Y-3.3875
X6.85Y-3.1125
X6.875Y-1.7625
X6.9Y-3.7188
X6.9Y-3.7812
X6.9Y-3.8438
X6.9125Y-3.6875
X6.9125Y-3.75
X6.9125Y-3.8125
X7.025Y-3.1125
X7.0375Y-4.0375
X7.0438Y-3.4625
X7.0625Y-4.0625
X7.075Y-3.4125
X7.1Y-2.4875
X7.1063Y-3.425
X7.1125Y-3.1
X7.1375Y-3.425
X7.1375Y-4.0375
X7.1688Y-3.4125
X7.1688Y-4.05
X7.2Y-4.0375
X7.2313Y-3.4562
X7.2313Y-4.05
X7.2625Y-3.475
X7.2625Y-4.0375
X7.275Y-1.2625
X7.2938Y-3.4562
X7.2938Y-4.05
X7.3125Y-2.25
X7.3125Y-3.1625
X7.325Y-3.475
X7.3563Y-3.4562
X7.3875Y-3.5125
X7.45Y-2.0125
X7.475Y-2.925
X7.4875Y-3.6125
X7.4875Y-3.7812
X7.4875Y-3.8438
X7.4875Y-3.9062
X7.5Y-3.8125
X7.5Y-3.875
X7.6125Y-2.65
X7.625Y-1.7625
X7.6625Y-3.3625
X7.6875Y-2.725
X7.7125Y-2.75
X7.7125Y-3.275
X7.7375Y-2.775
X7.7625Y-2.55
X7.7875Y-2.575
X7.7875Y-2.825
X7.8125Y-1.35
X7.8375Y-2.625
X7.85Y-2.4875
X7.8625Y-3.1
X7.8875Y-2.675
X7.9875Y-2.1
X8.0125Y-4.025
X8.025Y-1.2625
X8.0625Y-2.75
X8.0625Y-3.1625
X8.0938Y-3.5125
X8.1625Y-3.6875
X8.2Y-2.9375
X8.2Y-3.4
X8.2937Y-3.5125
X8.2937Y-3.5625
X8.3625Y-2.8125
X8.375Y-1.7625
X8.3937Y-3.5625
X8.4Y-2.85
X8.425Y-2.55
X8.45Y-2.6
X8.4625Y-3.2875
X8.475Y-2.575
X8.4875Y-3.2625
X8.5Y-3.5125
X8.5125Y-3.175
X8.5625Y-3.825
X8.575Y-1.525
X8.5875Y-2.7625
X8.6Y-2.4875
X8.6125Y-3.1625
X8.6625Y-3.075
X8.7625Y-2.275
X8.7625Y-2.425
X8.775Y-1.2625
X8.85Y-2.0125
X8.9125Y-2.725
X8.95Y-2.2375
X9.025Y-2.0625
X9.0625Y-2.05
X9.1Y-2.0375
X9.1Y-3.25
X9.2312Y-3.025
X9.25Y-1.7375
X9.275Y-3.2125
X9.2875Y-3.55
X9.3Y-2.1
X9.3125Y-3.225
X9.35Y-3.2375
X9.425Y-2.7625
X9.4375Y-3.1625
X9.5125Y-3.075
X9.6375Y-2.4875
X9.7Y-1.9125
X9.7375Y-3.375
X9.8625Y-2.7
X9.9375Y-3.6
X9.975Y-2.2125
X9.9812Y-3.775
X10.Y-4.0125
X10.0375Y-3.5125
X10.05Y-1.4125
X10.075Y-1.3875
X10.0875Y-2.8625
T2
X5.5621Y-1.4507
X5.5936Y-1.4035
X5.625Y-1.4507
X5.6564Y-1.4035
X5.6879Y-1.4507
T3
X1.45Y-1.3
X1.5437Y-2.05
X1.5437Y-3.55
X1.55Y-1.3
X1.6438Y-2.05
X1.6438Y-3.55
X1.7312Y-2.8
X1.8313Y-2.8
X2.2Y-1.3
X2.3Y-1.3
X2.3875Y-2.05
X2.3875Y-3.55
X2.4875Y-2.05
X2.4875Y-3.55
X2.7625Y-2.8
X2.8625Y-2.8
X2.95Y-1.3
X3.05Y-1.3
X3.1374Y-3.55
X3.1375Y-2.05
X3.2375Y-2.05
X3.3312Y-3.55
X3.5125Y-2.8
X3.6125Y-2.8
X3.7Y-1.3
X3.8Y-1.3
X3.8875Y-2.05
X3.9875Y-2.05
X4.2625Y-2.8
X4.3625Y-2.8
X4.45Y-1.3
X4.5438Y-3.55
X4.55Y-1.3
X4.6375Y-2.05
X4.6437Y-3.55
X4.7375Y-2.05
X5.0125Y-2.8
X5.1125Y-2.8
X5.2Y-1.3
X5.3Y-1.3
X5.3875Y-2.05
X5.4875Y-2.05
X5.7625Y-2.8
X5.8563Y-3.55
X5.8625Y-2.8
X5.95Y-1.3
X5.9562Y-3.55
X6.05Y-1.3
X6.1375Y-2.05
X6.2375Y-2.05
X6.4188Y-3.55
X6.5125Y-2.8
X6.5187Y-3.55
X6.6125Y-2.8
X6.7Y-1.3
X6.8Y-1.3
X6.8875Y-2.05
X6.9875Y-2.05
X7.2625Y-2.8
X7.3625Y-2.8
X7.45Y-1.3
X7.55Y-1.3
X7.6375Y-2.05
X7.7375Y-2.05
X7.9188Y-3.55
X8.0125Y-2.8
X8.0187Y-3.55
X8.1125Y-2.8
X8.2Y-1.3
X8.3Y-1.3
X8.3875Y-2.05
X8.4875Y-2.05
X8.6687Y-3.55
X8.7624Y-2.8
X8.8625Y-3.55
X8.95Y-1.3
X8.9562Y-2.8
X9.05Y-1.3
X9.4187Y-2.05
X9.5187Y-2.05
X9.6062Y-2.8
X9.6062Y-3.55
X9.7Y-1.3
X9.7062Y-3.55
X9.8Y-1.3
X9.8Y-2.8
T5
X1.15Y-2.475
X1.15Y-2.575
X1.15Y-2.675
X1.15Y-2.775
X8.0938Y-4.1
X8.1937Y-4.1
X8.2937Y-4.1
X8.3937Y-4.1
X8.4938Y-4.1
X8.5938Y-4.1
X10.Y-2.475
X10.Y-2.575
X10.Y-2.675
X10.Y-2.775
X10.1Y-2.575
X10.1Y-2.675
X10.1Y-2.775
T7
X1.5984Y-1.6575
X1.6496Y-1.6
X1.6922Y-2.4075
X1.6922Y-3.9075
X1.7434Y-2.35
X1.7434Y-3.85
X1.8797Y-3.1575
X1.9309Y-3.1
X2.3484Y-1.6575
X2.3996Y-1.6
X2.5359Y-2.4075
X2.5359Y-3.9075
X2.5871Y-2.35
X2.5871Y-3.85
X2.9109Y-3.1575
X2.9621Y-3.1
X3.0984Y-1.6575
X3.1496Y-1.6
X3.2859Y-3.9075
X3.2859Y-2.4075
X3.3371Y-3.85
X3.3371Y-2.35
X3.3797Y-3.9075
X3.4309Y-3.85
X3.6609Y-3.1575
X3.7121Y-3.1
X3.8484Y-1.6575
X3.8996Y-1.6
X4.0359Y-2.4075
X4.0871Y-2.35
X4.4109Y-3.1575
X4.4621Y-3.1
X4.5984Y-1.6575
X4.6496Y-1.6
X4.6922Y-3.9075
X4.7434Y-3.85
X4.7859Y-2.4075
X4.8371Y-2.35
X5.1609Y-3.1575
X5.2121Y-3.1
X5.3484Y-1.6575
X5.3996Y-1.6
X5.5359Y-2.4075
X5.5871Y-2.35
X5.9109Y-3.1575
X5.9621Y-3.1
X6.0047Y-3.9075
X6.0559Y-3.85
X6.0984Y-1.6575
X6.1496Y-1.6
X6.2859Y-2.4075
X6.3371Y-2.35
X6.5672Y-3.9075
X6.6184Y-3.85
X6.6609Y-3.1575
X6.7121Y-3.1
X6.8484Y-1.6575
X6.8996Y-1.6
X7.0359Y-2.4075
X7.0871Y-2.35
X7.4109Y-3.1575
X7.4621Y-3.1
X7.5984Y-1.6575
X7.6496Y-1.6
X7.7859Y-2.4075
X7.8371Y-2.35
X8.0672Y-3.9075
X8.1184Y-3.85
X8.1609Y-3.1575
X8.2121Y-3.1
X8.3484Y-1.6575
X8.3996Y-1.6
X8.5359Y-2.4075
X8.5871Y-2.35
X8.8171Y-3.9075
X8.8683Y-3.85
X8.9109Y-3.1575
X8.9109Y-3.9075
X8.9621Y-3.1
X8.9621Y-3.85
X9.0047Y-3.1575
X9.0559Y-3.1
X9.0984Y-1.6575
X9.1496Y-1.6
X9.5672Y-2.4075
X9.6184Y-2.35
X9.7546Y-3.1575
X9.7547Y-3.9075
X9.8058Y-3.1
X9.8059Y-3.85
X9.8484Y-1.6575
X9.8484Y-3.1575
X9.8996Y-1.6
X9.8996Y-3.1
T8
X3.0812Y-3.75
X3.3874Y-3.75
X8.6125Y-3.75
X8.7062Y-3.
X8.9187Y-3.75
X9.0124Y-3.
X9.55Y-3.
X9.8562Y-3.
T9
X1.875Y-1.875
X1.875Y-3.375
X5.625Y-1.875
X5.625Y-3.375
X9.375Y-1.875
X9.375Y-3.375
T10
X7.8762Y-4.025
T11
X3.1875Y-3.75
X3.2812Y-3.75
X8.7187Y-3.75
X8.8125Y-3.
X8.8125Y-3.75
X8.9062Y-3.
X9.6562Y-3.
X9.75Y-3.
T4
X3.2374Y-3.55G85X3.2312Y-3.55
G05
X8.7687Y-3.55G85X8.7625Y-3.55
G05
X8.8624Y-2.8G85X8.8562Y-2.8
G05
X9.7062Y-2.8G85X9.7Y-2.8
G05
T5
X5.485Y-1.2102G85X5.485Y-1.2298
G05
X5.485Y-1.4002G85X5.485Y-1.4198
G05
X5.765Y-1.2102G85X5.765Y-1.2298
G05
X5.765Y-1.4002G85X5.765Y-1.4198
G05
X10.1Y-2.475G85X10.1Y-2.475
G05
T6
X3.1811Y-3.9519G85X3.1829Y-3.9252
G05
X8.7124Y-3.9519G85X8.7142Y-3.9252
G05
X8.8061Y-3.2019G85X8.8079Y-3.1752
G05
X9.6499Y-3.2019G85X9.6517Y-3.1752
G05
T7
X1.4Y-1.7G85X1.4016Y-1.6772
G05
X1.4938Y-2.45G85X1.4953Y-2.4272
G05
X1.4938Y-3.95G85X1.4953Y-3.9272
G05
X1.6813Y-3.2G85X1.6828Y-3.1772
G05
X2.15Y-1.7G85X2.1516Y-1.6772
G05
X2.3375Y-2.45G85X2.3391Y-2.4272
G05
X2.3375Y-3.95G85X2.3391Y-3.9272
G05
X2.7125Y-3.2G85X2.7141Y-3.1772
G05
X2.9Y-1.7G85X2.9016Y-1.6772
G05
X3.0875Y-3.95G85X3.089Y-3.9272
G05
X3.0875Y-2.45G85X3.0891Y-2.4272
G05
X3.4625Y-3.2G85X3.4641Y-3.1772
G05
X3.65Y-1.7G85X3.6516Y-1.6772
G05
X3.8375Y-2.45G85X3.8391Y-2.4272
G05
X4.2125Y-3.2G85X4.2141Y-3.1772
G05
X4.4Y-1.7G85X4.4016Y-1.6772
G05
X4.4938Y-3.95G85X4.4953Y-3.9272
G05
X4.5875Y-2.45G85X4.5891Y-2.4272
G05
X4.9625Y-3.2G85X4.9641Y-3.1772
G05
X5.15Y-1.7G85X5.1516Y-1.6772
G05
X5.3375Y-2.45G85X5.3391Y-2.4272
G05
X5.7125Y-3.2G85X5.7141Y-3.1772
G05
X5.8063Y-3.95G85X5.8078Y-3.9272
G05
X5.9Y-1.7G85X5.9016Y-1.6772
G05
X6.0875Y-2.45G85X6.0891Y-2.4272
G05
X6.3688Y-3.95G85X6.3703Y-3.9272
G05
X6.4625Y-3.2G85X6.4641Y-3.1772
G05
X6.65Y-1.7G85X6.6516Y-1.6772
G05
X6.8375Y-2.45G85X6.8391Y-2.4272
G05
X7.2125Y-3.2G85X7.2141Y-3.1772
G05
X7.4Y-1.7G85X7.4016Y-1.6772
G05
X7.5875Y-2.45G85X7.5891Y-2.4272
G05
X7.8688Y-3.95G85X7.8703Y-3.9272
G05
X7.9625Y-3.2G85X7.9641Y-3.1772
G05
X8.15Y-1.7G85X8.1516Y-1.6772
G05
X8.3375Y-2.45G85X8.3391Y-2.4272
G05
X8.6187Y-3.95G85X8.6203Y-3.9272
G05
X8.7125Y-3.2G85X8.714Y-3.1772
G05
X8.9Y-1.7G85X8.9016Y-1.6772
G05
X9.3688Y-2.45G85X9.3703Y-2.4272
G05
X9.5562Y-3.2G85X9.5578Y-3.1772
G05
X9.5563Y-3.95G85X9.5578Y-3.9272
G05
X9.65Y-1.7G85X9.6516Y-1.6772
G05
T0
M30
