M48
;DRILL file {KiCad 4.0.6} date 05/07/17 15:54:11
;FORMAT={-:-/ absolute / inch / decimal}
FMAT,2
INCH,TZ
T1C0.016
T2C0.031
T3C0.032
T4C0.039
T5C0.059
T6C0.087
%
G90
G05
M72
T1
X1.29Y-1.2987
X1.29Y-1.3813
X1.38Y-3.55
X1.38Y-3.6313
X1.39Y-2.05
X1.39Y-2.1313
X1.51Y-2.03
X1.555Y-3.525
X1.57Y-2.8
X1.57Y-2.8813
X1.68Y-1.4474
X1.77Y-2.2
X1.84Y-1.52
X1.955Y-2.95
X2.04Y-1.2987
X2.04Y-1.3813
X2.05Y-2.23
X2.06Y-2.31
X2.0789Y-1.8688
X2.1Y-2.745
X2.125Y-2.725
X2.145Y-2.7
X2.23Y-2.05
X2.23Y-2.1313
X2.23Y-3.5487
X2.23Y-3.6313
X2.34Y-3.37
X2.48Y-1.8606
X2.48Y-1.9394
X2.48Y-3.4394
X2.5Y-3.51
X2.6Y-2.8
X2.6Y-2.8813
X2.62Y-2.2
X2.65Y-2.98
X2.79Y-1.2987
X2.79Y-1.3813
X2.91Y-3.59
X2.98Y-2.05
X2.98Y-2.1313
X2.98Y-3.55
X2.98Y-3.6313
X3.295Y-2.695
X3.35Y-2.8
X3.35Y-2.8813
X3.46Y-1.94
X3.48Y-3.43
X3.52Y-3.47
X3.54Y-1.2987
X3.54Y-1.3813
X3.58Y-1.97
X3.73Y-2.05
X3.73Y-2.1313
X3.95Y-3.23
X4.03Y-2.92
X4.03Y-3.23
X4.07Y-1.5
X4.07Y-1.86
X4.1Y-2.8
X4.1Y-2.8813
X4.12Y-2.2
X4.29Y-1.2987
X4.29Y-1.3813
X4.3387Y-2.0487
X4.38Y-3.55
X4.38Y-3.6313
X4.39Y-3.42
X4.43Y-3.395
X4.48Y-2.05
X4.48Y-2.1313
X4.595Y-3.69
X4.61Y-2.67
X4.655Y-2.945
X4.775Y-3.475
X4.85Y-2.8
X4.85Y-2.8813
X4.85Y-3.455
X4.865Y-3.425
X4.875Y-3.395
X4.92Y-1.99
X5.01Y-3.515
X5.01Y-3.67
X5.04Y-1.2987
X5.04Y-1.3813
X5.04Y-1.81
X5.08Y-1.97
X5.1Y-3.74
X5.16Y-3.66
X5.165Y-3.785
X5.23Y-2.05
X5.23Y-2.1313
X5.38Y-3.23
X5.48Y-1.86
X5.515Y-2.92
X5.53Y-3.37
X5.5394Y-3.23
X5.58Y-3.66
X5.6Y-2.8
X5.6Y-2.8813
X5.64Y-1.7674
X5.66Y-3.73
X5.67Y-3.62
X5.68Y-3.755
X5.72Y-1.7674
X5.75Y-2.675
X5.775Y-2.655
X5.79Y-3.48
X5.79Y-3.555
X5.79Y-3.625
X5.88Y-3.3
X5.88Y-3.39
X5.9Y-3.73
X5.98Y-2.05
X5.98Y-2.1313
X6.09Y-3.765
X6.195Y-3.415
X6.215Y-3.39
X6.24Y-3.55
X6.28Y-3.415
X6.29Y-3.62
X6.305Y-3.39
X6.33Y-1.2987
X6.33Y-1.3813
X6.35Y-2.8
X6.35Y-2.8813
X6.36Y-3.92
X6.37Y-3.62
X6.38Y-1.6848
X6.39Y-3.56
X6.395Y-3.525
X6.4Y-3.76
X6.41Y-3.62
X6.43Y-3.57
X6.43Y-3.74
X6.45Y-3.41
X6.505Y-3.955
X6.54Y-1.2987
X6.54Y-1.3813
X6.55Y-2.63
X6.585Y-2.63
X6.67Y-3.48
X6.67Y-3.56
X6.725Y-3.415
X6.73Y-2.05
X6.73Y-2.1313
X6.865Y-2.795
X6.865Y-3.72
X6.885Y-2.77
X6.9Y-3.72
X6.905Y-2.745
X6.925Y-2.72
X6.935Y-3.72
X6.945Y-2.69
X6.965Y-2.665
X6.97Y-3.72
X6.98Y-1.94
X6.985Y-2.64
X7.005Y-2.615
X7.03Y-3.8
X7.0356Y-3.7685
X7.0356Y-3.8315
X7.0356Y-3.863
X7.0356Y-3.8945
X7.0356Y-3.926
X7.1Y-2.8
X7.1Y-2.8813
X7.1Y-3.905
X7.105Y-3.7
X7.125Y-3.93
X7.134Y-4.0244
X7.15Y-3.73
X7.15Y-3.9
X7.1655Y-4.0244
X7.17Y-3.875
X7.17Y-3.965
X7.18Y-3.74
X7.195Y-3.2
X7.197Y-3.5756
X7.197Y-4.0244
X7.2Y-3.64
X7.2Y-3.95
X7.21Y-3.715
X7.2285Y-4.0244
X7.235Y-3.695
X7.26Y-3.72
X7.26Y-4.0244
X7.29Y-1.2987
X7.29Y-1.3813
X7.31Y-3.86
X7.31Y-3.91
X7.34Y-3.84
X7.345Y-3.63
X7.345Y-3.91
X7.3545Y-3.5756
X7.3545Y-4.0244
X7.355Y-3.385
X7.365Y-3.755
X7.386Y-3.5756
X7.386Y-4.0244
X7.4Y-3.38
X7.42Y-3.88
X7.43Y-2.92
X7.43Y-3.365
X7.44Y-1.94
X7.48Y-2.05
X7.48Y-2.1313
X7.4844Y-3.8315
X7.4844Y-3.863
X7.49Y-3.46
X7.49Y-3.53
X7.5Y-4.03
X7.51Y-1.94
X7.545Y-3.345
X7.555Y-3.47
X7.57Y-3.59
X7.57Y-3.95
X7.61Y-3.41
X7.62Y-3.51
X7.635Y-3.37
X7.655Y-2.77
X7.68Y-2.745
X7.695Y-2.715
X7.75Y-3.535
X7.76Y-3.41
X7.81Y-3.91
X7.85Y-2.8
X7.85Y-2.8813
X8.04Y-1.2987
X8.04Y-1.3813
X8.0789Y-1.9712
X8.23Y-2.05
X8.23Y-2.1313
X8.27Y-3.52
X8.34Y-3.37
X8.48Y-3.44
X8.51Y-3.55
X8.57Y-3.55
X8.6Y-2.8
X8.6Y-2.8813
X8.79Y-1.2987
X8.79Y-1.3813
X8.79Y-1.86
X8.96Y-2.43
X8.9626Y-2.1794
X8.98Y-1.9394
X9.Y-2.1007
X9.005Y-2.
X9.0374Y-2.1794
X9.04Y-2.43
X9.04Y-2.71
X9.06Y-1.94
X9.09Y-2.95
X9.18Y-1.45
X9.23Y-3.55
X9.26Y-2.0487
X9.26Y-2.1313
X9.27Y-3.635
X9.29Y-2.79
X9.3Y-3.675
X9.305Y-3.33
X9.345Y-3.53
X9.45Y-2.7987
X9.45Y-2.8813
X9.45Y-3.6713
X9.54Y-1.3813
X9.5789Y-3.4712
X9.69Y-4.12
X9.84Y-3.6974
X9.8411Y-1.9712
X9.93Y-2.95
X9.98Y-3.4394
X10.08Y-3.5
T2
X5.6071Y-1.4961
X5.6386Y-1.4489
X5.67Y-1.4961
X5.7014Y-1.4489
X5.7329Y-1.4961
T3
X1.5061Y-1.3561
X1.5999Y-2.1061
X1.5999Y-3.6061
X1.6061Y-1.3561
X1.6999Y-2.1061
X1.6999Y-3.6061
X1.7874Y-2.8561
X1.8874Y-2.8561
X2.2561Y-1.3561
X2.3561Y-1.3561
X2.4436Y-2.1061
X2.4436Y-3.6061
X2.5436Y-2.1061
X2.5436Y-3.6061
X2.8186Y-2.8561
X2.9186Y-2.8561
X3.0061Y-1.3561
X3.1061Y-1.3561
X3.1936Y-2.1061
X3.1936Y-3.6061
X3.2874Y-3.6061
X3.2936Y-2.1061
X3.2936Y-3.6061
X3.3874Y-3.6061
X3.5686Y-2.8561
X3.6686Y-2.8561
X3.7561Y-1.3561
X3.8561Y-1.3561
X3.9436Y-2.1061
X4.0436Y-2.1061
X4.3186Y-2.8561
X4.4186Y-2.8561
X4.5061Y-1.3561
X4.5999Y-3.6061
X4.6061Y-1.3561
X4.6936Y-2.1061
X4.6999Y-3.6061
X4.7936Y-2.1061
X5.0686Y-2.8561
X5.1686Y-2.8561
X5.2561Y-1.3561
X5.3561Y-1.3561
X5.4436Y-2.1061
X5.5436Y-2.1061
X5.8186Y-2.8561
X5.9124Y-3.6061
X5.9186Y-2.8561
X6.0061Y-1.3561
X6.0124Y-3.6061
X6.1061Y-1.3561
X6.1936Y-2.1061
X6.2936Y-2.1061
X6.4749Y-3.6061
X6.5686Y-2.8561
X6.5749Y-3.6061
X6.6686Y-2.8561
X6.7561Y-1.3561
X6.8561Y-1.3561
X6.9436Y-2.1061
X7.0436Y-2.1061
X7.3186Y-2.8561
X7.4186Y-2.8561
X7.5061Y-1.3561
X7.6061Y-1.3561
X7.6936Y-2.1061
X7.7936Y-2.1061
X7.9749Y-3.6061
X8.0686Y-2.8561
X8.0749Y-3.6061
X8.1686Y-2.8561
X8.2561Y-1.3561
X8.3561Y-1.3561
X8.4436Y-2.1061
X8.5436Y-2.1061
X8.7249Y-3.6061
X8.8186Y-2.8561
X8.8186Y-3.6061
X8.8249Y-3.6061
X8.9124Y-2.8561
X8.9186Y-2.8561
X8.9186Y-3.6061
X9.0061Y-1.3561
X9.0124Y-2.8561
X9.1061Y-1.3561
X9.4749Y-2.1061
X9.5749Y-2.1061
X9.6624Y-2.8561
X9.6624Y-3.6061
X9.7561Y-1.3561
X9.7561Y-2.8561
X9.7624Y-2.8561
X9.7624Y-3.6061
X9.8561Y-1.3561
X9.8561Y-2.8561
T4
X5.34Y-3.89
X5.34Y-3.99
X5.44Y-3.89
X5.44Y-3.99
X5.54Y-3.89
X5.54Y-3.99
X10.02Y-2.11
X10.02Y-2.21
X10.02Y-2.31
X10.02Y-2.41
X10.02Y-2.51
T5
X5.53Y-1.2754
X5.53Y-1.4554
X5.81Y-1.2754
X5.81Y-1.4554
T6
X1.9311Y-1.9311
X1.9311Y-3.4311
X5.6811Y-1.9311
X5.6811Y-3.4311
X9.4311Y-1.9311
X9.4311Y-3.4311
T5
X1.4561Y-1.7561G85X1.4577Y-1.7333
G05
X1.5499Y-2.5061G85X1.5514Y-2.4833
G05
X1.5499Y-4.0061G85X1.5514Y-3.9833
G05
X1.6742Y-1.7136G85X1.7061Y-1.6561
G05
X1.7374Y-3.2561G85X1.7389Y-3.2333
G05
X1.7679Y-2.4636G85X1.7999Y-2.4061
G05
X1.7679Y-3.9636G85X1.7999Y-3.9061
G05
X1.9554Y-3.2136G85X1.9874Y-3.1561
G05
X2.2061Y-1.7561G85X2.2077Y-1.7333
G05
X2.3936Y-2.5061G85X2.3952Y-2.4833
G05
X2.3936Y-4.0061G85X2.3952Y-3.9833
G05
X2.4242Y-1.7136G85X2.4561Y-1.6561
G05
X2.6117Y-2.4636G85X2.6436Y-2.4061
G05
X2.6117Y-3.9636G85X2.6436Y-3.9061
G05
X2.7686Y-3.2561G85X2.7702Y-3.2333
G05
X2.9561Y-1.7561G85X2.9577Y-1.7333
G05
X2.9867Y-3.2136G85X3.0186Y-3.1561
G05
X3.1436Y-2.5061G85X3.1452Y-2.4833
G05
X3.1436Y-4.0061G85X3.1452Y-3.9833
G05
X3.1742Y-1.7136G85X3.2061Y-1.6561
G05
X3.2374Y-4.0061G85X3.2389Y-3.9833
G05
X3.3617Y-2.4636G85X3.3936Y-2.4061
G05
X3.3617Y-3.9636G85X3.3936Y-3.9061
G05
X3.4554Y-3.9636G85X3.4874Y-3.9061
G05
X3.5186Y-3.2561G85X3.5202Y-3.2333
G05
X3.7061Y-1.7561G85X3.7077Y-1.7333
G05
X3.7367Y-3.2136G85X3.7686Y-3.1561
G05
X3.8936Y-2.5061G85X3.8952Y-2.4833
G05
X3.9242Y-1.7136G85X3.9561Y-1.6561
G05
X4.1117Y-2.4636G85X4.1436Y-2.4061
G05
X4.2686Y-3.2561G85X4.2702Y-3.2333
G05
X4.4561Y-1.7561G85X4.4577Y-1.7333
G05
X4.4867Y-3.2136G85X4.5186Y-3.1561
G05
X4.5499Y-4.0061G85X4.5514Y-3.9833
G05
X4.6436Y-2.5061G85X4.6452Y-2.4833
G05
X4.6742Y-1.7136G85X4.7061Y-1.6561
G05
X4.7679Y-3.9636G85X4.7999Y-3.9061
G05
X4.8617Y-2.4636G85X4.8936Y-2.4061
G05
X5.0186Y-3.2561G85X5.0202Y-3.2333
G05
X5.2061Y-1.7561G85X5.2077Y-1.7333
G05
X5.2367Y-3.2136G85X5.2686Y-3.1561
G05
X5.3936Y-2.5061G85X5.3952Y-2.4833
G05
X5.4242Y-1.7136G85X5.4561Y-1.6561
G05
X5.6117Y-2.4636G85X5.6436Y-2.4061
G05
X5.7686Y-3.2561G85X5.7702Y-3.2333
G05
X5.8624Y-4.0061G85X5.8639Y-3.9833
G05
X5.9561Y-1.7561G85X5.9577Y-1.7333
G05
X5.9867Y-3.2136G85X6.0186Y-3.1561
G05
X6.0804Y-3.9636G85X6.1124Y-3.9061
G05
X6.1436Y-2.5061G85X6.1452Y-2.4833
G05
X6.1742Y-1.7136G85X6.2061Y-1.6561
G05
X6.3617Y-2.4636G85X6.3936Y-2.4061
G05
X6.4249Y-4.0061G85X6.4264Y-3.9833
G05
X6.5186Y-3.2561G85X6.5202Y-3.2333
G05
X6.6429Y-3.9636G85X6.6749Y-3.9061
G05
X6.7061Y-1.7561G85X6.7077Y-1.7333
G05
X6.7367Y-3.2136G85X6.7686Y-3.1561
G05
X6.8936Y-2.5061G85X6.8952Y-2.4833
G05
X6.9242Y-1.7136G85X6.9561Y-1.6561
G05
X7.1117Y-2.4636G85X7.1436Y-2.4061
G05
X7.2686Y-3.2561G85X7.2702Y-3.2333
G05
X7.4561Y-1.7561G85X7.4577Y-1.7333
G05
X7.4867Y-3.2136G85X7.5186Y-3.1561
G05
X7.6436Y-2.5061G85X7.6452Y-2.4833
G05
X7.6742Y-1.7136G85X7.7061Y-1.6561
G05
X7.8617Y-2.4636G85X7.8936Y-2.4061
G05
X7.9249Y-4.0061G85X7.9264Y-3.9833
G05
X8.0186Y-3.2561G85X8.0202Y-3.2333
G05
X8.1429Y-3.9636G85X8.1749Y-3.9061
G05
X8.2061Y-1.7561G85X8.2077Y-1.7333
G05
X8.2367Y-3.2136G85X8.2686Y-3.1561
G05
X8.3936Y-2.5061G85X8.3952Y-2.4833
G05
X8.4242Y-1.7136G85X8.4561Y-1.6561
G05
X8.6117Y-2.4636G85X8.6436Y-2.4061
G05
X8.6749Y-4.0061G85X8.6764Y-3.9833
G05
X8.7686Y-3.2561G85X8.7702Y-3.2333
G05
X8.7686Y-4.0061G85X8.7702Y-3.9833
G05
X8.8624Y-3.2561G85X8.8639Y-3.2333
G05
X8.8929Y-3.9636G85X8.9249Y-3.9061
G05
X8.9561Y-1.7561G85X8.9577Y-1.7333
G05
X8.9867Y-3.2136G85X9.0186Y-3.1561
G05
X8.9867Y-3.9636G85X9.0186Y-3.9061
G05
X9.0804Y-3.2136G85X9.1124Y-3.1561
G05
X9.1742Y-1.7136G85X9.2061Y-1.6561
G05
X9.4249Y-2.5061G85X9.4264Y-2.4833
G05
X9.6124Y-3.2561G85X9.6139Y-3.2333
G05
X9.6124Y-4.0061G85X9.6139Y-3.9833
G05
X9.6429Y-2.4636G85X9.6749Y-2.4061
G05
X9.7061Y-1.7561G85X9.7077Y-1.7333
G05
X9.7061Y-3.2561G85X9.7077Y-3.2333
G05
X9.8304Y-3.2136G85X9.8624Y-3.1561
G05
X9.8304Y-3.9636G85X9.8624Y-3.9061
G05
X9.9242Y-1.7136G85X9.9561Y-1.6561
G05
X9.9242Y-3.2136G85X9.9561Y-3.1561
G05
T0
M30
