M48
;DRILL file {KiCad 4.0.1-stable} date 7/15/2016 11:43:10 AM
;FORMAT={-:-/ absolute / inch / decimal}
FMAT,2
INCH,TZ
T1C0.016
T2C0.031
T3C0.032
T4C0.032
T5C0.040
T6C0.059
T7C0.059
T8C0.059
T9C0.067
T10C0.067
T11C0.098
T12C0.120
T13C0.157
T14C0.157
%
G90
G05
M72
T1
X1.53Y-2.49
X1.66Y-4.23
X1.71Y-3.89
X1.83Y-3.28
X2.03Y-2.35
X2.0494Y-2.43
X2.1Y-4.1
X2.15Y-3.92
X2.22Y-3.1
X2.29Y-2.16
X2.29Y-2.35
X2.31Y-3.25
X2.33Y-3.21
X2.34Y-2.22
X2.34Y-2.44
X2.35Y-1.8
X2.39Y-2.66
X2.41Y-3.34
X2.43Y-2.74
X2.43Y-4.06
X2.49Y-4.65
X2.52Y-2.42
X2.52Y-4.61
X2.54Y-3.99
X2.58Y-2.54
X2.58Y-2.58
X2.68Y-2.03
X2.7Y-2.46
X2.73Y-3.9
X2.83Y-2.32
X2.86Y-2.02
X2.8861Y-2.3888
X2.9011Y-2.4812
X2.9111Y-3.9612
X2.95Y-2.2394
X3.07Y-4.03
X3.1Y-3.12
X3.35Y-3.39
X3.35Y-3.4674
X3.44Y-3.56
X3.44Y-4.21
X3.54Y-1.89
X3.63Y-3.46
X3.75Y-2.74
X3.77Y-4.06
X3.79Y-3.65
X3.8Y-3.95
X3.8489Y-3.8788
X3.89Y-2.58
X3.9Y-4.6
X3.98Y-3.49
X4.04Y-3.95
X4.07Y-2.42
X4.07Y-4.71
X4.09Y-4.16
X4.1Y-3.32
X4.1Y-4.01
X4.1Y-4.21
X4.13Y-4.15
X4.13Y-4.65
X4.17Y-4.28
X4.2Y-2.54
X4.2Y-4.27
X4.21Y-3.39
X4.26Y-4.41
X4.27Y-4.28
X4.27Y-4.46
X4.33Y-1.9474
X4.33Y-2.39
X4.33Y-2.49
X4.39Y-3.21
X4.39Y-4.31
X4.4Y-4.24
X4.4Y-4.28
X4.42Y-4.46
X4.42Y-4.56
X4.46Y-3.36
X4.47Y-4.0306
X4.47Y-4.11
X4.47Y-4.5094
X4.51Y-4.39
X4.53Y-2.54
X4.56Y-4.57
X4.57Y-4.22
X4.58Y-4.04
X4.6Y-4.37
X4.61Y-2.5
X4.61Y-3.72
X4.61Y-3.95
X4.64Y-3.21
X4.66Y-3.76
X4.67Y-2.57
X4.69Y-3.95
X4.71Y-4.01
X4.75Y-2.98
X4.79Y-3.94
X4.79Y-4.
X4.8Y-3.87
X4.81Y-3.16
X4.82Y-3.38
X4.86Y-3.73
X4.89Y-3.25
X4.93Y-3.29
X4.95Y-3.5
X4.95Y-3.83
X4.97Y-3.91
X4.98Y-3.87
X4.98Y-4.43
X5.Y-3.8
X5.01Y-4.31
X5.03Y-3.76
X5.05Y-4.28
X5.06Y-4.22
X5.07Y-1.95
X5.08Y-3.75
X5.08Y-4.42
X5.12Y-3.72
X5.12Y-3.87
X5.13Y-4.25
X5.18Y-3.9
X5.2Y-3.37
X5.2Y-3.84
X5.21Y-3.93
X5.24Y-3.55
X5.25Y-2.7074
X5.29Y-2.99
X5.2926Y-3.99
X5.35Y-2.47
X5.48Y-3.84
X5.5169Y-3.9654
X5.55Y-4.47
X5.58Y-3.89
X5.61Y-4.42
X5.62Y-4.38
X5.66Y-3.96
X5.67Y-3.76
X5.67Y-4.2094
X5.7Y-3.54
X5.71Y-3.49
X5.72Y-2.42
X5.74Y-3.31
X5.79Y-3.87
X5.82Y-1.95
X5.87Y-3.74
X5.97Y-3.82
X5.99Y-2.71
X6.Y-3.45
X6.03Y-4.6
X6.0311Y-2.4712
X6.06Y-2.69
X6.06Y-2.91
X6.06Y-3.66
X6.08Y-3.96
X6.09Y-2.2594
X6.16Y-3.95
X6.34Y-3.25
X6.55Y-1.95
X6.61Y-4.37
X6.62Y-3.25
X6.62Y-3.3
X6.65Y-3.94
X6.65Y-4.36
X6.68Y-3.24
X6.68Y-4.06
X6.69Y-4.48
X6.73Y-4.33
X6.75Y-2.7074
X6.78Y-3.9
X6.88Y-4.55
X6.9Y-2.94
X6.91Y-2.15
X6.91Y-4.31
X6.92Y-3.8706
X7.0489Y-2.3888
X7.05Y-2.54
X7.07Y-3.81
X7.14Y-2.46
X7.17Y-4.29
X7.17Y-4.33
X7.23Y-4.37
X7.28Y-3.99
X7.29Y-3.89
X7.3Y-3.3
X7.3111Y-2.4912
X7.32Y-2.39
X7.33Y-1.75
X7.33Y-2.14
X7.35Y-4.02
X7.36Y-3.79
X7.37Y-4.18
X7.39Y-3.21
X7.43Y-3.9
X7.49Y-2.63
X7.5Y-3.1
X7.59Y-3.09
X7.66Y-4.53
X7.66Y-4.64
X7.73Y-4.49
X7.79Y-3.26
X7.87Y-3.37
X7.95Y-3.29
X8.07Y-1.9674
X8.15Y-3.26
X8.4389Y-4.0312
X8.44Y-3.91
X8.4889Y-2.3988
X8.4889Y-2.5012
X8.69Y-4.08
X8.72Y-3.95
X8.75Y-2.39
X8.76Y-2.5
X8.76Y-3.29
X8.76Y-4.09
X8.82Y-1.97
X8.91Y-3.99
X8.93Y-2.39
X8.94Y-4.27
X9.06Y-2.6
X9.12Y-2.39
X9.14Y-1.9
X9.14Y-2.67
X9.1426Y-2.84
X9.23Y-2.98
X9.33Y-3.92
X9.37Y-3.98
X9.47Y-2.4
X9.51Y-3.64
X9.52Y-3.89
X9.55Y-1.9674
X9.55Y-4.23
X9.59Y-3.32
X9.69Y-4.28
X9.7Y-3.38
X9.73Y-3.28
X9.73Y-3.55
X9.73Y-3.78
X9.84Y-3.65
X9.85Y-3.09
X9.88Y-4.27
X9.91Y-3.2326
X9.91Y-3.3074
X9.92Y-2.82
X9.92Y-3.4
X9.99Y-4.08
X10.04Y-3.09
X10.11Y-2.53
X10.11Y-4.08
X10.12Y-2.66
X10.13Y-3.11
X10.16Y-3.86
X10.21Y-2.57
X10.24Y-3.11
X10.27Y-2.5
X10.28Y-1.97
X10.35Y-3.48
T2
X2.0471Y-1.9807
X2.0786Y-1.9335
X2.11Y-1.9807
X2.1414Y-1.9335
X2.1729Y-1.9807
T3
X5.48Y-4.1439
X5.48Y-4.3361
T4
X1.78Y-1.89
X1.8738Y-2.64
X1.8738Y-4.14
X1.88Y-1.89
X1.9738Y-2.64
X1.9738Y-4.14
X2.0612Y-3.39
X2.1612Y-3.39
X2.53Y-1.89
X2.63Y-1.89
X2.7176Y-2.64
X2.7176Y-4.14
X2.8175Y-2.64
X2.8175Y-4.14
X3.0925Y-3.39
X3.1925Y-3.39
X3.28Y-1.89
X3.38Y-1.89
X3.4676Y-2.64
X3.4676Y-4.14
X3.5675Y-2.64
X3.5675Y-4.14
X3.8425Y-3.39
X3.9425Y-3.39
X4.03Y-1.89
X4.13Y-1.89
X4.2176Y-2.64
X4.3175Y-2.64
X4.5925Y-3.39
X4.6925Y-3.39
X4.78Y-1.89
X4.88Y-1.89
X4.9676Y-2.64
X5.0675Y-2.64
X5.3425Y-3.39
X5.4425Y-3.39
X5.53Y-1.89
X5.63Y-1.89
X5.73Y-2.64
X5.83Y-2.64
X6.0925Y-3.39
X6.1863Y-4.14
X6.1925Y-3.39
X6.28Y-1.89
X6.2863Y-4.14
X6.38Y-1.89
X6.4676Y-2.64
X6.5675Y-2.64
X6.8425Y-3.39
X6.9425Y-3.39
X7.03Y-1.89
X7.13Y-1.89
X7.2176Y-2.64
X7.3175Y-2.64
X7.5925Y-3.39
X7.6925Y-3.39
X7.78Y-1.89
X7.88Y-1.89
X7.9676Y-2.64
X8.0676Y-2.64
X8.3425Y-3.39
X8.4425Y-3.39
X8.53Y-1.89
X8.63Y-1.89
X8.7175Y-2.64
X8.8176Y-2.64
X8.9988Y-4.14
X9.0988Y-4.14
X9.1862Y-3.39
X9.28Y-1.89
X9.2862Y-3.39
X9.38Y-1.89
X9.7488Y-2.64
X9.8488Y-2.64
X9.9363Y-4.14
X10.03Y-1.89
X10.03Y-3.39
X10.0363Y-4.14
X10.13Y-1.89
X10.13Y-3.39
T5
X6.95Y-4.49
X6.95Y-4.59
X7.05Y-4.49
X7.05Y-4.59
X7.15Y-4.49
X7.15Y-4.59
X10.38Y-2.69
X10.38Y-2.79
X10.38Y-2.89
X10.38Y-2.99
T6
X6.1363Y-4.54
X6.3863Y-4.44
T7
X1.9284Y-2.2475
X1.97Y-1.75
X1.97Y-1.94
X2.0222Y-2.9975
X2.0222Y-4.4975
X2.2097Y-3.7475
X2.25Y-1.76
X2.25Y-1.94
X2.6784Y-2.2475
X2.866Y-2.9975
X2.866Y-4.4975
X3.2409Y-3.7475
X3.4284Y-2.2475
X3.616Y-2.9975
X3.616Y-4.4975
X3.9909Y-3.7475
X4.1784Y-2.2475
X4.366Y-2.9975
X4.7409Y-3.7475
X4.9284Y-2.2475
X5.116Y-2.9975
X5.4909Y-3.7475
X5.6784Y-2.2475
X5.866Y-2.9975
X6.2409Y-3.7475
X6.4284Y-2.2475
X6.616Y-2.9975
X6.9909Y-3.7475
X7.1784Y-2.2475
X7.366Y-2.9975
X7.7409Y-3.7475
X7.9284Y-2.2475
X8.116Y-2.9975
X8.4909Y-3.7475
X8.6784Y-2.2475
X8.866Y-2.9975
X9.1472Y-4.4975
X9.3347Y-3.7475
X9.4284Y-2.2475
X9.8972Y-2.9975
X10.0847Y-4.4975
X10.1784Y-2.2475
X10.1784Y-3.7475
T8
X1.98Y-2.19
X2.0738Y-2.94
X2.0738Y-4.44
X2.2612Y-3.69
X2.73Y-2.19
X2.9175Y-2.94
X2.9175Y-4.44
X3.2925Y-3.69
X3.48Y-2.19
X3.6675Y-2.94
X3.6675Y-4.44
X4.0425Y-3.69
X4.23Y-2.19
X4.4176Y-2.94
X4.7925Y-3.69
X4.98Y-2.19
X5.1676Y-2.94
X5.5425Y-3.69
X5.73Y-2.19
X5.9175Y-2.94
X6.2925Y-3.69
X6.48Y-2.19
X6.6675Y-2.94
X7.0425Y-3.69
X7.23Y-2.19
X7.4175Y-2.94
X7.7925Y-3.69
X7.98Y-2.19
X8.1676Y-2.94
X8.5425Y-3.69
X8.73Y-2.19
X8.9176Y-2.94
X9.1988Y-4.44
X9.3863Y-3.69
X9.48Y-2.19
X9.9488Y-2.94
X10.1363Y-4.44
X10.23Y-2.19
X10.23Y-3.69
T9
X1.63Y-2.09
X1.7238Y-2.84
X1.7238Y-4.34
X1.9112Y-3.59
X2.03Y-2.09
X2.1238Y-2.84
X2.1238Y-4.34
X2.3112Y-3.59
X2.38Y-2.09
X2.5675Y-2.84
X2.5675Y-4.34
X2.78Y-2.09
X2.9425Y-3.59
X2.9676Y-2.84
X2.9676Y-4.34
X3.13Y-2.09
X3.3175Y-2.84
X3.3175Y-4.34
X3.3425Y-3.59
X3.53Y-2.09
X3.6925Y-3.59
X3.7176Y-2.84
X3.7176Y-4.34
X3.88Y-2.09
X4.0675Y-2.84
X4.0925Y-3.59
X4.28Y-2.09
X4.4425Y-3.59
X4.4676Y-2.84
X4.63Y-2.09
X4.8175Y-2.84
X4.8425Y-3.59
X5.03Y-2.09
X5.1925Y-3.59
X5.2176Y-2.84
X5.38Y-2.09
X5.5675Y-2.84
X5.5925Y-3.59
X5.78Y-2.09
X5.9425Y-3.59
X5.9676Y-2.84
X6.13Y-2.09
X6.3175Y-2.84
X6.3425Y-3.59
X6.53Y-2.09
X6.6925Y-3.59
X6.7176Y-2.84
X6.88Y-2.09
X7.0675Y-2.84
X7.0925Y-3.59
X7.28Y-2.09
X7.4425Y-3.59
X7.4676Y-2.84
X7.63Y-2.09
X7.8175Y-2.84
X7.8425Y-3.59
X8.03Y-2.09
X8.1925Y-3.59
X8.2175Y-2.84
X8.38Y-2.09
X8.5676Y-2.84
X8.5925Y-3.59
X8.78Y-2.09
X8.8488Y-4.34
X8.9675Y-2.84
X9.0362Y-3.59
X9.13Y-2.09
X9.2488Y-4.34
X9.4362Y-3.59
X9.53Y-2.09
X9.5988Y-2.84
X9.7863Y-4.34
X9.88Y-2.09
X9.88Y-3.59
X9.9988Y-2.84
X10.1863Y-4.34
X10.28Y-2.09
X10.28Y-3.59
T10
X6.0363Y-4.34
X6.4363Y-4.34
T11
X1.48Y-3.82
X4.03Y-4.5
X5.39Y-3.15
X9.4Y-2.51
X10.46Y-3.76
T12
X4.2663Y-4.615
X8.2063Y-4.615
T13
X1.83Y-2.09
X1.9238Y-2.84
X1.9238Y-4.34
X2.1113Y-3.59
X2.58Y-2.09
X2.7675Y-2.84
X2.7675Y-4.34
X3.1425Y-3.59
X3.33Y-2.09
X3.5175Y-2.84
X3.5175Y-4.34
X3.8925Y-3.59
X4.08Y-2.09
X4.2675Y-2.84
X4.6425Y-3.59
X4.83Y-2.09
X5.0175Y-2.84
X5.3925Y-3.59
X5.58Y-2.09
X5.7675Y-2.84
X6.1425Y-3.59
X6.33Y-2.09
X6.5175Y-2.84
X6.8925Y-3.59
X7.08Y-2.09
X7.2675Y-2.84
X7.6425Y-3.59
X7.83Y-2.09
X8.0175Y-2.84
X8.3925Y-3.59
X8.58Y-2.09
X8.7675Y-2.84
X9.0488Y-4.34
X9.2363Y-3.59
X9.33Y-2.09
X9.7988Y-2.84
X9.9863Y-4.34
X10.08Y-2.09
X10.08Y-3.59
T14
X4.2663Y-4.015
X6.2363Y-4.34
X8.2063Y-4.015
T7
X1.7308Y-2.29G85X1.7308Y-2.2672
G05
X1.8246Y-3.04G85X1.8246Y-3.0172
G05
X1.8246Y-4.54G85X1.8246Y-4.5172
G05
X2.012Y-3.79G85X2.012Y-3.7672
G05
X2.4808Y-2.29G85X2.4808Y-2.2672
G05
X2.6683Y-3.04G85X2.6683Y-3.0172
G05
X2.6683Y-4.54G85X2.6683Y-4.5172
G05
X3.0433Y-3.79G85X3.0433Y-3.7672
G05
X3.2308Y-2.29G85X3.2308Y-2.2672
G05
X3.4183Y-3.04G85X3.4183Y-3.0172
G05
X3.4183Y-4.54G85X3.4183Y-4.5172
G05
X3.7933Y-3.79G85X3.7933Y-3.7672
G05
X3.9808Y-2.29G85X3.9808Y-2.2672
G05
X4.1683Y-3.04G85X4.1683Y-3.0172
G05
X4.5433Y-3.79G85X4.5433Y-3.7672
G05
X4.7308Y-2.29G85X4.7308Y-2.2672
G05
X4.9183Y-3.04G85X4.9183Y-3.0172
G05
X5.2933Y-3.79G85X5.2933Y-3.7672
G05
X5.4808Y-2.29G85X5.4808Y-2.2672
G05
X5.6683Y-3.04G85X5.6683Y-3.0172
G05
X6.0433Y-3.79G85X6.0433Y-3.7672
G05
X6.2308Y-2.29G85X6.2308Y-2.2672
G05
X6.4183Y-3.04G85X6.4183Y-3.0172
G05
X6.7933Y-3.79G85X6.7933Y-3.7672
G05
X6.9808Y-2.29G85X6.9808Y-2.2672
G05
X7.1683Y-3.04G85X7.1683Y-3.0172
G05
X7.5433Y-3.79G85X7.5433Y-3.7672
G05
X7.7308Y-2.29G85X7.7308Y-2.2672
G05
X7.9183Y-3.04G85X7.9183Y-3.0172
G05
X8.2933Y-3.79G85X8.2933Y-3.7672
G05
X8.4808Y-2.29G85X8.4808Y-2.2672
G05
X8.6683Y-3.04G85X8.6683Y-3.0172
G05
X8.9496Y-4.54G85X8.9496Y-4.5172
G05
X9.137Y-3.79G85X9.137Y-3.7672
G05
X9.2308Y-2.29G85X9.2308Y-2.2672
G05
X9.6996Y-3.04G85X9.6996Y-3.0172
G05
X9.8871Y-4.54G85X9.8871Y-4.5172
G05
X9.9808Y-2.29G85X9.9808Y-2.2672
G05
X9.9808Y-3.79G85X9.9808Y-3.7672
G05
T0
M30
