G04 #@! TF.FileFunction,Legend,Top*
%FSLAX46Y46*%
G04 Gerber Fmt 4.6, Leading zero omitted, Abs format (unit mm)*
G04 Created by KiCad (PCBNEW 4.0.6) date 05/07/17 15:54:07*
%MOMM*%
%LPD*%
G01*
G04 APERTURE LIST*
%ADD10C,0.100000*%
%ADD11C,0.381000*%
%ADD12C,0.120000*%
%ADD13C,0.050000*%
%ADD14C,0.150000*%
%ADD15C,0.088900*%
G04 APERTURE END LIST*
D10*
D11*
X157793750Y-103025000D02*
X156015750Y-103025000D01*
X146871750Y-103025000D02*
X145093750Y-103025000D01*
X145093750Y-103025000D02*
X145093750Y-101247000D01*
X145093750Y-92103000D02*
X145093750Y-90325000D01*
X145093750Y-90325000D02*
X146871750Y-90325000D01*
X156015750Y-90325000D02*
X157793750Y-90325000D01*
X157793750Y-90325000D02*
X157793750Y-92103000D01*
X157793750Y-101247000D02*
X157793750Y-103025000D01*
X66195000Y-47145000D02*
X50955000Y-47145000D01*
X50955000Y-47145000D02*
X50955000Y-31905000D01*
X50955000Y-31905000D02*
X66195000Y-31905000D01*
X66195000Y-31905000D02*
X66195000Y-47145000D01*
X104295000Y-47145000D02*
X89055000Y-47145000D01*
X89055000Y-47145000D02*
X89055000Y-31905000D01*
X89055000Y-31905000D02*
X104295000Y-31905000D01*
X104295000Y-31905000D02*
X104295000Y-47145000D01*
X123345000Y-47145000D02*
X108105000Y-47145000D01*
X108105000Y-47145000D02*
X108105000Y-31905000D01*
X108105000Y-31905000D02*
X123345000Y-31905000D01*
X123345000Y-31905000D02*
X123345000Y-47145000D01*
X142395000Y-47145000D02*
X127155000Y-47145000D01*
X127155000Y-47145000D02*
X127155000Y-31905000D01*
X127155000Y-31905000D02*
X142395000Y-31905000D01*
X142395000Y-31905000D02*
X142395000Y-47145000D01*
X161445000Y-47145000D02*
X146205000Y-47145000D01*
X146205000Y-47145000D02*
X146205000Y-31905000D01*
X146205000Y-31905000D02*
X161445000Y-31905000D01*
X161445000Y-31905000D02*
X161445000Y-47145000D01*
X180495000Y-47145000D02*
X165255000Y-47145000D01*
X165255000Y-47145000D02*
X165255000Y-31905000D01*
X165255000Y-31905000D02*
X180495000Y-31905000D01*
X180495000Y-31905000D02*
X180495000Y-47145000D01*
X199545000Y-47145000D02*
X184305000Y-47145000D01*
X184305000Y-47145000D02*
X184305000Y-31905000D01*
X184305000Y-31905000D02*
X199545000Y-31905000D01*
X199545000Y-31905000D02*
X199545000Y-47145000D01*
X218595000Y-47145000D02*
X203355000Y-47145000D01*
X203355000Y-47145000D02*
X203355000Y-31905000D01*
X203355000Y-31905000D02*
X218595000Y-31905000D01*
X218595000Y-31905000D02*
X218595000Y-47145000D01*
X237645000Y-47145000D02*
X222405000Y-47145000D01*
X222405000Y-47145000D02*
X222405000Y-31905000D01*
X222405000Y-31905000D02*
X237645000Y-31905000D01*
X237645000Y-31905000D02*
X237645000Y-47145000D01*
X256695000Y-47145000D02*
X241455000Y-47145000D01*
X241455000Y-47145000D02*
X241455000Y-31905000D01*
X241455000Y-31905000D02*
X256695000Y-31905000D01*
X256695000Y-31905000D02*
X256695000Y-47145000D01*
X49526250Y-66195000D02*
X34286250Y-66195000D01*
X34286250Y-66195000D02*
X34286250Y-50955000D01*
X34286250Y-50955000D02*
X49526250Y-50955000D01*
X49526250Y-50955000D02*
X49526250Y-66195000D01*
X47145000Y-47145000D02*
X31905000Y-47145000D01*
X31905000Y-47145000D02*
X31905000Y-31905000D01*
X31905000Y-31905000D02*
X47145000Y-31905000D01*
X47145000Y-31905000D02*
X47145000Y-47145000D01*
X85245000Y-47145000D02*
X70005000Y-47145000D01*
X70005000Y-47145000D02*
X70005000Y-31905000D01*
X70005000Y-31905000D02*
X85245000Y-31905000D01*
X85245000Y-31905000D02*
X85245000Y-47145000D01*
X70957500Y-66195000D02*
X55717500Y-66195000D01*
X55717500Y-66195000D02*
X55717500Y-50955000D01*
X55717500Y-50955000D02*
X70957500Y-50955000D01*
X70957500Y-50955000D02*
X70957500Y-66195000D01*
X90007500Y-66195000D02*
X74767500Y-66195000D01*
X74767500Y-66195000D02*
X74767500Y-50955000D01*
X74767500Y-50955000D02*
X90007500Y-50955000D01*
X90007500Y-50955000D02*
X90007500Y-66195000D01*
X109057500Y-66195000D02*
X93817500Y-66195000D01*
X93817500Y-66195000D02*
X93817500Y-50955000D01*
X93817500Y-50955000D02*
X109057500Y-50955000D01*
X109057500Y-50955000D02*
X109057500Y-66195000D01*
X128107500Y-66195000D02*
X112867500Y-66195000D01*
X112867500Y-66195000D02*
X112867500Y-50955000D01*
X112867500Y-50955000D02*
X128107500Y-50955000D01*
X128107500Y-50955000D02*
X128107500Y-66195000D01*
X147157500Y-66195000D02*
X131917500Y-66195000D01*
X131917500Y-66195000D02*
X131917500Y-50955000D01*
X131917500Y-50955000D02*
X147157500Y-50955000D01*
X147157500Y-50955000D02*
X147157500Y-66195000D01*
X166207500Y-66195000D02*
X150967500Y-66195000D01*
X150967500Y-66195000D02*
X150967500Y-50955000D01*
X150967500Y-50955000D02*
X166207500Y-50955000D01*
X166207500Y-50955000D02*
X166207500Y-66195000D01*
X185257500Y-66195000D02*
X170017500Y-66195000D01*
X170017500Y-66195000D02*
X170017500Y-50955000D01*
X170017500Y-50955000D02*
X185257500Y-50955000D01*
X185257500Y-50955000D02*
X185257500Y-66195000D01*
X204307500Y-66195000D02*
X189067500Y-66195000D01*
X189067500Y-66195000D02*
X189067500Y-50955000D01*
X189067500Y-50955000D02*
X204307500Y-50955000D01*
X204307500Y-50955000D02*
X204307500Y-66195000D01*
X223357500Y-66195000D02*
X208117500Y-66195000D01*
X208117500Y-66195000D02*
X208117500Y-50955000D01*
X208117500Y-50955000D02*
X223357500Y-50955000D01*
X223357500Y-50955000D02*
X223357500Y-66195000D01*
X249551250Y-66195000D02*
X234311250Y-66195000D01*
X234311250Y-66195000D02*
X234311250Y-50955000D01*
X234311250Y-50955000D02*
X249551250Y-50955000D01*
X249551250Y-50955000D02*
X249551250Y-66195000D01*
X54288750Y-85245000D02*
X39048750Y-85245000D01*
X39048750Y-85245000D02*
X39048750Y-70005000D01*
X39048750Y-70005000D02*
X54288750Y-70005000D01*
X54288750Y-70005000D02*
X54288750Y-85245000D01*
X80482500Y-85245000D02*
X65242500Y-85245000D01*
X65242500Y-85245000D02*
X65242500Y-70005000D01*
X65242500Y-70005000D02*
X80482500Y-70005000D01*
X80482500Y-70005000D02*
X80482500Y-85245000D01*
X99532500Y-85245000D02*
X84292500Y-85245000D01*
X84292500Y-85245000D02*
X84292500Y-70005000D01*
X84292500Y-70005000D02*
X99532500Y-70005000D01*
X99532500Y-70005000D02*
X99532500Y-85245000D01*
X118582500Y-85245000D02*
X103342500Y-85245000D01*
X103342500Y-85245000D02*
X103342500Y-70005000D01*
X103342500Y-70005000D02*
X118582500Y-70005000D01*
X118582500Y-70005000D02*
X118582500Y-85245000D01*
X137632500Y-85245000D02*
X122392500Y-85245000D01*
X122392500Y-85245000D02*
X122392500Y-70005000D01*
X122392500Y-70005000D02*
X137632500Y-70005000D01*
X137632500Y-70005000D02*
X137632500Y-85245000D01*
X156682500Y-85245000D02*
X141442500Y-85245000D01*
X141442500Y-85245000D02*
X141442500Y-70005000D01*
X141442500Y-70005000D02*
X156682500Y-70005000D01*
X156682500Y-70005000D02*
X156682500Y-85245000D01*
X175732500Y-85245000D02*
X160492500Y-85245000D01*
X160492500Y-85245000D02*
X160492500Y-70005000D01*
X160492500Y-70005000D02*
X175732500Y-70005000D01*
X175732500Y-70005000D02*
X175732500Y-85245000D01*
X194782500Y-85245000D02*
X179542500Y-85245000D01*
X179542500Y-85245000D02*
X179542500Y-70005000D01*
X179542500Y-70005000D02*
X194782500Y-70005000D01*
X194782500Y-70005000D02*
X194782500Y-85245000D01*
X213832500Y-85245000D02*
X198592500Y-85245000D01*
X198592500Y-85245000D02*
X198592500Y-70005000D01*
X198592500Y-70005000D02*
X213832500Y-70005000D01*
X213832500Y-70005000D02*
X213832500Y-85245000D01*
X235263750Y-85245000D02*
X220023750Y-85245000D01*
X220023750Y-85245000D02*
X220023750Y-70005000D01*
X220023750Y-70005000D02*
X235263750Y-70005000D01*
X235263750Y-70005000D02*
X235263750Y-85245000D01*
X256695000Y-85245000D02*
X241455000Y-85245000D01*
X241455000Y-85245000D02*
X241455000Y-70005000D01*
X241455000Y-70005000D02*
X256695000Y-70005000D01*
X256695000Y-70005000D02*
X256695000Y-85245000D01*
X49526250Y-104295000D02*
X34286250Y-104295000D01*
X34286250Y-104295000D02*
X34286250Y-89055000D01*
X34286250Y-89055000D02*
X49526250Y-89055000D01*
X49526250Y-89055000D02*
X49526250Y-104295000D01*
X70957500Y-104295000D02*
X55717500Y-104295000D01*
X55717500Y-104295000D02*
X55717500Y-89055000D01*
X55717500Y-89055000D02*
X70957500Y-89055000D01*
X70957500Y-89055000D02*
X70957500Y-104295000D01*
X90007500Y-104295000D02*
X74767500Y-104295000D01*
X74767500Y-104295000D02*
X74767500Y-89055000D01*
X74767500Y-89055000D02*
X90007500Y-89055000D01*
X90007500Y-89055000D02*
X90007500Y-104295000D01*
X125726250Y-104295000D02*
X110486250Y-104295000D01*
X110486250Y-104295000D02*
X110486250Y-89055000D01*
X110486250Y-89055000D02*
X125726250Y-89055000D01*
X125726250Y-89055000D02*
X125726250Y-104295000D01*
X159063750Y-104295000D02*
X143823750Y-104295000D01*
X143823750Y-104295000D02*
X143823750Y-89055000D01*
X143823750Y-89055000D02*
X159063750Y-89055000D01*
X159063750Y-89055000D02*
X159063750Y-104295000D01*
X211451250Y-104295000D02*
X196211250Y-104295000D01*
X196211250Y-104295000D02*
X196211250Y-89055000D01*
X196211250Y-89055000D02*
X211451250Y-89055000D01*
X211451250Y-89055000D02*
X211451250Y-104295000D01*
X230501250Y-104295000D02*
X215261250Y-104295000D01*
X215261250Y-104295000D02*
X215261250Y-89055000D01*
X215261250Y-89055000D02*
X230501250Y-89055000D01*
X230501250Y-89055000D02*
X230501250Y-104295000D01*
X254313750Y-104295000D02*
X239073750Y-104295000D01*
X239073750Y-104295000D02*
X239073750Y-89055000D01*
X239073750Y-89055000D02*
X254313750Y-89055000D01*
X254313750Y-89055000D02*
X254313750Y-104295000D01*
X232882500Y-85245000D02*
X217642500Y-85245000D01*
X217642500Y-85245000D02*
X217642500Y-70005000D01*
X217642500Y-70005000D02*
X232882500Y-70005000D01*
X232882500Y-70005000D02*
X232882500Y-85245000D01*
X254313750Y-85245000D02*
X239073750Y-85245000D01*
X239073750Y-85245000D02*
X239073750Y-70005000D01*
X239073750Y-70005000D02*
X254313750Y-70005000D01*
X254313750Y-70005000D02*
X254313750Y-85245000D01*
X92388750Y-104295000D02*
X77148750Y-104295000D01*
X77148750Y-104295000D02*
X77148750Y-89055000D01*
X77148750Y-89055000D02*
X92388750Y-89055000D01*
X92388750Y-89055000D02*
X92388750Y-104295000D01*
X173351250Y-104295000D02*
X158111250Y-104295000D01*
X158111250Y-104295000D02*
X158111250Y-89055000D01*
X158111250Y-89055000D02*
X173351250Y-89055000D01*
X173351250Y-89055000D02*
X173351250Y-104295000D01*
X232882500Y-104295000D02*
X217642500Y-104295000D01*
X217642500Y-104295000D02*
X217642500Y-89055000D01*
X217642500Y-89055000D02*
X232882500Y-89055000D01*
X232882500Y-89055000D02*
X232882500Y-104295000D01*
D12*
X139446000Y-102676000D02*
X134306000Y-102676000D01*
X134306000Y-102676000D02*
X134306000Y-97476000D01*
X134306000Y-97476000D02*
X142046000Y-97476000D01*
X142046000Y-97476000D02*
X142046000Y-100076000D01*
X142046000Y-100076000D02*
X139446000Y-100076000D01*
X139446000Y-100076000D02*
X139446000Y-102676000D01*
X140716000Y-102676000D02*
X142046000Y-102676000D01*
X142046000Y-102676000D02*
X142046000Y-101406000D01*
X253178000Y-54864000D02*
X253178000Y-65084000D01*
X253178000Y-65084000D02*
X255838000Y-65084000D01*
X255838000Y-65084000D02*
X255838000Y-54864000D01*
X255838000Y-54864000D02*
X253178000Y-54864000D01*
X253178000Y-53594000D02*
X253178000Y-52264000D01*
X253178000Y-52264000D02*
X254508000Y-52264000D01*
D11*
X45875000Y-45875000D02*
X44097000Y-45875000D01*
X34953000Y-45875000D02*
X33175000Y-45875000D01*
X33175000Y-45875000D02*
X33175000Y-44097000D01*
X33175000Y-34953000D02*
X33175000Y-33175000D01*
X33175000Y-33175000D02*
X34953000Y-33175000D01*
X44097000Y-33175000D02*
X45875000Y-33175000D01*
X45875000Y-33175000D02*
X45875000Y-34953000D01*
X45875000Y-44097000D02*
X45875000Y-45875000D01*
X64925000Y-45875000D02*
X63147000Y-45875000D01*
X54003000Y-45875000D02*
X52225000Y-45875000D01*
X52225000Y-45875000D02*
X52225000Y-44097000D01*
X52225000Y-34953000D02*
X52225000Y-33175000D01*
X52225000Y-33175000D02*
X54003000Y-33175000D01*
X63147000Y-33175000D02*
X64925000Y-33175000D01*
X64925000Y-33175000D02*
X64925000Y-34953000D01*
X64925000Y-44097000D02*
X64925000Y-45875000D01*
X83975000Y-45875000D02*
X82197000Y-45875000D01*
X73053000Y-45875000D02*
X71275000Y-45875000D01*
X71275000Y-45875000D02*
X71275000Y-44097000D01*
X71275000Y-34953000D02*
X71275000Y-33175000D01*
X71275000Y-33175000D02*
X73053000Y-33175000D01*
X82197000Y-33175000D02*
X83975000Y-33175000D01*
X83975000Y-33175000D02*
X83975000Y-34953000D01*
X83975000Y-44097000D02*
X83975000Y-45875000D01*
X103025000Y-45875000D02*
X101247000Y-45875000D01*
X92103000Y-45875000D02*
X90325000Y-45875000D01*
X90325000Y-45875000D02*
X90325000Y-44097000D01*
X90325000Y-34953000D02*
X90325000Y-33175000D01*
X90325000Y-33175000D02*
X92103000Y-33175000D01*
X101247000Y-33175000D02*
X103025000Y-33175000D01*
X103025000Y-33175000D02*
X103025000Y-34953000D01*
X103025000Y-44097000D02*
X103025000Y-45875000D01*
X122075000Y-45875000D02*
X120297000Y-45875000D01*
X111153000Y-45875000D02*
X109375000Y-45875000D01*
X109375000Y-45875000D02*
X109375000Y-44097000D01*
X109375000Y-34953000D02*
X109375000Y-33175000D01*
X109375000Y-33175000D02*
X111153000Y-33175000D01*
X120297000Y-33175000D02*
X122075000Y-33175000D01*
X122075000Y-33175000D02*
X122075000Y-34953000D01*
X122075000Y-44097000D02*
X122075000Y-45875000D01*
X141125000Y-45875000D02*
X139347000Y-45875000D01*
X130203000Y-45875000D02*
X128425000Y-45875000D01*
X128425000Y-45875000D02*
X128425000Y-44097000D01*
X128425000Y-34953000D02*
X128425000Y-33175000D01*
X128425000Y-33175000D02*
X130203000Y-33175000D01*
X139347000Y-33175000D02*
X141125000Y-33175000D01*
X141125000Y-33175000D02*
X141125000Y-34953000D01*
X141125000Y-44097000D02*
X141125000Y-45875000D01*
X160175000Y-45875000D02*
X158397000Y-45875000D01*
X149253000Y-45875000D02*
X147475000Y-45875000D01*
X147475000Y-45875000D02*
X147475000Y-44097000D01*
X147475000Y-34953000D02*
X147475000Y-33175000D01*
X147475000Y-33175000D02*
X149253000Y-33175000D01*
X158397000Y-33175000D02*
X160175000Y-33175000D01*
X160175000Y-33175000D02*
X160175000Y-34953000D01*
X160175000Y-44097000D02*
X160175000Y-45875000D01*
X179225000Y-45875000D02*
X177447000Y-45875000D01*
X168303000Y-45875000D02*
X166525000Y-45875000D01*
X166525000Y-45875000D02*
X166525000Y-44097000D01*
X166525000Y-34953000D02*
X166525000Y-33175000D01*
X166525000Y-33175000D02*
X168303000Y-33175000D01*
X177447000Y-33175000D02*
X179225000Y-33175000D01*
X179225000Y-33175000D02*
X179225000Y-34953000D01*
X179225000Y-44097000D02*
X179225000Y-45875000D01*
X198275000Y-45875000D02*
X196497000Y-45875000D01*
X187353000Y-45875000D02*
X185575000Y-45875000D01*
X185575000Y-45875000D02*
X185575000Y-44097000D01*
X185575000Y-34953000D02*
X185575000Y-33175000D01*
X185575000Y-33175000D02*
X187353000Y-33175000D01*
X196497000Y-33175000D02*
X198275000Y-33175000D01*
X198275000Y-33175000D02*
X198275000Y-34953000D01*
X198275000Y-44097000D02*
X198275000Y-45875000D01*
X217325000Y-45875000D02*
X215547000Y-45875000D01*
X206403000Y-45875000D02*
X204625000Y-45875000D01*
X204625000Y-45875000D02*
X204625000Y-44097000D01*
X204625000Y-34953000D02*
X204625000Y-33175000D01*
X204625000Y-33175000D02*
X206403000Y-33175000D01*
X215547000Y-33175000D02*
X217325000Y-33175000D01*
X217325000Y-33175000D02*
X217325000Y-34953000D01*
X217325000Y-44097000D02*
X217325000Y-45875000D01*
X236375000Y-45875000D02*
X234597000Y-45875000D01*
X225453000Y-45875000D02*
X223675000Y-45875000D01*
X223675000Y-45875000D02*
X223675000Y-44097000D01*
X223675000Y-34953000D02*
X223675000Y-33175000D01*
X223675000Y-33175000D02*
X225453000Y-33175000D01*
X234597000Y-33175000D02*
X236375000Y-33175000D01*
X236375000Y-33175000D02*
X236375000Y-34953000D01*
X236375000Y-44097000D02*
X236375000Y-45875000D01*
X48256250Y-64925000D02*
X46478250Y-64925000D01*
X37334250Y-64925000D02*
X35556250Y-64925000D01*
X35556250Y-64925000D02*
X35556250Y-63147000D01*
X35556250Y-54003000D02*
X35556250Y-52225000D01*
X35556250Y-52225000D02*
X37334250Y-52225000D01*
X46478250Y-52225000D02*
X48256250Y-52225000D01*
X48256250Y-52225000D02*
X48256250Y-54003000D01*
X48256250Y-63147000D02*
X48256250Y-64925000D01*
X69687500Y-64925000D02*
X67909500Y-64925000D01*
X58765500Y-64925000D02*
X56987500Y-64925000D01*
X56987500Y-64925000D02*
X56987500Y-63147000D01*
X56987500Y-54003000D02*
X56987500Y-52225000D01*
X56987500Y-52225000D02*
X58765500Y-52225000D01*
X67909500Y-52225000D02*
X69687500Y-52225000D01*
X69687500Y-52225000D02*
X69687500Y-54003000D01*
X69687500Y-63147000D02*
X69687500Y-64925000D01*
X88737500Y-64925000D02*
X86959500Y-64925000D01*
X77815500Y-64925000D02*
X76037500Y-64925000D01*
X76037500Y-64925000D02*
X76037500Y-63147000D01*
X76037500Y-54003000D02*
X76037500Y-52225000D01*
X76037500Y-52225000D02*
X77815500Y-52225000D01*
X86959500Y-52225000D02*
X88737500Y-52225000D01*
X88737500Y-52225000D02*
X88737500Y-54003000D01*
X88737500Y-63147000D02*
X88737500Y-64925000D01*
X107787500Y-64925000D02*
X106009500Y-64925000D01*
X96865500Y-64925000D02*
X95087500Y-64925000D01*
X95087500Y-64925000D02*
X95087500Y-63147000D01*
X95087500Y-54003000D02*
X95087500Y-52225000D01*
X95087500Y-52225000D02*
X96865500Y-52225000D01*
X106009500Y-52225000D02*
X107787500Y-52225000D01*
X107787500Y-52225000D02*
X107787500Y-54003000D01*
X107787500Y-63147000D02*
X107787500Y-64925000D01*
X126837500Y-64925000D02*
X125059500Y-64925000D01*
X115915500Y-64925000D02*
X114137500Y-64925000D01*
X114137500Y-64925000D02*
X114137500Y-63147000D01*
X114137500Y-54003000D02*
X114137500Y-52225000D01*
X114137500Y-52225000D02*
X115915500Y-52225000D01*
X125059500Y-52225000D02*
X126837500Y-52225000D01*
X126837500Y-52225000D02*
X126837500Y-54003000D01*
X126837500Y-63147000D02*
X126837500Y-64925000D01*
X145887500Y-64925000D02*
X144109500Y-64925000D01*
X134965500Y-64925000D02*
X133187500Y-64925000D01*
X133187500Y-64925000D02*
X133187500Y-63147000D01*
X133187500Y-54003000D02*
X133187500Y-52225000D01*
X133187500Y-52225000D02*
X134965500Y-52225000D01*
X144109500Y-52225000D02*
X145887500Y-52225000D01*
X145887500Y-52225000D02*
X145887500Y-54003000D01*
X145887500Y-63147000D02*
X145887500Y-64925000D01*
X164937500Y-64925000D02*
X163159500Y-64925000D01*
X154015500Y-64925000D02*
X152237500Y-64925000D01*
X152237500Y-64925000D02*
X152237500Y-63147000D01*
X152237500Y-54003000D02*
X152237500Y-52225000D01*
X152237500Y-52225000D02*
X154015500Y-52225000D01*
X163159500Y-52225000D02*
X164937500Y-52225000D01*
X164937500Y-52225000D02*
X164937500Y-54003000D01*
X164937500Y-63147000D02*
X164937500Y-64925000D01*
X183987500Y-64925000D02*
X182209500Y-64925000D01*
X173065500Y-64925000D02*
X171287500Y-64925000D01*
X171287500Y-64925000D02*
X171287500Y-63147000D01*
X171287500Y-54003000D02*
X171287500Y-52225000D01*
X171287500Y-52225000D02*
X173065500Y-52225000D01*
X182209500Y-52225000D02*
X183987500Y-52225000D01*
X183987500Y-52225000D02*
X183987500Y-54003000D01*
X183987500Y-63147000D02*
X183987500Y-64925000D01*
X203037500Y-64925000D02*
X201259500Y-64925000D01*
X192115500Y-64925000D02*
X190337500Y-64925000D01*
X190337500Y-64925000D02*
X190337500Y-63147000D01*
X190337500Y-54003000D02*
X190337500Y-52225000D01*
X190337500Y-52225000D02*
X192115500Y-52225000D01*
X201259500Y-52225000D02*
X203037500Y-52225000D01*
X203037500Y-52225000D02*
X203037500Y-54003000D01*
X203037500Y-63147000D02*
X203037500Y-64925000D01*
X222087500Y-64925000D02*
X220309500Y-64925000D01*
X211165500Y-64925000D02*
X209387500Y-64925000D01*
X209387500Y-64925000D02*
X209387500Y-63147000D01*
X209387500Y-54003000D02*
X209387500Y-52225000D01*
X209387500Y-52225000D02*
X211165500Y-52225000D01*
X220309500Y-52225000D02*
X222087500Y-52225000D01*
X222087500Y-52225000D02*
X222087500Y-54003000D01*
X222087500Y-63147000D02*
X222087500Y-64925000D01*
X248281250Y-64925000D02*
X246503250Y-64925000D01*
X237359250Y-64925000D02*
X235581250Y-64925000D01*
X235581250Y-64925000D02*
X235581250Y-63147000D01*
X235581250Y-54003000D02*
X235581250Y-52225000D01*
X235581250Y-52225000D02*
X237359250Y-52225000D01*
X246503250Y-52225000D02*
X248281250Y-52225000D01*
X248281250Y-52225000D02*
X248281250Y-54003000D01*
X248281250Y-63147000D02*
X248281250Y-64925000D01*
X53018750Y-83975000D02*
X51240750Y-83975000D01*
X42096750Y-83975000D02*
X40318750Y-83975000D01*
X40318750Y-83975000D02*
X40318750Y-82197000D01*
X40318750Y-73053000D02*
X40318750Y-71275000D01*
X40318750Y-71275000D02*
X42096750Y-71275000D01*
X51240750Y-71275000D02*
X53018750Y-71275000D01*
X53018750Y-71275000D02*
X53018750Y-73053000D01*
X53018750Y-82197000D02*
X53018750Y-83975000D01*
X79212500Y-83975000D02*
X77434500Y-83975000D01*
X68290500Y-83975000D02*
X66512500Y-83975000D01*
X66512500Y-83975000D02*
X66512500Y-82197000D01*
X66512500Y-73053000D02*
X66512500Y-71275000D01*
X66512500Y-71275000D02*
X68290500Y-71275000D01*
X77434500Y-71275000D02*
X79212500Y-71275000D01*
X79212500Y-71275000D02*
X79212500Y-73053000D01*
X79212500Y-82197000D02*
X79212500Y-83975000D01*
X98262500Y-83975000D02*
X96484500Y-83975000D01*
X87340500Y-83975000D02*
X85562500Y-83975000D01*
X85562500Y-83975000D02*
X85562500Y-82197000D01*
X85562500Y-73053000D02*
X85562500Y-71275000D01*
X85562500Y-71275000D02*
X87340500Y-71275000D01*
X96484500Y-71275000D02*
X98262500Y-71275000D01*
X98262500Y-71275000D02*
X98262500Y-73053000D01*
X98262500Y-82197000D02*
X98262500Y-83975000D01*
X117312500Y-83975000D02*
X115534500Y-83975000D01*
X106390500Y-83975000D02*
X104612500Y-83975000D01*
X104612500Y-83975000D02*
X104612500Y-82197000D01*
X104612500Y-73053000D02*
X104612500Y-71275000D01*
X104612500Y-71275000D02*
X106390500Y-71275000D01*
X115534500Y-71275000D02*
X117312500Y-71275000D01*
X117312500Y-71275000D02*
X117312500Y-73053000D01*
X117312500Y-82197000D02*
X117312500Y-83975000D01*
X136362500Y-83975000D02*
X134584500Y-83975000D01*
X125440500Y-83975000D02*
X123662500Y-83975000D01*
X123662500Y-83975000D02*
X123662500Y-82197000D01*
X123662500Y-73053000D02*
X123662500Y-71275000D01*
X123662500Y-71275000D02*
X125440500Y-71275000D01*
X134584500Y-71275000D02*
X136362500Y-71275000D01*
X136362500Y-71275000D02*
X136362500Y-73053000D01*
X136362500Y-82197000D02*
X136362500Y-83975000D01*
X155412500Y-83975000D02*
X153634500Y-83975000D01*
X144490500Y-83975000D02*
X142712500Y-83975000D01*
X142712500Y-83975000D02*
X142712500Y-82197000D01*
X142712500Y-73053000D02*
X142712500Y-71275000D01*
X142712500Y-71275000D02*
X144490500Y-71275000D01*
X153634500Y-71275000D02*
X155412500Y-71275000D01*
X155412500Y-71275000D02*
X155412500Y-73053000D01*
X155412500Y-82197000D02*
X155412500Y-83975000D01*
X174462500Y-83975000D02*
X172684500Y-83975000D01*
X163540500Y-83975000D02*
X161762500Y-83975000D01*
X161762500Y-83975000D02*
X161762500Y-82197000D01*
X161762500Y-73053000D02*
X161762500Y-71275000D01*
X161762500Y-71275000D02*
X163540500Y-71275000D01*
X172684500Y-71275000D02*
X174462500Y-71275000D01*
X174462500Y-71275000D02*
X174462500Y-73053000D01*
X174462500Y-82197000D02*
X174462500Y-83975000D01*
X193512500Y-83975000D02*
X191734500Y-83975000D01*
X182590500Y-83975000D02*
X180812500Y-83975000D01*
X180812500Y-83975000D02*
X180812500Y-82197000D01*
X180812500Y-73053000D02*
X180812500Y-71275000D01*
X180812500Y-71275000D02*
X182590500Y-71275000D01*
X191734500Y-71275000D02*
X193512500Y-71275000D01*
X193512500Y-71275000D02*
X193512500Y-73053000D01*
X193512500Y-82197000D02*
X193512500Y-83975000D01*
X212562500Y-83975000D02*
X210784500Y-83975000D01*
X201640500Y-83975000D02*
X199862500Y-83975000D01*
X199862500Y-83975000D02*
X199862500Y-82197000D01*
X199862500Y-73053000D02*
X199862500Y-71275000D01*
X199862500Y-71275000D02*
X201640500Y-71275000D01*
X210784500Y-71275000D02*
X212562500Y-71275000D01*
X212562500Y-71275000D02*
X212562500Y-73053000D01*
X212562500Y-82197000D02*
X212562500Y-83975000D01*
X233993750Y-83975000D02*
X232215750Y-83975000D01*
X223071750Y-83975000D02*
X221293750Y-83975000D01*
X221293750Y-83975000D02*
X221293750Y-82197000D01*
X221293750Y-73053000D02*
X221293750Y-71275000D01*
X221293750Y-71275000D02*
X223071750Y-71275000D01*
X232215750Y-71275000D02*
X233993750Y-71275000D01*
X233993750Y-71275000D02*
X233993750Y-73053000D01*
X233993750Y-82197000D02*
X233993750Y-83975000D01*
X255425000Y-83975000D02*
X253647000Y-83975000D01*
X244503000Y-83975000D02*
X242725000Y-83975000D01*
X242725000Y-83975000D02*
X242725000Y-82197000D01*
X242725000Y-73053000D02*
X242725000Y-71275000D01*
X242725000Y-71275000D02*
X244503000Y-71275000D01*
X253647000Y-71275000D02*
X255425000Y-71275000D01*
X255425000Y-71275000D02*
X255425000Y-73053000D01*
X255425000Y-82197000D02*
X255425000Y-83975000D01*
X48256250Y-103025000D02*
X46478250Y-103025000D01*
X37334250Y-103025000D02*
X35556250Y-103025000D01*
X35556250Y-103025000D02*
X35556250Y-101247000D01*
X35556250Y-92103000D02*
X35556250Y-90325000D01*
X35556250Y-90325000D02*
X37334250Y-90325000D01*
X46478250Y-90325000D02*
X48256250Y-90325000D01*
X48256250Y-90325000D02*
X48256250Y-92103000D01*
X48256250Y-101247000D02*
X48256250Y-103025000D01*
X69687500Y-103025000D02*
X67909500Y-103025000D01*
X58765500Y-103025000D02*
X56987500Y-103025000D01*
X56987500Y-103025000D02*
X56987500Y-101247000D01*
X56987500Y-92103000D02*
X56987500Y-90325000D01*
X56987500Y-90325000D02*
X58765500Y-90325000D01*
X67909500Y-90325000D02*
X69687500Y-90325000D01*
X69687500Y-90325000D02*
X69687500Y-92103000D01*
X69687500Y-101247000D02*
X69687500Y-103025000D01*
X88737500Y-103025000D02*
X86959500Y-103025000D01*
X77815500Y-103025000D02*
X76037500Y-103025000D01*
X76037500Y-103025000D02*
X76037500Y-101247000D01*
X76037500Y-92103000D02*
X76037500Y-90325000D01*
X76037500Y-90325000D02*
X77815500Y-90325000D01*
X86959500Y-90325000D02*
X88737500Y-90325000D01*
X88737500Y-90325000D02*
X88737500Y-92103000D01*
X88737500Y-101247000D02*
X88737500Y-103025000D01*
X210181250Y-103025000D02*
X208403250Y-103025000D01*
X199259250Y-103025000D02*
X197481250Y-103025000D01*
X197481250Y-103025000D02*
X197481250Y-101247000D01*
X197481250Y-92103000D02*
X197481250Y-90325000D01*
X197481250Y-90325000D02*
X199259250Y-90325000D01*
X208403250Y-90325000D02*
X210181250Y-90325000D01*
X210181250Y-90325000D02*
X210181250Y-92103000D01*
X210181250Y-101247000D02*
X210181250Y-103025000D01*
X229231250Y-103025000D02*
X227453250Y-103025000D01*
X218309250Y-103025000D02*
X216531250Y-103025000D01*
X216531250Y-103025000D02*
X216531250Y-101247000D01*
X216531250Y-92103000D02*
X216531250Y-90325000D01*
X216531250Y-90325000D02*
X218309250Y-90325000D01*
X227453250Y-90325000D02*
X229231250Y-90325000D01*
X229231250Y-90325000D02*
X229231250Y-92103000D01*
X229231250Y-101247000D02*
X229231250Y-103025000D01*
X253043750Y-103025000D02*
X251265750Y-103025000D01*
X242121750Y-103025000D02*
X240343750Y-103025000D01*
X240343750Y-103025000D02*
X240343750Y-101247000D01*
X240343750Y-92103000D02*
X240343750Y-90325000D01*
X240343750Y-90325000D02*
X242121750Y-90325000D01*
X251265750Y-90325000D02*
X253043750Y-90325000D01*
X253043750Y-90325000D02*
X253043750Y-92103000D01*
X253043750Y-101247000D02*
X253043750Y-103025000D01*
X255425000Y-45875000D02*
X253647000Y-45875000D01*
X244503000Y-45875000D02*
X242725000Y-45875000D01*
X242725000Y-45875000D02*
X242725000Y-44097000D01*
X242725000Y-34953000D02*
X242725000Y-33175000D01*
X242725000Y-33175000D02*
X244503000Y-33175000D01*
X253647000Y-33175000D02*
X255425000Y-33175000D01*
X255425000Y-33175000D02*
X255425000Y-34953000D01*
X255425000Y-44097000D02*
X255425000Y-45875000D01*
X231612500Y-83975000D02*
X229834500Y-83975000D01*
X220690500Y-83975000D02*
X218912500Y-83975000D01*
X218912500Y-83975000D02*
X218912500Y-82197000D01*
X218912500Y-73053000D02*
X218912500Y-71275000D01*
X218912500Y-71275000D02*
X220690500Y-71275000D01*
X229834500Y-71275000D02*
X231612500Y-71275000D01*
X231612500Y-71275000D02*
X231612500Y-73053000D01*
X231612500Y-82197000D02*
X231612500Y-83975000D01*
X253043750Y-83975000D02*
X251265750Y-83975000D01*
X242121750Y-83975000D02*
X240343750Y-83975000D01*
X240343750Y-83975000D02*
X240343750Y-82197000D01*
X240343750Y-73053000D02*
X240343750Y-71275000D01*
X240343750Y-71275000D02*
X242121750Y-71275000D01*
X251265750Y-71275000D02*
X253043750Y-71275000D01*
X253043750Y-71275000D02*
X253043750Y-73053000D01*
X253043750Y-82197000D02*
X253043750Y-83975000D01*
X91118750Y-103025000D02*
X89340750Y-103025000D01*
X80196750Y-103025000D02*
X78418750Y-103025000D01*
X78418750Y-103025000D02*
X78418750Y-101247000D01*
X78418750Y-92103000D02*
X78418750Y-90325000D01*
X78418750Y-90325000D02*
X80196750Y-90325000D01*
X89340750Y-90325000D02*
X91118750Y-90325000D01*
X91118750Y-90325000D02*
X91118750Y-92103000D01*
X91118750Y-101247000D02*
X91118750Y-103025000D01*
X231612500Y-103025000D02*
X229834500Y-103025000D01*
X220690500Y-103025000D02*
X218912500Y-103025000D01*
X218912500Y-103025000D02*
X218912500Y-101247000D01*
X218912500Y-92103000D02*
X218912500Y-90325000D01*
X218912500Y-90325000D02*
X220690500Y-90325000D01*
X229834500Y-90325000D02*
X231612500Y-90325000D01*
X231612500Y-90325000D02*
X231612500Y-92103000D01*
X231612500Y-101247000D02*
X231612500Y-103025000D01*
X124456250Y-103025000D02*
X122678250Y-103025000D01*
X113534250Y-103025000D02*
X111756250Y-103025000D01*
X111756250Y-103025000D02*
X111756250Y-101247000D01*
X111756250Y-92103000D02*
X111756250Y-90325000D01*
X111756250Y-90325000D02*
X113534250Y-90325000D01*
X122678250Y-90325000D02*
X124456250Y-90325000D01*
X124456250Y-90325000D02*
X124456250Y-92103000D01*
X124456250Y-101247000D02*
X124456250Y-103025000D01*
X172081250Y-103025000D02*
X170303250Y-103025000D01*
X161159250Y-103025000D02*
X159381250Y-103025000D01*
X159381250Y-103025000D02*
X159381250Y-101247000D01*
X159381250Y-92103000D02*
X159381250Y-90325000D01*
X159381250Y-90325000D02*
X161159250Y-90325000D01*
X170303250Y-90325000D02*
X172081250Y-90325000D01*
X172081250Y-90325000D02*
X172081250Y-92103000D01*
X172081250Y-101247000D02*
X172081250Y-103025000D01*
D13*
X-333333Y-613095D02*
X-416666Y-494048D01*
X-476190Y-613095D02*
X-476190Y-363095D01*
X-380952Y-363095D01*
X-357143Y-375000D01*
X-345238Y-386905D01*
X-333333Y-410714D01*
X-333333Y-446429D01*
X-345238Y-470238D01*
X-357143Y-482143D01*
X-380952Y-494048D01*
X-476190Y-494048D01*
X-226190Y-482143D02*
X-142857Y-482143D01*
X-107143Y-613095D02*
X-226190Y-613095D01*
X-226190Y-363095D01*
X-107143Y-363095D01*
X83333Y-482143D02*
X0Y-482143D01*
X0Y-613095D02*
X0Y-363095D01*
X119047Y-363095D01*
X250000Y-363095D02*
X250000Y-422619D01*
X190476Y-398810D02*
X250000Y-422619D01*
X309524Y-398810D01*
X214286Y-470238D02*
X250000Y-422619D01*
X285714Y-470238D01*
X440476Y-363095D02*
X440476Y-422619D01*
X380952Y-398810D02*
X440476Y-422619D01*
X500000Y-398810D01*
X404762Y-470238D02*
X440476Y-422619D01*
X476190Y-470238D01*
D14*
X47716667Y-84702381D02*
X47383333Y-84226190D01*
X47145238Y-84702381D02*
X47145238Y-83702381D01*
X47526191Y-83702381D01*
X47621429Y-83750000D01*
X47669048Y-83797619D01*
X47716667Y-83892857D01*
X47716667Y-84035714D01*
X47669048Y-84130952D01*
X47621429Y-84178571D01*
X47526191Y-84226190D01*
X47145238Y-84226190D01*
X48145238Y-84178571D02*
X48478572Y-84178571D01*
X48621429Y-84702381D02*
X48145238Y-84702381D01*
X48145238Y-83702381D01*
X48621429Y-83702381D01*
X49383334Y-84178571D02*
X49050000Y-84178571D01*
X49050000Y-84702381D02*
X49050000Y-83702381D01*
X49526191Y-83702381D01*
X50050000Y-83702381D02*
X50050000Y-83940476D01*
X49811905Y-83845238D02*
X50050000Y-83940476D01*
X50288096Y-83845238D01*
X49907143Y-84130952D02*
X50050000Y-83940476D01*
X50192858Y-84130952D01*
X50811905Y-83702381D02*
X50811905Y-83940476D01*
X50573810Y-83845238D02*
X50811905Y-83940476D01*
X51050001Y-83845238D01*
X50669048Y-84130952D02*
X50811905Y-83940476D01*
X50954763Y-84130952D01*
X142966667Y-84702381D02*
X142633333Y-84226190D01*
X142395238Y-84702381D02*
X142395238Y-83702381D01*
X142776191Y-83702381D01*
X142871429Y-83750000D01*
X142919048Y-83797619D01*
X142966667Y-83892857D01*
X142966667Y-84035714D01*
X142919048Y-84130952D01*
X142871429Y-84178571D01*
X142776191Y-84226190D01*
X142395238Y-84226190D01*
X143395238Y-84178571D02*
X143728572Y-84178571D01*
X143871429Y-84702381D02*
X143395238Y-84702381D01*
X143395238Y-83702381D01*
X143871429Y-83702381D01*
X144633334Y-84178571D02*
X144300000Y-84178571D01*
X144300000Y-84702381D02*
X144300000Y-83702381D01*
X144776191Y-83702381D01*
X145300000Y-83702381D02*
X145300000Y-83940476D01*
X145061905Y-83845238D02*
X145300000Y-83940476D01*
X145538096Y-83845238D01*
X145157143Y-84130952D02*
X145300000Y-83940476D01*
X145442858Y-84130952D01*
X146061905Y-83702381D02*
X146061905Y-83940476D01*
X145823810Y-83845238D02*
X146061905Y-83940476D01*
X146300001Y-83845238D01*
X145919048Y-84130952D02*
X146061905Y-83940476D01*
X146204763Y-84130952D01*
X238216667Y-84702381D02*
X237883333Y-84226190D01*
X237645238Y-84702381D02*
X237645238Y-83702381D01*
X238026191Y-83702381D01*
X238121429Y-83750000D01*
X238169048Y-83797619D01*
X238216667Y-83892857D01*
X238216667Y-84035714D01*
X238169048Y-84130952D01*
X238121429Y-84178571D01*
X238026191Y-84226190D01*
X237645238Y-84226190D01*
X238645238Y-84178571D02*
X238978572Y-84178571D01*
X239121429Y-84702381D02*
X238645238Y-84702381D01*
X238645238Y-83702381D01*
X239121429Y-83702381D01*
X239883334Y-84178571D02*
X239550000Y-84178571D01*
X239550000Y-84702381D02*
X239550000Y-83702381D01*
X240026191Y-83702381D01*
X240550000Y-83702381D02*
X240550000Y-83940476D01*
X240311905Y-83845238D02*
X240550000Y-83940476D01*
X240788096Y-83845238D01*
X240407143Y-84130952D02*
X240550000Y-83940476D01*
X240692858Y-84130952D01*
X241311905Y-83702381D02*
X241311905Y-83940476D01*
X241073810Y-83845238D02*
X241311905Y-83940476D01*
X241550001Y-83845238D01*
X241169048Y-84130952D02*
X241311905Y-83940476D01*
X241454763Y-84130952D01*
X238216667Y-46602381D02*
X237883333Y-46126190D01*
X237645238Y-46602381D02*
X237645238Y-45602381D01*
X238026191Y-45602381D01*
X238121429Y-45650000D01*
X238169048Y-45697619D01*
X238216667Y-45792857D01*
X238216667Y-45935714D01*
X238169048Y-46030952D01*
X238121429Y-46078571D01*
X238026191Y-46126190D01*
X237645238Y-46126190D01*
X238645238Y-46078571D02*
X238978572Y-46078571D01*
X239121429Y-46602381D02*
X238645238Y-46602381D01*
X238645238Y-45602381D01*
X239121429Y-45602381D01*
X239883334Y-46078571D02*
X239550000Y-46078571D01*
X239550000Y-46602381D02*
X239550000Y-45602381D01*
X240026191Y-45602381D01*
X240550000Y-45602381D02*
X240550000Y-45840476D01*
X240311905Y-45745238D02*
X240550000Y-45840476D01*
X240788096Y-45745238D01*
X240407143Y-46030952D02*
X240550000Y-45840476D01*
X240692858Y-46030952D01*
X241311905Y-45602381D02*
X241311905Y-45840476D01*
X241073810Y-45745238D02*
X241311905Y-45840476D01*
X241550001Y-45745238D01*
X241169048Y-46030952D02*
X241311905Y-45840476D01*
X241454763Y-46030952D01*
X142966667Y-46602381D02*
X142633333Y-46126190D01*
X142395238Y-46602381D02*
X142395238Y-45602381D01*
X142776191Y-45602381D01*
X142871429Y-45650000D01*
X142919048Y-45697619D01*
X142966667Y-45792857D01*
X142966667Y-45935714D01*
X142919048Y-46030952D01*
X142871429Y-46078571D01*
X142776191Y-46126190D01*
X142395238Y-46126190D01*
X143395238Y-46078571D02*
X143728572Y-46078571D01*
X143871429Y-46602381D02*
X143395238Y-46602381D01*
X143395238Y-45602381D01*
X143871429Y-45602381D01*
X144633334Y-46078571D02*
X144300000Y-46078571D01*
X144300000Y-46602381D02*
X144300000Y-45602381D01*
X144776191Y-45602381D01*
X145300000Y-45602381D02*
X145300000Y-45840476D01*
X145061905Y-45745238D02*
X145300000Y-45840476D01*
X145538096Y-45745238D01*
X145157143Y-46030952D02*
X145300000Y-45840476D01*
X145442858Y-46030952D01*
X146061905Y-45602381D02*
X146061905Y-45840476D01*
X145823810Y-45745238D02*
X146061905Y-45840476D01*
X146300001Y-45745238D01*
X145919048Y-46030952D02*
X146061905Y-45840476D01*
X146204763Y-46030952D01*
D15*
X138921067Y-38822684D02*
X138921067Y-39729827D01*
X138860591Y-39911255D01*
X138739639Y-40032208D01*
X138558210Y-40092684D01*
X138437258Y-40092684D01*
X140191067Y-40092684D02*
X139465353Y-40092684D01*
X139828210Y-40092684D02*
X139828210Y-38822684D01*
X139707258Y-39004112D01*
X139586305Y-39125065D01*
X139465353Y-39185541D01*
D14*
X143498381Y-100814095D02*
X142498381Y-100814095D01*
X142498381Y-100433142D01*
X142546000Y-100337904D01*
X142593619Y-100290285D01*
X142688857Y-100242666D01*
X142831714Y-100242666D01*
X142926952Y-100290285D01*
X142974571Y-100337904D01*
X143022190Y-100433142D01*
X143022190Y-100814095D01*
X143498381Y-99290285D02*
X143498381Y-99861714D01*
X143498381Y-99576000D02*
X142498381Y-99576000D01*
X142641238Y-99671238D01*
X142736476Y-99766476D01*
X142784095Y-99861714D01*
X253769905Y-51716381D02*
X253769905Y-50716381D01*
X254150858Y-50716381D01*
X254246096Y-50764000D01*
X254293715Y-50811619D01*
X254341334Y-50906857D01*
X254341334Y-51049714D01*
X254293715Y-51144952D01*
X254246096Y-51192571D01*
X254150858Y-51240190D01*
X253769905Y-51240190D01*
X254722286Y-50811619D02*
X254769905Y-50764000D01*
X254865143Y-50716381D01*
X255103239Y-50716381D01*
X255198477Y-50764000D01*
X255246096Y-50811619D01*
X255293715Y-50906857D01*
X255293715Y-51002095D01*
X255246096Y-51144952D01*
X254674667Y-51716381D01*
X255293715Y-51716381D01*
X47716667Y-46602381D02*
X47383333Y-46126190D01*
X47145238Y-46602381D02*
X47145238Y-45602381D01*
X47526191Y-45602381D01*
X47621429Y-45650000D01*
X47669048Y-45697619D01*
X47716667Y-45792857D01*
X47716667Y-45935714D01*
X47669048Y-46030952D01*
X47621429Y-46078571D01*
X47526191Y-46126190D01*
X47145238Y-46126190D01*
X48145238Y-46078571D02*
X48478572Y-46078571D01*
X48621429Y-46602381D02*
X48145238Y-46602381D01*
X48145238Y-45602381D01*
X48621429Y-45602381D01*
X49383334Y-46078571D02*
X49050000Y-46078571D01*
X49050000Y-46602381D02*
X49050000Y-45602381D01*
X49526191Y-45602381D01*
X50050000Y-45602381D02*
X50050000Y-45840476D01*
X49811905Y-45745238D02*
X50050000Y-45840476D01*
X50288096Y-45745238D01*
X49907143Y-46030952D02*
X50050000Y-45840476D01*
X50192858Y-46030952D01*
X50811905Y-45602381D02*
X50811905Y-45840476D01*
X50573810Y-45745238D02*
X50811905Y-45840476D01*
X51050001Y-45745238D01*
X50669048Y-46030952D02*
X50811905Y-45840476D01*
X50954763Y-46030952D01*
M02*
